# Created by DisUnity v0.3.4
v -0.5031933 4.740642E-10 -0.80459094
v -0.08050412 0.7578987 -0.7497433
v -1.0258453 -2.3703203E-10 -0.18984805
v -1.0258453 -2.3703203E-10 -0.18984805
v -0.0842034 0.55592924 -0.14237103
v -0.4688912 4.7406407E-10 0.6544381
v -0.4688912 4.7406407E-10 0.6544381
v 0.1169859 0.86379874 0.30338514
v 0.72030413 4.7406407E-10 0.65256983
v 0.72030413 4.7406407E-10 0.65256983
v 0.1169859 0.86379874 0.30338514
v -0.0842034 0.55592924 -0.14237103
v 0.72030413 4.7406407E-10 0.65256983
v -0.0842034 0.55592924 -0.14237103
v 0.45290384 0.3686206 -0.19952497
v -0.08050412 0.7578987 -0.7497433
v -0.4688912 4.7406407E-10 0.6544381
v -0.0842034 0.55592924 -0.14237103
v 0.1169859 0.86379874 0.30338514
v 0.69519967 4.740642E-10 -0.3312333
v -0.08050412 0.7578987 -0.7497433
v 0.005418773 4.740642E-10 -0.997116
v 0.45290384 0.3686206 -0.19952497
v 0.69519967 4.740642E-10 -0.3312333
v 0.72030413 4.7406407E-10 0.65256983
v -0.08050412 0.7578987 -0.7497433
v -0.5031933 4.740642E-10 -0.80459094
v 0.005418773 4.740642E-10 -0.997116
v -0.0842034 0.55592924 -0.14237103
v -1.0258453 -2.3703203E-10 -0.18984805
v -0.08050412 0.7578987 -0.7497433
v 0.69519967 4.740642E-10 -0.3312333
v 0.45290384 0.3686206 -0.19952497
v -0.08050412 0.7578987 -0.7497433
vn -0.68903434 0.426677 -0.5858143
vn -0.68903434 0.426677 -0.5858143
vn -0.68903434 0.426677 -0.58581424
vn -0.49287352 0.80707014 0.32513615
vn -0.49287352 0.8070701 0.32513618
vn -0.49287355 0.80707014 0.32513618
vn 0.0014559523 0.375653 0.9267593
vn 0.0014559524 0.37565297 0.9267593
vn 0.0014559525 0.375653 0.9267593
vn 0.7679764 0.3097817 -0.5605778
vn 0.7679765 0.30978173 -0.5605778
vn 0.7679765 0.30978176 -0.5605778
vn 0.34254318 0.8966788 0.28041264
vn 0.34254315 0.8966788 0.2804126
vn 0.34254315 0.8966788 0.28041258
vn 0.3424404 0.89091367 0.2983411
vn -0.82963246 0.55819994 -0.011081394
vn -0.82963246 0.55819994 -0.011081394
vn -0.82963246 0.55819994 -0.011081393
vn 0.66271704 0.29920143 -0.6865016
vn 0.6627171 0.29920143 -0.68650156
vn 0.6627171 0.29920143 -0.68650156
vn 0.83195686 0.554434 -0.021229664
vn 0.83195686 0.554434 -0.021229664
vn 0.8319568 0.554434 -0.021229664
vn -0.3421944 0.2562672 -0.90400773
vn -0.3421944 0.2562672 -0.90400773
vn -0.34219435 0.2562672 -0.90400773
vn -0.49950516 0.822959 0.27061617
vn -0.49950516 0.822959 0.2706162
vn -0.49950522 0.822959 0.27061617
vn 0.7445353 0.596494 -0.29976997
vn 0.7445353 0.596494 -0.29976997
vn 0.7445353 0.596494 -0.29976997
vt 0.9782951 0.63006735
vt 0.9842465 0.6345811
vt 0.97278476 0.6342722
vt 0.47376585 0.90727675
vt 0.48185384 0.91207135
vt 0.47376585 0.9159653
vt 0.6735648 0.9076178
vt 0.66852725 0.9156246
vt 0.6633493 0.9076178
vt 0.99759257 0.011517882
vt 0.9888967 0.015429378
vt 0.9867823 0.01093781
vt 0.3385415 0.006386876
vt 0.32772112 0.00673306
vt 0.33095014 0.0030325651
vt 0.32356787 0.0031313896
vt 0.8988893 0.011869073
vt 0.90771174 0.010213256
vt 0.90775144 0.015177369
vt 0.99679375 0.6464908
vt 0.9895027 0.6533139
vt 0.9885579 0.6464908
vt 0.88805234 0.01380384
vt 0.8893584 0.010071039
vt 0.8962748 0.014932275
vt 0.9970201 0.68611825
vt 0.99028456 0.6893475
vt 0.99028456 0.6846758
vt 0.48185384 0.91207135
vt 0.47376585 0.90727675
vt 0.4852184 0.9077337
vt 0.8893584 0.010071039
vt 0.88805234 0.01380384
vt 0.88106894 0.015319586

g Bush2
s 1
usemtl Bush2
f 3/3/3 2/2/2 1/1/1 
f 6/6/6 5/5/5 4/4/4 
f 9/9/9 8/8/8 7/7/7 
f 12/12/12 11/11/11 10/10/10 
f 15/15/15 14/14/14 13/13/13 
f 16/16/16 14/14/14 15/15/15 
f 19/19/19 18/18/18 17/17/17 
f 22/22/22 21/21/21 20/20/20 
f 25/25/25 24/24/24 23/23/23 
f 28/28/28 27/27/27 26/26/26 
f 31/31/31 30/30/30 29/29/29 
f 34/34/34 33/33/33 32/32/32 

