# Created by DisUnity v0.3.4
v 0.53093135 0.70117396 -0.30911547
v 0.1657863 1.2001201E-4 -0.33371857
v 0.28733873 4.471779E-4 -0.020134663
v 0.041999266 4.4716598E-4 -0.050859086
v 0.53093135 0.70117396 -0.30911547
v 0.08185934 4.4716598E-4 -0.03533916
v 0.1657863 1.2001201E-4 -0.33371857
v 0.28733873 4.471779E-4 -0.020134663
v 0.08185934 4.4716598E-4 -0.03533916
v 0.53093135 0.70117396 -0.30911547
v 0.12089933 4.4716598E-4 -0.022633845
v 0.12089933 4.4716598E-4 -0.022633845
v 0.5621691 0.72763336 0.21856762
v 0.08447847 4.4716598E-4 0.023177868
v 0.28733873 4.471779E-4 -0.020134663
v 0.18651868 4.471779E-4 0.28239408
v 0.08447847 4.4716598E-4 0.023177868
v 0.5621691 0.72763336 0.21856762
v 0.05422454 4.4716598E-4 0.045621306
v 0.5621691 0.72763336 0.21856762
v 0.28733873 4.471779E-4 -0.020134663
v 0.18651868 4.471779E-4 0.28239408
v 0.1311733 0.6647592 0.55560637
v 0.05422454 4.4716598E-4 0.045621306
v 0.18651868 4.471779E-4 0.28239408
v 0.05422454 4.4716598E-4 0.045621306
v 0.1311733 0.6647592 0.55560637
v 0.0104626 4.4716598E-4 0.08210947
v -0.14687608 0.001236385 0.3041487
v 0.0104626 4.4716598E-4 0.08210947
v 0.1311733 0.6647592 0.55560637
v -0.019569887 4.4716598E-4 0.10614578
v 0.1311733 0.6647592 0.55560637
v 0.18651868 4.471779E-4 0.28239408
v -0.14687608 0.001236385 0.3041487
v -0.56217045 0.46238947 0.30244827
v -0.019569887 4.4716598E-4 0.10614578
v -0.14687608 0.001236385 0.3041487
v -0.030872574 4.4716598E-4 0.079597555
v -0.38019142 -3.319781E-10 0.04936325
v -0.030872574 4.4716598E-4 0.079597555
v -0.56217045 0.46238947 0.30244827
v -0.03726668 4.4716598E-4 0.05045593
v -0.56217045 0.46238947 0.30244827
v -0.14687608 0.001236385 0.3041487
v -0.38019142 -3.319781E-10 0.04936325
v -0.37324253 0.65104043 -0.29719085
v -0.03726668 4.4716598E-4 0.05045593
v -0.38019142 -3.319781E-10 0.04936325
v -0.04127692 4.4716598E-4 -0.013131001
v -0.14336668 9.077437E-4 -0.30562675
v -0.04127692 4.4716598E-4 -0.013131001
v -0.37324253 0.65104043 -0.29719085
v -0.036953356 4.4716598E-4 -0.0802495
v -0.37324253 0.65104043 -0.29719085
v -0.38019142 -3.319781E-10 0.04936325
v -0.14336668 9.077437E-4 -0.30562675
v 0.0064259972 4.4716598E-4 -0.06591021
v 0.1657863 1.2001201E-4 -0.33371857
v 0.041999266 4.4716598E-4 -0.050859086
v 0.037706356 0.72746307 -0.5556104
v 0.037706356 0.72746307 -0.5556104
v -0.14336668 9.077437E-4 -0.30562675
v 0.1657863 1.2001201E-4 -0.33371857
v 0.0064259972 4.4716598E-4 -0.06591021
v -0.14336668 9.077437E-4 -0.30562675
v 0.037706356 0.72746307 -0.5556104
v -0.036953356 4.4716598E-4 -0.0802495
v 0.0330194 0.92006606 0.0024614574
v 0.21117342 1.1868217E-8 -0.040415082
v -0.040166687 1.1868217E-8 0.18975453
v 0.0330194 0.92006606 0.0024614574
v -0.083778575 1.1868217E-8 -0.1413316
v 0.21117342 1.1868217E-8 -0.040415082
v 0.0330194 0.92006606 0.0024614574
v -0.040166687 1.1868217E-8 0.18975453
v -0.083778575 1.1868217E-8 -0.1413316
vn 0.84296894 -0.42767137 -0.3263444
vn 0.8429874 -0.42761463 -0.32637078
vn 0.8430001 -0.42762142 -0.32632935
vn -0.82210433 0.44083825 -0.36028612
vn -0.82209027 0.4408355 -0.36032164
vn -0.31158966 0.5123497 0.80025595
vn -0.8221004 0.44083464 -0.36029965
vn -0.0 1.0 0.0
vn -0.0 1.0 0.0
vn -0.067591704 0.40025735 0.9139067
vn -0.0 1.0 0.0
vn 0.014305103 0.30697116 -0.9516112
vn 0.014281451 0.3068962 -0.95163584
vn -0.6468664 0.5631094 -0.5142681
vn 0.014328942 0.30697095 -0.951611
vn -0.0 1.0 0.0
vn -0.0 1.0 0.0
vn -0.82802117 0.4562473 0.3259131
vn -0.0 1.0 0.0
vn 0.8611936 -0.41952223 0.28696123
vn 0.8611363 -0.41964513 0.28695306
vn 0.86112756 -0.4196644 0.28695112
vn -0.53351384 0.55305815 -0.6399138
vn -0.53353965 0.55304766 -0.6399013
vn 0.84207875 0.26366127 -0.470517
vn -0.53353965 0.55304766 -0.6399013
vn -0.53351384 0.55305815 -0.6399138
vn -0.5335363 0.55304444 -0.6399068
vn -0.006544592 0.99994504 -0.00818968
vn -0.0065714116 0.9999447 -0.008210538
vn -0.7107074 0.48937762 -0.5053755
vn -0.006571412 0.99994457 -0.008225441
vn 0.059467703 -0.37541485 0.9249472
vn 0.05943786 -0.37545043 0.9249347
vn 0.059485402 -0.3754485 0.9249324
vn 0.57552177 0.78020525 -0.24505989
vn 0.5755547 0.78018886 -0.24503483
vn 0.67054373 0.60545444 0.42871454
vn 0.5755547 0.78018886 -0.24503483
vn -0.0013589859 0.99999905 2.8908256E-4
vn -0.0013083222 0.99999917 2.9504305E-4
vn 0.07395728 0.50101167 -0.86227465
vn -0.0013083222 0.99999917 2.8610232E-4
vn -0.6141698 -0.55096465 0.56500757
vn -0.61410344 -0.5509715 0.5650729
vn -0.61416537 -0.5509492 0.56502736
vn 0.89911866 0.43401453 -0.056719437
vn 0.89911884 0.43401587 -0.05670492
vn -0.0034570666 0.46990845 0.8827084
vn 0.89911884 0.43401587 -0.05670492
vn 0.0038146975 0.9999927 1.9073488E-4
vn 0.0037968163 0.99999285 2.5033954E-4
vn 0.8945535 0.32029402 -0.31174663
vn 0.0038087368 0.9999927 2.503395E-4
vn -0.79930025 -0.27570793 -0.53395164
vn -0.799303 -0.27569646 -0.5339535
vn -0.7992982 -0.27569315 -0.5339622
vn 0.8216158 0.2937219 0.48854357
vn 0.8216024 0.29371995 0.48856747
vn 4.127622E-4 0.9999995 -9.775163E-4
vn 0.8215914 0.29378238 0.48854846
vn -0.086957835 -0.30451038 -0.9485313
vn -0.086963475 -0.30466864 -0.94848007
vn -0.08695037 -0.30463818 -0.948491
vn -7.9572207E-4 0.9999968 0.0024318695
vn -8.225442E-4 0.9999969 0.0023603444
vn -0.7887139 0.36639884 0.49364185
vn -7.9572207E-4 0.9999968 0.0024318695
vn 0.67225593 0.09589182 0.7340822
vn 0.67225236 0.09595883 0.7340768
vn 0.6722548 0.09596045 0.73407435
vn 0.32189396 0.10604877 -0.94081765
vn 0.32190132 0.106172346 -0.9408012
vn 0.3219005 0.10617091 -0.9408016
vn -0.9859762 0.10480856 0.12986927
vn -0.9859703 0.104866534 0.12986688
vn -0.98597217 0.10486523 0.12985443
vt 0.6870768 0.09301317
vt 0.6449544 0.101418495
vt 0.64497405 0.08315182
vt 0.41486168 0.044027925
vt 0.36638844 0.043146133
vt 0.41393244 0.04331839
vt 0.40648496 0.058416367
vt 0.7623233 0.038605332
vt 0.756971 0.028777242
vt 0.8045523 0.02931261
vt 0.75781476 0.030783653
vt 0.99453926 0.54976535
vt 0.9465231 0.549106
vt 0.99488306 0.5471972
vt 0.98988664 0.5572951
vt 0.81309104 0.044151425
vt 0.8182156 0.058387637
vt 0.7699203 0.055177093
vt 0.81894696 0.057558537
vt 0.8025181 0.07139206
vt 0.7590052 0.07897246
vt 0.7590052 0.06165254
vt 0.68761015 0.54599625
vt 0.7332883 0.5457247
vt 0.7249025 0.5574955
vt 0.7332883 0.5457247
vt 0.68761015 0.54599625
vt 0.7322999 0.5450436
vt 0.9040346 0.044324458
vt 0.9090873 0.058214605
vt 0.8643502 0.05608213
vt 0.90867627 0.056227207
vt 0.99700356 0.1315862
vt 0.9580745 0.13553798
vt 0.95812076 0.11739159
vt 0.9439008 0.55626214
vt 0.9037554 0.556088
vt 0.91175723 0.54615855
vt 0.90381765 0.5573571
vt 0.8490213 0.044154525
vt 0.8616771 0.058384538
vt 0.82161415 0.05698061
vt 0.8619796 0.057469964
vt 0.95596486 0.12001777
vt 0.9259515 0.13535833
vt 0.9258711 0.11659467
vt 0.882844 0.13312042
vt 0.92379653 0.116963506
vt 0.92273617 0.13532782
vt 0.9219738 0.11662537
vt 0.732893 0.058163345
vt 0.7248219 0.043399096
vt 0.7673656 0.043574393
vt 0.7259898 0.046594977
vt 0.8805443 0.11280161
vt 0.84746945 0.13540334
vt 0.8430885 0.11264348
vt 0.41785407 0.04334438
vt 0.42593265 0.05821812
vt 0.417372 0.043931127
vt 0.4654404 0.044449806
vt 0.9665296 0.068873286
vt 0.92706776 0.07870805
vt 0.92702496 0.061916947
vt 0.9588654 0.044395328
vt 0.9520323 0.058143735
vt 0.9112518 0.044985533
vt 0.9585835 0.046386957
vt 0.98994565 0.8740816
vt 0.93974197 0.8827903
vt 0.93974197 0.86428
vt 0.9245422 0.07024789
vt 0.87428606 0.07877827
vt 0.87428606 0.061846614
vt 0.28084528 0.068642974
vt 0.23087323 0.07881558
vt 0.23087323 0.060833097

g Bush_1
s 1
usemtl Bush_1
f 3/3/3 2/2/2 1/1/1 
f 6/6/6 5/5/5 4/4/4 
f 7/7/7 4/4/4 5/5/5 
f 10/10/10 9/9/9 8/8/8 
f 11/11/11 8/8/8 9/9/9 
f 14/14/14 13/13/13 12/12/12 
f 15/15/15 12/12/12 13/13/13 
f 18/18/18 17/17/17 16/16/16 
f 19/19/19 16/16/16 17/17/17 
f 22/22/22 21/21/21 20/20/20 
f 25/25/25 24/24/24 23/23/23 
f 28/28/28 27/27/27 26/26/26 
f 31/31/31 30/30/30 29/29/29 
f 32/32/32 29/29/29 30/30/30 
f 35/35/35 34/34/34 33/33/33 
f 38/38/38 37/37/37 36/36/36 
f 39/39/39 36/36/36 37/37/37 
f 42/42/42 41/41/41 40/40/40 
f 43/43/43 40/40/40 41/41/41 
f 46/46/46 45/45/45 44/44/44 
f 49/49/49 48/48/48 47/47/47 
f 50/50/50 47/47/47 48/48/48 
f 53/53/53 52/52/52 51/51/51 
f 54/54/54 51/51/51 52/52/52 
f 57/57/57 56/56/56 55/55/55 
f 60/60/60 59/59/59 58/58/58 
f 61/61/61 58/58/58 59/59/59 
f 64/64/64 63/63/63 62/62/62 
f 67/67/67 66/66/66 65/65/65 
f 68/68/68 65/65/65 66/66/66 
f 71/71/71 70/70/70 69/69/69 
f 74/74/74 73/73/73 72/72/72 
f 77/77/77 76/76/76 75/75/75 

