# Created by DisUnity v0.3.4
v 0.6154337 0.058994815 -2.331945
v -0.24140853 10.847068 -2.1807234
v 0.18893145 0.058994792 -2.9330194
v -0.24140853 10.847068 -2.1807234
v -0.9662072 9.669712 -1.58489
v -0.51917434 0.058994792 -2.5046258
v -0.9662072 9.669712 -1.58489
v -1.6959033 5.531604 -1.1309932
v -1.3295498 0.058994785 -2.302468
v -1.6959033 5.531604 -1.1309932
v -2.4606678 0.058994807 -0.66005665
v -1.8850884 0.058994792 -1.6714382
v -0.9662072 9.669712 -1.58489
v -1.5255374 11.060019 -0.45753562
v 1.8537925 0.05899484 -2.0905433
v 1.0101566 6.526029 -1.5302156
v 1.2780718 0.05899482 -2.584854
v 1.0101566 6.526029 -1.5302156
v 0.18873885 8.794021 -1.2799982
v 0.6154337 0.058994815 -2.331945
v 0.18873885 8.794021 -1.2799982
v -0.6562793 12.170722 -0.99717253
v -0.24140853 10.847068 -2.1807234
v -0.6562793 12.170722 -0.99717253
v -1.5255374 11.060019 -0.45753562
v -0.9662072 9.669712 -1.58489
v -1.5255374 11.060019 -0.45753562
v -2.189724 0.058994833 0.11690094
v -1.6959033 5.531604 -1.1309932
v 2.2199466 0.058994863 -1.2816868
v 1.3792882 9.260353 -0.7963326
v 1.8537925 0.05899484 -2.0905433
v 2.2759373 4.532089 -0.1362576
v 1.3792882 9.260353 -0.7963326
v 0.7361748 11.141857 -0.4559384
v 1.0101566 6.526029 -1.5302156
v 0.7361748 11.141857 -0.4559384
v -0.12809086 13.296076 -0.028305272
v 0.18873885 8.794021 -1.2799982
v -0.12809086 13.296076 -0.028305272
v -0.8258018 9.280223 0.39992562
v -0.6562793 12.170722 -0.99717253
v -0.8258018 9.280223 0.39992562
v -1.4584254 0.058994863 0.7977439
v -1.5255374 11.060019 -0.45753562
v -2.189724 0.058994833 0.11690094
v 2.4730778 0.05899489 -0.5060779
v 2.2759373 4.532089 -0.1362576
v 2.2199466 0.058994863 -1.2816868
v 2.2759373 4.532089 -0.1362576
v 1.2117034 7.57443 0.3647061
v 1.3792882 9.260353 -0.7963326
v 0.7361748 11.141857 -0.4559384
v 1.2117034 7.57443 0.3647061
v 0.6464978 9.402795 1.437708
v 0.7361748 11.141857 -0.4559384
v 0.6464978 9.402795 1.437708
v -0.40623853 5.2107477 1.3562167
v -0.12809086 13.296076 -0.028305272
v -0.40623853 5.2107477 1.3562167
v -1.2037021 3.7351732 1.7787086
v -0.8258018 9.280223 0.39992562
v -1.2037021 3.7351732 1.7787086
v -1.719224 0.05899489 1.9379654
v -1.4584254 0.058994863 0.7977439
v 2.8772151 0.05899491 0.18555984
v 2.28195 2.396448 0.6123884
v 2.4730778 0.05899489 -0.5060779
v 2.28195 2.396448 0.6123884
v 1.8119121 2.9037352 1.2569997
v 2.2759373 4.532089 -0.1362576
v 1.8119121 2.9037352 1.2569997
v 0.9875443 3.7549326 1.6523976
v 1.2117034 7.57443 0.3647061
v 0.9875443 3.7549326 1.6523976
v 0.22969675 3.8982108 2.3276708
v 0.6464978 9.402795 1.437708
v 0.22969675 3.8982108 2.3276708
v -0.6759489 5.1603603 2.5310931
v -0.40623853 5.2107477 1.3562167
v -0.6759489 5.1603603 2.5310931
v -1.3394316 0.058994915 2.708952
v -1.2037021 3.7351732 1.7787086
v 2.6365776 0.058994934 1.3036468
v 1.8861349 0.058994934 1.6745664
v 2.28195 2.396448 0.6123884
v 1.8861349 0.058994934 1.6745664
v 1.3124254 0.05899494 2.2442846
v 1.8119121 2.9037352 1.2569997
v 1.3124254 0.05899494 2.2442846
v 0.6002852 0.05899494 2.5985599
v 0.9875443 3.7549326 1.6523976
v 0.6002852 0.05899494 2.5985599
v -0.17076215 0.058994934 2.9113278
v 0.22969675 3.8982108 2.3276708
v -0.6759489 5.1603603 2.5310931
v -0.17076215 0.058994934 2.9113278
v -0.9067135 0.05899494 3.383894
v -0.6759489 5.1603603 2.5310931
v 0.18893145 0.058994792 -2.9330194
v -0.24140853 10.847068 -2.1807234
v -0.51917434 0.058994792 -2.5046258
v -0.51917434 0.058994792 -2.5046258
v -0.9662072 9.669712 -1.58489
v -1.3295498 0.058994785 -2.302468
v -1.3295498 0.058994785 -2.302468
v -1.6959033 5.531604 -1.1309932
v -1.8850884 0.058994792 -1.6714382
v 1.2780718 0.05899482 -2.584854
v 1.0101566 6.526029 -1.5302156
v 0.6154337 0.058994815 -2.331945
v 0.6154337 0.058994815 -2.331945
v 0.18873885 8.794021 -1.2799982
v -0.24140853 10.847068 -2.1807234
v -0.24140853 10.847068 -2.1807234
v -0.6562793 12.170722 -0.99717253
v -0.9662072 9.669712 -1.58489
v -1.6959033 5.531604 -1.1309932
v -2.189724 0.058994833 0.11690094
v -2.4606678 0.058994807 -0.66005665
v 1.8537925 0.05899484 -2.0905433
v 1.3792882 9.260353 -0.7963326
v 1.0101566 6.526029 -1.5302156
v 1.0101566 6.526029 -1.5302156
v 0.7361748 11.141857 -0.4559384
v 0.18873885 8.794021 -1.2799982
v 0.18873885 8.794021 -1.2799982
v -0.12809086 13.296076 -0.028305272
v -0.6562793 12.170722 -0.99717253
v -0.6562793 12.170722 -0.99717253
v -0.8258018 9.280223 0.39992562
v -1.5255374 11.060019 -0.45753562
v 0.7361748 11.141857 -0.4559384
v 0.6464978 9.402795 1.437708
v -0.12809086 13.296076 -0.028305272
v -0.12809086 13.296076 -0.028305272
v -0.40623853 5.2107477 1.3562167
v -0.8258018 9.280223 0.39992562
v -0.8258018 9.280223 0.39992562
v -1.2037021 3.7351732 1.7787086
v -1.4584254 0.058994863 0.7977439
v 2.4730778 0.05899489 -0.5060779
v 2.28195 2.396448 0.6123884
v 2.2759373 4.532089 -0.1362576
v 2.2759373 4.532089 -0.1362576
v 1.8119121 2.9037352 1.2569997
v 1.2117034 7.57443 0.3647061
v 1.2117034 7.57443 0.3647061
v 0.9875443 3.7549326 1.6523976
v 0.6464978 9.402795 1.437708
v 0.6464978 9.402795 1.437708
v 0.22969675 3.8982108 2.3276708
v -0.40623853 5.2107477 1.3562167
v -0.40623853 5.2107477 1.3562167
v -0.6759489 5.1603603 2.5310931
v -1.2037021 3.7351732 1.7787086
v -1.2037021 3.7351732 1.7787086
v -1.3394316 0.058994915 2.708952
v -1.719224 0.05899489 1.9379654
v 2.8772151 0.05899491 0.18555984
v 2.6365776 0.058994934 1.3036468
v 2.28195 2.396448 0.6123884
v 2.28195 2.396448 0.6123884
v 1.8861349 0.058994934 1.6745664
v 1.8119121 2.9037352 1.2569997
v 1.8119121 2.9037352 1.2569997
v 1.3124254 0.05899494 2.2442846
v 0.9875443 3.7549326 1.6523976
v 0.9875443 3.7549326 1.6523976
v 0.6002852 0.05899494 2.5985599
v 0.22969675 3.8982108 2.3276708
v -0.6759489 5.1603603 2.5310931
v -0.9067135 0.05899494 3.383894
v -1.3394316 0.058994915 2.708952
vn 0.81339216 0.07269391 -0.57715577
vn 0.81339216 0.07269391 -0.57715577
vn 0.81339216 0.07269391 -0.57715577
vn -0.67205006 0.039504983 -0.73945117
vn -0.67205006 0.039504983 -0.73945117
vn -0.6720502 0.039504983 -0.7394511
vn -0.79720205 0.074866876 -0.5990524
vn -0.79720205 0.074866876 -0.5990525
vn -0.79720205 0.074866876 -0.5990524
vn -0.8664208 0.078645766 -0.4930819
vn -0.8664208 0.07864577 -0.4930819
vn -0.8664208 0.078645766 -0.4930819
vn -0.8431554 0.09054523 -0.5299911
vn -0.8431554 0.09054523 -0.5299911
vn 0.6441508 0.14903408 -0.750239
vn 0.64415085 0.14903408 -0.75023896
vn 0.64415085 0.14903407 -0.75023896
vn 0.031990357 0.12104368 -0.99213153
vn 0.031990357 0.12104369 -0.99213153
vn 0.031990357 0.12104369 -0.99213153
vn 0.9687862 0.23611234 0.07552699
vn 0.9687862 0.23611233 0.07552699
vn 0.9687862 0.23611233 0.07552699
vn -0.7161709 0.2425341 -0.65442836
vn -0.7161709 0.24253409 -0.65442836
vn -0.7161709 0.24253413 -0.65442836
vn -0.9846127 0.050713778 -0.16723002
vn -0.9846127 0.050713778 -0.16723002
vn -0.9846127 0.050713778 -0.16723002
vn 0.90602595 0.10441086 -0.41014066
vn 0.90602595 0.104410864 -0.41014066
vn 0.90602595 0.10441086 -0.41014066
vn 0.8856055 0.10477774 -0.4524649
vn 0.17549112 0.23303111 -0.9565037
vn 0.17549114 0.23303111 -0.9565037
vn 0.17549115 0.23303111 -0.9565037
vn 0.22465129 0.27566332 -0.9346345
vn 0.22465129 0.27566332 -0.9346345
vn 0.22465129 0.27566332 -0.9346345
vn -0.93827075 0.19358236 0.2866597
vn -0.93827075 0.19358233 0.28665966
vn -0.93827075 0.19358233 0.28665966
vn -0.6866038 0.078287475 0.7228045
vn -0.6866038 0.07828747 0.7228044
vn -0.6866038 0.07828746 0.7228044
vn -0.67927164 0.07910886 0.7296108
vn 0.94849056 0.067395166 -0.30955362
vn 0.94849056 0.06739516 -0.3095536
vn 0.94849056 0.067395166 -0.30955362
vn 0.86182797 0.22676875 0.45368323
vn 0.86182797 0.22676875 0.45368317
vn 0.86182797 0.22676875 0.45368317
vn 0.87040687 0.2176144 0.4416287
vn 0.9623615 0.17593126 0.20714384
vn 0.9623615 0.17593126 0.20714384
vn 0.9623615 0.17593126 0.20714386
vn -0.65311754 0.14958487 0.7423354
vn -0.65311754 0.14958487 0.7423354
vn -0.65311754 0.14958487 0.7423354
vn 0.07727423 0.23561911 0.9687685
vn 0.077274226 0.23561908 0.9687685
vn 0.077274226 0.23561908 0.9687685
vn -0.9670528 0.12603055 -0.22119038
vn -0.9670528 0.12603055 -0.22119033
vn -0.9670528 0.12603058 -0.22119038
vn 0.824222 0.2978435 -0.48160908
vn 0.824222 0.2978435 -0.48160908
vn 0.82422197 0.2978435 -0.4816091
vn 0.8557093 0.1733246 0.4875657
vn 0.8557093 0.1733246 0.4875657
vn 0.8557093 0.1733246 0.4875657
vn 0.5996422 0.22383885 0.76832634
vn 0.5996422 0.22383888 0.76832634
vn 0.5996422 0.2238389 0.76832634
vn 0.6708908 0.06857942 0.7383782
vn 0.6708908 0.06857943 0.7383782
vn 0.6708908 0.06857942 0.7383782
vn 0.8101349 0.54754674 0.20946136
vn 0.8101349 0.5475468 0.20946136
vn 0.8101349 0.54754674 0.20946133
vn -0.9116411 0.13213615 0.3891663
vn -0.9116411 0.13213615 0.3891663
vn -0.9116411 0.13213614 0.3891663
vn 0.42048454 0.3153794 0.85072243
vn 0.42048454 0.31537938 0.85072243
vn 0.42048448 0.31537938 0.85072243
vn 0.69940263 0.12162969 0.7043026
vn 0.6994027 0.121629685 0.7043026
vn 0.69940263 0.121629685 0.7043026
vn 0.43816778 0.17956783 0.88077486
vn 0.43816775 0.17956781 0.88077486
vn 0.43816775 0.17956781 0.88077486
vn 0.37396437 0.10114631 0.92191106
vn 0.37396437 0.10114631 0.92191106
vn 0.3739644 0.101146296 0.92191106
vn 0.35416147 0.10434204 0.9293451
vn 0.5367033 0.115449294 0.8358356
vn 0.5367033 0.115449294 0.8358356
vn 0.5367033 0.115449294 0.8358356
vn -0.5172352 0.03898678 -0.85495484
vn -0.5172352 0.03898678 -0.8549549
vn -0.5172352 0.03898678 -0.8549549
vn -0.24124242 0.08132468 -0.9670514
vn -0.24124242 0.08132468 -0.9670514
vn -0.24124245 0.08132469 -0.9670514
vn -0.74747425 0.09082545 -0.6580525
vn -0.74747413 0.09082544 -0.6580525
vn -0.74747413 0.09082544 -0.6580525
vn -0.35325268 0.13630264 -0.92554533
vn -0.35325265 0.13630264 -0.92554533
vn -0.35325265 0.13630264 -0.92554533
vn 0.95803326 0.079950504 -0.2752819
vn 0.95803326 0.079950504 -0.2752819
vn 0.95803326 0.07995051 -0.2752819
vn -0.8114992 0.22708718 -0.5384241
vn -0.8114992 0.22708718 -0.5384241
vn -0.8114992 0.22708717 -0.5384241
vn -0.93233263 0.15826626 0.32512707
vn -0.93233263 0.15826626 0.32512704
vn -0.93233263 0.15826626 0.32512707
vn 0.55909365 0.14368448 -0.81655926
vn 0.55909365 0.14368449 -0.8165593
vn 0.5590936 0.14368446 -0.8165593
vn 0.36459035 0.23155151 -0.9019189
vn 0.36459038 0.23155148 -0.9019189
vn 0.36459038 0.23155151 -0.9019189
vn 0.7134203 0.23386036 -0.6605611
vn 0.7134203 0.23386039 -0.6605611
vn 0.7134202 0.23386034 -0.66056114
vn 0.003121345 0.435024 0.9004134
vn 0.003121345 0.43502405 0.9004134
vn 0.0031213453 0.43502408 0.9004134
vn 0.9003897 0.29837406 0.31665656
vn 0.9003897 0.29837406 0.31665656
vn 0.9003897 0.2983741 0.31665656
vn -0.41469854 0.1674263 0.89442366
vn -0.41469854 0.1674263 0.89442366
vn -0.41469854 0.1674263 0.89442366
vn -0.99764603 0.06853876 0.0022049486
vn -0.99764603 0.068538755 0.0022049486
vn -0.99764603 0.068538755 0.0022049486
vn 0.9948502 0.036012553 0.094742104
vn 0.9948502 0.036012553 0.094742104
vn 0.9948502 0.036012553 0.094742104
vn 0.83095336 0.20554596 0.5169791
vn 0.83095336 0.20554599 0.51697916
vn 0.83095336 0.20554596 0.5169791
vn 0.92681426 0.06999009 0.36893997
vn 0.92681426 0.069990076 0.36893997
vn 0.92681426 0.0699901 0.36894003
vn -0.7085386 0.16459365 0.68620837
vn -0.7085386 0.16459367 0.68620837
vn -0.7085386 0.16459365 0.68620837
vn -0.88573587 0.42569765 -0.18507676
vn -0.88573587 0.42569765 -0.18507676
vn -0.88573587 0.42569765 -0.18507676
vn -0.88778776 0.14344291 0.43732932
vn -0.88778776 0.14344291 0.43732932
vn -0.88778776 0.14344291 0.43732932
vn 0.9566412 0.20602563 0.20589074
vn 0.9566412 0.20602563 0.20589074
vn 0.9566412 0.20602563 0.20589074
vn 0.8398313 0.100224525 0.53351516
vn 0.8398314 0.10022452 0.53351516
vn 0.8398313 0.100224525 0.53351516
vn 0.56928754 0.17856036 0.80251354
vn 0.56928754 0.17856036 0.80251354
vn 0.56928754 0.17856036 0.80251354
vn 0.6729179 0.116496794 0.73048615
vn 0.6729179 0.11649678 0.73048615
vn 0.67291784 0.11649678 0.73048615
vn -0.83499825 0.12726408 0.5353332
vn -0.83499825 0.1272641 0.5353333
vn -0.83499825 0.12726411 0.5353333
vt 0.12712324 0.04229164
vt 0.16565847 0.049535036
vt 0.12633371 0.049190998
vt 0.33432567 0.09298074
vt 0.33824718 0.08406043
vt 0.3733753 0.0907042
vt 0.6312252 0.14705378
vt 0.6154032 0.15344465
vt 0.59608316 0.14098412
vt 0.6154032 0.15344465
vt 0.5947901 0.15979713
vt 0.59535825 0.14888442
vt 0.6312252 0.14705378
vt 0.63567865 0.15913916
vt 0.5808265 0.025032997
vt 0.55632496 0.018616676
vt 0.58192205 0.017935872
vt 0.7110021 0.025369763
vt 0.7015425 0.0187248
vt 0.73498094 0.018575788
vt 0.3560651 0.049420714
vt 0.34120053 0.04932332
vt 0.34934616 0.039446592
vt 0.12678015 0.036673307
vt 0.12122381 0.027779698
vt 0.13413882 0.02845192
vt 0.38002217 0.0278126
vt 0.42075896 0.027613163
vt 0.39908493 0.03684008
vt 0.22545773 0.091199994
vt 0.19157404 0.0842036
vt 0.22737122 0.08301818
vt 0.20690465 0.097227454
vt 0.22685122 0.06386685
vt 0.21717656 0.06445098
vt 0.23330116 0.05304587
vt 0.21717656 0.06445098
vt 0.20517516 0.064408064
vt 0.22180748 0.05273652
vt 0.838812 0.06390023
vt 0.82232094 0.063972235
vt 0.83541584 0.053215265
vt 0.008269876 0.039113402
vt 0.042436093 0.03952205
vt 0.0020960271 0.049753726
vt 0.042825848 0.048969507
vt 0.22349268 0.09862244
vt 0.20690465 0.097227454
vt 0.22545773 0.091199994
vt 0.9537515 0.27693236
vt 0.9673002 0.26905894
vt 0.9736311 0.28003716
vt 0.98188955 0.2749685
vt 0.9673002 0.26905894
vt 0.9738272 0.25804877
vt 0.98188955 0.2749685
vt 0.54318506 0.08321333
vt 0.5531518 0.098427296
vt 0.52264714 0.08807349
vt 0.3261639 0.015465379
vt 0.31845093 0.0089793205
vt 0.342682 0.008948684
vt 0.91796684 0.053508878
vt 0.9322331 0.053123713
vt 0.9305444 0.06406367
vt 0.30709362 0.009105802
vt 0.31640613 0.014861941
vt 0.30273438 0.015308261
vt 0.9458974 0.27006853
vt 0.9486027 0.26278377
vt 0.9537515 0.27693236
vt 0.9762956 0.14179373
vt 0.973032 0.15038073
vt 0.9565406 0.14185059
vt 0.0453887 0.03689623
vt 0.04662609 0.027557015
vt 0.06593931 0.036688447
vt 0.039145827 0.027626395
vt 0.042814016 0.03682673
vt 0.031404853 0.036762
vt 0.85959613 0.9074768
vt 0.8791982 0.9076257
vt 0.865396 0.9157654
vt 0.46216428 0.03667581
vt 0.46216428 0.028753757
vt 0.4733827 0.03656578
vt 0.98703015 0.14325154
vt 0.9877956 0.15082479
vt 0.9762956 0.14179373
vt 0.9877956 0.15082479
vt 0.9873121 0.15822518
vt 0.973032 0.15038073
vt 0.9754636 0.117868066
vt 0.9754636 0.10999358
vt 0.9898633 0.11558175
vt 0.9946544 0.10691583
vt 0.9754636 0.10999358
vt 0.97507215 0.10185838
vt 0.9946544 0.10691583
vt 0.37368226 0.09852886
vt 0.33432567 0.09298074
vt 0.3733753 0.0907042
vt 0.3733753 0.0907042
vt 0.33824718 0.08406043
vt 0.37307727 0.08311176
vt 0.59608316 0.14098412
vt 0.6154032 0.15344465
vt 0.59535825 0.14888442
vt 0.8117634 0.018616676
vt 0.836674 0.024544239
vt 0.8117634 0.025328875
vt 0.12712324 0.04229164
vt 0.15933478 0.03933227
vt 0.16565847 0.049535036
vt 0.1395185 0.036605954
vt 0.12678015 0.036673307
vt 0.13413882 0.02845192
vt 0.6079614 0.024214506
vt 0.5844215 0.025096059
vt 0.5873308 0.017872691
vt 0.5808265 0.025032997
vt 0.54503083 0.024133086
vt 0.55632496 0.018616676
vt 0.23330116 0.05304587
vt 0.21717656 0.06445098
vt 0.22180748 0.05273652
vt 0.83697736 0.9080546
vt 0.8573586 0.907521
vt 0.8497127 0.9157212
vt 0.97102034 0.7347158
vt 0.98796415 0.7344065
vt 0.9784105 0.74215615
vt 0.98188955 0.2749685
vt 0.9738272 0.25804877
vt 0.99188083 0.26832223
vt 0.52264714 0.08807349
vt 0.5531518 0.098427296
vt 0.5354618 0.09833896
vt 0.8968686 0.06392956
vt 0.91796684 0.053508878
vt 0.9305444 0.06406367
vt 0.07909405 0.048903227
vt 0.0654372 0.04968095
vt 0.06551969 0.03918636
vt 0.9537515 0.27693236
vt 0.9486027 0.26278377
vt 0.9673002 0.26905894
vt 0.27126312 0.05275953
vt 0.2858038 0.064305305
vt 0.26497734 0.06442797
vt 0.54318506 0.08321333
vt 0.5632904 0.09213114
vt 0.5531518 0.098427296
vt 0.9933319 0.049660802
vt 0.9866425 0.040418148
vt 0.9967561 0.04018271
vt 0.865396 0.9157654
vt 0.8791982 0.9076257
vt 0.87966144 0.9157355
vt 0.98677564 0.44047785
vt 0.99759924 0.44047785
vt 0.99190986 0.4501471
vt 0.9458974 0.27006853
vt 0.9387833 0.2588514
vt 0.9486027 0.26278377
vt 0.9762956 0.14179373
vt 0.9877956 0.15082479
vt 0.973032 0.15038073
vt 0.973032 0.15038073
vt 0.9873121 0.15822518
vt 0.9732839 0.15996408
vt 0.542938 0.019376755
vt 0.5244447 0.025274277
vt 0.5244447 0.017694712

g Clifs_4
s 1
usemtl Clifs_4
f 3/3/3 2/2/2 1/1/1 
f 6/6/6 5/5/5 4/4/4 
f 9/9/9 8/8/8 7/7/7 
f 12/12/12 11/11/11 10/10/10 
f 10/10/10 14/14/14 13/13/13 
f 17/17/17 16/16/16 15/15/15 
f 20/20/20 19/19/19 18/18/18 
f 23/23/23 22/22/22 21/21/21 
f 26/26/26 25/25/25 24/24/24 
f 29/29/29 28/28/28 27/27/27 
f 32/32/32 31/31/31 30/30/30 
f 31/31/31 33/33/33 30/30/30 
f 36/36/36 35/35/35 34/34/34 
f 39/39/39 38/38/38 37/37/37 
f 42/42/42 41/41/41 40/40/40 
f 45/45/45 44/44/44 43/43/43 
f 46/46/46 44/44/44 45/45/45 
f 49/49/49 48/48/48 47/47/47 
f 52/52/52 51/51/51 50/50/50 
f 53/53/53 51/51/51 52/52/52 
f 56/56/56 55/55/55 54/54/54 
f 59/59/59 58/58/58 57/57/57 
f 62/62/62 61/61/61 60/60/60 
f 65/65/65 64/64/64 63/63/63 
f 68/68/68 67/67/67 66/66/66 
f 71/71/71 70/70/70 69/69/69 
f 74/74/74 73/73/73 72/72/72 
f 77/77/77 76/76/76 75/75/75 
f 80/80/80 79/79/79 78/78/78 
f 83/83/83 82/82/82 81/81/81 
f 86/86/86 85/85/85 84/84/84 
f 89/89/89 88/88/88 87/87/87 
f 92/92/92 91/91/91 90/90/90 
f 95/95/95 94/94/94 93/93/93 
f 96/96/96 94/94/94 95/95/95 
f 99/99/99 98/98/98 97/97/97 
f 102/102/102 101/101/101 100/100/100 
f 105/105/105 104/104/104 103/103/103 
f 108/108/108 107/107/107 106/106/106 
f 111/111/111 110/110/110 109/109/109 
f 114/114/114 113/113/113 112/112/112 
f 117/117/117 116/116/116 115/115/115 
f 120/120/120 119/119/119 118/118/118 
f 123/123/123 122/122/122 121/121/121 
f 126/126/126 125/125/125 124/124/124 
f 129/129/129 128/128/128 127/127/127 
f 132/132/132 131/131/131 130/130/130 
f 135/135/135 134/134/134 133/133/133 
f 138/138/138 137/137/137 136/136/136 
f 141/141/141 140/140/140 139/139/139 
f 144/144/144 143/143/143 142/142/142 
f 147/147/147 146/146/146 145/145/145 
f 150/150/150 149/149/149 148/148/148 
f 153/153/153 152/152/152 151/151/151 
f 156/156/156 155/155/155 154/154/154 
f 159/159/159 158/158/158 157/157/157 
f 162/162/162 161/161/161 160/160/160 
f 165/165/165 164/164/164 163/163/163 
f 168/168/168 167/167/167 166/166/166 
f 171/171/171 170/170/170 169/169/169 
f 174/174/174 173/173/173 172/172/172 

