# Created by DisUnity v0.3.4
v -1.7548956 0.058994863 1.7936645
v -0.4919593 10.847068 2.297966
v -2.0454824 0.058994863 2.4985173
v -0.4919593 10.847068 2.297966
v 0.35702604 9.669712 2.403423
v -1.2071348 0.058994863 2.3731103
v 0.35702604 9.669712 2.403423
v 0.90084577 5.531604 2.0963063
v -0.535571 0.058994863 2.6936183
v 0.90084577 5.531604 2.0963063
v 1.7150084 0.058994863 1.6586049
v 0.41418606 0.058994863 2.4865835
v -2.613784 0.058994863 1.7190528
v -1.7017785 6.526029 0.7156822
v -2.4259176 0.058994863 2.2086964
v -1.7017785 6.526029 0.7156822
v -0.8219951 8.794021 1.1662642
v -1.7548956 0.058994863 1.7936645
v -1.2651262 11.141857 0.36307126
v -0.3737662 13.296076 0.7693852
v -0.8219951 8.794021 1.1662642
v -0.09840366 12.170722 1.8625733
v -0.4919593 10.847068 2.297966
v -0.09840366 12.170722 1.8625733
v 1.019011 11.060019 1.4775157
v 0.35702604 9.669712 2.403423
v 1.019011 11.060019 1.4775157
v 1.9916444 0.058994863 0.7788273
v 0.90084577 5.531604 2.0963063
v -2.585573 0.058994863 0.7572099
v -1.9211264 9.260353 -0.31682655
v -2.613784 0.058994863 1.7190528
v -1.9211264 9.260353 -0.31682655
v -1.2651262 11.141857 0.36307126
v -1.7017785 6.526029 0.7156822
v -0.3737662 13.296076 0.7693852
v 0.5951195 9.280223 0.54410404
v -0.09840366 12.170722 1.8625733
v 0.5951195 9.280223 0.54410404
v 1.6430377 0.058994863 -0.04361411
v 1.019011 11.060019 1.4775157
v -2.4562817 0.058994863 -0.19193101
v -2.1423118 4.532089 -0.917971
v -2.585573 0.058994863 0.7572099
v -1.9211264 9.260353 -0.31682655
v -2.1423118 4.532089 -0.917971
v -1.147632 7.57443 -0.8395322
v -1.9211264 9.260353 -0.31682655
v -1.147632 7.57443 -0.8395322
v -0.052686818 9.402795 -1.0216719
v -1.2651262 11.141857 0.36307126
v -0.052686818 9.402795 -1.0216719
v 0.8843612 5.2107477 -0.75144726
v -0.3737662 13.296076 0.7693852
v 0.8843612 5.2107477 -0.75144726
v 1.8517524 3.7351732 -1.1181945
v 0.5951195 9.280223 0.54410404
v 1.8517524 3.7351732 -1.1181945
v 2.3967261 0.058994863 -1.2335632
v 1.6430377 0.058994863 -0.04361411
v -2.3632374 0.058994863 -0.9901239
v -1.6122868 2.396448 -1.6984333
v -2.4562817 0.058994863 -0.19193101
v -1.6122868 2.396448 -1.6984333
v -0.78422505 2.9037352 -2.0230088
v -2.1423118 4.532089 -0.917971
v -1.147632 7.57443 -0.8395322
v -0.78422505 2.9037352 -2.0230088
v 0.08215559 3.7549326 -1.7878907
v -1.147632 7.57443 -0.8395322
v 0.08215559 3.7549326 -1.7878907
v 1.1645744 3.8982108 -2.0002425
v -0.052686818 9.402795 -1.0216719
v 1.0593514 0.058994863 -2.4536965
v 1.1645744 3.8982108 -2.0002425
v 1.8681896 5.1603603 -1.879196
v 0.8843612 5.2107477 -0.75144726
v 1.8681896 5.1603603 -1.879196
v 2.570948 0.058994863 -2.1069837
v 1.8517524 3.7351732 -1.1181945
v 2.744953 0.058994863 -2.8975103
v 2.570948 0.058994863 -2.1069837
v 1.8517524 3.7351732 -1.1181945
v 2.3967261 0.058994863 -1.2335632
v -1.3696401 0.058994863 -2.393197
v -0.54507434 0.058994863 -2.4485564
v -1.6122868 2.396448 -1.6984333
v -0.54507434 0.058994863 -2.4485564
v 0.27274567 0.058994863 -2.5671446
v -0.78422505 2.9037352 -2.0230088
v 0.27274567 0.058994863 -2.5671446
v 1.0593514 0.058994863 -2.4536965
v 0.08215559 3.7549326 -1.7878907
v 1.0593514 0.058994863 -2.4536965
v 1.8635929 0.058994863 -2.4944794
v 1.1645744 3.8982108 -2.0002425
v 1.8681896 5.1603603 -1.879196
v 1.8635929 0.058994863 -2.4944794
v 2.744953 0.058994863 -2.8975103
v 1.8681896 5.1603603 -1.879196
v -2.0454824 0.058994863 2.4985173
v -0.4919593 10.847068 2.297966
v -1.2071348 0.058994863 2.3731103
v -1.2071348 0.058994863 2.3731103
v 0.35702604 9.669712 2.403423
v -0.535571 0.058994863 2.6936183
v -0.535571 0.058994863 2.6936183
v 0.90084577 5.531604 2.0963063
v 0.41418606 0.058994863 2.4865835
v -2.4259176 0.058994863 2.2086964
v -1.7017785 6.526029 0.7156822
v -1.7548956 0.058994863 1.7936645
v -1.7548956 0.058994863 1.7936645
v -0.8219951 8.794021 1.1662642
v -0.4919593 10.847068 2.297966
v -0.4919593 10.847068 2.297966
v -0.09840366 12.170722 1.8625733
v 0.35702604 9.669712 2.403423
v 0.35702604 9.669712 2.403423
v 1.019011 11.060019 1.4775157
v 0.90084577 5.531604 2.0963063
v 0.90084577 5.531604 2.0963063
v 1.9916444 0.058994863 0.7788273
v 1.7150084 0.058994863 1.6586049
v -2.613784 0.058994863 1.7190528
v -1.9211264 9.260353 -0.31682655
v -1.7017785 6.526029 0.7156822
v -0.8219951 8.794021 1.1662642
v -0.3737662 13.296076 0.7693852
v -0.09840366 12.170722 1.8625733
v -0.09840366 12.170722 1.8625733
v 0.5951195 9.280223 0.54410404
v 1.019011 11.060019 1.4775157
v 1.019011 11.060019 1.4775157
v 1.6430377 0.058994863 -0.04361411
v 1.9916444 0.058994863 0.7788273
v -1.9211264 9.260353 -0.31682655
v -1.147632 7.57443 -0.8395322
v -1.2651262 11.141857 0.36307126
v -1.2651262 11.141857 0.36307126
v -0.052686818 9.402795 -1.0216719
v -0.3737662 13.296076 0.7693852
v -0.3737662 13.296076 0.7693852
v 0.8843612 5.2107477 -0.75144726
v 0.5951195 9.280223 0.54410404
v 0.5951195 9.280223 0.54410404
v 1.8517524 3.7351732 -1.1181945
v 1.6430377 0.058994863 -0.04361411
v -2.4562817 0.058994863 -0.19193101
v -1.6122868 2.396448 -1.6984333
v -2.1423118 4.532089 -0.917971
v -1.147632 7.57443 -0.8395322
v 0.08215559 3.7549326 -1.7878907
v -0.052686818 9.402795 -1.0216719
v -0.052686818 9.402795 -1.0216719
v 1.1645744 3.8982108 -2.0002425
v 0.8843612 5.2107477 -0.75144726
v 0.8843612 5.2107477 -0.75144726
v 1.8681896 5.1603603 -1.879196
v 1.8517524 3.7351732 -1.1181945
v -2.3632374 0.058994863 -0.9901239
v -1.3696401 0.058994863 -2.393197
v -1.6122868 2.396448 -1.6984333
v -1.6122868 2.396448 -1.6984333
v -0.54507434 0.058994863 -2.4485564
v -0.78422505 2.9037352 -2.0230088
v -0.78422505 2.9037352 -2.0230088
v 0.27274567 0.058994863 -2.5671446
v 0.08215559 3.7549326 -1.7878907
vn -0.91725683 0.12505853 -0.3781538
vn -0.91725683 0.12505853 -0.3781538
vn -0.91725683 0.12505853 -0.3781538
vn -0.1043283 0.013843051 0.9944465
vn -0.1043283 0.013843049 0.9944465
vn -0.10432829 0.013843049 0.9944465
vn 0.4219987 -0.011820901 0.9065193
vn 0.4219987 -0.0118209 0.9065193
vn 0.42199877 -0.011820901 0.9065193
vn 0.5369184 0.0124107255 0.8435429
vn 0.53691846 0.012410724 0.8435429
vn 0.5369184 0.012410724 0.8435429
vn -0.9176894 0.18404473 0.3520991
vn -0.9176894 0.18404473 0.3520991
vn -0.9176894 0.18404473 0.352099
vn -0.6879453 0.124824226 0.7149477
vn -0.68794525 0.124824226 0.7149477
vn -0.6879452 0.12482422 0.7149477
vn -0.65529764 0.13082546 0.7439554
vn -0.6552977 0.13082545 0.7439554
vn -0.9601487 0.23647124 -0.14898212
vn -0.9601487 0.23647124 -0.14898212
vn -0.9601487 0.23647124 -0.14898212
vn 0.5430502 0.2707756 0.7948441
vn 0.5430502 0.27077553 0.79484403
vn 0.5430502 0.27077556 0.7948441
vn 0.8469802 0.041221596 0.5300239
vn 0.8469802 0.041221593 0.5300238
vn 0.8469802 0.041221593 0.5300238
vn -0.9972156 0.06859665 -0.029248642
vn -0.9972156 0.06859666 -0.029248642
vn -0.9972156 0.068596646 -0.029248638
vn -0.8587138 0.11930502 0.4983741
vn -0.8587139 0.11930502 0.4983741
vn -0.8587138 0.11930503 0.49837413
vn 0.972061 0.2347063 -0.003239745
vn 0.972061 0.23470628 -0.0032397448
vn 0.972061 0.2347063 -0.003239745
vn 0.78824204 0.12794082 -0.6019183
vn 0.78824204 0.12794082 -0.60191834
vn 0.78824204 0.12794082 -0.6019183
vn -0.9897267 0.04758667 -0.13481991
vn -0.9897267 0.047586665 -0.1348199
vn -0.9897267 0.047586672 -0.1348199
vn -0.99283725 0.059608534 -0.10354194
vn -0.33711448 0.13424325 -0.9318437
vn -0.33711448 0.13424325 -0.9318437
vn -0.33711448 0.13424325 -0.9318436
vn -0.55050904 0.25034368 -0.79640937
vn -0.55050904 0.25034368 -0.79640937
vn -0.55050904 0.25034368 -0.79640937
vn 0.94709295 0.19528452 -0.25471306
vn 0.94709295 0.19528452 -0.2547131
vn 0.94709295 0.19528452 -0.25471306
vn 0.11280034 0.30869097 -0.94445014
vn 0.11280034 0.3086909 -0.94445014
vn 0.11280034 0.30869097 -0.94445014
vn 0.83987767 0.10781293 0.53196055
vn 0.83987755 0.107812926 0.5319606
vn 0.83987755 0.107812904 0.53196055
vn -0.95548296 0.27321586 -0.1113794
vn -0.95548296 0.2732159 -0.1113794
vn -0.95548296 0.2732159 -0.1113794
vn -0.46180904 0.20109095 -0.86388355
vn -0.4618091 0.20109095 -0.86388355
vn -0.46180907 0.20109093 -0.8638836
vn -0.48216113 0.17974742 -0.8574448
vn 0.020193035 0.24704723 -0.968793
vn 0.020193035 0.24704723 -0.968793
vn 0.020193035 0.24704723 -0.968793
vn -0.20708103 0.12666345 -0.97008955
vn -0.20708103 0.12666345 -0.97008955
vn -0.207081 0.12666342 -0.97008955
vn -0.20642982 0.12034731 -0.971032
vn -0.6701486 0.4315078 -0.60390556
vn -0.6701486 0.4315078 -0.60390556
vn -0.6701486 0.43150777 -0.60390556
vn 0.96113527 0.1213317 0.24798727
vn 0.96113527 0.1213317 0.24798727
vn 0.96113527 0.1213317 0.2479873
vn 0.9690869 0.12397559 0.2133086
vn 0.97130966 0.13791107 0.19374767
vn 0.97130954 0.13791108 0.19374767
vn 0.97130966 0.13791108 0.19374765
vn -0.06434302 0.27817857 -0.9583719
vn -0.06434302 0.27817857 -0.9583719
vn -0.06434302 0.27817857 -0.9583719
vn -0.14219557 0.13473868 -0.9806253
vn -0.14219557 0.13473868 -0.9806253
vn -0.14219557 0.13473868 -0.9806253
vn 0.13952887 0.21117066 -0.9674393
vn 0.13952887 0.21117066 -0.9674393
vn 0.13952887 0.21117066 -0.9674393
vn -0.050288077 0.11850654 -0.991679
vn -0.05028807 0.118506536 -0.991679
vn -0.050288077 0.11850654 -0.991679
vn -0.044028122 0.119666696 -0.99183744
vn -0.41336885 0.10940138 -0.9039676
vn -0.41336888 0.1094014 -0.9039676
vn -0.41336885 0.10940139 -0.90396774
vn 0.1479416 -0.0029187123 0.98899186
vn 0.1479416 -0.0029187123 0.98899186
vn 0.14794159 -0.0029187123 0.98899186
vn -0.42974675 0.06710193 0.90045273
vn -0.42974675 0.06710193 0.90045273
vn -0.42974675 0.06710193 0.90045273
vn 0.21271183 0.050673153 0.9758001
vn 0.21271183 0.050673153 0.9758001
vn 0.21271181 0.05067315 0.9758001
vn 0.5211232 0.13616338 0.8425499
vn 0.5211232 0.13616338 0.8425498
vn 0.5211232 0.13616338 0.8425498
vn -0.9900153 0.11189134 0.08573131
vn -0.9900153 0.11189132 0.0857313
vn -0.9900153 0.11189133 0.085731305
vn 0.22185211 0.24452451 0.9439224
vn 0.22185212 0.24452451 0.9439224
vn 0.22185211 0.24452451 0.9439224
vn 0.77181304 0.054412134 0.63351715
vn 0.77181304 0.05441214 0.63351715
vn 0.77181304 0.05441214 0.63351715
vn 0.94738704 0.117117435 0.29789495
vn 0.94738704 0.11711744 0.29789498
vn 0.94738704 0.11711744 0.29789498
vn -0.6939883 0.20495427 0.6901986
vn -0.6939883 0.20495427 0.6901986
vn -0.6939883 0.20495428 0.6901986
vn -0.924564 0.12381695 0.3603481
vn -0.924564 0.12381694 0.36034808
vn -0.924564 0.12381695 0.3603481
vn 0.12723903 0.4367403 -0.8905437
vn 0.12723903 0.4367403 -0.8905437
vn 0.12723905 0.43674037 -0.8905437
vn 0.9155582 0.105594434 -0.38807595
vn 0.91555834 0.105594434 -0.38807592
vn 0.91555834 0.10559443 -0.38807592
vn 0.060077757 0.32064322 -0.94529295
vn 0.060077764 0.32064322 -0.94529295
vn 0.060077757 0.32064322 -0.94529295
vn -0.45091942 0.34207386 -0.8244132
vn -0.45091936 0.34207386 -0.8244132
vn -0.45091942 0.3420739 -0.8244132
vn 0.8169832 0.22685093 -0.530167
vn 0.8169832 0.2268509 -0.530167
vn 0.8169832 0.22685093 -0.530167
vn 0.8994759 0.07477854 0.43052453
vn 0.8994759 0.074778534 0.4305245
vn 0.8994759 0.074778534 0.4305245
vn -0.85602105 -0.023732882 -0.5163959
vn -0.85602105 -0.023732886 -0.516396
vn -0.85602105 -0.023732882 -0.5163959
vn -0.35098094 0.11764834 -0.92896247
vn -0.35098094 0.117648326 -0.92896247
vn -0.35098094 0.11764834 -0.92896247
vn 0.9760029 0.21754408 -0.00964597
vn 0.9760029 0.21754408 -0.009645969
vn 0.9760029 0.21754411 -0.00964597
vn 0.72098815 0.31990513 0.6146843
vn 0.7209881 0.31990516 0.6146843
vn 0.72098815 0.31990513 0.61468434
vn -0.8130168 0.08673129 -0.5757443
vn -0.8130168 0.08673129 -0.5757443
vn -0.8130168 0.08673129 -0.5757443
vn -0.4157442 0.10027027 -0.9039372
vn -0.4157442 0.100270286 -0.9039372
vn -0.4157442 0.10027028 -0.90393734
vn 0.059676614 0.20888273 -0.97611815
vn 0.05967661 0.20888275 -0.97611815
vn 0.059676614 0.20888273 -0.97611815
vt 0.9753717 0.036768436
vt 0.9346602 0.0306288
vt 0.9764726 0.029637694
vt 0.7032326 0.049131036
vt 0.7045272 0.04012561
vt 0.74232227 0.042253137
vt 0.67563164 0.2651621
vt 0.66062313 0.27105463
vt 0.6407745 0.2563449
vt 0.66062313 0.27105463
vt 0.64077777 0.2797879
vt 0.64083666 0.2653203
vt 0.054640412 0.002092719
vt 0.08100307 0.006486535
vt 0.05278611 0.006696582
vt 0.90919447 0.12983668
vt 0.9001961 0.12122655
vt 0.9335886 0.12216306
vt 0.89163977 0.129861
vt 0.88292336 0.12145138
vt 0.2567712 0.015467405
vt 0.24127567 0.015240312
vt 0.24505222 0.008946538
vt 0.9917067 0.31153703
vt 0.99685514 0.32225204
vt 0.9850718 0.32064486
vt 0.955762 0.07960081
vt 0.9143551 0.07750511
vt 0.9382187 0.068223596
vt 0.10250056 0.09061992
vt 0.06863147 0.08232176
vt 0.10714978 0.08279407
vt 0.8983618 0.13853908
vt 0.89163977 0.129861
vt 0.90919447 0.12983668
vt 0.681443 0.05319059
vt 0.6953043 0.0636034
vt 0.6777426 0.06399679
vt 0.6422999 0.040064335
vt 0.6776087 0.040278554
vt 0.63586783 0.049779356
vt 0.09791285 0.09834242
vt 0.08046222 0.09596753
vt 0.10250056 0.09061992
vt 0.06863147 0.08232176
vt 0.97970766 0.9052274
vt 0.9848446 0.89164746
vt 0.99494463 0.89530814
vt 0.051142216 0.06426811
vt 0.05268109 0.051942706
vt 0.0682528 0.061976433
vt 0.68655556 0.90484214
vt 0.6752874 0.89108884
vt 0.70852804 0.90124273
vt 0.42104626 0.0097996
vt 0.4305824 0.015591025
vt 0.4024253 0.015159249
vt 0.35267258 0.07992995
vt 0.3383565 0.079264045
vt 0.34237623 0.06655431
vt 0.116478324 0.002087593
vt 0.12882507 0.005935073
vt 0.110432625 0.00670135
vt 0.9681844 0.9040829
vt 0.9649991 0.8961201
vt 0.97970766 0.9052274
vt 0.9848446 0.89164746
vt 0.74352795 0.1203866
vt 0.74352396 0.1294254
vt 0.7236606 0.12579572
vt 0.74352396 0.1294254
vt 0.7484316 0.13840246
vt 0.723837 0.13703406
vt 0.7607144 0.1316967
vt 0.73186326 0.91570115
vt 0.73187685 0.90754116
vt 0.7446991 0.9135593
vt 0.84961873 0.8909494
vt 0.86822265 0.89764106
vt 0.8506996 0.89974815
vt 0.8720609 0.8910167
vt 0.86822265 0.89764106
vt 0.8506996 0.89974815
vt 0.8640469 0.904949
vt 0.6065513 0.015577197
vt 0.60091376 0.010156393
vt 0.6158831 0.0098131895
vt 0.954094 0.89902186
vt 0.95036787 0.89230883
vt 0.9649991 0.8961201
vt 0.75812024 0.12467849
vt 0.7607144 0.1316967
vt 0.74352396 0.1294254
vt 0.6260073 0.037030578
vt 0.6260073 0.029419303
vt 0.6399251 0.036034703
vt 0.64450073 0.029375792
vt 0.78760815 0.91564846
vt 0.7832217 0.9075937
vt 0.8056456 0.9085375
vt 0.74500954 0.04971814
vt 0.7032326 0.049131036
vt 0.74232227 0.042253137
vt 0.20398319 0.015519977
vt 0.16613388 0.014814854
vt 0.20159805 0.008894026
vt 0.6407745 0.2563449
vt 0.66062313 0.27105463
vt 0.64083666 0.2653203
vt 0.63858885 0.025378346
vt 0.6104346 0.02348578
vt 0.63552964 0.018566847
vt 0.22907555 0.040486097
vt 0.19688606 0.049418688
vt 0.18791664 0.0394485
vt 0.9845902 0.3116821
vt 0.9917067 0.31153703
vt 0.9850718 0.32064486
vt 0.95429385 0.06786013
vt 0.955762 0.07960081
vt 0.9382187 0.068223596
vt 0.9382187 0.068223596
vt 0.9143551 0.07750511
vt 0.91667783 0.06938052
vt 0.935436 0.12844217
vt 0.8983618 0.13853908
vt 0.90919447 0.12983668
vt 0.16811979 0.039416432
vt 0.18539596 0.03942156
vt 0.17992961 0.049450874
vt 0.70995486 0.9155551
vt 0.6923888 0.915488
vt 0.70104337 0.9076872
vt 0.63586783 0.049779356
vt 0.6776087 0.040278554
vt 0.67725956 0.04848683
vt 0.9875109 0.029725432
vt 0.9959351 0.036391973
vt 0.9786744 0.036681056
vt 0.0682528 0.061976433
vt 0.05268109 0.051942706
vt 0.074834466 0.052044034
vt 0.70852804 0.90124273
vt 0.6752874 0.89108884
vt 0.6945952 0.89105606
vt 0.37746382 0.06715751
vt 0.35267258 0.07992995
vt 0.34237623 0.06655431
vt 0.09977043 0.059405327
vt 0.11670964 0.052198768
vt 0.11702644 0.06401217
vt 0.11930728 0.051952004
vt 0.13948178 0.05279517
vt 0.12098843 0.064258695
vt 0.68655556 0.90484214
vt 0.6635423 0.8959416
vt 0.6752874 0.89108884
vt 0.065185905 0.024722815
vt 0.051024914 0.025034666
vt 0.05633211 0.017934084
vt 0.4181341 0.90727615
vt 0.43440485 0.90727615
vt 0.42771184 0.9159659
vt 0.9681844 0.9040829
vt 0.954094 0.89902186
vt 0.9649991 0.8961201
vt 0.74352795 0.1203866
vt 0.75812024 0.12467849
vt 0.74352396 0.1294254

g Clifs_1
s 1
usemtl Clifs_1
f 3/3/3 2/2/2 1/1/1 
f 6/6/6 5/5/5 4/4/4 
f 9/9/9 8/8/8 7/7/7 
f 12/12/12 11/11/11 10/10/10 
f 15/15/15 14/14/14 13/13/13 
f 18/18/18 17/17/17 16/16/16 
f 17/17/17 19/19/19 16/16/16 
f 17/17/17 20/20/20 19/19/19 
f 23/23/23 22/22/22 21/21/21 
f 26/26/26 25/25/25 24/24/24 
f 29/29/29 28/28/28 27/27/27 
f 32/32/32 31/31/31 30/30/30 
f 35/35/35 34/34/34 33/33/33 
f 38/38/38 37/37/37 36/36/36 
f 41/41/41 40/40/40 39/39/39 
f 44/44/44 43/43/43 42/42/42 
f 45/45/45 43/43/43 44/44/44 
f 48/48/48 47/47/47 46/46/46 
f 51/51/51 50/50/50 49/49/49 
f 54/54/54 53/53/53 52/52/52 
f 57/57/57 56/56/56 55/55/55 
f 60/60/60 59/59/59 58/58/58 
f 63/63/63 62/62/62 61/61/61 
f 66/66/66 65/65/65 64/64/64 
f 67/67/67 65/65/65 66/66/66 
f 70/70/70 69/69/69 68/68/68 
f 73/73/73 72/72/72 71/71/71 
f 72/72/72 74/74/74 71/71/71 
f 77/77/77 76/76/76 75/75/75 
f 80/80/80 79/79/79 78/78/78 
f 82/82/82 81/81/81 78/78/78 
f 84/84/84 82/82/82 83/83/83 
f 87/87/87 86/86/86 85/85/85 
f 90/90/90 89/89/89 88/88/88 
f 93/93/93 92/92/92 91/91/91 
f 96/96/96 95/95/95 94/94/94 
f 97/97/97 95/95/95 96/96/96 
f 100/100/100 99/99/99 98/98/98 
f 103/103/103 102/102/102 101/101/101 
f 106/106/106 105/105/105 104/104/104 
f 109/109/109 108/108/108 107/107/107 
f 112/112/112 111/111/111 110/110/110 
f 115/115/115 114/114/114 113/113/113 
f 118/118/118 117/117/117 116/116/116 
f 121/121/121 120/120/120 119/119/119 
f 124/124/124 123/123/123 122/122/122 
f 127/127/127 126/126/126 125/125/125 
f 130/130/130 129/129/129 128/128/128 
f 133/133/133 132/132/132 131/131/131 
f 136/136/136 135/135/135 134/134/134 
f 139/139/139 138/138/138 137/137/137 
f 142/142/142 141/141/141 140/140/140 
f 145/145/145 144/144/144 143/143/143 
f 148/148/148 147/147/147 146/146/146 
f 151/151/151 150/150/150 149/149/149 
f 154/154/154 153/153/153 152/152/152 
f 157/157/157 156/156/156 155/155/155 
f 160/160/160 159/159/159 158/158/158 
f 163/163/163 162/162/162 161/161/161 
f 166/166/166 165/165/165 164/164/164 
f 169/169/169 168/168/168 167/167/167 

