# Created by DisUnity v0.3.4
v -0.048762266 0.058198895 -0.15824854
v -0.0656928 0.029619375 0.1981995
v 0.2850784 -5.066395E-8 0.19300012
v 0.30368322 0.018319115 -0.15775625
v 0.09332938 5.998718 -0.014949072
v 0.18531097 5.970018 -0.030020352
v 0.17722557 5.974905 0.060698375
v -0.048762266 0.058198895 -0.15824854
v 0.028083421 3.0218835 -0.082085736
v -0.0656928 0.029619375 0.1981995
v 0.08561155 5.992229 0.07705882
v 0.09332938 5.998718 -0.014949072
v -0.0656928 0.029619375 0.1981995
v -0.020593993 3.0193858 0.06251356
v 0.2850784 -5.066395E-8 0.19300012
v 0.2850784 -5.066395E-8 0.19300012
v 0.15147838 2.9811692 0.03237872
v 0.30368322 0.018319115 -0.15775625
v 0.30368322 0.018319115 -0.15775625
v 0.19889924 2.9871073 -0.11141508
v -0.048762266 0.058198895 -0.15824854
v -0.020593993 3.0193858 0.06251356
v 0.028083421 3.0218835 -0.082085736
v 0.08561155 5.992229 0.07705882
v -0.0656928 0.029619375 0.1981995
v 0.15147838 2.9811692 0.03237872
v -0.020593993 3.0193858 0.06251356
v 0.17722557 5.974905 0.060698375
v 0.08561155 5.992229 0.07705882
v 0.19889924 2.9871073 -0.11141508
v 0.15147838 2.9811692 0.03237872
v 0.18531097 5.970018 -0.030020352
v 0.30368322 0.018319115 -0.15775625
v 0.028083421 3.0218835 -0.082085736
v 0.19889924 2.9871073 -0.11141508
v 0.09332938 5.998718 -0.014949072
v -0.048762266 0.058198895 -0.15824854
v 0.18531097 5.970018 -0.030020352
v 0.09332938 5.998718 -0.014949072
v 0.17722557 5.974905 0.060698375
v 0.08561155 5.992229 0.07705882
v 0.2850784 -5.066395E-8 0.19300012
v -0.020593993 3.0193858 0.06251356
v 0.15147838 2.9811692 0.03237872
v 0.18531097 5.970018 -0.030020352
v 0.15147838 2.9811692 0.03237872
v 0.17722557 5.974905 0.060698375
v -0.024854496 6.027322 0.9449449
v -0.14713688 6.002412 0.982108
v 0.024120823 6.635689 0.5226229
v -0.004588786 5.9160056 -0.9959052
v 0.22971721 4.7706976 -0.9490505
v 0.21345119 5.8603826 -0.9651991
v 0.12069725 4.798509 -0.9644034
v 0.24598324 3.2863004 -0.9329016
v -0.04621021 7.25001 0.07972138
v -0.11139772 4.8898706 0.011924563
v 0.0020188368 6.568969 -0.47411895
v -0.11139772 4.8898706 0.011924563
v -0.04621021 7.25001 0.07972138
v -0.07220322 4.9684978 0.24905406
v 0.103738464 7.290038 0.04566495
v -0.04621021 7.25001 0.07972138
v 0.15461898 6.5870385 -0.50618494
v 0.024120823 6.635689 0.5226229
v -0.12646331 6.6946774 0.5497115
v 0.103738464 7.290038 0.04566495
v -0.14713688 6.002412 0.982108
v 0.0020188368 6.568969 -0.47411895
v -0.18676037 4.894947 -0.66788596
v -0.004588786 5.9160056 -0.9959052
v -0.18676037 4.894947 -0.66788596
v 0.0020188368 6.568969 -0.47411895
v -0.22378929 5.1243076 -0.35813892
v 0.15461898 6.5870385 -0.50618494
v 0.0020188368 6.568969 -0.47411895
v 0.21345119 5.8603826 -0.9651991
v -0.045291748 3.63324 0.97518015
v 0.017269932 4.9770803 0.76817256
v 0.05939435 3.9268389 0.5914002
v -0.03507312 5.0276375 0.9600625
v -0.024854496 6.027322 0.9449449
v -0.22481427 3.9452126 0.41838673
v -0.1877703 5.001531 0.98900634
v -0.22840375 3.6059384 0.9959045
v -0.1877703 5.001531 0.98900634
v -0.22481427 3.9452126 0.41838673
v -0.29866195 4.973812 0.70024717
v -0.03507312 5.0276375 0.9600625
v -0.22840375 3.6059384 0.9959045
v -0.1877703 5.001531 0.98900634
v -0.024854496 6.027322 0.9449449
v -0.22840375 3.6059384 0.9959045
v -0.03507312 5.0276375 0.9600625
v -0.045291748 3.63324 0.97518015
v 0.18557 3.955104 -0.4378016
v 0.22971721 4.7706976 -0.9490505
v 0.24598324 3.2863004 -0.9329016
v 0.1995106 4.9077435 -0.70150036
v 0.21345119 5.8603826 -0.9651991
v 0.15461898 6.5870385 -0.50618494
v 0.1700945 5.003167 -0.46575084
v 0.18557 3.955104 -0.4378016
v 0.12790075 4.939085 -0.18986076
v 0.10118249 3.826941 0.113978535
v 0.15461898 6.5870385 -0.50618494
v 0.10246049 4.9293756 0.07982173
v 0.103738464 7.290038 0.04566495
v 0.12790075 4.939085 -0.18986076
v 0.10118249 3.826941 0.113978535
v 0.04175759 4.92622 0.5018959
v 0.05939435 3.9268389 0.5914002
v 0.017269932 4.9770803 0.76817256
v 0.024120823 6.635689 0.5226229
v 0.06401195 3.3058457 -0.92176604
v 0.12069725 4.798509 -0.9644034
v 0.02971159 4.808282 -0.95883566
v 0.24598324 3.2863004 -0.9329016
v -0.004588786 5.9160056 -0.9959052
v 0.15461898 6.5870385 -0.50618494
v -0.04621021 7.25001 0.07972138
v 0.0020188368 6.568969 -0.47411895
v -0.12646331 6.6946774 0.5497115
v -0.07220322 4.9684978 0.24905406
v -0.04621021 7.25001 0.07972138
v -0.07220322 4.9684978 0.24905406
v -0.12646331 6.6946774 0.5497115
v -0.30368227 5.1870003 0.51143223
v 0.103738464 7.290038 0.04566495
v -0.12646331 6.6946774 0.5497115
v -0.04621021 7.25001 0.07972138
v -0.004588786 5.9160056 -0.9959052
v -0.18676037 4.894947 -0.66788596
v 0.02971159 4.808282 -0.95883566
v 0.21345119 5.8603826 -0.9651991
v 0.0020188368 6.568969 -0.47411895
v -0.004588786 5.9160056 -0.9959052
v -0.12646331 6.6946774 0.5497115
v -0.29866195 4.973812 0.70024717
v -0.30368227 5.1870003 0.51143223
v -0.14713688 6.002412 0.982108
v 0.10118249 3.826941 0.113978535
v 0.14218612 4.876271 0.26318505
v 0.10246049 4.9293756 0.07982173
v 0.10118249 3.826941 0.113978535
v 0.04175759 4.92622 0.5018959
v 0.14218612 4.876271 0.26318505
v 0.0020188368 6.568969 -0.47411895
v -0.11139772 4.8898706 0.011924563
v -0.22378929 5.1243076 -0.35813892
v -0.056827694 3.8738887 -0.33986694
v 0.18557 3.955104 -0.4378016
v 0.06401195 3.3058457 -0.92176604
v 0.18557 3.955104 -0.4378016
v -0.056827694 3.8738887 -0.33986694
v 0.10118249 3.826941 0.113978535
v 0.10118249 3.826941 0.113978535
v -0.22481427 3.9452126 0.41838673
v 0.05939435 3.9268389 0.5914002
v -0.045291748 3.63324 0.97518015
v 0.05939435 3.9268389 0.5914002
v -0.22840375 3.6059384 0.9959045
v 0.06401195 3.3058457 -0.92176604
v 0.18557 3.955104 -0.4378016
v 0.24598324 3.2863004 -0.9329016
v 0.10118249 3.826941 0.113978535
v -0.056827694 3.8738887 -0.33986694
v -0.22481427 3.9452126 0.41838673
v 0.05939435 3.9268389 0.5914002
v -0.22481427 3.9452126 0.41838673
v -0.22840375 3.6059384 0.9959045
v -0.11139772 4.8898706 0.011924563
v -0.07220322 4.9684978 0.24905406
v -0.22481427 3.9452126 0.41838673
v -0.18676037 4.894947 -0.66788596
v -0.22378929 5.1243076 -0.35813892
v -0.056827694 3.8738887 -0.33986694
v 0.06401195 3.3058457 -0.92176604
v -0.1877703 5.001531 0.98900634
v -0.29866195 4.973812 0.70024717
v -0.14713688 6.002412 0.982108
v -0.024854496 6.027322 0.9449449
v -0.1877703 5.001531 0.98900634
v -0.14713688 6.002412 0.982108
v -0.07220322 4.9684978 0.24905406
v -0.30368227 5.1870003 0.51143223
v -0.22481427 3.9452126 0.41838673
v -0.18676037 4.894947 -0.66788596
v 0.06401195 3.3058457 -0.92176604
v 0.02971159 4.808282 -0.95883566
v 0.024120823 6.635689 0.5226229
v 0.017269932 4.9770803 0.76817256
v -0.024854496 6.027322 0.9449449
v 0.10246049 4.9293756 0.07982173
v 0.103738464 7.290038 0.04566495
v -0.30368227 5.1870003 0.51143223
v -0.29866195 4.973812 0.70024717
v -0.22481427 3.9452126 0.41838673
v 0.024120823 6.635689 0.5226229
v 0.10246049 4.9293756 0.07982173
v 0.14218612 4.876271 0.26318505
v 0.14218612 4.876271 0.26318505
v 0.04175759 4.92622 0.5018959
v 0.024120823 6.635689 0.5226229
v -0.056827694 3.8738887 -0.33986694
v -0.11139772 4.8898706 0.011924563
v -0.22481427 3.9452126 0.41838673
v -0.11139772 4.8898706 0.011924563
v -0.056827694 3.8738887 -0.33986694
v -0.22378929 5.1243076 -0.35813892
vn -0.085077584 -0.992857 -0.08364694
vn -0.085077584 -0.992857 -0.08364693
vn -0.08507758 -0.992857 -0.08364692
vn -0.11216678 -0.9920093 -0.05775982
vn 0.29398543 0.95547575 -0.025270434
vn 0.29398543 0.95547575 -0.025270434
vn 0.29398546 0.95547575 -0.025270434
vn -0.99860865 0.027056213 -0.045262482
vn -0.99860865 0.027056213 -0.04526248
vn -0.99860865 0.027056212 -0.045262482
vn -0.9963586 0.023685329 -0.081906304
vn -0.9963586 0.02368533 -0.081906304
vn 0.018609045 0.045048814 0.9988115
vn 0.018609043 0.04504881 0.9988115
vn 0.018609043 0.04504881 0.9988115
vn 0.9973258 0.047679156 0.055390317
vn 0.9973258 0.047679156 0.055390317
vn 0.9973258 0.047679156 0.055390324
vn 0.003175297 0.015719518 -0.9998714
vn 0.003175297 0.015719518 -0.9998714
vn 0.003175297 0.01571952 -0.9998714
vn -0.94733065 0.035400942 -0.31829458
vn -0.94733065 0.03540094 -0.31829455
vn -0.94733065 0.035400942 -0.3182946
vn -0.94773895 -1.8338078E-4 -0.31904683
vn 0.17016901 -0.010784622 0.9853558
vn 0.170169 -0.010784621 0.9853558
vn 0.17016901 -0.010784623 0.9853558
vn 0.1737674 -0.011025858 0.98472494
vn 0.94973314 -0.0042153336 0.3130325
vn 0.94973314 -0.0042153336 0.31303254
vn 0.94973314 -0.0042153336 0.31303254
vn 0.9489498 0.02859 0.3141289
vn -0.16405708 0.02583562 -0.9861124
vn -0.16405709 0.02583562 -0.9861124
vn -0.16405709 0.02583562 -0.9861124
vn -0.16329911 0.029576521 -0.98613316
vn -0.15365648 0.02625348 -0.98777544
vn 0.19986093 0.97607774 0.08560286
vn 0.19986093 0.97607774 0.085602865
vn 0.19986093 0.97607774 0.08560286
vn 0.185342 0.061148588 0.98076963
vn 0.18534197 0.061148588 0.98076963
vn 0.18534197 0.061148588 0.98076963
vn 0.9959627 -0.009410126 0.089273125
vn 0.9959627 -0.009410126 0.089273125
vn 0.9959627 -0.009410125 0.089273125
vn 0.13530259 0.55763745 0.81898326
vn 0.1353026 0.55763745 0.81898326
vn 0.13530259 0.55763745 0.81898326
vn 0.13627657 -0.012645885 -0.9905901
vn 0.13627659 -0.012645887 -0.9905901
vn 0.13627657 -0.012645887 -0.9905901
vn 0.13627584 -0.01264604 -0.9905902
vn 0.13712502 -0.009273194 -0.9905103
vn -0.9917436 0.030966818 -0.12444116
vn -0.9917436 0.030966816 -0.12444116
vn -0.9917436 0.030966815 -0.12444116
vn -0.98754627 0.022804556 0.15566738
vn -0.98754627 0.022804556 0.15566738
vn -0.98754627 0.022804556 0.15566738
vn -0.3236481 0.5696327 -0.7554935
vn -0.3236481 0.5696327 -0.7554935
vn -0.3236481 0.5696327 -0.7554935
vn 0.3455582 0.52492774 0.7778435
vn 0.34555814 0.52492774 0.7778435
vn 0.3455581 0.5249277 0.7778435
vn 0.33699822 0.49151307 0.80302376
vn -0.9808139 0.12765998 -0.14733309
vn -0.9808139 0.12765998 -0.14733309
vn -0.9808139 0.12765998 -0.14733309
vn -0.96741617 0.1339639 -0.21484762
vn -0.96741617 0.1339639 -0.21484764
vn -0.96741617 0.1339639 -0.21484762
vn -0.23434797 0.50554985 -0.8303616
vn -0.23434797 0.5055498 -0.8303616
vn -0.23434795 0.50554985 -0.83036155
vn 0.96569777 -0.0049649472 0.25962126
vn 0.96569777 -0.004964947 0.25962123
vn 0.96569777 -0.0049649472 0.25962126
vn 0.96446145 -0.0042036404 0.26418987
vn 0.9643425 -0.005856085 0.26459274
vn -0.9995153 0.02915539 0.010915552
vn -0.9995153 0.02915539 0.010915552
vn -0.9995153 0.02915539 0.010915552
vn -0.9150691 -0.16636834 0.36738268
vn -0.9150691 -0.16636835 0.36738268
vn -0.9150691 -0.16636834 0.36738268
vn 0.186328 -5.687841E-4 0.9824875
vn 0.186328 -5.68784E-4 0.9824875
vn 0.186328 -5.6878413E-4 0.9824875
vn 0.18407561 0.012981105 0.9828264
vn 0.110988304 0.009960813 0.99377185
vn 0.11098831 0.0099608125 0.99377185
vn 0.11098831 0.0099608125 0.99377185
vn 0.9943915 0.012039649 0.1050742
vn 0.9943915 0.012039648 0.10507419
vn 0.9943915 0.012039651 0.1050742
vn 0.99355936 0.01649249 0.11210595
vn 0.994406 0.0144127235 0.10463733
vn 0.99586594 7.751257E-4 0.09083131
vn 0.9928449 0.012731822 0.1187307
vn 0.9876738 0.018727984 0.1554017
vn 0.9876738 0.018727984 0.15540172
vn 0.9876738 0.01872799 0.1554017
vn 0.9879386 0.013590615 0.15424894
vn 0.99586594 7.7512575E-4 0.09083132
vn 0.99586594 7.751257E-4 0.09083132
vn 0.99557173 0.001899162 0.09398472
vn 0.9963213 0.024925869 0.08199119
vn 0.995908 0.025344418 0.086746
vn 0.995908 0.025344416 0.08674599
vn 0.995908 0.025344416 0.08674599
vn 0.9959145 0.009185748 0.08983299
vn -0.063848495 -0.026071925 -0.997619
vn -0.063848495 -0.026071923 -0.997619
vn -0.063848495 -0.026071928 -0.997619
vn -0.06384899 -0.0260719 -0.99761885
vn -0.064826906 -0.035380572 -0.9972691
vn -0.2317632 0.6038209 -0.76268345
vn -0.2317632 0.6038209 -0.7626835
vn -0.23176318 0.6038209 -0.76268345
vn -0.9854593 -0.0013831309 -0.16990624
vn -0.9854593 -0.0013831308 -0.16990623
vn -0.9854593 -0.0013831308 -0.16990624
vn -0.7030706 0.10051578 -0.7039803
vn -0.7030706 0.10051578 -0.7039803
vn -0.7030706 0.100515775 -0.70398027
vn 9.527355E-4 0.6459365 0.7633905
vn 9.5273554E-4 0.6459365 0.76339054
vn 9.527355E-4 0.6459365 0.7633905
vn -0.8078246 -0.04468212 -0.58772683
vn -0.8078246 -0.044682123 -0.5877269
vn -0.8078246 -0.044682123 -0.5877269
vn 0.2597949 0.6012281 -0.7556662
vn 0.25979486 0.6012282 -0.7556662
vn 0.25979486 0.60122806 -0.7556662
vn -0.9820494 0.11157297 0.15208676
vn -0.9820494 0.11157297 0.15208675
vn -0.9820494 0.111572966 0.15208675
vn -0.9855621 0.10988822 0.1288095
vn 0.9768298 -0.0077589583 -0.2138771
vn 0.9768298 -0.0077589583 -0.21387711
vn 0.9768298 -0.007758959 -0.21387711
vn 0.91067666 -0.09282592 0.40255597
vn 0.91067666 -0.09282592 0.40255597
vn 0.91067666 -0.092825904 0.40255594
vn -0.90674144 0.17261599 0.38473856
vn -0.90674144 0.17261599 0.38473856
vn -0.90674144 0.17261599 0.38473856
vn 0.46461427 -0.58349437 0.66608393
vn 0.46461427 -0.5834944 0.666084
vn 0.46461427 -0.58349437 0.66608393
vn 0.24475789 -0.95202386 -0.18369599
vn 0.24475789 -0.95202386 -0.18369599
vn 0.24475789 -0.95202386 -0.18369599
vn -0.17619918 -0.9664665 0.18680549
vn -0.17619918 -0.9664665 0.18680549
vn -0.1761992 -0.9664665 0.1868055
vn 0.051598925 -0.7999224 -0.5978809
vn 0.051598925 -0.7999224 -0.5978809
vn 0.05159893 -0.79992247 -0.5978809
vn -0.014853848 -0.59578764 0.8030046
vn -0.014853849 -0.5957877 0.8030046
vn -0.014853848 -0.59578764 0.8030046
vn -0.3275155 -0.94470507 0.016302953
vn -0.3275155 -0.94470507 0.016302953
vn -0.32751548 -0.94470507 0.01630295
vn 0.24423137 -0.8367741 -0.49006122
vn 0.24423137 -0.8367741 -0.49006128
vn 0.24423137 -0.8367741 -0.49006122
vn -0.9805566 0.16405667 0.10767581
vn -0.9805566 0.16405669 0.10767582
vn -0.9805566 0.16405669 0.10767582
vn -0.99096054 -0.13261369 -0.020267611
vn -0.99096054 -0.13261369 -0.020267611
vn -0.99096054 -0.13261369 -0.020267611
vn -0.987326 -0.14578786 -0.06271593
vn -0.93405896 0.04036619 0.35483015
vn -0.93405896 0.04036619 0.35483012
vn -0.93405896 0.04036619 0.35483018
vn 0.29175535 -0.005252296 0.9564785
vn 0.29175535 -0.0052522956 0.9564785
vn 0.29175538 -0.0052522956 0.9564785
vn -0.7490239 0.0020714554 -0.6625397
vn -0.7490239 0.0020714554 -0.6625398
vn -0.7490239 0.0020714554 -0.6625397
vn -0.80654055 -0.03297664 -0.59025836
vn -0.80654055 -0.03297664 -0.5902583
vn -0.80654055 -0.03297664 -0.5902583
vn 0.99023026 0.016410185 0.13847311
vn 0.99023026 0.016410187 0.13847312
vn 0.99023026 0.016410187 0.13847312
vn 0.9859272 0.0018849892 0.16716494
vn 0.9859271 0.001884989 0.16716492
vn -0.99732167 -0.060232725 -0.04149063
vn -0.99732167 -0.06023272 -0.04149063
vn -0.99732167 -0.06023272 -0.04149063
vn 0.978327 0.09293558 -0.18503875
vn 0.978327 0.09293558 -0.18503876
vn 0.978327 0.09293558 -0.18503876
vn 0.92209715 0.0048219487 0.38692844
vn 0.92209715 0.0048219487 0.38692844
vn 0.92209715 0.0048219482 0.3869284
vn -0.9756015 0.023193967 -0.21832038
vn -0.9756015 0.023193967 -0.21832037
vn -0.9756015 0.02319397 -0.21832038
vn -0.9685979 -0.12620118 0.2142227
vn -0.9685979 -0.12620118 0.21422267
vn -0.9685979 -0.12620118 0.2142227
vt 0.9820369 0.97317946
vt 0.9929605 0.9730693
vt 0.9924002 0.98379385
vt 0.98164886 0.98396194
vt 0.9942591 0.87977856
vt 0.99140584 0.8798049
vt 0.99207413 0.877098
vt 0.78646207 0.35196596
vt 0.8771892 0.35429758
vt 0.78558725 0.3628778
vt 0.96812034 0.35916942
vt 0.96831906 0.35635275
vt 0.5732493 0.13672078
vt 0.66477484 0.13810146
vt 0.5723426 0.14745891
vt 0.5589358 0.12304908
vt 0.6501983 0.12796623
vt 0.5594967 0.13378686
vt 0.7854143 0.31882405
vt 0.8762977 0.32203174
vt 0.7866351 0.32961345
vt 0.8771128 0.35872406
vt 0.8771892 0.35429758
vt 0.96812034 0.35916942
vt 0.78558725 0.3628778
vt 0.66360503 0.14336908
vt 0.66477484 0.13810146
vt 0.75525206 0.14415717
vt 0.7557824 0.14135265
vt 0.65038013 0.13236839
vt 0.6501983 0.12796623
vt 0.7416958 0.12987655
vt 0.5594967 0.13378686
vt 0.87736225 0.32726097
vt 0.8762977 0.32203174
vt 0.96849203 0.32526362
vt 0.7866351 0.32961345
vt 0.96761346 0.32244778
vt 0.9942591 0.87977856
vt 0.99207413 0.877098
vt 0.9949223 0.877031
vt 0.5723426 0.14745891
vt 0.66477484 0.13810146
vt 0.66360503 0.14336908
vt 0.7416958 0.12987655
vt 0.6501983 0.12796623
vt 0.7418455 0.12709934
vt 0.94723076 0.5955962
vt 0.94558746 0.5919646
vt 0.9699387 0.59482706
vt 0.85464853 0.44643432
vt 0.88996416 0.45222712
vt 0.85661167 0.45303732
vt 0.8889825 0.4489256
vt 0.93539053 0.45094317
vt 0.9743073 0.5460216
vt 0.90218437 0.54124856
vt 0.95410645 0.5282999
vt 0.90218437 0.54124856
vt 0.9743073 0.5460216
vt 0.9043185 0.5485927
vt 0.96089756 0.27690887
vt 0.9606905 0.28176856
vt 0.93350637 0.2760731
vt 0.9699387 0.59482706
vt 0.97047824 0.5899507
vt 0.99484223 0.5948509
vt 0.94558746 0.5919646
vt 0.95410645 0.5282999
vt 0.90311706 0.52045786
vt 0.934728 0.51159096
vt 0.90311706 0.52045786
vt 0.95410645 0.5282999
vt 0.9097793 0.53019583
vt 0.93350637 0.2760731
vt 0.9337972 0.28084815
vt 0.90726656 0.27584863
vt 0.87707204 0.8760613
vt 0.918211 0.8823985
vt 0.88605994 0.88781
vt 0.9197587 0.87652415
vt 0.950362 0.876987
vt 0.8649639 0.490672
vt 0.89730096 0.5081403
vt 0.8545777 0.50835145
vt 0.89730096 0.5081403
vt 0.8649639 0.490672
vt 0.8964524 0.4993006
vt 0.8786894 0.2478723
vt 0.9224104 0.2520799
vt 0.8796712 0.25251192
vt 0.8480973 0.24875957
vt 0.9224104 0.2520799
vt 0.8786894 0.2478723
vt 0.9213555 0.24651152
vt 0.8869253 0.9193169
vt 0.911893 0.93496776
vt 0.8664512 0.9344734
vt 0.9160884 0.9273895
vt 0.9452515 0.9354621
vt 0.96749663 0.9214103
vt 0.91900957 0.9201726
vt 0.8869253 0.9193169
vt 0.91704786 0.9117267
vt 0.8830018 0.9024253
vt 0.96749663 0.9214103
vt 0.9167506 0.90347093
vt 0.9890175 0.9045166
vt 0.91704786 0.9117267
vt 0.8830018 0.9024253
vt 0.91665405 0.89055
vt 0.88605994 0.88781
vt 0.918211 0.8823985
vt 0.9689859 0.8899155
vt 0.9345742 0.44540024
vt 0.8889825 0.4489256
vt 0.8885743 0.44615412
vt 0.93539053 0.45094317
vt 0.85464853 0.44643432
vt 0.93350637 0.2760731
vt 0.9606905 0.28176856
vt 0.9337972 0.28084815
vt 0.950436 0.7311939
vt 0.8984121 0.71802485
vt 0.96835047 0.7182753
vt 0.8984121 0.71802485
vt 0.950436 0.7311939
vt 0.90417457 0.7286091
vt 0.99484223 0.5948509
vt 0.97047824 0.5899507
vt 0.99279195 0.59046304
vt 0.9551192 0.6808864
vt 0.9881822 0.67691004
vt 0.9882402 0.68832433
vt 0.99503213 0.7810967
vt 0.9678585 0.7809285
vt 0.9926434 0.77456737
vt 0.94913316 0.4946922
vt 0.8964524 0.4993006
vt 0.9029787 0.49352026
vt 0.92794085 0.5079292
vt 0.8830018 0.9024253
vt 0.9151249 0.89785767
vt 0.9167506 0.90347093
vt 0.8830018 0.9024253
vt 0.91665405 0.89055
vt 0.9151249 0.89785767
vt 0.9228947 0.47814107
vt 0.97651935 0.47800803
vt 0.9667437 0.48781222
vt 0.9928703 0.79317313
vt 0.9927954 0.8015534
vt 0.9680672 0.79744095
vt 0.978266 0.6496063
vt 0.9741709 0.6564825
vt 0.96117795 0.64958245
vt 0.96117795 0.64958245
vt 0.9504458 0.65802366
vt 0.9465387 0.64861697
vt 0.9870374 0.8103062
vt 0.97215724 0.81307447
vt 0.9882123 0.8047255
vt 0.9929417 0.7645248
vt 0.9678984 0.76341605
vt 0.9930391 0.7589127
vt 0.96117795 0.64958245
vt 0.9741709 0.6564825
vt 0.9504458 0.65802366
vt 0.97215724 0.81307447
vt 0.9678424 0.80411303
vt 0.9882123 0.8047255
vt 0.90218437 0.54124856
vt 0.9043185 0.5485927
vt 0.872821 0.55260265
vt 0.90311706 0.52045786
vt 0.9097793 0.53019583
vt 0.87150615 0.52932477
vt 0.85479426 0.5108739
vt 0.95853335 0.6743734
vt 0.9551985 0.66547036
vt 0.98816085 0.66646063
vt 0.8480973 0.24875957
vt 0.8796712 0.25251192
vt 0.8490061 0.25247008
vt 0.8984121 0.71802485
vt 0.90417457 0.7286091
vt 0.8666105 0.7221675
vt 0.90311706 0.52045786
vt 0.85479426 0.5108739
vt 0.90079856 0.51145816
vt 0.9689859 0.8899155
vt 0.918211 0.8823985
vt 0.950362 0.876987
vt 0.9167506 0.90347093
vt 0.9890175 0.9045166
vt 0.9029787 0.49352026
vt 0.8964524 0.4993006
vt 0.8649639 0.490672
vt 0.9689859 0.8899155
vt 0.9167506 0.90347093
vt 0.9151249 0.89785767
vt 0.99212456 0.44541776
vt 0.9894039 0.45301974
vt 0.93756294 0.44582057
vt 0.87150615 0.52932477
vt 0.90218437 0.54124856
vt 0.872821 0.55260265
vt 0.90218437 0.54124856
vt 0.87150615 0.52932477
vt 0.9097793 0.53019583

g Flag_YELLOW
s 1
usemtl Flag_YELLOW
f 3/3/3 2/2/2 1/1/1 
f 4/4/4 3/3/3 1/1/1 
f 7/7/7 6/6/6 5/5/5 
f 10/10/10 9/9/9 8/8/8 
f 12/12/12 9/9/9 11/11/11 
f 15/15/15 14/14/14 13/13/13 
f 18/18/18 17/17/17 16/16/16 
f 21/21/21 20/20/20 19/19/19 
f 24/24/24 23/23/23 22/22/22 
f 22/22/22 23/23/23 25/25/25 
f 28/28/28 27/27/27 26/26/26 
f 29/29/29 27/27/27 28/28/28 
f 32/32/32 31/31/31 30/30/30 
f 30/30/30 31/31/31 33/33/33 
f 36/36/36 35/35/35 34/34/34 
f 34/34/34 35/35/35 37/37/37 
f 38/38/38 35/35/35 36/36/36 
f 41/41/41 40/40/40 39/39/39 
f 44/44/44 43/43/43 42/42/42 
f 47/47/47 46/46/46 45/45/45 
f 50/50/50 49/49/49 48/48/48 
f 53/53/53 52/52/52 51/51/51 
f 54/54/54 51/51/51 52/52/52 
f 55/55/55 54/54/54 52/52/52 
f 58/58/58 57/57/57 56/56/56 
f 61/61/61 60/60/60 59/59/59 
f 64/64/64 63/63/63 62/62/62 
f 67/67/67 66/66/66 65/65/65 
f 66/66/66 68/68/68 65/65/65 
f 71/71/71 70/70/70 69/69/69 
f 74/74/74 73/73/73 72/72/72 
f 77/77/77 76/76/76 75/75/75 
f 80/80/80 79/79/79 78/78/78 
f 81/81/81 78/78/78 79/79/79 
f 82/82/82 81/81/81 79/79/79 
f 85/85/85 84/84/84 83/83/83 
f 88/88/88 87/87/87 86/86/86 
f 91/91/91 90/90/90 89/89/89 
f 89/89/89 92/92/92 91/91/91 
f 95/95/95 94/94/94 93/93/93 
f 98/98/98 97/97/97 96/96/96 
f 99/99/99 96/96/96 97/97/97 
f 100/100/100 99/99/99 97/97/97 
f 100/100/100 101/101/101 99/99/99 
f 102/102/102 99/99/99 101/101/101 
f 103/103/103 99/99/99 102/102/102 
f 102/102/102 104/104/104 103/103/103 
f 105/105/105 103/103/103 104/104/104 
f 106/106/106 104/104/104 102/102/102 
f 108/108/108 107/107/107 101/101/101 
f 109/109/109 101/101/101 107/107/107 
f 110/110/110 109/109/109 107/107/107 
f 112/112/112 110/110/110 111/111/111 
f 111/111/111 113/113/113 112/112/112 
f 111/111/111 114/114/114 113/113/113 
f 117/117/117 116/116/116 115/115/115 
f 118/118/118 115/115/115 116/116/116 
f 119/119/119 116/116/116 117/117/117 
f 122/122/122 121/121/121 120/120/120 
f 125/125/125 124/124/124 123/123/123 
f 128/128/128 127/127/127 126/126/126 
f 131/131/131 130/130/130 129/129/129 
f 134/134/134 133/133/133 132/132/132 
f 137/137/137 136/136/136 135/135/135 
f 140/140/140 139/139/139 138/138/138 
f 141/141/141 138/138/138 139/139/139 
f 144/144/144 143/143/143 142/142/142 
f 147/147/147 146/146/146 145/145/145 
f 150/150/150 149/149/149 148/148/148 
f 153/153/153 152/152/152 151/151/151 
f 156/156/156 155/155/155 154/154/154 
f 159/159/159 158/158/158 157/157/157 
f 162/162/162 161/161/161 160/160/160 
f 165/165/165 164/164/164 163/163/163 
f 168/168/168 167/167/167 166/166/166 
f 171/171/171 170/170/170 169/169/169 
f 174/174/174 173/173/173 172/172/172 
f 177/177/177 176/176/176 175/175/175 
f 177/177/177 175/175/175 178/178/178 
f 181/181/181 180/180/180 179/179/179 
f 184/184/184 183/183/183 182/182/182 
f 187/187/187 186/186/186 185/185/185 
f 190/190/190 189/189/189 188/188/188 
f 193/193/193 192/192/192 191/191/191 
f 195/195/195 191/191/191 194/194/194 
f 198/198/198 197/197/197 196/196/196 
f 201/201/201 200/200/200 199/199/199 
f 204/204/204 203/203/203 202/202/202 
f 207/207/207 206/206/206 205/205/205 
f 210/210/210 209/209/209 208/208/208 

