# Created by DisUnity v0.3.4
v -0.07860747 0.058198895 -0.01605421
v -0.095538 0.029619375 0.3403938
v 0.25523323 -5.066395E-8 0.33519444
v 0.27383804 0.018319115 -0.015561918
v 0.06348417 5.998718 0.12724526
v 0.15546577 5.970018 0.112173975
v 0.14738037 5.974905 0.2028927
v -0.07860747 0.058198895 -0.01605421
v -0.001761778 3.0218835 0.06010859
v -0.095538 0.029619375 0.3403938
v 0.055766355 5.992229 0.21925314
v 0.06348417 5.998718 0.12724526
v -0.095538 0.029619375 0.3403938
v -0.050439194 3.0193858 0.20470789
v 0.25523323 -5.066395E-8 0.33519444
v 0.25523323 -5.066395E-8 0.33519444
v 0.12163318 2.9811692 0.17457305
v 0.27383804 0.018319115 -0.015561918
v 0.27383804 0.018319115 -0.015561918
v 0.16905405 2.9871073 0.03077925
v -0.07860747 0.058198895 -0.01605421
v -0.050439194 3.0193858 0.20470789
v -0.001761778 3.0218835 0.06010859
v 0.055766355 5.992229 0.21925314
v -0.095538 0.029619375 0.3403938
v 0.12163318 2.9811692 0.17457305
v -0.050439194 3.0193858 0.20470789
v 0.14738037 5.974905 0.2028927
v 0.055766355 5.992229 0.21925314
v 0.16905405 2.9871073 0.03077925
v 0.12163318 2.9811692 0.17457305
v 0.15546577 5.970018 0.112173975
v 0.27383804 0.018319115 -0.015561918
v -0.001761778 3.0218835 0.06010859
v 0.16905405 2.9871073 0.03077925
v 0.06348417 5.998718 0.12724526
v -0.07860747 0.058198895 -0.01605421
v 0.15546577 5.970018 0.112173975
v 0.06348417 5.998718 0.12724526
v 0.14738037 5.974905 0.2028927
v 0.055766355 5.992229 0.21925314
v 0.25523323 -5.066395E-8 0.33519444
v -0.050439194 3.0193858 0.20470789
v 0.12163318 2.9811692 0.17457305
v 0.15546577 5.970018 0.112173975
v 0.12163318 2.9811692 0.17457305
v 0.14738037 5.974905 0.2028927
v -0.04970187 6.112616 0.80469847
v -0.14663598 6.091058 0.83547366
v 0.0042271465 6.036406 0.355762
v 0.21270736 6.1394277 -0.8106501
v -0.027386002 6.186667 -0.83547205
v 0.24853136 4.704987 -0.75150985
v -0.07321742 6.097729 0.07756684
v -0.27383742 4.6397533 0.8124599
v -0.020110223 6.1418285 -0.37628755
v 0.09189761 6.131926 0.049661838
v -0.07321742 6.097729 0.07756684
v 0.14792444 6.157553 -0.40290064
v 0.0042271465 6.036406 0.355762
v -0.16158764 6.0854726 0.37952766
v 0.09189761 6.131926 0.049661838
v 0.06523245 3.2678983 0.15348372
v 0.0027736789 3.1896677 0.1237443
v 0.08298582 3.9887254 0.60348886
v 0.04673185 4.040426 -0.35486692
v 0.1820074 4.873977 -0.3921929
v 0.24853136 4.704987 -0.75150985
v -0.020110223 6.1418285 -0.37628755
v -0.084907204 4.5563974 -0.31136203
v -0.027386002 6.186667 -0.83547205
v 0.14792444 6.157553 -0.40290064
v -0.020110223 6.1418285 -0.37628755
v 0.21270736 6.1394277 -0.8106501
v -0.07220484 4.6630335 0.79552954
v -0.27383742 4.6397533 0.8124599
v -0.04970187 6.112616 0.80469847
v 0.24853136 4.704987 -0.75150985
v 0.1820074 4.873977 -0.3921929
v 0.21270736 6.1394277 -0.8106501
v 0.14792444 6.157553 -0.40290064
v 0.10674455 4.8192306 0.06891488
v 0.09189761 6.131926 0.049661838
v 0.1820074 4.873977 -0.3921929
v 0.06523245 3.2678983 0.15348372
v 0.048154783 4.72121 -0.74182147
v -0.084907204 4.5563974 -0.31136203
v -0.048379105 4.0234714 -0.39383304
v 0.0042271465 6.036406 0.355762
v -0.14663598 6.091058 0.83547366
v -0.16158764 6.0854726 0.37952766
v 0.24853136 4.704987 -0.75150985
v -0.027386002 6.186667 -0.83547205
v 0.048154783 4.72121 -0.74182147
v 0.08298582 3.9887254 0.60348886
v 0.10674455 4.8192306 0.06891488
v 0.06523245 3.2678983 0.15348372
v 0.14792444 6.157553 -0.40290064
v -0.07321742 6.097729 0.07756684
v -0.020110223 6.1418285 -0.37628755
v -0.16158764 6.0854726 0.37952766
v -0.27383742 4.6397533 0.8124599
v -0.07321742 6.097729 0.07756684
v 0.09189761 6.131926 0.049661838
v -0.16158764 6.0854726 0.37952766
v -0.07321742 6.097729 0.07756684
v -0.047807314 3.2597127 0.1032894
v 0.08298582 3.9887254 0.60348886
v 0.0027736789 3.1896677 0.1237443
v 0.08298582 3.9887254 0.60348886
v -0.047807314 3.2597127 0.1032894
v -0.16718031 3.9524615 0.58691263
v -0.027386002 6.186667 -0.83547205
v -0.084907204 4.5563974 -0.31136203
v 0.048154783 4.72121 -0.74182147
v 0.21270736 6.1394277 -0.8106501
v -0.020110223 6.1418285 -0.37628755
v -0.027386002 6.186667 -0.83547205
v -0.07220484 4.6630335 0.79552954
v -0.04970187 6.112616 0.80469847
v 0.0042271465 6.036406 0.355762
v -0.14663598 6.091058 0.83547366
v -0.27383742 4.6397533 0.8124599
v -0.16158764 6.0854726 0.37952766
v -0.04970187 6.112616 0.80469847
v -0.27383742 4.6397533 0.8124599
v -0.14663598 6.091058 0.83547366
v -0.047807314 3.2597127 0.1032894
v -0.084907204 4.5563974 -0.31136203
v -0.16718031 3.9524615 0.58691263
v -0.27383742 4.6397533 0.8124599
v 0.10674455 4.8192306 0.06891488
v 0.0042271465 6.036406 0.355762
v 0.09189761 6.131926 0.049661838
v -0.07220484 4.6630335 0.79552954
v -0.048379105 4.0234714 -0.39383304
v -0.084907204 4.5563974 -0.31136203
v -0.047807314 3.2597127 0.1032894
v -0.047807314 3.2597127 0.1032894
v 0.0027736789 3.1896677 0.1237443
v -0.048379105 4.0234714 -0.39383304
v 0.04673185 4.040426 -0.35486692
v 0.0027736789 3.1896677 0.1237443
v 0.06523245 3.2678983 0.15348372
v 0.0027736789 3.1896677 0.1237443
v 0.04673185 4.040426 -0.35486692
v -0.048379105 4.0234714 -0.39383304
v 0.04673185 4.040426 -0.35486692
v 0.048154783 4.72121 -0.74182147
v 0.24853136 4.704987 -0.75150985
v 0.06523245 3.2678983 0.15348372
v 0.1820074 4.873977 -0.3921929
v 0.04673185 4.040426 -0.35486692
v 0.08298582 3.9887254 0.60348886
v -0.07220484 4.6630335 0.79552954
v 0.10674455 4.8192306 0.06891488
v -0.020110223 6.1418285 -0.37628755
v -0.27383742 4.6397533 0.8124599
v -0.084907204 4.5563974 -0.31136203
v -0.07220484 4.6630335 0.79552954
v -0.16718031 3.9524615 0.58691263
v -0.27383742 4.6397533 0.8124599
v 0.08298582 3.9887254 0.60348886
vn -0.08507757 -0.992857 -0.08364694
vn -0.08507758 -0.992857 -0.08364693
vn -0.08507758 -0.992857 -0.08364694
vn -0.11216678 -0.9920093 -0.05775982
vn 0.29398543 0.95547575 -0.025270406
vn 0.29398543 0.95547575 -0.025270408
vn 0.29398543 0.95547575 -0.025270406
vn -0.99860865 0.027056213 -0.045262482
vn -0.99860865 0.027056213 -0.04526248
vn -0.99860865 0.027056212 -0.045262482
vn -0.9963586 0.023685323 -0.08190627
vn -0.9963586 0.023685323 -0.08190627
vn 0.018608987 0.045048807 0.9988115
vn 0.018608985 0.0450488 0.9988115
vn 0.018608985 0.0450488 0.9988115
vn 0.9973258 0.047679156 0.055390317
vn 0.9973258 0.047679156 0.055390317
vn 0.9973258 0.047679156 0.055390324
vn 0.003175297 0.015719518 -0.9998714
vn 0.003175297 0.015719518 -0.9998714
vn 0.003175297 0.01571952 -0.9998714
vn -0.94733065 0.035400946 -0.31829464
vn -0.94733065 0.035400946 -0.3182946
vn -0.94733065 0.035400942 -0.31829464
vn -0.94773895 -1.8337884E-4 -0.31904683
vn 0.17016901 -0.0107846195 0.9853558
vn 0.17016901 -0.0107846195 0.9853558
vn 0.17016903 -0.0107846195 0.9853558
vn 0.17376736 -0.011025855 0.98472494
vn 0.94973314 -0.004215333 0.3130325
vn 0.94973314 -0.0042153327 0.31303254
vn 0.94973314 -0.0042153336 0.31303254
vn 0.9489498 0.02859 0.3141289
vn -0.16405712 0.025835624 -0.9861124
vn -0.16405712 0.025835622 -0.9861124
vn -0.16405715 0.025835624 -0.9861124
vn -0.16329911 0.029576521 -0.98613316
vn -0.15365656 0.02625348 -0.98777544
vn 0.19986096 0.97607774 0.08560286
vn 0.19986095 0.97607774 0.085602865
vn 0.19986098 0.97607774 0.085602865
vn 0.18534197 0.061148588 0.98076963
vn 0.18534195 0.061148588 0.98076963
vn 0.18534195 0.061148588 0.98076963
vn 0.9959627 -0.009410122 0.08927324
vn 0.9959627 -0.009410122 0.08927324
vn 0.9959627 -0.009410123 0.08927324
vn -0.27091953 0.9431275 -0.19264732
vn -0.27091953 0.94312763 -0.19264734
vn -0.27091953 0.9431275 -0.19264732
vn 0.09523608 -0.038632024 -0.9947048
vn 0.09523608 -0.038632024 -0.9947048
vn 0.09523608 -0.038632024 -0.9947048
vn -0.9907736 0.081907056 -0.10797554
vn -0.9907736 0.08190706 -0.10797554
vn -0.9907736 0.081907056 -0.107975535
vn -0.19767871 0.97977626 0.03100958
vn -0.19767871 0.9797763 0.031009581
vn -0.19767871 0.97977626 0.03100958
vn 0.31185997 0.8779342 0.3632835
vn 0.31186 0.87793416 0.36328346
vn 0.31186 0.87793416 0.3632835
vn 0.2577036 -0.5162382 0.81675386
vn 0.25770363 -0.5162382 0.81675386
vn 0.25770363 -0.5162382 0.81675386
vn 0.9585652 -0.1445721 0.24546234
vn 0.9585652 -0.1445721 0.24546234
vn 0.9585652 -0.14457211 0.24546234
vn -0.99893457 0.041641418 0.019894324
vn -0.99893457 0.041641418 0.019894326
vn -0.99893457 0.041641418 0.019894322
vn -0.10248521 0.99289787 -0.06041969
vn -0.1024852 0.99289787 -0.060419686
vn -0.10248521 0.99289787 -0.06041969
vn 0.084542476 -0.007614827 0.99639076
vn 0.084542476 -0.007614826 0.99639076
vn 0.084542476 -0.007614827 0.99639076
vn 0.9853504 0.03151846 0.16760443
vn 0.9853504 0.031518452 0.1676044
vn 0.9853504 0.031518456 0.1676044
vn 0.99224925 0.013035102 0.12357772
vn 0.99224925 0.013035103 0.12357773
vn 0.99224925 0.013035105 0.12357773
vn 0.9871171 -0.017745938 0.1590121
vn 0.9871171 -0.01774594 0.1590121
vn -0.9531948 -0.01863319 -0.3017822
vn -0.9531948 -0.018633189 -0.30178222
vn -0.9531948 -0.018633189 -0.30178216
vn 0.28092366 0.9595011 -0.020965122
vn 0.28092366 0.9595011 -0.020965122
vn 0.2809237 0.9595011 -0.020965124
vn -0.053553045 -0.066432804 -0.9963527
vn -0.053553045 -0.066432804 -0.9963527
vn -0.053553052 -0.066432804 -0.9963527
vn 0.9996418 -0.02657844 0.0031365284
vn 0.9996418 -0.02657844 0.0031365287
vn 0.9996418 -0.02657844 0.0031365284
vn -0.079113714 0.9930415 0.08723244
vn -0.079113714 0.9930415 0.08723243
vn -0.07911372 0.9930415 0.08723245
vn -0.9595932 -0.009709055 -0.28122342
vn -0.9595932 -0.009709055 -0.28122342
vn -0.9595932 -0.009709055 -0.28122342
vn -0.20609905 0.9783141 -0.020605957
vn -0.20609903 0.9783141 -0.020605955
vn -0.20609905 0.9783141 -0.020605959
vn -0.6976397 -0.31601155 0.64298946
vn -0.6976397 -0.31601155 0.64298946
vn -0.69763976 -0.31601155 0.6429895
vn 0.028016077 -0.5689535 0.8218923
vn 0.028016075 -0.5689535 0.82189244
vn 0.028016075 -0.5689535 0.8218923
vn -0.9453422 -0.06909518 -0.31867543
vn -0.9453422 -0.06909518 -0.31867543
vn -0.9453422 -0.06909517 -0.31867543
vn 0.18298918 0.97873735 0.09267238
vn 0.1829892 0.97873735 0.09267238
vn 0.18298918 0.97873735 0.09267239
vn 0.99240327 -0.01617725 0.12195979
vn 0.99240327 -0.01617725 0.1219598
vn 0.99240327 -0.01617725 0.12195979
vn -0.9957273 0.0867709 0.03158965
vn -0.9957273 0.0867709 0.031589646
vn -0.9957273 0.0867709 0.031589642
vn 0.3108645 -0.04230282 0.9495123
vn 0.31086454 -0.04230282 0.9495123
vn 0.31086454 -0.042302825 0.9495123
vn -0.98755056 -0.072839186 -0.13942178
vn -0.98755056 -0.07283917 -0.13942178
vn -0.98755056 -0.07283917 -0.13942176
vn -0.9823429 -0.10070009 -0.1576765
vn 0.959994 0.0149589395 0.27962083
vn 0.959994 0.014958942 0.27962086
vn 0.959994 0.01495894 0.27962083
vn 0.9694849 0.024163017 0.24395728
vn -0.9949567 -0.055240348 -0.08372462
vn -0.9949567 -0.05524034 -0.08372461
vn -0.9949567 -0.055240344 -0.08372462
vn -0.3847695 -0.50371695 -0.7734478
vn -0.3847695 -0.50371695 -0.7734478
vn -0.3847695 -0.50371695 -0.7734478
vn 0.7303556 -0.36318958 -0.5785101
vn 0.7303556 -0.36318964 -0.5785101
vn 0.7303556 -0.36318958 -0.5785101
vn 0.4053946 -0.46403235 -0.78760976
vn 0.40539467 -0.4640324 -0.78760976
vn 0.4053946 -0.46403235 -0.78760976
vn 0.34161264 -0.46496177 -0.81676894
vn -0.04309242 -0.49362275 -0.8686078
vn -0.08176009 -0.4923662 -0.86653954
vn 0.9435808 -0.16596362 -0.28655073
vn 0.9435808 -0.16596362 -0.28655073
vn 0.9435808 -0.16596362 -0.28655076
vn 0.95328826 0.1437349 0.2656722
vn 0.95328826 0.1437349 0.26567224
vn 0.95328826 0.1437349 0.26567224
vn -0.9852041 0.033381518 -0.1681026
vn -0.9852041 0.033381518 -0.1681026
vn -0.9852041 0.033381518 -0.1681026
vn 0.08599472 -0.29122174 0.95278263
vn 9.397237E-4 -0.28181598 0.95946807
vn 0.11361522 -0.2938271 0.94908226
vn -0.023205498 -0.27876785 0.9600782
vt 0.98203677 0.95853126
vt 0.9929605 0.95842075
vt 0.99240035 0.96914566
vt 0.98164886 0.9693136
vt 0.9942591 0.894427
vt 0.99140584 0.8944534
vt 0.99207413 0.8917465
vt 0.800134 0.4183722
vt 0.8908612 0.42070383
vt 0.7992592 0.42928404
vt 0.98179233 0.42557567
vt 0.9819909 0.422759
vt 0.18848369 0.1230489
vt 0.2800092 0.12442958
vt 0.18757695 0.13378704
vt 0.37338898 0.1230492
vt 0.4646514 0.12796623
vt 0.37394986 0.13378674
vt 0.7990861 0.3852303
vt 0.8899695 0.3884381
vt 0.800307 0.3960197
vt 0.89078474 0.4251303
vt 0.8908612 0.42070383
vt 0.98179233 0.42557567
vt 0.7992592 0.42928404
vt 0.27883938 0.12969708
vt 0.2800092 0.12442958
vt 0.37048644 0.1304853
vt 0.37101686 0.12768078
vt 0.4648332 0.13236815
vt 0.4646514 0.12796623
vt 0.5561489 0.12987643
vt 0.37394986 0.13378674
vt 0.89103407 0.39366722
vt 0.8899695 0.3884381
vt 0.9821639 0.39167
vt 0.800307 0.3960197
vt 0.9812853 0.38885403
vt 0.9942591 0.894427
vt 0.99207413 0.8917465
vt 0.9949223 0.8916794
vt 0.18757695 0.13378704
vt 0.2800092 0.12442958
vt 0.27883938 0.12969708
vt 0.5561489 0.12987643
vt 0.4646514 0.12796623
vt 0.5562985 0.12709934
vt 0.9690571 0.6602357
vt 0.9706228 0.6630065
vt 0.9551585 0.6622036
vt 0.9481441 0.6257141
vt 0.9464108 0.6184265
vt 0.9920658 0.62508845
vt 0.94149286 0.63469875
vt 0.8968599 0.6571959
vt 0.9428428 0.6208049
vt 0.9731623 0.6287725
vt 0.9745949 0.63369465
vt 0.95920265 0.6286694
vt 0.9921676 0.85391027
vt 0.99566495 0.85795027
vt 0.9828507 0.8580038
vt 0.9483121 0.55654347
vt 0.9456425 0.55478466
vt 0.9742794 0.5548984
vt 0.8783446 0.5903623
vt 0.9038621 0.59150493
vt 0.8986888 0.60250473
vt 0.9428428 0.6208049
vt 0.8943081 0.6227925
vt 0.9442155 0.6067479
vt 0.95920265 0.6286694
vt 0.9606063 0.6336849
vt 0.9465747 0.62814164
vt 0.87635005 0.48401934
vt 0.87586844 0.4778245
vt 0.92066944 0.4863655
vt 0.8986888 0.60250473
vt 0.9038621 0.59150493
vt 0.94260126 0.60431516
vt 0.94315624 0.59183276
vt 0.9021861 0.577389
vt 0.9423716 0.5779785
vt 0.9038621 0.59150493
vt 0.8546953 0.57480013
vt 0.8993535 0.60961485
vt 0.8943081 0.6227925
vt 0.87799364 0.62026775
vt 0.9825008 0.8686441
vt 0.997968 0.8693886
vt 0.98463386 0.8735434
vt 0.9920658 0.62508845
vt 0.9464108 0.6184265
vt 0.9913291 0.6189785
vt 0.87676185 0.5610242
vt 0.9021861 0.577389
vt 0.8546953 0.57480013
vt 0.95920265 0.6286694
vt 0.9745949 0.63369465
vt 0.9606063 0.6336849
vt 0.94111764 0.64394265
vt 0.8968599 0.6571959
vt 0.94149286 0.63469875
vt 0.9731623 0.6287725
vt 0.98408943 0.63531375
vt 0.9745949 0.63369465
vt 0.9674296 0.29420674
vt 0.99477047 0.29522783
vt 0.966167 0.29661357
vt 0.96825457 0.78339463
vt 0.9956126 0.7837159
vt 0.97047776 0.7908241
vt 0.9442155 0.6067479
vt 0.8943081 0.6227925
vt 0.8993535 0.60961485
vt 0.9465747 0.62814164
vt 0.9606063 0.6336849
vt 0.94666904 0.63553023
vt 0.89740443 0.5551452
vt 0.9417805 0.5548645
vt 0.9394474 0.5686078
vt 0.9412886 0.6579005
vt 0.8968599 0.6571959
vt 0.94111764 0.64394265
vt 0.92066944 0.4863655
vt 0.87586844 0.4778245
vt 0.9201207 0.4833755
vt 0.8546127 0.6354862
vt 0.8943081 0.6227925
vt 0.8758198 0.6502913
vt 0.8968599 0.6571959
vt 0.9021861 0.577389
vt 0.9394474 0.5686078
vt 0.9423716 0.5779785
vt 0.89740443 0.5551452
vt 0.87799364 0.62026775
vt 0.8943081 0.6227925
vt 0.8546127 0.6354862
vt 0.97038424 0.8155844
vt 0.9725491 0.8172281
vt 0.94249004 0.81600595
vt 0.8478617 0.2869646
vt 0.8777242 0.2852276
vt 0.8761583 0.2880146
vt 0.90103763 0.20981103
vt 0.8711967 0.20773584
vt 0.8714165 0.2045545
vt 0.8711967 0.20773584
vt 0.8473734 0.20508808
vt 0.84700924 0.21048456
vt 0.8546953 0.57480013
vt 0.9038621 0.59150493
vt 0.8783446 0.5903623
vt 0.87676185 0.5610242
vt 0.89740443 0.5551452
vt 0.9021861 0.577389
vt 0.9428428 0.6208049
vt 0.8968599 0.6571959
vt 0.8943081 0.6227925
vt 0.87635005 0.48401934
vt 0.8547212 0.48030132
vt 0.87586844 0.4778245
vt 0.8555443 0.4879958

g Flag_RED
s 1
usemtl Flag_RED
f 3/3/3 2/2/2 1/1/1 
f 4/4/4 3/3/3 1/1/1 
f 7/7/7 6/6/6 5/5/5 
f 10/10/10 9/9/9 8/8/8 
f 12/12/12 9/9/9 11/11/11 
f 15/15/15 14/14/14 13/13/13 
f 18/18/18 17/17/17 16/16/16 
f 21/21/21 20/20/20 19/19/19 
f 24/24/24 23/23/23 22/22/22 
f 22/22/22 23/23/23 25/25/25 
f 28/28/28 27/27/27 26/26/26 
f 29/29/29 27/27/27 28/28/28 
f 32/32/32 31/31/31 30/30/30 
f 30/30/30 31/31/31 33/33/33 
f 36/36/36 35/35/35 34/34/34 
f 34/34/34 35/35/35 37/37/37 
f 38/38/38 35/35/35 36/36/36 
f 41/41/41 40/40/40 39/39/39 
f 44/44/44 43/43/43 42/42/42 
f 47/47/47 46/46/46 45/45/45 
f 50/50/50 49/49/49 48/48/48 
f 53/53/53 52/52/52 51/51/51 
f 56/56/56 55/55/55 54/54/54 
f 59/59/59 58/58/58 57/57/57 
f 62/62/62 61/61/61 60/60/60 
f 65/65/65 64/64/64 63/63/63 
f 68/68/68 67/67/67 66/66/66 
f 71/71/71 70/70/70 69/69/69 
f 74/74/74 73/73/73 72/72/72 
f 77/77/77 76/76/76 75/75/75 
f 80/80/80 79/79/79 78/78/78 
f 81/81/81 79/79/79 80/80/80 
f 81/81/81 82/82/82 79/79/79 
f 83/83/83 82/82/82 81/81/81 
f 82/82/82 85/85/85 84/84/84 
f 88/88/88 87/87/87 86/86/86 
f 91/91/91 90/90/90 89/89/89 
f 94/94/94 93/93/93 92/92/92 
f 97/97/97 96/96/96 95/95/95 
f 100/100/100 99/99/99 98/98/98 
f 103/103/103 102/102/102 101/101/101 
f 106/106/106 105/105/105 104/104/104 
f 109/109/109 108/108/108 107/107/107 
f 112/112/112 111/111/111 110/110/110 
f 115/115/115 114/114/114 113/113/113 
f 118/118/118 117/117/117 116/116/116 
f 121/121/121 120/120/120 119/119/119 
f 124/124/124 123/123/123 122/122/122 
f 127/127/127 126/126/126 125/125/125 
f 130/130/130 129/129/129 128/128/128 
f 130/130/130 131/131/131 129/129/129 
f 134/134/134 133/133/133 132/132/132 
f 133/133/133 135/135/135 132/132/132 
f 138/138/138 137/137/137 136/136/136 
f 141/141/141 140/140/140 139/139/139 
f 144/144/144 143/143/143 142/142/142 
f 147/147/147 146/146/146 145/145/145 
f 147/147/147 149/149/149 148/148/148 
f 150/150/150 148/148/148 149/149/149 
f 153/153/153 152/152/152 151/151/151 
f 156/156/156 155/155/155 154/154/154 
f 159/159/159 158/158/158 157/157/157 
f 162/162/162 161/161/161 160/160/160 
f 163/163/163 160/160/160 161/161/161 

