# Created by DisUnity v0.3.4
v -2.0987742 0.014417744 1.9442998
v 1.8153653 0.060682278 -1.8107331
v -2.131581 0.00812212 -2.0734904
v 2.1315815 -1.2346749E-16 2.0163772
v -1.4501058 2.7858179 1.3271562
v 1.4090325 2.7821577 -1.4157605
v 1.3535074 2.7276099 1.2703133
v -1.4338024 2.7698004 -1.4036945
v -2.0987742 0.014417744 1.9442998
v 1.854321 1.2599444 1.7538558
v 2.1315815 -1.2346749E-16 2.0163772
v -0.13653877 1.2653601 1.7199355
v 2.1315815 -1.2346749E-16 2.0163772
v 1.7404788 1.3043894 -1.7391038
v 1.8153653 0.060682278 -1.8107331
v 1.8892943 1.2815952 0.061983492
v 1.8153653 0.060682278 -1.8107331
v -1.9076164 1.2797415 -1.8551611
v -2.131581 0.00812212 -2.0734904
v -0.050132748 1.2994847 -1.7315041
v -2.131581 0.00812212 -2.0734904
v -1.9024459 1.2884635 1.7557385
v -2.0987742 0.014417744 1.9442998
v -1.9178852 1.2860987 -0.13508484
v -1.9076164 1.2797415 -1.8551611
v -1.5682482 1.2854928 1.432329
v -0.13653877 1.2653601 1.7199355
v -1.9024459 1.2884635 1.7557385
v -1.9178852 1.2860987 -0.13508484
v 1.4581342 1.247363 1.3709694
v 1.854321 1.2599444 1.7538558
v -1.9076164 1.2797415 -1.8551611
v -1.5506493 1.2750003 -1.5155094
v -0.050132748 1.2994847 -1.7315041
v 1.5180712 1.2830949 -1.5285344
v 1.854321 1.2599444 1.7538558
v 1.4581342 1.247363 1.3709694
v 1.8892943 1.2815952 0.061983492
v 1.7404788 1.3043894 -1.7391038
v -1.5506493 1.2750003 -1.5155094
v 1.7404788 1.3043894 -1.7391038
v 1.5180712 1.2830949 -1.5285344
v -0.050132748 1.2994847 -1.7315041
v -1.9024459 1.2884635 1.7557385
v -0.13653877 1.2653601 1.7199355
v -2.0987742 0.014417744 1.9442998
v 1.854321 1.2599444 1.7538558
v 1.8892943 1.2815952 0.061983492
v 2.1315815 -1.2346749E-16 2.0163772
v 1.7404788 1.3043894 -1.7391038
v -0.050132748 1.2994847 -1.7315041
v 1.8153653 0.060682278 -1.8107331
v -1.5682482 1.2854928 1.432329
v 1.3535074 2.7276099 1.2703133
v 1.4581342 1.247363 1.3709694
v -1.4501058 2.7858179 1.3271562
v 1.4581342 1.247363 1.3709694
v 1.4090325 2.7821577 -1.4157605
v 1.5180712 1.2830949 -1.5285344
v 1.3535074 2.7276099 1.2703133
v 1.5180712 1.2830949 -1.5285344
v -1.4338024 2.7698004 -1.4036945
v -1.5506493 1.2750003 -1.5155094
v 1.4090325 2.7821577 -1.4157605
v -1.5392048 1.5119125 -0.37813756
v -1.2573949 1.5119125 -0.37813756
v -1.2573949 1.5119125 0.4015198
v -1.5440767 1.5119125 0.4015198
v -1.462819 2.5484836 0.4015198
v -1.5440767 1.5119125 0.4015198
v -1.2573949 1.5119125 0.4015198
v -1.2573949 2.5484836 0.4015198
v -1.4578048 2.5484836 -0.37813756
v -1.462819 2.5484836 0.4015198
v -1.2573949 2.5484836 0.4015198
v -1.2573949 2.5484836 -0.37813756
v -1.2573949 1.5119125 0.4015198
v -1.2573949 1.5119125 -0.37813756
v -1.2573949 2.5484836 -0.37813756
v -1.2573949 2.5484836 0.4015198
v -1.5506493 1.2750003 -1.5155094
v -1.4338024 2.7698004 -1.4036945
v -1.5392048 1.5119125 -0.37813756
v -1.5682482 1.2854928 1.432329
v -1.5440767 1.5119125 0.4015198
v -1.462819 2.5484836 0.4015198
v -1.4501058 2.7858179 1.3271562
v -1.4578048 2.5484836 -0.37813756
v -1.2573949 2.5484836 -0.37813756
v -1.5392048 1.5119125 -0.37813756
v -1.4578048 2.5484836 -0.37813756
v -1.2573949 1.5119125 -0.37813756
v -1.5647304 2.7162619 1.7615153
v 1.409579 2.774875 -1.9880865
v -1.5901688 2.706937 -1.8967603
v 1.7930137 2.682309 0.023224678
v -0.33495593 2.7084336 2.0734923
v 1.4853632 2.69736 1.8270772
v -0.33495593 2.7084336 2.0734923
v -0.06558152 4.318553 1.6289175
v 1.4853632 2.69736 1.8270772
v 1.409579 2.774875 -1.9880865
v 1.0452532 3.5406551 1.0865444
v -0.032711644 4.317544 -1.2256882
v 1.7930137 2.682309 0.023224678
v 1.409579 2.774875 -1.9880865
v -0.032711644 4.317544 -1.2256882
v -1.5901688 2.706937 -1.8967603
v -1.5647304 2.7162619 1.7615153
v -0.9672968 3.794028 -0.8796234
v -0.06558152 4.318553 1.6289175
v 1.409579 2.774875 -1.9880865
v -1.5647304 2.7162619 1.7615153
v 1.7930137 2.682309 0.023224678
v -0.032711644 4.317544 -1.2256882
v 1.0452532 3.5406551 1.0865444
v -0.06558152 4.318553 1.6289175
v -0.06558152 4.318553 1.6289175
v -0.9672968 3.794028 -0.8796234
v -0.032711644 4.317544 -1.2256882
v -0.032711644 4.317544 -1.2256882
v -0.9672968 3.794028 -0.8796234
v -1.5901688 2.706937 -1.8967603
v -0.9672968 3.794028 -0.8796234
v -1.5647304 2.7162619 1.7615153
v -1.5901688 2.706937 -1.8967603
v -0.06558152 4.318553 1.6289175
v 1.0452532 3.5406551 1.0865444
v 1.4853632 2.69736 1.8270772
v 1.0452532 3.5406551 1.0865444
v 1.7930137 2.682309 0.023224678
v 1.4853632 2.69736 1.8270772
v -0.06558152 4.318553 1.6289175
v -0.33495593 2.7084336 2.0734923
v -1.5647304 2.7162619 1.7615153
v 0.14783707 3.9540074 0.20427185
v 0.16541828 3.9112358 0.4018525
v 0.3607004 3.8837945 0.37032056
v 0.14783707 3.9540074 0.20427185
v 0.17609961 5.766243 0.35603544
v 0.16541828 3.9112358 0.4018525
v 0.16541828 3.9112358 0.4018525
v 0.15135923 5.755902 0.4845218
v 0.3607004 3.8837945 0.37032056
v 0.3607004 3.8837945 0.37032056
v 0.29454333 5.741513 0.43775532
v 0.34448487 3.9161143 0.17504922
v 0.34448487 3.9161143 0.17504922
v 0.31830603 5.753383 0.31021187
v 0.14783707 3.9540074 0.20427185
v 0.14783707 3.9540074 0.20427185
v 0.3607004 3.8837945 0.37032056
v 0.34448487 3.9161143 0.17504922
v 0.16541828 3.9112358 0.4018525
v 0.17609961 5.766243 0.35603544
v 0.15135923 5.755902 0.4845218
v 0.3607004 3.8837945 0.37032056
v 0.15135923 5.755902 0.4845218
v 0.29454333 5.741513 0.43775532
v 0.34448487 3.9161143 0.17504922
v 0.29454333 5.741513 0.43775532
v 0.31830603 5.753383 0.31021187
v 0.14783707 3.9540074 0.20427185
v 0.31830603 5.753383 0.31021187
v 0.17609961 5.766243 0.35603544
v 0.15135923 5.755902 0.4845218
v 0.17609961 5.766243 0.35603544
v 0.29454333 5.741513 0.43775532
v 0.31830603 5.753383 0.31021187
v 0.120803036 5.3522053 -0.8471654
v 0.2941142 5.028819 0.37077838
v 0.29700592 5.869616 0.39828315
v 0.13880722 5.0106893 0.33657852
v -0.03097602 5.368544 -0.8530713
v 0.14030072 5.796031 0.34991813
v 0.120803036 5.3522053 -0.8471654
v -0.03097602 5.368544 -0.8530713
v 0.13880722 5.0106893 0.33657852
v 0.2941142 5.028819 0.37077838
v 0.13880722 5.0106893 0.33657852
v 0.14030072 5.796031 0.34991813
v 0.29700592 5.869616 0.39828315
v 0.14030072 5.796031 0.34991813
v -0.03097602 5.368544 -0.8530713
v 0.120803036 5.3522053 -0.8471654
v 0.13880722 5.0106893 0.33657852
v 0.2941142 5.028819 0.37077838
v 0.2941142 5.028819 0.37077838
v 0.14030072 5.796031 0.34991813
v 0.29700592 5.869616 0.39828315
v 0.29700592 5.869616 0.39828315
v -0.03097602 5.368544 -0.8530713
v 0.120803036 5.3522053 -0.8471654
vn 0.013218366 -0.99991155 0.001458865
vn 0.013218366 -0.99991155 0.001458865
vn 0.013218366 -0.99991155 0.0014588651
vn -0.0031420349 -0.9998735 -0.015594283
vn 0.021173062 0.9995608 0.020736394
vn 0.021173062 0.9995608 0.020736394
vn 0.021173064 0.9995608 0.020736396
vn -0.0043716542 0.9999732 -0.005891244
vn -0.01600607 0.2005757 0.97954756
vn -0.016006067 0.2005757 0.97954756
vn -0.016006067 0.20057568 0.97954744
vn -0.016141344 0.20099163 0.97946006
vn 0.99460816 0.06456173 -0.081156164
vn 0.99460816 0.06456174 -0.081156164
vn 0.99460816 0.06456174 -0.081156164
vn 0.99463034 0.063945755 -0.08137241
vn 0.06349593 0.15800306 -0.98539495
vn 0.063495934 0.15800308 -0.98539495
vn 0.06349594 0.15800306 -0.98539495
vn 0.06389285 0.15922335 -0.98517287
vn -0.98812884 0.15342763 0.007828062
vn -0.98812884 0.15342763 0.007828063
vn -0.98812884 0.15342763 0.007828062
vn -0.9846288 0.17453839 -0.0065232813
vn -0.9846288 0.17453842 -0.006523282
vn 0.013171497 0.99990344 0.0044259666
vn 0.013171499 0.99990344 0.0044259666
vn 0.013171498 0.99990344 0.004425967
vn 0.0076185614 0.9999702 -0.0013128171
vn 0.0033367502 0.9993357 -0.036290485
vn 0.00333675 0.9993357 -0.03629048
vn 0.016571993 0.9998567 -0.0034599015
vn 0.016571991 0.9998567 -0.0034599013
vn -0.012422322 0.99955803 0.027008362
vn -0.042769074 0.9990196 0.011427287
vn -0.04276907 0.9990196 0.011427288
vn -0.04276908 0.9990196 0.011427287
vn -0.0774384 0.99681586 0.019013809
vn -0.07743841 0.99681586 0.019013813
vn -0.0022077241 0.9951538 0.09830587
vn -0.0022077241 0.9951538 0.09830588
vn -0.0022077241 0.9951538 0.09830589
vn -0.0023156307 0.99530715 0.09673773
vn 0.021932771 0.1430638 0.98947036
vn 0.02193277 0.1430638 0.98947036
vn 0.02193277 0.1430638 0.98947036
vn 0.9753597 0.2194216 0.02296997
vn 0.9753597 0.21942158 0.02296997
vn 0.9753597 0.2194216 0.022969972
vn -0.004393993 0.057233814 -0.9983511
vn -0.0043939925 0.05723381 -0.9983511
vn -0.004393993 0.057233814 -0.9983511
vn 0.021094896 0.06931184 0.99737203
vn 0.021094896 0.06931183 0.99737203
vn 0.021094898 0.069311835 0.99737203
vn 0.021639155 0.06821633 0.99743587
vn 0.9972504 0.07092133 0.021488622
vn 0.9972504 0.07092133 0.021488622
vn 0.9972504 0.07092133 0.021488622
vn 0.9971616 0.07198244 0.02207459
vn -0.0044301627 0.07493772 -0.99717844
vn -0.0044301627 0.07493772 -0.99717844
vn -0.0044301627 0.07493773 -0.99717844
vn -0.0045570917 0.074687235 -0.99719656
vn -0.0 1.0 0.0
vn -0.0 1.0 0.0
vn -0.0 1.0 0.0
vn -0.0 1.0 0.0
vn -0.0 0.0 -1.0
vn -0.0 0.0 -1.0
vn -0.0 0.0 -1.0
vn -0.0 0.0 -1.0
vn -0.0 -1.0 0.0
vn -0.0 -1.0 0.0
vn -0.0 -1.0 0.0
vn -0.0 -1.0 0.0
vn -1.0 0.0 0.0
vn -1.0 0.0 0.0
vn -1.0 0.0 0.0
vn -1.0 0.0 0.0
vn -0.9969022 0.07839799 -0.006299032
vn -0.9969022 0.07839799 -0.0062990324
vn -0.9969022 0.07839797 -0.0062990314
vn -0.99692863 0.07805946 -0.0063222055
vn -0.9969222 0.07814957 -0.0062111276
vn -0.9969009 0.07840562 -0.0064113443
vn -0.9969009 0.07840563 -0.0064113443
vn -0.9969009 0.078405626 -0.006411344
vn -0.0 0.0 1.0
vn -0.0 0.0 1.0
vn -0.0 0.0 1.0
vn -0.0 0.0 1.0
vn 0.02271477 -0.9997391 0.0023903335
vn 0.02271477 -0.9997391 0.0023903335
vn 0.02271477 -0.9997391 0.0023903337
vn -0.005070792 -0.99995923 0.0074786367
vn -0.005070792 -0.99995923 0.007478637
vn -0.0050707916 -0.99995923 0.0074786367
vn 0.1315673 0.24332765 0.9609796
vn 0.1315673 0.24332765 0.9609796
vn 0.13156731 0.24332765 0.9609796
vn 0.7043339 0.70390064 -0.09185694
vn 0.7043339 0.70390064 -0.09185694
vn 0.70433396 0.7039006 -0.091856934
vn 0.6871669 0.71987706 -0.09787024
vn -0.03707221 0.4146793 -0.9092122
vn -0.03707221 0.4146793 -0.9092122
vn -0.03707221 0.41467926 -0.9092122
vn -0.72047913 0.683702 0.116022915
vn -0.72047913 0.683702 0.11602291
vn -0.72047913 0.683702 0.11602291
vn -0.0308495 -0.99872005 -0.0400827
vn -0.0308495 -0.99872005 -0.040082708
vn -0.030849501 -0.99872005 -0.040082704
vn 0.57568115 0.8176497 0.006339757
vn 0.57568115 0.8176497 0.0063397577
vn 0.57568115 0.8176497 0.0063397577
vn -0.49037755 0.8714898 -0.0059546013
vn -0.49037752 0.8714897 -0.0059546004
vn -0.49037752 0.8714897 -0.0059546004
vn -0.55698764 0.71480143 -0.42287546
vn -0.55698764 0.71480143 -0.42287543
vn -0.55698764 0.7148015 -0.4228754
vn -0.86958194 0.49376544 0.0047882143
vn -0.86958194 0.49376544 0.0047882143
vn -0.86958194 0.49376544 0.0047882143
vn 0.6474576 0.6649207 0.37239653
vn 0.6474576 0.6649207 0.3723965
vn 0.64745766 0.6649207 0.37239653
vn 0.8242782 0.54960936 0.13599639
vn 0.82427824 0.5496093 0.1359964
vn 0.82427824 0.54960936 0.1359964
vn -0.23319985 0.29487282 0.9266433
vn -0.23319985 0.2948728 0.9266433
vn -0.23319988 0.29487282 0.9266433
vn -0.1672073 -0.96657383 -0.19436277
vn -0.16720733 -0.96657383 -0.19436276
vn -0.16720732 -0.96657383 -0.19436276
vn -0.99587905 0.007965706 0.09034011
vn -0.99587905 0.007965706 0.09034011
vn -0.99587905 0.007965706 0.09034011
vn 0.1533542 -0.043074336 0.9872321
vn 0.1533542 -0.043074336 0.9872321
vn 0.1533542 -0.043074336 0.9872321
vn 0.9963427 0.03825526 -0.076405644
vn 0.9963427 0.038255263 -0.07640565
vn 0.9963427 0.038255263 -0.07640565
vn -0.13325432 0.07082596 -0.9885479
vn -0.13325433 0.070825964 -0.9885479
vn -0.13325433 0.070825964 -0.9885479
vn -0.20770799 -0.96769416 -0.14291728
vn -0.20770802 -0.96769416 -0.14291728
vn -0.20770803 -0.96769416 -0.14291729
vn -0.98197603 9.861257E-4 -0.18900263
vn -0.98197603 9.861257E-4 -0.18900265
vn -0.98197603 9.861258E-4 -0.18900263
vn 0.3082519 -0.023544114 0.95101345
vn 0.3082519 -0.023544112 0.95101345
vn 0.3082519 -0.023544116 0.95101345
vn 0.98307437 5.2963116E-4 0.18320645
vn 0.98307437 5.2963116E-4 0.18320645
vn 0.98307437 5.2963116E-4 0.18320642
vn -0.2987004 0.084266886 -0.95061934
vn -0.2987004 0.084266886 -0.95061934
vn -0.2987004 0.084266886 -0.95061934
vn 0.1333255 0.98549575 0.10498775
vn 0.1333255 0.98549575 0.104987755
vn 0.1333255 0.98549575 0.104987755
vn 0.12622572 0.9852881 0.11521522
vn 0.9900703 0.0011932465 -0.14056833
vn 0.9900703 0.0011932466 -0.14056835
vn 0.9900703 0.0011932466 -0.14056835
vn -0.9899905 -5.1458593E-4 0.14113368
vn -0.9899905 -5.145859E-4 0.14113368
vn -0.9899905 -5.145859E-4 0.14113368
vn -0.09233951 -0.95708066 -0.2747182
vn -0.09233952 -0.95708066 -0.27471825
vn -0.09233952 -0.95708066 -0.27471825
vn -0.21322487 -0.016187355 0.97686905
vn -0.21322489 -0.016187353 0.97686905
vn -0.21322484 -0.016187353 0.97686905
vn -0.33904636 0.9006571 -0.27177978
vn -0.33904636 0.9006571 -0.27177978
vn -0.33904633 0.9006571 -0.27177975
vn 0.17109744 -0.9459482 -0.27551323
vn 0.17109744 -0.9459483 -0.27551323
vn 0.17109744 -0.9459483 -0.27551323
vn -0.28171152 -0.030403197 0.95901734
vn -0.28171152 -0.030403197 0.95901734
vn -0.28171152 -0.030403197 0.95901734
vn 0.11350885 0.9117179 -0.39482415
vn 0.11350887 0.9117179 -0.3948242
vn 0.113508865 0.9117179 -0.39482418
vt 0.32739192 0.9964205
vt 0.25408766 0.92609596
vt 0.32800633 0.921175
vt 0.24816553 0.99777037
vt 0.9930816 0.80292845
vt 0.9395355 0.8542981
vt 0.9405753 0.8039931
vt 0.9927762 0.8540721
vt 0.23785537 0.12931812
vt 0.16382152 0.15264446
vt 0.15862894 0.12904811
vt 0.20110643 0.1527459
vt 0.65595436 0.18602788
vt 0.58562154 0.21045649
vt 0.58428 0.18716419
vt 0.61935246 0.2100296
vt 0.5877406 0.15730298
vt 0.51801634 0.18013358
vt 0.5138219 0.15631866
vt 0.5528034 0.18050325
vt 0.15578663 0.1291241
vt 0.08407271 0.15310246
vt 0.08054137 0.129242
vt 0.11948407 0.15305817
vt 0.15169787 0.15293908
vt 0.39531344 0.93611145
vt 0.3685003 0.9307251
vt 0.4015723 0.9300546
vt 0.40186137 0.965466
vt 0.33863515 0.93726057
vt 0.33121532 0.93008983
vt 0.4016692 0.99767977
vt 0.3949839 0.99131876
vt 0.36688203 0.9953639
vt 0.3375126 0.99156266
vt 0.33121532 0.93008983
vt 0.33863515 0.93726057
vt 0.3305604 0.96177536
vt 0.33334732 0.9955062
vt 0.3949839 0.99131876
vt 0.33334732 0.9955062
vt 0.3375126 0.99156266
vt 0.36688203 0.9953639
vt 0.23417848 0.15317851
vt 0.20110643 0.1527459
vt 0.23785537 0.12931812
vt 0.65103793 0.20962429
vt 0.61935246 0.2100296
vt 0.65595436 0.18602788
vt 0.5863381 0.18059516
vt 0.5528034 0.18050325
vt 0.5877406 0.15730298
vt 0.4292181 0.22654241
vt 0.37449914 0.2535504
vt 0.37253964 0.22582823
vt 0.42700535 0.25464058
vt 0.60527605 0.2258625
vt 0.553086 0.25460625
vt 0.55097395 0.22653174
vt 0.603391 0.25358474
vt 0.11906755 0.18281585
vt 0.06378466 0.21065897
vt 0.061596453 0.18266428
vt 0.117025554 0.21089041
vt 0.4950937 0.9222114
vt 0.4950937 0.9274893
vt 0.48049223 0.9274893
vt 0.48049223 0.9221201
vt 0.45697212 0.92596734
vt 0.43755913 0.9274893
vt 0.43755913 0.9221202
vt 0.45697212 0.9221202
vt 0.9560782 0.79699826
vt 0.97067976 0.79690444
vt 0.97067976 0.8007517
vt 0.9560782 0.8007517
vt 0.07037164 0.10642183
vt 0.07037164 0.09182048
vt 0.08978461 0.09182048
vt 0.08978461 0.10642183
vt 0.8357092 0.22657526
vt 0.83361506 0.25457007
vt 0.8144084 0.2310121
vt 0.78050184 0.22677177
vt 0.79980695 0.2310121
vt 0.79980695 0.25042516
vt 0.78247154 0.25486994
vt 0.8144084 0.25042516
vt 0.43548775 0.9274436
vt 0.41607475 0.9221659
vt 0.43548775 0.9236903
vt 0.41607475 0.9274436
vt 0.8534791 0.9351047
vt 0.7832563 0.99080783
vt 0.78496665 0.93462837
vt 0.8209243 0.9979888
vt 0.85932183 0.9581361
vt 0.85470694 0.9922271
vt 0.15543377 0.18023711
vt 0.13719404 0.15570039
vt 0.17921221 0.15580684
vt 0.07313478 0.47697896
vt 0.014997065 0.4632703
vt 0.05794102 0.43777096
vt 0.0354172 0.4841041
vt 0.198084 0.34328878
vt 0.19752222 0.3012427
vt 0.2409544 0.30691838
vt 0.1951688 0.34241045
vt 0.14523292 0.32037312
vt 0.19241661 0.30133325
vt 0.7832563 0.99080783
vt 0.8534791 0.9351047
vt 0.8209243 0.9979888
vt 0.05794102 0.43777096
vt 0.014997065 0.4632703
vt 0.004756689 0.43843788
vt 0.19241661 0.30133325
vt 0.14523292 0.32037312
vt 0.13936818 0.3012486
vt 0.94734275 0.8699926
vt 0.9636006 0.8565699
vt 0.9911338 0.8690343
vt 0.14523292 0.32037312
vt 0.1951688 0.34241045
vt 0.12709695 0.34328258
vt 0.22420216 0.07609999
vt 0.19982219 0.08850312
vt 0.18204784 0.074582756
vt 0.014997065 0.4632703
vt 0.0354172 0.4841041
vt 0.002060473 0.48050416
vt 0.366629 0.1529913
vt 0.3920821 0.13411796
vt 0.40778506 0.15195107
vt 0.99496186 0.4842323
vt 0.99124825 0.48433268
vt 0.9914124 0.48063183
vt 0.97566915 0.048347473
vt 0.9416442 0.046837986
vt 0.97632444 0.044618666
vt 0.7901877 0.016706169
vt 0.8247204 0.017733514
vt 0.78953755 0.020341635
vt 0.71397173 0.016716123
vt 0.74878603 0.016753554
vt 0.71443987 0.020393133
vt 0.5402926 0.016713262
vt 0.5747012 0.01720345
vt 0.5410023 0.020395994
vt 0.99496186 0.4842323
vt 0.9914124 0.48063183
vt 0.9950799 0.48051095
vt 0.97632444 0.044618666
vt 0.9416442 0.046837986
vt 0.9417434 0.044425905
vt 0.78953755 0.020341635
vt 0.8247204 0.017733514
vt 0.82435083 0.020403206
vt 0.71443987 0.020393133
vt 0.74878603 0.016753554
vt 0.74891895 0.019149065
vt 0.5410023 0.020395994
vt 0.5747012 0.01720345
vt 0.574942 0.019866705
vt 0.90383816 0.9300675
vt 0.90267074 0.93222207
vt 0.9010172 0.93009394
vt 0.89987266 0.9322372
vt 0.9831625 0.63065064
vt 0.9779625 0.6076306
vt 0.99371725 0.6077041
vt 0.73580754 0.11178744
vt 0.7583331 0.11761081
vt 0.7361344 0.12649393
vt 0.4658867 0.017443776
vt 0.46632504 0.020254493
vt 0.4438269 0.019670129
vt 0.3121208 0.01998198
vt 0.31178117 0.017073393
vt 0.3264891 0.017101407
vt 0.99799275 0.85427386
vt 0.9951713 0.85243744
vt 0.9963738 0.82834333
vt 0.4658867 0.017443776
vt 0.4438269 0.019670129
vt 0.44285476 0.016855001
vt 0.3121208 0.01998198
vt 0.3264891 0.017101407
vt 0.32786727 0.020035982
vt 0.8712958 0.9307138
vt 0.8972588 0.92974925
vt 0.8967014 0.93255544

g House_1_RED
s 1
usemtl House_1_RED
f 3/3/3 2/2/2 1/1/1 
f 4/4/4 1/1/1 2/2/2 
f 7/7/7 6/6/6 5/5/5 
f 8/8/8 5/5/5 6/6/6 
f 11/11/11 10/10/10 9/9/9 
f 12/12/12 9/9/9 10/10/10 
f 15/15/15 14/14/14 13/13/13 
f 16/16/16 13/13/13 14/14/14 
f 19/19/19 18/18/18 17/17/17 
f 20/20/20 17/17/17 18/18/18 
f 23/23/23 22/22/22 21/21/21 
f 24/24/24 21/21/21 22/22/22 
f 21/21/21 24/24/24 25/25/25 
f 28/28/28 27/27/27 26/26/26 
f 26/26/26 29/29/29 28/28/28 
f 30/30/30 26/26/26 27/27/27 
f 30/30/30 27/27/27 31/31/31 
f 29/29/29 26/26/26 32/32/32 
f 33/33/33 32/32/32 26/26/26 
f 33/33/33 34/34/34 32/32/32 
f 37/37/37 36/36/36 35/35/35 
f 38/38/38 35/35/35 36/36/36 
f 35/35/35 38/38/38 39/39/39 
f 42/42/42 41/41/41 40/40/40 
f 43/43/43 40/40/40 41/41/41 
f 46/46/46 45/45/45 44/44/44 
f 49/49/49 48/48/48 47/47/47 
f 52/52/52 51/51/51 50/50/50 
f 55/55/55 54/54/54 53/53/53 
f 56/56/56 53/53/53 54/54/54 
f 59/59/59 58/58/58 57/57/57 
f 60/60/60 57/57/57 58/58/58 
f 63/63/63 62/62/62 61/61/61 
f 64/64/64 61/61/61 62/62/62 
f 67/67/67 66/66/66 65/65/65 
f 68/68/68 67/67/67 65/65/65 
f 71/71/71 70/70/70 69/69/69 
f 72/72/72 71/71/71 69/69/69 
f 75/75/75 74/74/74 73/73/73 
f 76/76/76 75/75/75 73/73/73 
f 79/79/79 78/78/78 77/77/77 
f 80/80/80 79/79/79 77/77/77 
f 83/83/83 82/82/82 81/81/81 
f 84/84/84 83/83/83 81/81/81 
f 85/85/85 83/83/83 84/84/84 
f 86/86/86 85/85/85 84/84/84 
f 87/87/87 86/86/86 84/84/84 
f 88/88/88 86/86/86 87/87/87 
f 87/87/87 82/82/82 88/88/88 
f 88/88/88 82/82/82 83/83/83 
f 91/91/91 90/90/90 89/89/89 
f 89/89/89 90/90/90 92/92/92 
f 95/95/95 94/94/94 93/93/93 
f 97/97/97 93/93/93 96/96/96 
f 98/98/98 97/97/97 96/96/96 
f 101/101/101 100/100/100 99/99/99 
f 104/104/104 103/103/103 102/102/102 
f 105/105/105 102/102/102 103/103/103 
f 108/108/108 107/107/107 106/106/106 
f 111/111/111 110/110/110 109/109/109 
f 114/114/114 113/113/113 112/112/112 
f 117/117/117 116/116/116 115/115/115 
f 120/120/120 119/119/119 118/118/118 
f 123/123/123 122/122/122 121/121/121 
f 126/126/126 125/125/125 124/124/124 
f 129/129/129 128/128/128 127/127/127 
f 132/132/132 131/131/131 130/130/130 
f 135/135/135 134/134/134 133/133/133 
f 138/138/138 137/137/137 136/136/136 
f 141/141/141 140/140/140 139/139/139 
f 144/144/144 143/143/143 142/142/142 
f 147/147/147 146/146/146 145/145/145 
f 150/150/150 149/149/149 148/148/148 
f 153/153/153 152/152/152 151/151/151 
f 156/156/156 155/155/155 154/154/154 
f 159/159/159 158/158/158 157/157/157 
f 162/162/162 161/161/161 160/160/160 
f 165/165/165 164/164/164 163/163/163 
f 168/168/168 167/167/167 166/166/166 
f 169/169/169 167/167/167 168/168/168 
f 172/172/172 171/171/171 170/170/170 
f 175/175/175 174/174/174 173/173/173 
f 178/178/178 177/177/177 176/176/176 
f 181/181/181 180/180/180 179/179/179 
f 184/184/184 183/183/183 182/182/182 
f 187/187/187 186/186/186 185/185/185 
f 190/190/190 189/189/189 188/188/188 
f 193/193/193 192/192/192 191/191/191 

