# Created by DisUnity v0.3.4
v -1.3998336 0.018901138 1.4362246
v 0.9110986 0.07955132 -1.4281338
v -1.419203 0.010647697 -1.6285666
v 1.0977947 -9.1310006E-17 1.4912056
v -1.3043158 2.4895372 1.317832
v 0.9549744 2.4844673 -1.482517
v 0.9110986 2.4089062 1.2597992
v -1.3998336 0.018901138 1.4362246
v 0.9110986 2.4089062 1.2597992
v 1.0977947 -9.1310006E-17 1.4912056
v 1.0977947 -9.1310006E-17 1.4912056
v 0.9549744 2.4844673 -1.482517
v 0.9110986 0.07955132 -1.4281338
v 0.9110986 0.07955132 -1.4281338
v -1.2914329 2.4673502 -1.470198
v -1.419203 0.010647697 -1.6285666
v 0.9549744 2.4844673 -1.482517
v -1.3043158 2.4895372 1.317832
v -1.2914329 2.4673502 -1.470198
v 0.9110986 2.4089062 1.2597992
v -1.3998336 0.018901138 1.4362246
v -1.3043158 2.4895372 1.317832
v 0.9549744 2.4844673 -1.482517
v 1.0977947 -9.1310006E-17 1.4912056
v 0.9110986 2.4089062 1.2597992
v -1.2914329 2.4673502 -1.470198
v 0.9110986 0.07955132 -1.4281338
v 0.9549744 2.4844673 -1.482517
v -1.1957058 0.8840942 -0.4829187
v -1.1957058 0.8840942 0.31370208
v -1.3731029 0.8840942 0.31370208
v -1.378054 0.8840942 -0.4829187
v -1.3313959 1.8754338 0.31370208
v -1.3731029 0.8840942 0.31370208
v -1.1957058 0.8840942 0.31370208
v -1.1957058 1.8754338 0.31370208
v -1.3273832 1.8754338 -0.4829187
v -1.3313959 1.8754338 0.31370208
v -1.1957058 1.8754338 0.31370208
v -1.1957058 1.8754338 -0.4829187
v -1.1957058 0.8840942 0.31370208
v -1.1957058 0.8840942 -0.4829187
v -1.1957058 1.8754338 -0.4829187
v -1.1957058 1.8754338 0.31370208
v -1.1957058 0.8840942 -0.4829187
v -1.378054 0.8840942 -0.4829187
v -1.3273832 1.8754338 -0.4829187
v -1.1957058 1.8754338 -0.4829187
v -1.419203 0.010647697 -1.6285666
v -1.378054 0.8840942 -0.4829187
v -1.3998336 0.018901138 1.4362246
v -1.2914329 2.4673502 -1.470198
v -1.3731029 0.8840942 0.31370208
v -1.3313959 1.8754338 0.31370208
v -1.3043158 2.4895372 1.317832
v -1.3273832 1.8754338 -0.4829187
v -1.6302274 2.3032873 1.718813
v 1.272231 2.3619003 -2.0307887
v -1.6556659 2.2939625 -1.9394627
v 1.6556656 2.2693343 -0.019477654
v -0.47230405 2.2954593 2.03079
v 1.3480151 2.2843854 1.7843748
v -0.47230405 2.2954593 2.03079
v -0.20292962 3.9055786 1.5862151
v 1.3480151 2.2843854 1.7843748
v 0.9079051 3.1276805 1.0438421
v 1.272231 2.3619003 -2.0307887
v 1.6556656 2.2693343 -0.019477654
v -0.17005974 3.9045696 -1.2683905
v 1.272231 2.3619003 -2.0307887
v -0.17005974 3.9045696 -1.2683905
v -1.6556659 2.2939625 -1.9394627
v -1.6302274 2.3032873 1.718813
v -1.1046449 3.3810534 -0.92232573
v -0.20292962 3.9055786 1.5862151
v 1.6556656 2.2693343 -0.019477654
v 1.272231 2.3619003 -2.0307887
v -1.6302274 2.3032873 1.718813
v -0.17005974 3.9045696 -1.2683905
v 0.9079051 3.1276805 1.0438421
v -0.20292962 3.9055786 1.5862151
v -0.20292962 3.9055786 1.5862151
v -1.1046449 3.3810534 -0.92232573
v -0.17005974 3.9045696 -1.2683905
v -0.17005974 3.9045696 -1.2683905
v -1.1046449 3.3810534 -0.92232573
v -1.6556659 2.2939625 -1.9394627
v -1.1046449 3.3810534 -0.92232573
v -1.6302274 2.3032873 1.718813
v -1.6556659 2.2939625 -1.9394627
v -0.20292962 3.9055786 1.5862151
v 0.9079051 3.1276805 1.0438421
v 1.3480151 2.2843854 1.7843748
v 0.9079051 3.1276805 1.0438421
v 1.6556656 2.2693343 -0.019477654
v 1.3480151 2.2843854 1.7843748
v -0.20292962 3.9055786 1.5862151
v -0.47230405 2.2954593 2.03079
v -1.6302274 2.3032873 1.718813
v 0.010488978 3.697037 0.16156952
v 0.028070178 3.6542654 0.35915017
v 0.2233523 3.6268241 0.3276182
v 0.010488978 3.697037 0.16156952
v 0.038751516 5.509272 0.3133331
v 0.028070178 3.6542654 0.35915017
v 0.028070178 3.6542654 0.35915017
v 0.014011135 5.498931 0.44181946
v 0.2233523 3.6268241 0.3276182
v 0.2233523 3.6268241 0.3276182
v 0.15719524 5.484543 0.395053
v 0.20713675 3.659144 0.13234688
v 0.20713675 3.659144 0.13234688
v 0.18095793 5.4964123 0.26750955
v 0.010488978 3.697037 0.16156952
v 0.010488978 3.697037 0.16156952
v 0.2233523 3.6268241 0.3276182
v 0.20713675 3.659144 0.13234688
v 0.028070178 3.6542654 0.35915017
v 0.038751516 5.509272 0.3133331
v 0.014011135 5.498931 0.44181946
v 0.2233523 3.6268241 0.3276182
v 0.014011135 5.498931 0.44181946
v 0.15719524 5.484543 0.395053
v 0.20713675 3.659144 0.13234688
v 0.15719524 5.484543 0.395053
v 0.18095793 5.4964123 0.26750955
v 0.010488978 3.697037 0.16156952
v 0.18095793 5.4964123 0.26750955
v 0.038751516 5.509272 0.3133331
v 0.014011135 5.498931 0.44181946
v 0.038751516 5.509272 0.3133331
v 0.15719524 5.484543 0.395053
v 0.18095793 5.4964123 0.26750955
v -0.016545063 5.095235 -0.8898678
v 0.15676609 4.7718487 0.32807606
v 0.15965782 5.612645 0.35558084
v 0.0014591217 4.753719 0.2938762
v -0.16832411 5.1115737 -0.89577365
v 0.0029526139 5.53906 0.3072158
v -0.016545063 5.095235 -0.8898678
v -0.16832411 5.1115737 -0.89577365
v 0.0014591217 4.753719 0.2938762
v 0.15676609 4.7718487 0.32807606
v 0.0014591217 4.753719 0.2938762
v 0.0029526139 5.53906 0.3072158
v 0.15965782 5.612645 0.35558084
v 0.0029526139 5.53906 0.3072158
v -0.16832411 5.1115737 -0.89577365
v -0.016545063 5.095235 -0.8898678
v 0.0014591217 4.753719 0.2938762
v 0.15676609 4.7718487 0.32807606
v 0.15676609 4.7718487 0.32807606
v 0.0029526139 5.53906 0.3072158
v 0.15965782 5.612645 0.35558084
v 0.15965782 5.612645 0.35558084
v -0.16832411 5.1115737 -0.89577365
v -0.016545063 5.095235 -0.8898678
vn 0.029340139 -0.9995664 0.0025063886
vn 0.029340139 -0.9995664 0.0025063888
vn 0.02934014 -0.9995664 0.0025063888
vn -0.0069749253 -0.9996166 -0.02679326
vn 0.03709257 0.99891615 0.028117355
vn 0.037092566 0.99891615 0.028117355
vn 0.03709257 0.99891615 0.028117357
vn -0.02119975 0.09397301 0.9953491
vn -0.021199746 0.093973 0.995349
vn -0.021199748 0.093973 0.9953491
vn 0.9977343 -0.019657867 -0.06434225
vn 0.9977343 -0.019657865 -0.06434227
vn 0.9977343 -0.019657863 -0.06434225
vn 0.083787635 0.059763853 -0.99468994
vn 0.08378763 0.059763856 -0.99468994
vn 0.083787635 0.059763864 -0.99468994
vn -0.0076631405 0.9999387 -0.0079929
vn -0.0076631405 0.9999387 -0.0079929
vn -0.007663141 0.9999387 -0.0079929
vn 0.027858462 0.046771746 0.9985171
vn 0.02785846 0.046771735 0.9985171
vn 0.027858462 0.04677174 0.9985171
vn 0.9967108 0.078988485 0.01812334
vn 0.9967108 0.078988485 0.01812334
vn 0.9967108 0.078988485 0.018123342
vn -0.005310822 -0.022510357 -0.99973243
vn -0.0053108223 -0.02251036 -0.99973243
vn -0.005310822 -0.022510357 -0.99973243
vn -0.0 1.0 0.0
vn -0.0 1.0 0.0
vn -0.0 1.0 0.0
vn -0.0 1.0 0.0
vn -0.0 0.0 -1.0
vn -0.0 0.0 -1.0
vn -0.0 0.0 -1.0
vn -0.0 0.0 -1.0
vn -0.0 -1.0 0.0
vn -0.0 -1.0 0.0
vn -0.0 -1.0 0.0
vn -0.0 -1.0 0.0
vn -1.0 0.0 0.0
vn -1.0 0.0 0.0
vn -1.0 0.0 0.0
vn -1.0 0.0 0.0
vn -0.0 0.0 1.0
vn -0.0 0.0 1.0
vn -0.0 0.0 1.0
vn -0.0 0.0 1.0
vn -0.99922276 0.03892884 0.0062102643
vn -0.99922276 0.038928837 0.0062102643
vn -0.99922276 0.038928837 0.0062102647
vn -0.99862945 0.052190375 -0.0039216955
vn -0.9990792 0.042032667 0.008605943
vn -0.9992423 0.038786553 0.0032272765
vn -0.9992423 0.038786553 0.0032272765
vn -0.99862087 0.052261185 -0.005030263
vn 0.023271773 -0.99972636 0.0023864277
vn 0.023271773 -0.99972636 0.0023864277
vn 0.023271771 -0.99972636 0.0023864277
vn -0.005070792 -0.99995923 0.0074786367
vn -0.005070792 -0.99995923 0.007478637
vn -0.0050707916 -0.99995923 0.0074786367
vn 0.1315673 0.24332765 0.9609796
vn 0.1315673 0.24332765 0.9609796
vn 0.13156731 0.24332765 0.9609796
vn 0.687167 0.719877 -0.09787024
vn 0.687167 0.719877 -0.09787023
vn 0.6871669 0.71987706 -0.09787024
vn 0.70433396 0.7039006 -0.091856934
vn -0.037974477 0.41397572 -0.9094955
vn -0.037974477 0.41397575 -0.9094955
vn -0.037974477 0.41397572 -0.9094955
vn -0.7356553 0.6656759 0.12524731
vn -0.7356553 0.6656759 0.1252473
vn -0.7356553 0.6656759 0.1252473
vn -0.03146182 -0.9987056 -0.03996531
vn -0.031461824 -0.9987056 -0.039965317
vn -0.03146182 -0.9987056 -0.03996531
vn 0.57568115 0.8176497 0.006339757
vn 0.57568115 0.8176497 0.0063397577
vn 0.57568115 0.8176497 0.0063397577
vn -0.49037755 0.8714898 -0.0059546013
vn -0.49037752 0.8714897 -0.0059546004
vn -0.49037752 0.8714897 -0.0059546004
vn -0.55741286 0.7000943 -0.44627228
vn -0.55741286 0.7000943 -0.44627228
vn -0.5574128 0.70009434 -0.4462723
vn -0.89385486 0.44832772 0.0050728186
vn -0.89385486 0.4483277 0.005072818
vn -0.89385486 0.4483277 0.005072818
vn 0.6474576 0.6649207 0.37239653
vn 0.6474576 0.6649207 0.3723965
vn 0.64745766 0.6649207 0.37239653
vn 0.8242782 0.54960936 0.13599639
vn 0.82427824 0.5496093 0.1359964
vn 0.82427824 0.54960936 0.1359964
vn -0.24662252 0.2960528 0.92278385
vn -0.24662252 0.29605284 0.92278385
vn -0.24662252 0.29605284 0.92278385
vn -0.1672073 -0.96657383 -0.19436277
vn -0.16720733 -0.96657383 -0.19436276
vn -0.16720732 -0.96657383 -0.19436276
vn -0.99587905 0.007965708 0.09034011
vn -0.99587905 0.007965708 0.0903401
vn -0.99587905 0.007965708 0.09034011
vn 0.15335421 -0.043074343 0.9872321
vn 0.15335423 -0.043074347 0.9872321
vn 0.15335421 -0.043074343 0.9872321
vn 0.9963427 0.038255256 -0.076405644
vn 0.9963427 0.03825526 -0.07640565
vn 0.9963427 0.03825526 -0.07640565
vn -0.13325432 0.07082597 -0.9885479
vn -0.13325433 0.07082598 -0.9885479
vn -0.13325432 0.07082597 -0.9885479
vn -0.20770799 -0.96769416 -0.14291728
vn -0.20770802 -0.96769416 -0.14291728
vn -0.20770803 -0.96769416 -0.14291729
vn -0.98197603 9.861258E-4 -0.18900263
vn -0.98197603 9.861259E-4 -0.18900263
vn -0.98197603 9.861259E-4 -0.18900263
vn 0.30825198 -0.023544101 0.9510133
vn 0.30825195 -0.023544101 0.9510133
vn 0.30825198 -0.023544103 0.9510133
vn 0.98307437 5.296315E-4 0.18320641
vn 0.98307437 5.296315E-4 0.18320641
vn 0.98307437 5.2963145E-4 0.18320641
vn -0.29870036 0.084266886 -0.95061934
vn -0.29870036 0.084266886 -0.95061934
vn -0.29870036 0.084266886 -0.95061934
vn 0.13332082 0.98549646 0.104986906
vn 0.13332084 0.98549646 0.10498691
vn 0.13332082 0.98549646 0.104986906
vn 0.12622412 0.9852889 0.11521
vn 0.9900703 0.0011932469 -0.14056835
vn 0.9900703 0.0011932469 -0.14056835
vn 0.9900703 0.0011932469 -0.14056833
vn -0.9899905 -5.145861E-4 0.14113368
vn -0.9899905 -5.1458605E-4 0.14113368
vn -0.9899905 -5.1458605E-4 0.14113368
vn -0.09233951 -0.95708066 -0.2747182
vn -0.09233952 -0.95708066 -0.27471825
vn -0.09233952 -0.95708066 -0.27471825
vn -0.21322492 -0.016187362 0.97686905
vn -0.2132249 -0.016187362 0.97686905
vn -0.2132249 -0.01618736 0.97686905
vn -0.33904657 0.9006571 -0.27177945
vn -0.33904663 0.9006571 -0.27177945
vn -0.33904663 0.9006571 -0.27177945
vn 0.17109744 -0.9459482 -0.27551323
vn 0.17109744 -0.9459483 -0.27551323
vn 0.17109744 -0.9459483 -0.27551323
vn -0.28171158 -0.030403215 0.95901734
vn -0.28171152 -0.030403212 0.95901734
vn -0.28171158 -0.030403215 0.95901734
vn 0.11350886 0.911718 -0.39482394
vn 0.113508865 0.911718 -0.39482394
vn 0.113508865 0.911718 -0.39482394
vt 0.6678324 0.68431306
vt 0.61418843 0.72759235
vt 0.6104348 0.6839503
vt 0.6688621 0.73108876
vt 0.68080866 0.39290643
vt 0.73325396 0.43521857
vt 0.6818956 0.43439686
vt 0.20598078 0.5353825
vt 0.16448952 0.581805
vt 0.15922712 0.5368626
vt 0.94581485 0.633962
vt 0.89012265 0.6804912
vt 0.8911412 0.6354519
vt 0.46738315 0.44050395
vt 0.5121021 0.4817531
vt 0.46609282 0.484146
vt 0.73325396 0.43521857
vt 0.68080866 0.39290643
vt 0.73302317 0.3931477
vt 0.16448952 0.581805
vt 0.20598078 0.5353825
vt 0.20600727 0.5816872
vt 0.89012265 0.6804912
vt 0.94581485 0.633962
vt 0.941481 0.67907614
vt 0.5121021 0.4817531
vt 0.46738315 0.44050395
vt 0.5124227 0.4396822
vt 0.4332409 0.02709806
vt 0.4183216 0.02709806
vt 0.4183216 0.023775697
vt 0.4332409 0.02368319
vt 0.8042048 0.026270747
vt 0.7856389 0.027051926
vt 0.7856389 0.023729563
vt 0.8042048 0.023729563
vt 0.41636848 0.73366773
vt 0.43128777 0.7335925
vt 0.43128777 0.7361338
vt 0.41636848 0.7361338
vt 0.027826428 0.10609257
vt 0.027826428 0.09117317
vt 0.04639232 0.09117317
vt 0.04639232 0.10609257
vt 0.8071233 0.027098179
vt 0.8071233 0.02368319
vt 0.8256893 0.024632215
vt 0.8256893 0.027098179
vt 0.98035896 0.5353813
vt 0.9589032 0.55173934
vt 0.92296135 0.5355359
vt 0.9773931 0.5813906
vt 0.94398403 0.55173934
vt 0.94398403 0.57030517
vt 0.9251787 0.5818061
vt 0.9589032 0.57030517
vt 0.072229266 0.79271114
vt 0.0020062923 0.8470686
vt 0.0037168264 0.7922348
vt 0.039674282 0.8542496
vt 0.07807195 0.81439686
vt 0.073457 0.8484879
vt 0.3487932 0.21051049
vt 0.3305535 0.18597376
vt 0.37257147 0.18608034
vt 0.6165596 0.51209843
vt 0.6746973 0.52580714
vt 0.6369797 0.53293216
vt 0.6595036 0.48659915
vt 0.8719274 0.30201852
vt 0.87888044 0.3434894
vt 0.8359633 0.3434658
vt 0.40997702 0.29771817
vt 0.36005765 0.27629387
vt 0.4073558 0.25753993
vt 0.039674282 0.8542496
vt 0.0020062923 0.8470686
vt 0.072229266 0.79271114
vt 0.6595036 0.48659915
vt 0.6165596 0.51209843
vt 0.6063192 0.487266
vt 0.4073558 0.25753993
vt 0.36005765 0.27629387
vt 0.35437328 0.2572968
vt 0.4941727 0.10597938
vt 0.5101836 0.092262864
vt 0.5370772 0.10493481
vt 0.36005765 0.27629387
vt 0.40997702 0.29771817
vt 0.34197605 0.29836732
vt 0.4917803 0.093678236
vt 0.46740037 0.10608125
vt 0.4496259 0.09216094
vt 0.6165596 0.51209843
vt 0.6369797 0.53293216
vt 0.60362303 0.5293324
vt 0.0023348927 0.12568855
vt 0.029084146 0.10870206
vt 0.04258704 0.12664938
vt 0.99496174 0.46567786
vt 0.99124825 0.4657781
vt 0.99141204 0.46207726
vt 0.9278176 0.9272537
vt 0.8937925 0.92574424
vt 0.928473 0.9235249
vt 0.1290548 0.010846853
vt 0.16358756 0.011874199
vt 0.12840463 0.014482379
vt 0.16612017 0.010856748
vt 0.20093447 0.010894418
vt 0.16658837 0.014533758
vt 0.20337856 0.010853887
vt 0.23778713 0.011344194
vt 0.20408833 0.014536738
vt 0.99496174 0.46567786
vt 0.99141204 0.46207726
vt 0.99508 0.46195638
vt 0.928473 0.9235249
vt 0.8937925 0.92574424
vt 0.8938918 0.9233323
vt 0.12840463 0.014482379
vt 0.16358756 0.011874199
vt 0.16321811 0.014543653
vt 0.16658837 0.014533758
vt 0.20093447 0.010894418
vt 0.20106745 0.013289571
vt 0.20408833 0.014536738
vt 0.23778713 0.011344194
vt 0.23802793 0.01400733
vt 0.9954972 0.95163053
vt 0.99765176 0.95279795
vt 0.99552363 0.9544514
vt 0.9976669 0.95559597
vt 0.09591186 0.11597526
vt 0.11893189 0.110774994
vt 0.118858576 0.12652993
vt 0.6596358 0.11178744
vt 0.6821612 0.11761081
vt 0.6599628 0.12649405
vt 0.40533996 0.011584282
vt 0.40577805 0.014394999
vt 0.38327992 0.013810754
vt 0.5796988 0.0141227245
vt 0.5793593 0.011214018
vt 0.5940672 0.011242032
vt 0.96701515 0.7948679
vt 0.96885157 0.7920464
vt 0.9929457 0.793249
vt 0.40533996 0.011584282
vt 0.38327992 0.013810754
vt 0.3823079 0.010995388
vt 0.5796988 0.0141227245
vt 0.5940672 0.011242032
vt 0.5954453 0.014176726
vt 0.93867874 0.7930185
vt 0.9646418 0.79205394
vt 0.9640844 0.7948602

g House_2_YELLOW
s 1
usemtl House_2_YELLOW
f 3/3/3 2/2/2 1/1/1 
f 4/4/4 1/1/1 2/2/2 
f 7/7/7 6/6/6 5/5/5 
f 10/10/10 9/9/9 8/8/8 
f 13/13/13 12/12/12 11/11/11 
f 16/16/16 15/15/15 14/14/14 
f 19/19/19 18/18/18 17/17/17 
f 22/22/22 21/21/21 20/20/20 
f 25/25/25 24/24/24 23/23/23 
f 28/28/28 27/27/27 26/26/26 
f 31/31/31 30/30/30 29/29/29 
f 32/32/32 31/31/31 29/29/29 
f 35/35/35 34/34/34 33/33/33 
f 36/36/36 35/35/35 33/33/33 
f 39/39/39 38/38/38 37/37/37 
f 40/40/40 39/39/39 37/37/37 
f 43/43/43 42/42/42 41/41/41 
f 44/44/44 43/43/43 41/41/41 
f 47/47/47 46/46/46 45/45/45 
f 48/48/48 47/47/47 45/45/45 
f 51/51/51 50/50/50 49/49/49 
f 52/52/52 49/49/49 50/50/50 
f 53/53/53 50/50/50 51/51/51 
f 54/54/54 53/53/53 51/51/51 
f 55/55/55 54/54/54 51/51/51 
f 54/54/54 55/55/55 56/56/56 
f 55/55/55 52/52/52 56/56/56 
f 56/56/56 52/52/52 50/50/50 
f 59/59/59 58/58/58 57/57/57 
f 61/61/61 57/57/57 60/60/60 
f 62/62/62 61/61/61 60/60/60 
f 65/65/65 64/64/64 63/63/63 
f 68/68/68 67/67/67 66/66/66 
f 69/69/69 66/66/66 67/67/67 
f 72/72/72 71/71/71 70/70/70 
f 75/75/75 74/74/74 73/73/73 
f 78/78/78 77/77/77 76/76/76 
f 81/81/81 80/80/80 79/79/79 
f 84/84/84 83/83/83 82/82/82 
f 87/87/87 86/86/86 85/85/85 
f 90/90/90 89/89/89 88/88/88 
f 93/93/93 92/92/92 91/91/91 
f 96/96/96 95/95/95 94/94/94 
f 99/99/99 98/98/98 97/97/97 
f 102/102/102 101/101/101 100/100/100 
f 105/105/105 104/104/104 103/103/103 
f 108/108/108 107/107/107 106/106/106 
f 111/111/111 110/110/110 109/109/109 
f 114/114/114 113/113/113 112/112/112 
f 117/117/117 116/116/116 115/115/115 
f 120/120/120 119/119/119 118/118/118 
f 123/123/123 122/122/122 121/121/121 
f 126/126/126 125/125/125 124/124/124 
f 129/129/129 128/128/128 127/127/127 
f 132/132/132 131/131/131 130/130/130 
f 133/133/133 131/131/131 132/132/132 
f 136/136/136 135/135/135 134/134/134 
f 139/139/139 138/138/138 137/137/137 
f 142/142/142 141/141/141 140/140/140 
f 145/145/145 144/144/144 143/143/143 
f 148/148/148 147/147/147 146/146/146 
f 151/151/151 150/150/150 149/149/149 
f 154/154/154 153/153/153 152/152/152 
f 157/157/157 156/156/156 155/155/155 

