# Created by DisUnity v0.3.4
v -1.3998322 0.018901138 1.4362246
v 0.9110999 0.07955132 -1.4281338
v -1.4192017 0.010647697 -1.6285666
v 1.097796 -9.1310006E-17 1.4912056
v -1.3043145 5.4074097 1.317832
v 0.9549757 5.40234 -1.482517
v 0.9110999 5.326779 1.2597992
v -1.3998322 0.018901138 1.4362246
v 0.9110999 5.326779 1.2597992
v 1.097796 -9.1310006E-17 1.4912056
v 1.097796 -9.1310006E-17 1.4912056
v 0.9549757 5.40234 -1.482517
v 0.9110999 0.07955132 -1.4281338
v 0.9110999 0.07955132 -1.4281338
v -1.2914315 5.385223 -1.470198
v -1.4192017 0.010647697 -1.6285666
v 0.9549757 5.40234 -1.482517
v -1.3043145 5.4074097 1.317832
v -1.2914315 5.385223 -1.470198
v 0.9110999 5.326779 1.2597992
v -1.3998322 0.018901138 1.4362246
v -1.3043145 5.4074097 1.317832
v 0.9549757 5.40234 -1.482517
v 1.097796 -9.1310006E-17 1.4912056
v 0.9110999 5.326779 1.2597992
v -1.2914315 5.385223 -1.470198
v 0.9110999 0.07955132 -1.4281338
v 0.9549757 5.40234 -1.482517
v -1.3142477 4.6234226 -0.5145239
v -1.3182969 4.6234226 0.3270871
v -1.1234835 4.6234226 0.3270871
v -1.1234835 4.6234226 -0.5145239
v -1.1234835 3.5251174 -0.5145239
v -1.3405135 3.5251174 -0.5145239
v -1.3142477 4.6234226 -0.5145239
v -1.1234835 4.6234226 -0.5145239
v -1.1234835 4.6234226 -0.5145239
v -1.1234835 4.6234226 0.3270871
v -1.1234835 3.5251174 0.3270871
v -1.1234835 3.5251174 -0.5145239
v -1.3438282 3.5476499 0.3147851
v -1.3043145 5.4074097 1.317832
v -1.3998322 0.018901138 1.4362246
v -1.3182969 4.6234226 0.3270871
v -1.4192017 0.010647697 -1.6285666
v -1.2914315 5.385223 -1.470198
v -1.3142477 4.6234226 -0.5145239
v -1.3405135 3.5251174 -0.5145239
v -1.3438282 3.5476499 0.3147851
v -1.1234835 3.5251174 0.3270871
v -1.3182969 4.6234226 0.3270871
v -1.1234835 4.6234226 0.3270871
v -1.1234835 3.5251174 0.3270871
v -1.3438282 3.5476499 0.3147851
v -1.1234835 3.5251174 -0.5145239
v -1.3405135 3.5251174 -0.5145239
v -1.6302261 5.2211595 1.718813
v 1.2722322 5.2797728 -2.0307887
v -1.6556646 5.211835 -1.9394627
v 1.6556668 5.1872067 -0.019477654
v -0.47230273 5.2133317 2.03079
v 1.3480164 5.202258 1.7843748
v -0.47230273 5.2133317 2.03079
v -0.20292832 6.823451 1.5862151
v 1.3480164 5.202258 1.7843748
v 1.2722322 5.2797728 -2.0307887
v 0.9079064 6.045553 1.0438421
v -0.17005844 6.822442 -1.2683905
v 1.6556668 5.1872067 -0.019477654
v 1.2722322 5.2797728 -2.0307887
v -0.17005844 6.822442 -1.2683905
v -1.6556646 5.211835 -1.9394627
v -1.6302261 5.2211595 1.718813
v -1.1046436 6.298926 -0.92232573
v -0.20292832 6.823451 1.5862151
v 1.2722322 5.2797728 -2.0307887
v -1.6302261 5.2211595 1.718813
v 1.6556668 5.1872067 -0.019477654
v -0.17005844 6.822442 -1.2683905
v 0.9079064 6.045553 1.0438421
v -0.20292832 6.823451 1.5862151
v -0.20292832 6.823451 1.5862151
v -1.1046436 6.298926 -0.92232573
v -0.17005844 6.822442 -1.2683905
v -0.17005844 6.822442 -1.2683905
v -1.1046436 6.298926 -0.92232573
v -1.6556646 5.211835 -1.9394627
v -1.1046436 6.298926 -0.92232573
v -1.6302261 5.2211595 1.718813
v -1.6556646 5.211835 -1.9394627
v -0.20292832 6.823451 1.5862151
v 0.9079064 6.045553 1.0438421
v 1.3480164 5.202258 1.7843748
v 0.9079064 6.045553 1.0438421
v 1.6556668 5.1872067 -0.019477654
v 1.3480164 5.202258 1.7843748
v -0.20292832 6.823451 1.5862151
v -0.47230273 5.2133317 2.03079
v -1.6302261 5.2211595 1.718813
v 0.010490275 6.6149096 0.16156952
v 0.028071476 6.572138 0.35915017
v 0.2233536 6.544697 0.3276182
v 0.010490275 6.6149096 0.16156952
v 0.038752813 8.427144 0.3133331
v 0.028071476 6.572138 0.35915017
v 0.028071476 6.572138 0.35915017
v 0.014012433 8.416803 0.44181946
v 0.2233536 6.544697 0.3276182
v 0.2233536 6.544697 0.3276182
v 0.15719654 8.402415 0.395053
v 0.20713806 6.5770164 0.13234688
v 0.20713806 6.5770164 0.13234688
v 0.18095922 8.414285 0.26750955
v 0.010490275 6.6149096 0.16156952
v 0.010490275 6.6149096 0.16156952
v 0.2233536 6.544697 0.3276182
v 0.20713806 6.5770164 0.13234688
v 0.028071476 6.572138 0.35915017
v 0.038752813 8.427144 0.3133331
v 0.014012433 8.416803 0.44181946
v 0.2233536 6.544697 0.3276182
v 0.014012433 8.416803 0.44181946
v 0.15719654 8.402415 0.395053
v 0.20713806 6.5770164 0.13234688
v 0.15719654 8.402415 0.395053
v 0.18095922 8.414285 0.26750955
v 0.010490275 6.6149096 0.16156952
v 0.18095922 8.414285 0.26750955
v 0.038752813 8.427144 0.3133331
v 0.014012433 8.416803 0.44181946
v 0.038752813 8.427144 0.3133331
v 0.15719654 8.402415 0.395053
v 0.18095922 8.414285 0.26750955
v -0.016543765 8.013107 -0.8898678
v 0.15676738 7.689721 0.32807606
v 0.15965913 8.530518 0.35558084
v 0.0014604187 7.6715913 0.2938762
v -0.16832282 8.029447 -0.89577365
v 0.002953911 8.456933 0.3072158
v -0.016543765 8.013107 -0.8898678
v -0.16832282 8.029447 -0.89577365
v 0.0014604187 7.6715913 0.2938762
v 0.15676738 7.689721 0.32807606
v 0.0014604187 7.6715913 0.2938762
v 0.002953911 8.456933 0.3072158
v 0.15965913 8.530518 0.35558084
v 0.002953911 8.456933 0.3072158
v -0.16832282 8.029447 -0.89577365
v -0.016543765 8.013107 -0.8898678
v 0.0014604187 7.6715913 0.2938762
v 0.15676738 7.689721 0.32807606
v 0.15676738 7.689721 0.32807606
v 0.002953911 8.456933 0.3072158
v 0.15965913 8.530518 0.35558084
v 0.15965913 8.530518 0.35558084
v -0.16832282 8.029447 -0.89577365
v -0.016543765 8.013107 -0.8898678
vn 0.029340139 -0.9995664 0.0025063886
vn 0.029340139 -0.9995664 0.0025063888
vn 0.02934014 -0.9995664 0.0025063888
vn -0.0069749253 -0.9996166 -0.02679326
vn 0.03709257 0.99891615 0.028117355
vn 0.037092566 0.99891615 0.028117355
vn 0.03709257 0.99891615 0.028117357
vn -0.021665469 0.042633034 0.99885595
vn -0.021665469 0.04263303 0.99885595
vn -0.021665469 0.04263303 0.99885595
vn 0.99790657 -0.008880252 -0.064059585
vn 0.99790657 -0.008880251 -0.06405959
vn 0.99790657 -0.008880253 -0.0640596
vn 0.08486084 0.027331501 -0.9960179
vn 0.08486085 0.027331505 -0.9960179
vn 0.084860854 0.027331505 -0.9960179
vn -0.0076631405 0.9999387 -0.0079929
vn -0.0076631405 0.9999387 -0.0079929
vn -0.007663141 0.9999387 -0.0079929
vn 0.026961243 0.021480313 0.9994056
vn 0.026961243 0.021480309 0.9994056
vn 0.026961245 0.021480309 0.9994056
vn 0.9992163 0.035758436 0.016972281
vn 0.9992163 0.035758436 0.016972281
vn 0.9992163 0.035758436 0.01697228
vn -0.0054059434 -0.010171792 -0.9999337
vn -0.0054059434 -0.010171792 -0.9999337
vn -0.005405943 -0.010171792 -0.9999337
vn -0.0 -1.0 0.0
vn -0.0 -1.0 0.0
vn -0.0 -1.0 0.0
vn -0.0 -1.0 0.0
vn -0.0 0.0 1.0
vn -0.0 0.0 1.0
vn -0.0 0.0 1.0
vn -0.0 0.0 1.0
vn -1.0 0.0 0.0
vn -1.0 0.0 0.0
vn -1.0 0.0 0.0
vn -1.0 0.0 0.0
vn -0.9998209 0.017860794 0.0062707653
vn -0.9998209 0.017860796 0.0062707653
vn -0.9998209 0.017860794 0.0062707653
vn -0.9997061 0.023779936 -0.0047084913
vn -0.9998209 0.0178608 0.006270781
vn -0.9997025 0.02390774 -0.004809693
vn -0.9997025 0.023907742 -0.00480969
vn -0.9997025 0.023907742 -0.00480969
vn 0.05676759 0.010069228 -0.9983367
vn 0.049993947 0.008867742 -0.99871016
vn 0.0071059987 0.001260436 -0.999974
vn -0.0 0.0 -1.0
vn 0.10172928 0.99481213 0.0
vn 0.085750245 0.9963075 -0.004286207
vn 0.016900606 0.99960023 -0.022668798
vn -0.0 0.99963105 -0.027160073
vn 0.023271773 -0.99972636 0.0023864277
vn 0.023271773 -0.99972636 0.0023864277
vn 0.023271771 -0.99972636 0.0023864277
vn -0.005070792 -0.99995923 0.0074786367
vn -0.005070792 -0.99995923 0.007478637
vn -0.0050707916 -0.99995923 0.0074786367
vn 0.1315673 0.24332765 0.9609796
vn 0.1315673 0.24332765 0.9609796
vn 0.13156731 0.24332765 0.9609796
vn 0.7043339 0.70390064 -0.09185694
vn 0.7043339 0.70390064 -0.09185694
vn 0.70433396 0.7039006 -0.091856934
vn 0.6871669 0.71987706 -0.09787024
vn -0.037974477 0.41397572 -0.9094955
vn -0.037974477 0.41397575 -0.9094955
vn -0.037974477 0.41397572 -0.9094955
vn -0.7356553 0.6656759 0.12524731
vn -0.7356553 0.6656759 0.1252473
vn -0.7356553 0.6656759 0.1252473
vn -0.031461816 -0.9987056 -0.039965317
vn -0.031461816 -0.9987056 -0.03996531
vn -0.03146182 -0.9987056 -0.039965313
vn 0.57568115 0.8176497 0.006339757
vn 0.57568115 0.8176497 0.0063397577
vn 0.57568115 0.8176497 0.0063397577
vn -0.49037755 0.8714898 -0.0059546013
vn -0.49037752 0.8714897 -0.0059546004
vn -0.49037752 0.8714897 -0.0059546004
vn -0.55741286 0.7000943 -0.44627228
vn -0.55741286 0.7000943 -0.44627228
vn -0.5574128 0.70009434 -0.4462723
vn -0.89385486 0.44832772 0.0050728186
vn -0.89385486 0.4483277 0.005072818
vn -0.89385486 0.4483277 0.005072818
vn 0.6474576 0.6649207 0.37239653
vn 0.6474576 0.6649207 0.3723965
vn 0.64745766 0.6649207 0.37239653
vn 0.8242782 0.54960936 0.13599639
vn 0.82427824 0.5496093 0.1359964
vn 0.82427824 0.54960936 0.1359964
vn -0.24662252 0.2960528 0.92278385
vn -0.24662252 0.29605284 0.92278385
vn -0.24662252 0.29605284 0.92278385
vn -0.1672073 -0.96657383 -0.19436277
vn -0.16720733 -0.96657383 -0.19436276
vn -0.16720732 -0.96657383 -0.19436276
vn -0.99587905 0.007965708 0.09034011
vn -0.99587905 0.007965708 0.0903401
vn -0.99587905 0.007965708 0.09034011
vn 0.15335421 -0.043074343 0.9872321
vn 0.15335423 -0.043074347 0.9872321
vn 0.15335421 -0.043074343 0.9872321
vn 0.9963427 0.038255256 -0.076405644
vn 0.9963427 0.03825526 -0.07640565
vn 0.9963427 0.03825526 -0.07640565
vn -0.13325432 0.07082597 -0.9885479
vn -0.13325433 0.07082598 -0.9885479
vn -0.13325432 0.07082597 -0.9885479
vn -0.20770799 -0.96769416 -0.14291728
vn -0.20770802 -0.96769416 -0.14291728
vn -0.20770803 -0.96769416 -0.14291729
vn -0.98197603 9.861258E-4 -0.18900263
vn -0.98197603 9.861259E-4 -0.18900263
vn -0.98197603 9.861259E-4 -0.18900263
vn 0.30825198 -0.023544101 0.9510133
vn 0.30825195 -0.023544101 0.9510133
vn 0.30825198 -0.023544103 0.9510133
vn 0.98307437 5.296315E-4 0.18320641
vn 0.98307437 5.296315E-4 0.18320641
vn 0.98307437 5.2963145E-4 0.18320641
vn -0.29870036 0.084266886 -0.95061934
vn -0.29870036 0.084266886 -0.95061934
vn -0.29870036 0.084266886 -0.95061934
vn 0.13332082 0.98549646 0.104986906
vn 0.13332084 0.98549646 0.10498691
vn 0.13332082 0.98549646 0.104986906
vn 0.12622412 0.9852889 0.11521
vn 0.9900703 0.0011932469 -0.14056835
vn 0.9900703 0.0011932469 -0.14056835
vn 0.9900703 0.0011932469 -0.14056833
vn -0.9899905 -5.145861E-4 0.14113368
vn -0.9899905 -5.1458605E-4 0.14113368
vn -0.9899905 -5.1458605E-4 0.14113368
vn -0.09233951 -0.95708066 -0.2747182
vn -0.09233952 -0.95708066 -0.27471825
vn -0.09233952 -0.95708066 -0.27471825
vn -0.21322492 -0.016187362 0.97686905
vn -0.2132249 -0.016187362 0.97686905
vn -0.2132249 -0.01618736 0.97686905
vn -0.33904657 0.9006571 -0.27177945
vn -0.33904663 0.9006571 -0.27177945
vn -0.33904663 0.9006571 -0.27177945
vn 0.17109744 -0.9459482 -0.27551323
vn 0.17109744 -0.9459483 -0.27551323
vn 0.17109744 -0.9459483 -0.27551323
vn -0.28171158 -0.030403215 0.95901734
vn -0.28171152 -0.030403212 0.95901734
vn -0.28171158 -0.030403215 0.95901734
vn 0.11350886 0.911718 -0.39482394
vn 0.113508865 0.911718 -0.39482394
vn 0.113508865 0.911718 -0.39482394
vt 0.97056663 0.684313
vt 0.9169229 0.72759235
vt 0.91316915 0.6839503
vt 0.9715965 0.73108876
vt 0.4454571 0.34603143
vt 0.49790227 0.38834357
vt 0.44654396 0.38752186
vt 0.5083125 0.63383865
vt 0.6077189 0.67711806
vt 0.5079586 0.6806145
vt 0.002146706 0.7338728
vt 0.10332209 0.78956485
vt 0.003636539 0.7885463
vt 0.10119307 0.39167583
vt 0.200558 0.43292493
vt 0.09990269 0.43531787
vt 0.49790227 0.38834357
vt 0.4454571 0.34603143
vt 0.49767154 0.3462727
vt 0.6077189 0.67711806
vt 0.5083125 0.63383865
vt 0.60922897 0.6356275
vt 0.10332209 0.78956485
vt 0.002146706 0.7338728
vt 0.101907015 0.73820657
vt 0.200558 0.43292493
vt 0.10119307 0.39167583
vt 0.20087856 0.39085406
vt 0.9779588 0.58418894
vt 0.9937209 0.58411324
vt 0.9937209 0.58776164
vt 0.9779588 0.58776164
vt 0.7963562 0.92732525
vt 0.7963562 0.92326045
vt 0.81692505 0.9237524
vt 0.81692505 0.92732525
vt 0.19290185 0.1107713
vt 0.19290185 0.12653315
vt 0.17233253 0.12653315
vt 0.17233253 0.1107713
vt 0.9024246 0.83338004
vt 0.9372542 0.85216516
vt 0.83633786 0.8543824
vt 0.92257166 0.8336104
vt 0.8361833 0.7969848
vt 0.9368386 0.7999507
vt 0.92257166 0.8178487
vt 0.9020025 0.8178487
vt 0.96865284 0.92735636
vt 0.96823096 0.9232297
vt 0.98880017 0.9268782
vt 0.98880017 0.9232297
vt 0.05706048 0.026965618
vt 0.05729091 0.02283895
vt 0.07282221 0.026965618
vt 0.07282221 0.022900939
vt 0.4394166 0.7927112
vt 0.36919385 0.84706855
vt 0.37090418 0.7922347
vt 0.4068618 0.8542496
vt 0.44525933 0.8143968
vt 0.44064444 0.84848785
vt 0.67691827 0.21051055
vt 0.65867853 0.18597376
vt 0.70069647 0.18608028
vt 0.4549706 0.5258071
vt 0.39683294 0.51209843
vt 0.4397769 0.4865991
vt 0.41725302 0.53293216
vt 0.7820837 0.3020184
vt 0.78903675 0.34348953
vt 0.7461195 0.34346592
vt 0.14044577 0.2537728
vt 0.09052652 0.23234844
vt 0.13782454 0.21359456
vt 0.36919385 0.84706855
vt 0.4394166 0.7927112
vt 0.4068618 0.8542496
vt 0.4397769 0.4865991
vt 0.39683294 0.51209843
vt 0.3865924 0.487266
vt 0.13782454 0.21359456
vt 0.09052652 0.23234844
vt 0.084842145 0.21335137
vt 0.13479781 0.10597932
vt 0.15080851 0.092262745
vt 0.17770219 0.10493481
vt 0.09052652 0.23234844
vt 0.14044577 0.2537728
vt 0.0724448 0.25442195
vt 0.53865534 0.07610011
vt 0.5142754 0.08850312
vt 0.49650094 0.074582815
vt 0.39683294 0.51209843
vt 0.41725302 0.53293216
vt 0.38389647 0.5293323
vt 0.5843662 0.15205574
vt 0.61111546 0.13506931
vt 0.6246183 0.15301651
vt 0.9959384 0.7244668
vt 0.9922247 0.72456706
vt 0.9923887 0.7208663
vt 0.94734883 0.037605405
vt 0.9133239 0.036095858
vt 0.94800425 0.03387642
vt 0.4991721 0.023542166
vt 0.53370464 0.02456963
vt 0.49852192 0.027177691
vt 0.8838936 0.023552
vt 0.91870797 0.02358967
vt 0.884362 0.02722913
vt 0.92115194 0.0235492
vt 0.95556045 0.024039626
vt 0.9218616 0.02723205
vt 0.9959384 0.7244668
vt 0.9923887 0.7208663
vt 0.99605644 0.7207453
vt 0.94800425 0.03387642
vt 0.9133239 0.036095858
vt 0.91342306 0.033683896
vt 0.49852192 0.027177691
vt 0.53370464 0.02456963
vt 0.5333352 0.027239203
vt 0.884362 0.02722913
vt 0.91870797 0.02358967
vt 0.9188409 0.025984943
vt 0.9218616 0.02723205
vt 0.95556045 0.024039626
vt 0.95580125 0.026702762
vt 0.9954972 0.8080759
vt 0.99765176 0.80924344
vt 0.9955237 0.8108969
vt 0.99766695 0.8120414
vt 0.19552124 0.1159749
vt 0.21854132 0.110774994
vt 0.21846783 0.1265297
vt 0.76119816 0.11178744
vt 0.78372365 0.117610574
vt 0.76152515 0.12649381
vt 0.0625664 0.017443657
vt 0.06300461 0.020254493
vt 0.0405066 0.01967001
vt 0.066027045 0.01998198
vt 0.06568754 0.017073393
vt 0.08039546 0.017101407
vt 0.7052965 0.736274
vt 0.70713294 0.7334527
vt 0.7312268 0.7346551
vt 0.0625664 0.017443657
vt 0.0405066 0.01967001
vt 0.03953433 0.016855001
vt 0.066027045 0.01998198
vt 0.08039546 0.017101407
vt 0.08177364 0.020035982
vt 0.5255927 0.79301846
vt 0.55155575 0.79205394
vt 0.55099833 0.79486024

g House_4_RED
s 1
usemtl House_4_RED
f 3/3/3 2/2/2 1/1/1 
f 4/4/4 1/1/1 2/2/2 
f 7/7/7 6/6/6 5/5/5 
f 10/10/10 9/9/9 8/8/8 
f 13/13/13 12/12/12 11/11/11 
f 16/16/16 15/15/15 14/14/14 
f 19/19/19 18/18/18 17/17/17 
f 22/22/22 21/21/21 20/20/20 
f 25/25/25 24/24/24 23/23/23 
f 28/28/28 27/27/27 26/26/26 
f 31/31/31 30/30/30 29/29/29 
f 32/32/32 31/31/31 29/29/29 
f 35/35/35 34/34/34 33/33/33 
f 36/36/36 35/35/35 33/33/33 
f 39/39/39 38/38/38 37/37/37 
f 40/40/40 39/39/39 37/37/37 
f 43/43/43 42/42/42 41/41/41 
f 44/44/44 41/41/41 42/42/42 
f 45/45/45 43/43/43 41/41/41 
f 46/46/46 44/44/44 42/42/42 
f 45/45/45 47/47/47 46/46/46 
f 47/47/47 44/44/44 46/46/46 
f 48/48/48 47/47/47 45/45/45 
f 48/48/48 45/45/45 41/41/41 
f 51/51/51 50/50/50 49/49/49 
f 52/52/52 50/50/50 51/51/51 
f 55/55/55 54/54/54 53/53/53 
f 56/56/56 54/54/54 55/55/55 
f 59/59/59 58/58/58 57/57/57 
f 61/61/61 57/57/57 60/60/60 
f 62/62/62 61/61/61 60/60/60 
f 65/65/65 64/64/64 63/63/63 
f 68/68/68 67/67/67 66/66/66 
f 69/69/69 66/66/66 67/67/67 
f 72/72/72 71/71/71 70/70/70 
f 75/75/75 74/74/74 73/73/73 
f 78/78/78 77/77/77 76/76/76 
f 81/81/81 80/80/80 79/79/79 
f 84/84/84 83/83/83 82/82/82 
f 87/87/87 86/86/86 85/85/85 
f 90/90/90 89/89/89 88/88/88 
f 93/93/93 92/92/92 91/91/91 
f 96/96/96 95/95/95 94/94/94 
f 99/99/99 98/98/98 97/97/97 
f 102/102/102 101/101/101 100/100/100 
f 105/105/105 104/104/104 103/103/103 
f 108/108/108 107/107/107 106/106/106 
f 111/111/111 110/110/110 109/109/109 
f 114/114/114 113/113/113 112/112/112 
f 117/117/117 116/116/116 115/115/115 
f 120/120/120 119/119/119 118/118/118 
f 123/123/123 122/122/122 121/121/121 
f 126/126/126 125/125/125 124/124/124 
f 129/129/129 128/128/128 127/127/127 
f 132/132/132 131/131/131 130/130/130 
f 133/133/133 131/131/131 132/132/132 
f 136/136/136 135/135/135 134/134/134 
f 139/139/139 138/138/138 137/137/137 
f 142/142/142 141/141/141 140/140/140 
f 145/145/145 144/144/144 143/143/143 
f 148/148/148 147/147/147 146/146/146 
f 151/151/151 150/150/150 149/149/149 
f 154/154/154 153/153/153 152/152/152 
f 157/157/157 156/156/156 155/155/155 

