# Created by DisUnity v0.3.4
v -1.3998336 0.018901138 1.4362246
v 0.9110986 0.07955132 -1.4281338
v -1.419203 0.010647697 -1.6285666
v 1.0977947 -9.1310006E-17 1.4912056
v -1.3043158 2.4895372 1.317832
v 0.9549744 2.4844673 -1.482517
v 0.9110986 2.4089062 1.2597992
v -1.3998336 0.018901138 1.4362246
v 0.9110986 2.4089062 1.2597992
v 1.0977947 -9.1310006E-17 1.4912056
v 1.0977947 -9.1310006E-17 1.4912056
v 0.9549744 2.4844673 -1.482517
v 0.9110986 0.07955132 -1.4281338
v 0.9110986 0.07955132 -1.4281338
v -1.2914329 2.4673502 -1.470198
v -1.419203 0.010647697 -1.6285666
v 0.9549744 2.4844673 -1.482517
v -1.3043158 2.4895372 1.317832
v -1.2914329 2.4673502 -1.470198
v 0.9110986 2.4089062 1.2597992
v -1.3998336 0.018901138 1.4362246
v -1.3043158 2.4895372 1.317832
v 0.9549744 2.4844673 -1.482517
v 1.0977947 -9.1310006E-17 1.4912056
v 0.9110986 2.4089062 1.2597992
v -1.2914329 2.4673502 -1.470198
v 0.9110986 0.07955132 -1.4281338
v 0.9549744 2.4844673 -1.482517
v -1.1957058 0.8840942 -0.4829187
v -1.1957058 0.8840942 0.31370208
v -1.3731029 0.8840942 0.31370208
v -1.378054 0.8840942 -0.4829187
v -1.3313959 1.8754338 0.31370208
v -1.3731029 0.8840942 0.31370208
v -1.1957058 0.8840942 0.31370208
v -1.1957058 1.8754338 0.31370208
v -1.3273832 1.8754338 -0.4829187
v -1.3313959 1.8754338 0.31370208
v -1.1957058 1.8754338 0.31370208
v -1.1957058 1.8754338 -0.4829187
v -1.1957058 0.8840942 0.31370208
v -1.1957058 0.8840942 -0.4829187
v -1.1957058 1.8754338 -0.4829187
v -1.1957058 1.8754338 0.31370208
v -1.1957058 0.8840942 -0.4829187
v -1.378054 0.8840942 -0.4829187
v -1.3273832 1.8754338 -0.4829187
v -1.1957058 1.8754338 -0.4829187
v -1.419203 0.010647697 -1.6285666
v -1.378054 0.8840942 -0.4829187
v -1.3998336 0.018901138 1.4362246
v -1.2914329 2.4673502 -1.470198
v -1.3731029 0.8840942 0.31370208
v -1.3313959 1.8754338 0.31370208
v -1.3043158 2.4895372 1.317832
v -1.3273832 1.8754338 -0.4829187
v -1.6302274 2.3032873 1.718813
v 1.272231 2.3619003 -2.0307887
v -1.6556659 2.2939625 -1.9394627
v 1.6556656 2.2693343 -0.019477654
v -0.47230405 2.2954593 2.03079
v 1.3480151 2.2843854 1.7843748
v -0.47230405 2.2954593 2.03079
v -0.20292962 3.9055786 1.5862151
v 1.3480151 2.2843854 1.7843748
v 0.9079051 3.1276805 1.0438421
v 1.272231 2.3619003 -2.0307887
v 1.6556656 2.2693343 -0.019477654
v -0.17005974 3.9045696 -1.2683905
v 1.272231 2.3619003 -2.0307887
v -0.17005974 3.9045696 -1.2683905
v -1.6556659 2.2939625 -1.9394627
v -1.6302274 2.3032873 1.718813
v -1.1046449 3.3810534 -0.92232573
v -0.20292962 3.9055786 1.5862151
v 1.6556656 2.2693343 -0.019477654
v 1.272231 2.3619003 -2.0307887
v -1.6302274 2.3032873 1.718813
v -0.17005974 3.9045696 -1.2683905
v 0.9079051 3.1276805 1.0438421
v -0.20292962 3.9055786 1.5862151
v -0.20292962 3.9055786 1.5862151
v -1.1046449 3.3810534 -0.92232573
v -0.17005974 3.9045696 -1.2683905
v -0.17005974 3.9045696 -1.2683905
v -1.1046449 3.3810534 -0.92232573
v -1.6556659 2.2939625 -1.9394627
v -1.1046449 3.3810534 -0.92232573
v -1.6302274 2.3032873 1.718813
v -1.6556659 2.2939625 -1.9394627
v -0.20292962 3.9055786 1.5862151
v 0.9079051 3.1276805 1.0438421
v 1.3480151 2.2843854 1.7843748
v 0.9079051 3.1276805 1.0438421
v 1.6556656 2.2693343 -0.019477654
v 1.3480151 2.2843854 1.7843748
v -0.20292962 3.9055786 1.5862151
v -0.47230405 2.2954593 2.03079
v -1.6302274 2.3032873 1.718813
v 0.010488978 3.697037 0.16156952
v 0.028070178 3.6542654 0.35915017
v 0.2233523 3.6268241 0.3276182
v 0.010488978 3.697037 0.16156952
v 0.038751516 5.509272 0.3133331
v 0.028070178 3.6542654 0.35915017
v 0.028070178 3.6542654 0.35915017
v 0.014011135 5.498931 0.44181946
v 0.2233523 3.6268241 0.3276182
v 0.2233523 3.6268241 0.3276182
v 0.15719524 5.484543 0.395053
v 0.20713675 3.659144 0.13234688
v 0.20713675 3.659144 0.13234688
v 0.18095793 5.4964123 0.26750955
v 0.010488978 3.697037 0.16156952
v 0.010488978 3.697037 0.16156952
v 0.2233523 3.6268241 0.3276182
v 0.20713675 3.659144 0.13234688
v 0.028070178 3.6542654 0.35915017
v 0.038751516 5.509272 0.3133331
v 0.014011135 5.498931 0.44181946
v 0.2233523 3.6268241 0.3276182
v 0.014011135 5.498931 0.44181946
v 0.15719524 5.484543 0.395053
v 0.20713675 3.659144 0.13234688
v 0.15719524 5.484543 0.395053
v 0.18095793 5.4964123 0.26750955
v 0.010488978 3.697037 0.16156952
v 0.18095793 5.4964123 0.26750955
v 0.038751516 5.509272 0.3133331
v 0.014011135 5.498931 0.44181946
v 0.038751516 5.509272 0.3133331
v 0.15719524 5.484543 0.395053
v 0.18095793 5.4964123 0.26750955
v -0.016545063 5.095235 -0.8898678
v 0.15676609 4.7718487 0.32807606
v 0.15965782 5.612645 0.35558084
v 0.0014591217 4.753719 0.2938762
v -0.16832411 5.1115737 -0.89577365
v 0.0029526139 5.53906 0.3072158
v -0.016545063 5.095235 -0.8898678
v -0.16832411 5.1115737 -0.89577365
v 0.0014591217 4.753719 0.2938762
v 0.15676609 4.7718487 0.32807606
v 0.0014591217 4.753719 0.2938762
v 0.0029526139 5.53906 0.3072158
v 0.15965782 5.612645 0.35558084
v 0.0029526139 5.53906 0.3072158
v -0.16832411 5.1115737 -0.89577365
v -0.016545063 5.095235 -0.8898678
v 0.0014591217 4.753719 0.2938762
v 0.15676609 4.7718487 0.32807606
v 0.15676609 4.7718487 0.32807606
v 0.0029526139 5.53906 0.3072158
v 0.15965782 5.612645 0.35558084
v 0.15965782 5.612645 0.35558084
v -0.16832411 5.1115737 -0.89577365
v -0.016545063 5.095235 -0.8898678
vn 0.029340139 -0.9995664 0.0025063886
vn 0.029340139 -0.9995664 0.0025063888
vn 0.02934014 -0.9995664 0.0025063888
vn -0.0069749253 -0.9996166 -0.02679326
vn 0.03709257 0.99891615 0.028117355
vn 0.037092566 0.99891615 0.028117355
vn 0.03709257 0.99891615 0.028117357
vn -0.02119975 0.09397301 0.9953491
vn -0.021199746 0.093973 0.995349
vn -0.021199748 0.093973 0.9953491
vn 0.9977343 -0.019657867 -0.06434225
vn 0.9977343 -0.019657865 -0.06434227
vn 0.9977343 -0.019657863 -0.06434225
vn 0.083787635 0.059763853 -0.99468994
vn 0.08378763 0.059763856 -0.99468994
vn 0.083787635 0.059763864 -0.99468994
vn -0.0076631405 0.9999387 -0.0079929
vn -0.0076631405 0.9999387 -0.0079929
vn -0.007663141 0.9999387 -0.0079929
vn 0.027858462 0.046771746 0.9985171
vn 0.02785846 0.046771735 0.9985171
vn 0.027858462 0.04677174 0.9985171
vn 0.9967108 0.078988485 0.01812334
vn 0.9967108 0.078988485 0.01812334
vn 0.9967108 0.078988485 0.018123342
vn -0.005310822 -0.022510357 -0.99973243
vn -0.0053108223 -0.02251036 -0.99973243
vn -0.005310822 -0.022510357 -0.99973243
vn -0.0 1.0 0.0
vn -0.0 1.0 0.0
vn -0.0 1.0 0.0
vn -0.0 1.0 0.0
vn -0.0 0.0 -1.0
vn -0.0 0.0 -1.0
vn -0.0 0.0 -1.0
vn -0.0 0.0 -1.0
vn -0.0 -1.0 0.0
vn -0.0 -1.0 0.0
vn -0.0 -1.0 0.0
vn -0.0 -1.0 0.0
vn -1.0 0.0 0.0
vn -1.0 0.0 0.0
vn -1.0 0.0 0.0
vn -1.0 0.0 0.0
vn -0.0 0.0 1.0
vn -0.0 0.0 1.0
vn -0.0 0.0 1.0
vn -0.0 0.0 1.0
vn -0.99922276 0.03892884 0.0062102643
vn -0.99922276 0.038928837 0.0062102643
vn -0.99922276 0.038928837 0.0062102647
vn -0.99862945 0.052190375 -0.0039216955
vn -0.9990792 0.042032667 0.008605943
vn -0.9992423 0.038786553 0.0032272765
vn -0.9992423 0.038786553 0.0032272765
vn -0.99862087 0.052261185 -0.005030263
vn 0.023271773 -0.99972636 0.0023864277
vn 0.023271773 -0.99972636 0.0023864277
vn 0.023271771 -0.99972636 0.0023864277
vn -0.005070792 -0.99995923 0.0074786367
vn -0.005070792 -0.99995923 0.007478637
vn -0.0050707916 -0.99995923 0.0074786367
vn 0.1315673 0.24332765 0.9609796
vn 0.1315673 0.24332765 0.9609796
vn 0.13156731 0.24332765 0.9609796
vn 0.687167 0.719877 -0.09787024
vn 0.687167 0.719877 -0.09787023
vn 0.6871669 0.71987706 -0.09787024
vn 0.70433396 0.7039006 -0.091856934
vn -0.037974477 0.41397572 -0.9094955
vn -0.037974477 0.41397575 -0.9094955
vn -0.037974477 0.41397572 -0.9094955
vn -0.7356553 0.6656759 0.12524731
vn -0.7356553 0.6656759 0.1252473
vn -0.7356553 0.6656759 0.1252473
vn -0.03146182 -0.9987056 -0.03996531
vn -0.031461824 -0.9987056 -0.039965317
vn -0.03146182 -0.9987056 -0.03996531
vn 0.57568115 0.8176497 0.006339757
vn 0.57568115 0.8176497 0.0063397577
vn 0.57568115 0.8176497 0.0063397577
vn -0.49037755 0.8714898 -0.0059546013
vn -0.49037752 0.8714897 -0.0059546004
vn -0.49037752 0.8714897 -0.0059546004
vn -0.55741286 0.7000943 -0.44627228
vn -0.55741286 0.7000943 -0.44627228
vn -0.5574128 0.70009434 -0.4462723
vn -0.89385486 0.44832772 0.0050728186
vn -0.89385486 0.4483277 0.005072818
vn -0.89385486 0.4483277 0.005072818
vn 0.6474576 0.6649207 0.37239653
vn 0.6474576 0.6649207 0.3723965
vn 0.64745766 0.6649207 0.37239653
vn 0.8242782 0.54960936 0.13599639
vn 0.82427824 0.5496093 0.1359964
vn 0.82427824 0.54960936 0.1359964
vn -0.24662252 0.2960528 0.92278385
vn -0.24662252 0.29605284 0.92278385
vn -0.24662252 0.29605284 0.92278385
vn -0.1672073 -0.96657383 -0.19436277
vn -0.16720733 -0.96657383 -0.19436276
vn -0.16720732 -0.96657383 -0.19436276
vn -0.99587905 0.007965708 0.09034011
vn -0.99587905 0.007965708 0.0903401
vn -0.99587905 0.007965708 0.09034011
vn 0.15335421 -0.043074343 0.9872321
vn 0.15335423 -0.043074347 0.9872321
vn 0.15335421 -0.043074343 0.9872321
vn 0.9963427 0.038255256 -0.076405644
vn 0.9963427 0.03825526 -0.07640565
vn 0.9963427 0.03825526 -0.07640565
vn -0.13325432 0.07082597 -0.9885479
vn -0.13325433 0.07082598 -0.9885479
vn -0.13325432 0.07082597 -0.9885479
vn -0.20770799 -0.96769416 -0.14291728
vn -0.20770802 -0.96769416 -0.14291728
vn -0.20770803 -0.96769416 -0.14291729
vn -0.98197603 9.861258E-4 -0.18900263
vn -0.98197603 9.861259E-4 -0.18900263
vn -0.98197603 9.861259E-4 -0.18900263
vn 0.30825198 -0.023544101 0.9510133
vn 0.30825195 -0.023544101 0.9510133
vn 0.30825198 -0.023544103 0.9510133
vn 0.98307437 5.296315E-4 0.18320641
vn 0.98307437 5.296315E-4 0.18320641
vn 0.98307437 5.2963145E-4 0.18320641
vn -0.29870036 0.084266886 -0.95061934
vn -0.29870036 0.084266886 -0.95061934
vn -0.29870036 0.084266886 -0.95061934
vn 0.13332082 0.98549646 0.104986906
vn 0.13332084 0.98549646 0.10498691
vn 0.13332082 0.98549646 0.104986906
vn 0.12622412 0.9852889 0.11521
vn 0.9900703 0.0011932469 -0.14056835
vn 0.9900703 0.0011932469 -0.14056835
vn 0.9900703 0.0011932469 -0.14056833
vn -0.9899905 -5.145861E-4 0.14113368
vn -0.9899905 -5.1458605E-4 0.14113368
vn -0.9899905 -5.1458605E-4 0.14113368
vn -0.09233951 -0.95708066 -0.2747182
vn -0.09233952 -0.95708066 -0.27471825
vn -0.09233952 -0.95708066 -0.27471825
vn -0.21322492 -0.016187362 0.97686905
vn -0.2132249 -0.016187362 0.97686905
vn -0.2132249 -0.01618736 0.97686905
vn -0.33904657 0.9006571 -0.27177945
vn -0.33904663 0.9006571 -0.27177945
vn -0.33904663 0.9006571 -0.27177945
vn 0.17109744 -0.9459482 -0.27551323
vn 0.17109744 -0.9459483 -0.27551323
vn 0.17109744 -0.9459483 -0.27551323
vn -0.28171158 -0.030403215 0.95901734
vn -0.28171152 -0.030403212 0.95901734
vn -0.28171158 -0.030403215 0.95901734
vn 0.11350886 0.911718 -0.39482394
vn 0.113508865 0.911718 -0.39482394
vn 0.113508865 0.911718 -0.39482394
vt 0.7889262 0.68431306
vt 0.7352823 0.72759235
vt 0.7315285 0.6839504
vt 0.78995585 0.73108876
vt 0.51674616 0.39290643
vt 0.56919134 0.4352187
vt 0.517833 0.43439698
vt 0.8622308 0.58421063
vt 0.8207395 0.6306331
vt 0.81547713 0.5856906
vt 0.17530704 0.5841572
vt 0.11961496 0.6306864
vt 0.12063336 0.58564705
vt 0.0035161208 0.3916757
vt 0.04823498 0.432925
vt 0.0022256896 0.43531787
vt 0.56919134 0.4352187
vt 0.51674616 0.39290643
vt 0.56896055 0.39314783
vt 0.8207395 0.6306331
vt 0.8622308 0.58421063
vt 0.86225724 0.63051534
vt 0.11961496 0.6306864
vt 0.17530704 0.5841572
vt 0.1709733 0.6292713
vt 0.04823498 0.432925
vt 0.0035161208 0.3916757
vt 0.048555557 0.390854
vt 0.93519413 0.014402866
vt 0.92027473 0.014402866
vt 0.92027473 0.011080503
vt 0.93519413 0.010987759
vt 0.57666576 0.0135753155
vt 0.55809987 0.014356494
vt 0.55809987 0.011034131
vt 0.57666576 0.011034131
vt 0.49058723 0.73366773
vt 0.5055065 0.7335926
vt 0.5055065 0.73613393
vt 0.49058723 0.73613393
vt 0.51708424 0.12660027
vt 0.51708424 0.111680984
vt 0.53565013 0.111680984
vt 0.53565013 0.12660027
vt 0.06786537 0.014402866
vt 0.06786537 0.010987878
vt 0.086431384 0.011936784
vt 0.086431384 0.014402866
vt 0.5418824 0.5353812
vt 0.52042663 0.55173934
vt 0.48448476 0.5355358
vt 0.53891647 0.5813906
vt 0.50550747 0.55173934
vt 0.50550747 0.5703051
vt 0.48670202 0.5818063
vt 0.52042663 0.5703051
vt 0.22847903 0.7927112
vt 0.15825617 0.8470686
vt 0.15996659 0.7922348
vt 0.19592416 0.8542496
vt 0.23432183 0.81439686
vt 0.22970688 0.8484879
vt 0.20035589 0.18023717
vt 0.18211603 0.1557002
vt 0.22413409 0.15580678
vt 0.6898018 0.5120985
vt 0.7479394 0.52580714
vt 0.7102219 0.53293216
vt 0.7327457 0.48659915
vt 0.96177125 0.3020184
vt 0.9687242 0.3434893
vt 0.925807 0.34346557
vt 0.8318521 0.29771817
vt 0.7819328 0.27629364
vt 0.8292308 0.25753975
vt 0.19592416 0.8542496
vt 0.15825617 0.8470686
vt 0.22847903 0.7927112
vt 0.7327457 0.48659915
vt 0.6898018 0.5120985
vt 0.6795613 0.48726606
vt 0.8292308 0.25753975
vt 0.7819328 0.27629364
vt 0.77624834 0.25729668
vt 0.31643832 0.0884012
vt 0.33244896 0.07468468
vt 0.35934293 0.08735669
vt 0.7819328 0.27629364
vt 0.8318521 0.29771817
vt 0.7638511 0.29836714
vt 0.8062334 0.09367818
vt 0.78185344 0.10608125
vt 0.7640791 0.09216088
vt 0.6898018 0.5120985
vt 0.7102219 0.53293216
vt 0.6768652 0.52933234
vt 0.62733483 0.15205586
vt 0.65408415 0.13506949
vt 0.667587 0.15301657
vt 0.9930086 0.80063856
vt 0.9892949 0.80073893
vt 0.9894589 0.7970381
vt 0.85359895 0.9272537
vt 0.819574 0.9257442
vt 0.85425436 0.92352486
vt 0.1446799 0.023542047
vt 0.17921257 0.024569511
vt 0.14402962 0.027177572
vt 0.18174505 0.02355194
vt 0.21655941 0.02358973
vt 0.18221343 0.02722919
vt 0.21900344 0.0235492
vt 0.25341177 0.024039507
vt 0.21971297 0.02723217
vt 0.9930086 0.80063856
vt 0.9894589 0.7970381
vt 0.99312675 0.7969172
vt 0.85425436 0.92352486
vt 0.819574 0.9257442
vt 0.8196732 0.9233321
vt 0.14402962 0.027177572
vt 0.17921257 0.024569511
vt 0.17884302 0.027239323
vt 0.18221343 0.02722919
vt 0.21655941 0.02358973
vt 0.21669233 0.025984883
vt 0.21971297 0.02723217
vt 0.25341177 0.024039507
vt 0.25365293 0.026702762
vt 0.99256754 0.7270212
vt 0.99472207 0.7281885
vt 0.99259394 0.72984207
vt 0.9947372 0.7309866
vt 0.14669323 0.11597514
vt 0.16971326 0.110774994
vt 0.1696397 0.12652981
vt 0.29537785 0.11178732
vt 0.31790328 0.117610574
vt 0.29570484 0.12649393
vt 0.39655066 0.024279594
vt 0.396989 0.02709043
vt 0.37449086 0.026506066
vt 0.4000113 0.026817799
vt 0.3996718 0.023909211
vt 0.41437972 0.023937106
vt 0.4621324 0.7362741
vt 0.4639688 0.73345256
vt 0.48806292 0.73465514
vt 0.39655066 0.024279594
vt 0.37449086 0.026506066
vt 0.3735187 0.023690939
vt 0.4000113 0.026817799
vt 0.41437972 0.023937106
vt 0.4157579 0.02687192
vt 0.4337958 0.7344247
vt 0.45975888 0.7334602
vt 0.45920146 0.7362665

g House_2_BLUE
s 1
usemtl House_2_BLUE
f 3/3/3 2/2/2 1/1/1 
f 4/4/4 1/1/1 2/2/2 
f 7/7/7 6/6/6 5/5/5 
f 10/10/10 9/9/9 8/8/8 
f 13/13/13 12/12/12 11/11/11 
f 16/16/16 15/15/15 14/14/14 
f 19/19/19 18/18/18 17/17/17 
f 22/22/22 21/21/21 20/20/20 
f 25/25/25 24/24/24 23/23/23 
f 28/28/28 27/27/27 26/26/26 
f 31/31/31 30/30/30 29/29/29 
f 32/32/32 31/31/31 29/29/29 
f 35/35/35 34/34/34 33/33/33 
f 36/36/36 35/35/35 33/33/33 
f 39/39/39 38/38/38 37/37/37 
f 40/40/40 39/39/39 37/37/37 
f 43/43/43 42/42/42 41/41/41 
f 44/44/44 43/43/43 41/41/41 
f 47/47/47 46/46/46 45/45/45 
f 48/48/48 47/47/47 45/45/45 
f 51/51/51 50/50/50 49/49/49 
f 52/52/52 49/49/49 50/50/50 
f 53/53/53 50/50/50 51/51/51 
f 54/54/54 53/53/53 51/51/51 
f 55/55/55 54/54/54 51/51/51 
f 54/54/54 55/55/55 56/56/56 
f 55/55/55 52/52/52 56/56/56 
f 56/56/56 52/52/52 50/50/50 
f 59/59/59 58/58/58 57/57/57 
f 61/61/61 57/57/57 60/60/60 
f 62/62/62 61/61/61 60/60/60 
f 65/65/65 64/64/64 63/63/63 
f 68/68/68 67/67/67 66/66/66 
f 69/69/69 66/66/66 67/67/67 
f 72/72/72 71/71/71 70/70/70 
f 75/75/75 74/74/74 73/73/73 
f 78/78/78 77/77/77 76/76/76 
f 81/81/81 80/80/80 79/79/79 
f 84/84/84 83/83/83 82/82/82 
f 87/87/87 86/86/86 85/85/85 
f 90/90/90 89/89/89 88/88/88 
f 93/93/93 92/92/92 91/91/91 
f 96/96/96 95/95/95 94/94/94 
f 99/99/99 98/98/98 97/97/97 
f 102/102/102 101/101/101 100/100/100 
f 105/105/105 104/104/104 103/103/103 
f 108/108/108 107/107/107 106/106/106 
f 111/111/111 110/110/110 109/109/109 
f 114/114/114 113/113/113 112/112/112 
f 117/117/117 116/116/116 115/115/115 
f 120/120/120 119/119/119 118/118/118 
f 123/123/123 122/122/122 121/121/121 
f 126/126/126 125/125/125 124/124/124 
f 129/129/129 128/128/128 127/127/127 
f 132/132/132 131/131/131 130/130/130 
f 133/133/133 131/131/131 132/132/132 
f 136/136/136 135/135/135 134/134/134 
f 139/139/139 138/138/138 137/137/137 
f 142/142/142 141/141/141 140/140/140 
f 145/145/145 144/144/144 143/143/143 
f 148/148/148 147/147/147 146/146/146 
f 151/151/151 150/150/150 149/149/149 
f 154/154/154 153/153/153 152/152/152 
f 157/157/157 156/156/156 155/155/155 

