# Created by DisUnity v0.3.4
v -2.0987756 0.014417744 1.9442998
v 1.815364 0.060682278 -1.8107331
v -2.1315825 0.00812212 -2.0734904
v 2.1315804 -1.2346749E-16 2.0163772
v -1.4501071 2.7858179 1.3271562
v 1.4090312 2.7821577 -1.4157605
v 1.3535061 2.7276099 1.2703133
v -1.4338037 2.7698004 -1.4036945
v -2.0987756 0.014417744 1.9442998
v 1.8543197 1.2599444 1.7538558
v 2.1315804 -1.2346749E-16 2.0163772
v -0.13654007 1.2653601 1.7199355
v 2.1315804 -1.2346749E-16 2.0163772
v 1.7404776 1.3043894 -1.7391038
v 1.815364 0.060682278 -1.8107331
v 1.889293 1.2815952 0.061983492
v 1.815364 0.060682278 -1.8107331
v -1.9076177 1.2797415 -1.8551611
v -2.1315825 0.00812212 -2.0734904
v -0.050134044 1.2994847 -1.7315041
v -2.1315825 0.00812212 -2.0734904
v -1.9024471 1.2884635 1.7557385
v -2.0987756 0.014417744 1.9442998
v -1.9178865 1.2860987 -0.13508484
v -1.9076177 1.2797415 -1.8551611
v -1.5682495 1.2854928 1.432329
v -0.13654007 1.2653601 1.7199355
v -1.9024471 1.2884635 1.7557385
v -1.9178865 1.2860987 -0.13508484
v 1.4581329 1.247363 1.3709694
v 1.8543197 1.2599444 1.7538558
v -1.9076177 1.2797415 -1.8551611
v -1.5506506 1.2750003 -1.5155094
v -0.050134044 1.2994847 -1.7315041
v 1.5180699 1.2830949 -1.5285344
v 1.8543197 1.2599444 1.7538558
v 1.4581329 1.247363 1.3709694
v 1.889293 1.2815952 0.061983492
v 1.7404776 1.3043894 -1.7391038
v -1.5506506 1.2750003 -1.5155094
v 1.7404776 1.3043894 -1.7391038
v 1.5180699 1.2830949 -1.5285344
v -0.050134044 1.2994847 -1.7315041
v -1.9024471 1.2884635 1.7557385
v -0.13654007 1.2653601 1.7199355
v -2.0987756 0.014417744 1.9442998
v 1.8543197 1.2599444 1.7538558
v 1.889293 1.2815952 0.061983492
v 2.1315804 -1.2346749E-16 2.0163772
v 1.7404776 1.3043894 -1.7391038
v -0.050134044 1.2994847 -1.7315041
v 1.815364 0.060682278 -1.8107331
v -1.5682495 1.2854928 1.432329
v 1.3535061 2.7276099 1.2703133
v 1.4581329 1.247363 1.3709694
v -1.4501071 2.7858179 1.3271562
v 1.4581329 1.247363 1.3709694
v 1.4090312 2.7821577 -1.4157605
v 1.5180699 1.2830949 -1.5285344
v 1.3535061 2.7276099 1.2703133
v 1.5180699 1.2830949 -1.5285344
v -1.4338037 2.7698004 -1.4036945
v -1.5506506 1.2750003 -1.5155094
v 1.4090312 2.7821577 -1.4157605
v -1.5392061 1.5119125 -0.37813756
v -1.2573962 1.5119125 -0.37813756
v -1.2573962 1.5119125 0.4015198
v -1.544078 1.5119125 0.4015198
v -1.4628203 2.5484836 0.4015198
v -1.544078 1.5119125 0.4015198
v -1.2573962 1.5119125 0.4015198
v -1.2573962 2.5484836 0.4015198
v -1.4578061 2.5484836 -0.37813756
v -1.4628203 2.5484836 0.4015198
v -1.2573962 2.5484836 0.4015198
v -1.2573962 2.5484836 -0.37813756
v -1.2573962 1.5119125 0.4015198
v -1.2573962 1.5119125 -0.37813756
v -1.2573962 2.5484836 -0.37813756
v -1.2573962 2.5484836 0.4015198
v -1.5506506 1.2750003 -1.5155094
v -1.4338037 2.7698004 -1.4036945
v -1.5392061 1.5119125 -0.37813756
v -1.5682495 1.2854928 1.432329
v -1.544078 1.5119125 0.4015198
v -1.4628203 2.5484836 0.4015198
v -1.4501071 2.7858179 1.3271562
v -1.4578061 2.5484836 -0.37813756
v -1.2573962 2.5484836 -0.37813756
v -1.5392061 1.5119125 -0.37813756
v -1.4578061 2.5484836 -0.37813756
v -1.2573962 1.5119125 -0.37813756
v -1.5647316 2.7162619 1.7615153
v 1.4095777 2.774875 -1.9880865
v -1.5901701 2.706937 -1.8967603
v 1.7930124 2.682309 0.023224678
v -0.33495724 2.7084336 2.0734923
v 1.4853619 2.69736 1.8270772
v -0.33495724 2.7084336 2.0734923
v -0.06558282 4.318553 1.6289175
v 1.4853619 2.69736 1.8270772
v 1.4095777 2.774875 -1.9880865
v 1.0452518 3.5406551 1.0865444
v -0.03271294 4.317544 -1.2256882
v 1.7930124 2.682309 0.023224678
v 1.4095777 2.774875 -1.9880865
v -0.03271294 4.317544 -1.2256882
v -1.5901701 2.706937 -1.8967603
v -1.5647316 2.7162619 1.7615153
v -0.9672981 3.794028 -0.8796234
v -0.06558282 4.318553 1.6289175
v 1.4095777 2.774875 -1.9880865
v -1.5647316 2.7162619 1.7615153
v 1.7930124 2.682309 0.023224678
v -0.03271294 4.317544 -1.2256882
v 1.0452518 3.5406551 1.0865444
v -0.06558282 4.318553 1.6289175
v -0.06558282 4.318553 1.6289175
v -0.9672981 3.794028 -0.8796234
v -0.03271294 4.317544 -1.2256882
v -0.03271294 4.317544 -1.2256882
v -0.9672981 3.794028 -0.8796234
v -1.5901701 2.706937 -1.8967603
v -0.9672981 3.794028 -0.8796234
v -1.5647316 2.7162619 1.7615153
v -1.5901701 2.706937 -1.8967603
v -0.06558282 4.318553 1.6289175
v 1.0452518 3.5406551 1.0865444
v 1.4853619 2.69736 1.8270772
v 1.0452518 3.5406551 1.0865444
v 1.7930124 2.682309 0.023224678
v 1.4853619 2.69736 1.8270772
v -0.06558282 4.318553 1.6289175
v -0.33495724 2.7084336 2.0734923
v -1.5647316 2.7162619 1.7615153
v 0.14783578 3.9540074 0.20427185
v 0.16541699 3.9112358 0.4018525
v 0.36069912 3.8837945 0.37032056
v 0.14783578 3.9540074 0.20427185
v 0.17609832 5.766243 0.35603544
v 0.16541699 3.9112358 0.4018525
v 0.16541699 3.9112358 0.4018525
v 0.15135793 5.755902 0.4845218
v 0.36069912 3.8837945 0.37032056
v 0.36069912 3.8837945 0.37032056
v 0.29454204 5.741513 0.43775532
v 0.34448355 3.9161143 0.17504922
v 0.34448355 3.9161143 0.17504922
v 0.31830472 5.753383 0.31021187
v 0.14783578 3.9540074 0.20427185
v 0.14783578 3.9540074 0.20427185
v 0.36069912 3.8837945 0.37032056
v 0.34448355 3.9161143 0.17504922
v 0.16541699 3.9112358 0.4018525
v 0.17609832 5.766243 0.35603544
v 0.15135793 5.755902 0.4845218
v 0.36069912 3.8837945 0.37032056
v 0.15135793 5.755902 0.4845218
v 0.29454204 5.741513 0.43775532
v 0.34448355 3.9161143 0.17504922
v 0.29454204 5.741513 0.43775532
v 0.31830472 5.753383 0.31021187
v 0.14783578 3.9540074 0.20427185
v 0.31830472 5.753383 0.31021187
v 0.17609832 5.766243 0.35603544
v 0.15135793 5.755902 0.4845218
v 0.17609832 5.766243 0.35603544
v 0.29454204 5.741513 0.43775532
v 0.31830472 5.753383 0.31021187
v 0.12080174 5.3522053 -0.8471654
v 0.2941129 5.028819 0.37077838
v 0.29700464 5.869616 0.39828315
v 0.13880593 5.0106893 0.33657852
v -0.030977316 5.368544 -0.8530713
v 0.14029941 5.796031 0.34991813
v 0.12080174 5.3522053 -0.8471654
v -0.030977316 5.368544 -0.8530713
v 0.13880593 5.0106893 0.33657852
v 0.2941129 5.028819 0.37077838
v 0.13880593 5.0106893 0.33657852
v 0.14029941 5.796031 0.34991813
v 0.29700464 5.869616 0.39828315
v 0.14029941 5.796031 0.34991813
v -0.030977316 5.368544 -0.8530713
v 0.12080174 5.3522053 -0.8471654
v 0.13880593 5.0106893 0.33657852
v 0.2941129 5.028819 0.37077838
v 0.2941129 5.028819 0.37077838
v 0.14029941 5.796031 0.34991813
v 0.29700464 5.869616 0.39828315
v 0.29700464 5.869616 0.39828315
v -0.030977316 5.368544 -0.8530713
v 0.12080174 5.3522053 -0.8471654
vn 0.013218366 -0.99991155 0.001458865
vn 0.013218366 -0.99991155 0.001458865
vn 0.013218366 -0.99991155 0.0014588651
vn -0.0031420349 -0.9998735 -0.015594283
vn 0.021173062 0.9995608 0.020736394
vn 0.021173062 0.9995608 0.020736394
vn 0.021173064 0.9995608 0.020736396
vn -0.0043716542 0.9999732 -0.005891244
vn -0.01600607 0.2005757 0.97954756
vn -0.016006067 0.2005757 0.97954756
vn -0.016006067 0.20057568 0.97954744
vn -0.016141344 0.20099163 0.97946006
vn 0.99460816 0.06456173 -0.081156164
vn 0.99460816 0.06456174 -0.081156164
vn 0.99460816 0.06456174 -0.081156164
vn 0.99463034 0.063945755 -0.08137241
vn 0.06349593 0.15800306 -0.98539495
vn 0.063495934 0.15800308 -0.98539495
vn 0.06349594 0.15800306 -0.98539495
vn 0.06389285 0.15922335 -0.98517287
vn -0.98812884 0.15342763 0.007828062
vn -0.98812884 0.15342763 0.007828063
vn -0.98812884 0.15342763 0.007828062
vn -0.9846288 0.17453839 -0.0065232813
vn -0.9846288 0.17453842 -0.006523282
vn 0.013171497 0.99990344 0.0044259666
vn 0.013171499 0.99990344 0.0044259666
vn 0.013171498 0.99990344 0.004425967
vn 0.0076185614 0.9999702 -0.0013128171
vn 0.0033367502 0.9993357 -0.036290485
vn 0.00333675 0.9993357 -0.03629048
vn 0.016571993 0.9998567 -0.0034599015
vn 0.016571991 0.9998567 -0.0034599013
vn -0.012422322 0.99955803 0.027008362
vn -0.042769074 0.9990196 0.011427287
vn -0.04276907 0.9990196 0.011427288
vn -0.04276908 0.9990196 0.011427287
vn -0.0774384 0.99681586 0.019013809
vn -0.07743841 0.99681586 0.019013813
vn -0.0022077241 0.9951538 0.09830587
vn -0.0022077241 0.9951538 0.09830588
vn -0.0022077241 0.9951538 0.09830589
vn -0.0023156307 0.99530715 0.09673773
vn 0.021932771 0.1430638 0.98947036
vn 0.02193277 0.1430638 0.98947036
vn 0.02193277 0.1430638 0.98947036
vn 0.9753597 0.2194216 0.02296997
vn 0.9753597 0.21942158 0.02296997
vn 0.9753597 0.2194216 0.022969972
vn -0.004393993 0.057233814 -0.9983511
vn -0.0043939925 0.05723381 -0.9983511
vn -0.004393993 0.057233814 -0.9983511
vn 0.021094896 0.06931184 0.99737203
vn 0.021094896 0.06931183 0.99737203
vn 0.021094898 0.069311835 0.99737203
vn 0.021639155 0.06821633 0.99743587
vn 0.9972504 0.07092133 0.021488622
vn 0.9972504 0.07092133 0.021488622
vn 0.9972504 0.07092133 0.021488622
vn 0.9971616 0.07198244 0.02207459
vn -0.0044301627 0.07493772 -0.99717844
vn -0.0044301627 0.07493772 -0.99717844
vn -0.0044301627 0.07493773 -0.99717844
vn -0.0045570917 0.074687235 -0.99719656
vn -0.0 1.0 0.0
vn -0.0 1.0 0.0
vn -0.0 1.0 0.0
vn -0.0 1.0 0.0
vn -0.0 0.0 -1.0
vn -0.0 0.0 -1.0
vn -0.0 0.0 -1.0
vn -0.0 0.0 -1.0
vn -0.0 -1.0 0.0
vn -0.0 -1.0 0.0
vn -0.0 -1.0 0.0
vn -0.0 -1.0 0.0
vn -1.0 0.0 0.0
vn -1.0 0.0 0.0
vn -1.0 0.0 0.0
vn -1.0 0.0 0.0
vn -0.9969022 0.07839799 -0.006299032
vn -0.9969022 0.07839799 -0.0062990324
vn -0.9969022 0.07839797 -0.0062990314
vn -0.99692863 0.07805946 -0.0063222055
vn -0.9969222 0.07814957 -0.0062111276
vn -0.9969009 0.07840562 -0.0064113443
vn -0.9969009 0.07840563 -0.0064113443
vn -0.9969009 0.078405626 -0.006411344
vn -0.0 0.0 1.0
vn -0.0 0.0 1.0
vn -0.0 0.0 1.0
vn -0.0 0.0 1.0
vn 0.02271477 -0.9997391 0.0023903335
vn 0.02271477 -0.9997391 0.0023903335
vn 0.02271477 -0.9997391 0.0023903337
vn -0.005070792 -0.99995923 0.0074786367
vn -0.005070792 -0.99995923 0.007478637
vn -0.0050707916 -0.99995923 0.0074786367
vn 0.1315673 0.24332765 0.9609796
vn 0.1315673 0.24332765 0.9609796
vn 0.13156731 0.24332765 0.9609796
vn 0.7043339 0.70390064 -0.09185694
vn 0.7043339 0.70390064 -0.09185694
vn 0.70433396 0.7039006 -0.091856934
vn 0.6871669 0.71987706 -0.09787024
vn -0.03707221 0.4146793 -0.9092122
vn -0.03707221 0.4146793 -0.9092122
vn -0.03707221 0.41467926 -0.9092122
vn -0.72047913 0.683702 0.116022915
vn -0.72047913 0.683702 0.11602291
vn -0.72047913 0.683702 0.11602291
vn -0.0308495 -0.99872005 -0.0400827
vn -0.0308495 -0.99872005 -0.040082708
vn -0.030849501 -0.99872005 -0.040082704
vn 0.57568115 0.8176497 0.006339757
vn 0.57568115 0.8176497 0.0063397577
vn 0.57568115 0.8176497 0.0063397577
vn -0.49037755 0.8714898 -0.0059546013
vn -0.49037752 0.8714897 -0.0059546004
vn -0.49037752 0.8714897 -0.0059546004
vn -0.55698764 0.71480143 -0.42287546
vn -0.55698764 0.71480143 -0.42287543
vn -0.55698764 0.7148015 -0.4228754
vn -0.86958194 0.49376544 0.0047882143
vn -0.86958194 0.49376544 0.0047882143
vn -0.86958194 0.49376544 0.0047882143
vn 0.6474576 0.6649207 0.37239653
vn 0.6474576 0.6649207 0.3723965
vn 0.64745766 0.6649207 0.37239653
vn 0.8242782 0.54960936 0.13599639
vn 0.82427824 0.5496093 0.1359964
vn 0.82427824 0.54960936 0.1359964
vn -0.23319985 0.29487282 0.9266433
vn -0.23319985 0.2948728 0.9266433
vn -0.23319988 0.29487282 0.9266433
vn -0.1672073 -0.96657383 -0.19436277
vn -0.16720733 -0.96657383 -0.19436276
vn -0.16720732 -0.96657383 -0.19436276
vn -0.99587905 0.007965706 0.09034011
vn -0.99587905 0.007965706 0.09034011
vn -0.99587905 0.007965706 0.09034011
vn 0.1533542 -0.043074336 0.9872321
vn 0.1533542 -0.043074336 0.9872321
vn 0.1533542 -0.043074336 0.9872321
vn 0.9963427 0.03825526 -0.076405644
vn 0.9963427 0.038255263 -0.07640565
vn 0.9963427 0.038255263 -0.07640565
vn -0.13325432 0.07082596 -0.9885479
vn -0.13325433 0.070825964 -0.9885479
vn -0.13325433 0.070825964 -0.9885479
vn -0.20770799 -0.96769416 -0.14291728
vn -0.20770802 -0.96769416 -0.14291728
vn -0.20770803 -0.96769416 -0.14291729
vn -0.98197603 9.861257E-4 -0.18900263
vn -0.98197603 9.861257E-4 -0.18900265
vn -0.98197603 9.861258E-4 -0.18900263
vn 0.3082519 -0.023544114 0.95101345
vn 0.3082519 -0.023544112 0.95101345
vn 0.3082519 -0.023544116 0.95101345
vn 0.98307437 5.2963116E-4 0.18320645
vn 0.98307437 5.2963116E-4 0.18320645
vn 0.98307437 5.2963116E-4 0.18320642
vn -0.2987004 0.084266886 -0.95061934
vn -0.2987004 0.084266886 -0.95061934
vn -0.2987004 0.084266886 -0.95061934
vn 0.1333255 0.98549575 0.10498775
vn 0.1333255 0.98549575 0.104987755
vn 0.1333255 0.98549575 0.104987755
vn 0.12622572 0.9852881 0.11521522
vn 0.9900703 0.0011932465 -0.14056833
vn 0.9900703 0.0011932466 -0.14056835
vn 0.9900703 0.0011932466 -0.14056835
vn -0.9899905 -5.1458593E-4 0.14113368
vn -0.9899905 -5.145859E-4 0.14113368
vn -0.9899905 -5.145859E-4 0.14113368
vn -0.09233951 -0.95708066 -0.2747182
vn -0.09233952 -0.95708066 -0.27471825
vn -0.09233952 -0.95708066 -0.27471825
vn -0.21322487 -0.016187355 0.97686905
vn -0.21322489 -0.016187353 0.97686905
vn -0.21322484 -0.016187353 0.97686905
vn -0.33904636 0.9006571 -0.27177978
vn -0.33904636 0.9006571 -0.27177978
vn -0.33904633 0.9006571 -0.27177975
vn 0.17109744 -0.9459482 -0.27551323
vn 0.17109744 -0.9459483 -0.27551323
vn 0.17109744 -0.9459483 -0.27551323
vn -0.28171152 -0.030403197 0.95901734
vn -0.28171152 -0.030403197 0.95901734
vn -0.28171152 -0.030403197 0.95901734
vn 0.11350885 0.9117179 -0.39482415
vn 0.11350887 0.9117179 -0.3948242
vn 0.113508865 0.9117179 -0.39482418
vt 0.16332942 0.9964205
vt 0.09002515 0.92609596
vt 0.16394383 0.921175
vt 0.08410303 0.9977703
vt 0.9930816 0.9464834
vt 0.93953556 0.9978528
vt 0.94057536 0.9475478
vt 0.9927762 0.9976269
vt 0.31988662 0.12931806
vt 0.24585277 0.15264434
vt 0.24066025 0.12904805
vt 0.2831378 0.15274572
vt 0.19306377 0.18602788
vt 0.12273085 0.21045649
vt 0.12138933 0.1871643
vt 0.15646175 0.2100296
vt 0.51156867 0.15730286
vt 0.44184446 0.1801337
vt 0.43764997 0.15631866
vt 0.47663152 0.18050337
vt 0.07766163 0.1291241
vt 0.00594759 0.15310252
vt 0.0024163723 0.12924206
vt 0.041359186 0.15305817
vt 0.073572755 0.15293908
vt 0.46953222 0.9361114
vt 0.44271904 0.9307251
vt 0.4757911 0.93005455
vt 0.47608024 0.965466
vt 0.41285393 0.93726057
vt 0.40543413 0.9300898
vt 0.47588795 0.99767977
vt 0.46920264 0.99131876
vt 0.44110087 0.9953639
vt 0.41173142 0.99156266
vt 0.40543413 0.9300898
vt 0.41285393 0.93726057
vt 0.40477914 0.96177536
vt 0.40756616 0.99550617
vt 0.46920264 0.99131876
vt 0.40756616 0.99550617
vt 0.41173142 0.99156266
vt 0.44110087 0.9953639
vt 0.3162098 0.15317851
vt 0.2831378 0.15274572
vt 0.31988662 0.12931806
vt 0.18814725 0.20962417
vt 0.15646175 0.2100296
vt 0.19306377 0.18602788
vt 0.51016617 0.18059528
vt 0.47663152 0.18050337
vt 0.51156867 0.15730286
vt 0.36964774 0.22654235
vt 0.3149289 0.2535504
vt 0.31296933 0.22582829
vt 0.36743498 0.25464052
vt 0.31035417 0.22586238
vt 0.2581641 0.25460613
vt 0.25605208 0.22653139
vt 0.3084691 0.2535845
vt 0.059497237 0.18281597
vt 0.004214525 0.21065915
vt 0.0020262003 0.18266433
vt 0.057455182 0.21089047
vt 0.5497812 0.9222114
vt 0.5497812 0.92748916
vt 0.53517973 0.92748916
vt 0.53517973 0.9221201
vt 0.41400325 0.92596734
vt 0.39459038 0.92748916
vt 0.39459038 0.9221202
vt 0.41400325 0.9221202
vt 0.9736563 0.68371713
vt 0.98825777 0.6836233
vt 0.98825777 0.68747056
vt 0.9736563 0.68747056
vt 0.11334038 0.10642195
vt 0.11334038 0.09182024
vt 0.13275337 0.09182024
vt 0.13275337 0.10642195
vt 0.7204747 0.22657537
vt 0.7183807 0.25457013
vt 0.699174 0.23101246
vt 0.6652674 0.22677195
vt 0.6845724 0.23101246
vt 0.6845724 0.25042534
vt 0.66723704 0.25487006
vt 0.699174 0.25042534
vt 0.37103462 0.9274435
vt 0.35162163 0.9221659
vt 0.37103462 0.9236902
vt 0.35162163 0.9274435
vt 0.9316041 0.93510467
vt 0.8613813 0.9908078
vt 0.86309165 0.93462837
vt 0.8990493 0.99798876
vt 0.93744683 0.9581361
vt 0.93283194 0.99222714
vt 0.9308244 0.21051061
vt 0.9125848 0.18597388
vt 0.9546027 0.18608046
vt 0.21961904 0.47697896
vt 0.16148138 0.4632703
vt 0.20442545 0.43777096
vt 0.1819017 0.48410398
vt 0.24398237 0.34328854
vt 0.2434206 0.3012427
vt 0.2868529 0.30691826
vt 0.40317655 0.3424104
vt 0.3532406 0.32037312
vt 0.4004243 0.30133325
vt 0.8613813 0.9908078
vt 0.9316041 0.93510467
vt 0.8990493 0.99798876
vt 0.20442545 0.43777096
vt 0.16148138 0.4632703
vt 0.15124094 0.43843788
vt 0.4004243 0.30133325
vt 0.3532406 0.32037312
vt 0.34737587 0.3012486
vt 0.631913 0.088742614
vt 0.6481708 0.075319886
vt 0.67570406 0.08778429
vt 0.3532406 0.32037312
vt 0.40317655 0.3424104
vt 0.3351047 0.34328258
vt 0.22224915 0.093678296
vt 0.1978693 0.10608131
vt 0.18009472 0.09216094
vt 0.16148138 0.4632703
vt 0.1819017 0.48410398
vt 0.14854503 0.48050416
vt 0.4545197 0.15299141
vt 0.47997272 0.13411796
vt 0.49567568 0.15195107
vt 0.99496186 0.4598186
vt 0.99124825 0.45991886
vt 0.9914124 0.45621789
vt 0.7481301 0.9272538
vt 0.7141049 0.92574424
vt 0.7487855 0.9235249
vt 0.48354697 0.010846853
vt 0.5180799 0.011874318
vt 0.4828968 0.01448226
vt 0.44541717 0.010856628
vt 0.4802314 0.010894299
vt 0.4458853 0.014533758
vt 0.40845656 0.010854006
vt 0.4428649 0.011344194
vt 0.4091661 0.014536858
vt 0.99496186 0.4598186
vt 0.9914124 0.45621789
vt 0.9950799 0.456097
vt 0.7487855 0.9235249
vt 0.7141049 0.92574424
vt 0.7142042 0.9233322
vt 0.4828968 0.01448226
vt 0.5180799 0.011874318
vt 0.5177103 0.014543891
vt 0.4458853 0.014533758
vt 0.4802314 0.010894299
vt 0.48036432 0.013289452
vt 0.4091661 0.014536858
vt 0.4428649 0.011344194
vt 0.44310582 0.014007568
vt 0.7807914 0.79237217
vt 0.7796241 0.7945267
vt 0.77797055 0.7923986
vt 0.7768258 0.79454184
vt 0.9792563 0.7312366
vt 0.97405624 0.70821655
vt 0.98981094 0.70829004
vt 0.8119794 0.11178732
vt 0.8345049 0.11761069
vt 0.8123064 0.12649381
vt 0.34186304 0.011584401
vt 0.3423015 0.014395118
vt 0.31980336 0.013810635
vt 0.30040193 0.014122486
vt 0.30006254 0.011213899
vt 0.31477034 0.011241794
vt 0.9979927 0.99782854
vt 0.9951713 0.9959922
vt 0.9963738 0.971898
vt 0.34186304 0.011584401
vt 0.31980336 0.013810635
vt 0.3188312 0.010995626
vt 0.30040193 0.014122486
vt 0.31477034 0.011241794
vt 0.3161484 0.014176607
vt 0.74824893 0.79301846
vt 0.774212 0.7920538
vt 0.77365446 0.79486024

g House_1_YELLOW
s 1
usemtl House_1_YELLOW
f 3/3/3 2/2/2 1/1/1 
f 4/4/4 1/1/1 2/2/2 
f 7/7/7 6/6/6 5/5/5 
f 8/8/8 5/5/5 6/6/6 
f 11/11/11 10/10/10 9/9/9 
f 12/12/12 9/9/9 10/10/10 
f 15/15/15 14/14/14 13/13/13 
f 16/16/16 13/13/13 14/14/14 
f 19/19/19 18/18/18 17/17/17 
f 20/20/20 17/17/17 18/18/18 
f 23/23/23 22/22/22 21/21/21 
f 24/24/24 21/21/21 22/22/22 
f 21/21/21 24/24/24 25/25/25 
f 28/28/28 27/27/27 26/26/26 
f 26/26/26 29/29/29 28/28/28 
f 30/30/30 26/26/26 27/27/27 
f 30/30/30 27/27/27 31/31/31 
f 29/29/29 26/26/26 32/32/32 
f 33/33/33 32/32/32 26/26/26 
f 33/33/33 34/34/34 32/32/32 
f 37/37/37 36/36/36 35/35/35 
f 38/38/38 35/35/35 36/36/36 
f 35/35/35 38/38/38 39/39/39 
f 42/42/42 41/41/41 40/40/40 
f 43/43/43 40/40/40 41/41/41 
f 46/46/46 45/45/45 44/44/44 
f 49/49/49 48/48/48 47/47/47 
f 52/52/52 51/51/51 50/50/50 
f 55/55/55 54/54/54 53/53/53 
f 56/56/56 53/53/53 54/54/54 
f 59/59/59 58/58/58 57/57/57 
f 60/60/60 57/57/57 58/58/58 
f 63/63/63 62/62/62 61/61/61 
f 64/64/64 61/61/61 62/62/62 
f 67/67/67 66/66/66 65/65/65 
f 68/68/68 67/67/67 65/65/65 
f 71/71/71 70/70/70 69/69/69 
f 72/72/72 71/71/71 69/69/69 
f 75/75/75 74/74/74 73/73/73 
f 76/76/76 75/75/75 73/73/73 
f 79/79/79 78/78/78 77/77/77 
f 80/80/80 79/79/79 77/77/77 
f 83/83/83 82/82/82 81/81/81 
f 84/84/84 83/83/83 81/81/81 
f 85/85/85 83/83/83 84/84/84 
f 86/86/86 85/85/85 84/84/84 
f 87/87/87 86/86/86 84/84/84 
f 88/88/88 86/86/86 87/87/87 
f 87/87/87 82/82/82 88/88/88 
f 88/88/88 82/82/82 83/83/83 
f 91/91/91 90/90/90 89/89/89 
f 89/89/89 90/90/90 92/92/92 
f 95/95/95 94/94/94 93/93/93 
f 97/97/97 93/93/93 96/96/96 
f 98/98/98 97/97/97 96/96/96 
f 101/101/101 100/100/100 99/99/99 
f 104/104/104 103/103/103 102/102/102 
f 105/105/105 102/102/102 103/103/103 
f 108/108/108 107/107/107 106/106/106 
f 111/111/111 110/110/110 109/109/109 
f 114/114/114 113/113/113 112/112/112 
f 117/117/117 116/116/116 115/115/115 
f 120/120/120 119/119/119 118/118/118 
f 123/123/123 122/122/122 121/121/121 
f 126/126/126 125/125/125 124/124/124 
f 129/129/129 128/128/128 127/127/127 
f 132/132/132 131/131/131 130/130/130 
f 135/135/135 134/134/134 133/133/133 
f 138/138/138 137/137/137 136/136/136 
f 141/141/141 140/140/140 139/139/139 
f 144/144/144 143/143/143 142/142/142 
f 147/147/147 146/146/146 145/145/145 
f 150/150/150 149/149/149 148/148/148 
f 153/153/153 152/152/152 151/151/151 
f 156/156/156 155/155/155 154/154/154 
f 159/159/159 158/158/158 157/157/157 
f 162/162/162 161/161/161 160/160/160 
f 165/165/165 164/164/164 163/163/163 
f 168/168/168 167/167/167 166/166/166 
f 169/169/169 167/167/167 168/168/168 
f 172/172/172 171/171/171 170/170/170 
f 175/175/175 174/174/174 173/173/173 
f 178/178/178 177/177/177 176/176/176 
f 181/181/181 180/180/180 179/179/179 
f 184/184/184 183/183/183 182/182/182 
f 187/187/187 186/186/186 185/185/185 
f 190/190/190 189/189/189 188/188/188 
f 193/193/193 192/192/192 191/191/191 

