# Created by DisUnity v0.3.4
v -1.3998336 0.018901138 2.8961751
v 0.9110986 0.07955132 -2.8478022
v -1.419203 0.010647697 -3.048235
v 1.0977947 -1.9454421E-16 3.177148
v -1.3043158 2.4895372 2.7777824
v 0.9549744 2.4844673 -2.9021852
v 0.9110986 2.4089062 2.9457417
v -1.2914329 2.4673502 -2.8898664
v -1.3998336 0.018901138 2.8961751
v 0.9110986 2.4089062 2.9457417
v 1.0977947 -1.9454421E-16 3.177148
v 1.0977947 -1.9454421E-16 3.177148
v 0.9549744 2.4844673 -2.9021852
v 0.9110986 0.07955132 -2.8478022
v 0.9110986 0.07955132 -2.8478022
v -1.2914329 2.4673502 -2.8898664
v -1.419203 0.010647697 -3.048235
v 0.9110986 2.4089062 2.9457417
v -1.3998336 0.018901138 2.8961751
v -1.3043158 2.4895372 2.7777824
v 0.9549744 2.4844673 -2.9021852
v 1.0977947 -1.9454421E-16 3.177148
v 0.9110986 2.4089062 2.9457417
v -1.2914329 2.4673502 -2.8898664
v 0.9110986 0.07955132 -2.8478022
v 0.9549744 2.4844673 -2.9021852
v -1.1957058 0.8840942 0.97703177
v -1.1957058 0.8840942 1.7736526
v -1.3731029 0.8840942 1.7736526
v -1.378054 0.8840942 0.97703177
v -1.3313959 1.8754338 1.7736526
v -1.3731029 0.8840942 1.7736526
v -1.1957058 0.8840942 1.7736526
v -1.1957058 1.8754338 1.7736526
v -1.3273832 1.8754338 0.97703177
v -1.3313959 1.8754338 1.7736526
v -1.1957058 1.8754338 1.7736526
v -1.1957058 1.8754338 0.97703177
v -1.1957058 0.8840942 1.7736526
v -1.1957058 0.8840942 0.97703177
v -1.1957058 1.8754338 0.97703177
v -1.1957058 1.8754338 1.7736526
v -1.1957058 0.8840942 0.97703177
v -1.378054 0.8840942 0.97703177
v -1.3273832 1.8754338 0.97703177
v -1.1957058 1.8754338 0.97703177
v -1.419203 0.010647697 -3.048235
v -1.378054 0.8840942 0.97703177
v -1.3998336 0.018901138 2.8961751
v -1.2914329 2.4673502 -2.8898664
v -1.3731029 0.8840942 1.7736526
v -1.3313959 1.8754338 1.7736526
v -1.3043158 2.4895372 2.7777824
v -1.3273832 1.8754338 0.97703177
v -1.6302274 2.3032873 3.1787634
v 1.272231 2.3619003 -3.4907393
v -1.6556659 2.2939625 -3.3994138
v 1.6556656 2.2693343 -0.4004057
v -0.47230405 2.2954593 3.4907405
v 1.3480151 2.2843854 3.2443254
v 1.272231 2.3619003 -3.4907393
v -1.6302274 2.3032873 3.1787634
v -0.47230405 2.2954593 3.4907405
v -0.20292962 3.9055786 3.0461657
v 1.3480151 2.2843854 3.2443254
v 0.9079051 3.1276805 0.66291404
v 1.272231 2.3619003 -3.4907393
v 1.6556656 2.2693343 -0.4004057
v -0.17005974 3.9045696 -2.728341
v 1.272231 2.3619003 -3.4907393
v -0.17005974 3.9045696 -2.728341
v -1.6556659 2.2939625 -3.3994138
v -1.6302274 2.3032873 3.1787634
v -1.1046449 3.3810534 -2.3822763
v -0.20292962 3.9055786 3.0461657
v -0.17005974 3.9045696 -2.728341
v 0.9079051 3.1276805 0.66291404
v -0.20292962 3.9055786 3.0461657
v -0.20292962 3.9055786 3.0461657
v -1.1046449 3.3810534 -2.3822763
v -0.17005974 3.9045696 -2.728341
v -0.17005974 3.9045696 -2.728341
v -1.1046449 3.3810534 -2.3822763
v -1.6556659 2.2939625 -3.3994138
v -1.1046449 3.3810534 -2.3822763
v -1.6302274 2.3032873 3.1787634
v -1.6556659 2.2939625 -3.3994138
v -0.20292962 3.9055786 3.0461657
v 0.9079051 3.1276805 0.66291404
v 1.3480151 2.2843854 3.2443254
v 0.9079051 3.1276805 0.66291404
v 1.6556656 2.2693343 -0.4004057
v 1.3480151 2.2843854 3.2443254
v -0.20292962 3.9055786 3.0461657
v -0.47230405 2.2954593 3.4907405
v -1.6302274 2.3032873 3.1787634
v 0.010488978 3.697037 1.62152
v 0.028070178 3.6542654 1.8191006
v 0.2233523 3.6268241 1.7875687
v 0.010488978 3.697037 1.62152
v 0.038751516 5.509272 1.7732836
v 0.028070178 3.6542654 1.8191006
v 0.028070178 3.6542654 1.8191006
v 0.014011135 5.498931 1.90177
v 0.2233523 3.6268241 1.7875687
v 0.2233523 3.6268241 1.7875687
v 0.15719524 5.484543 1.8550035
v 0.20713675 3.659144 1.5922974
v 0.20713675 3.659144 1.5922974
v 0.18095793 5.4964123 1.72746
v 0.010488978 3.697037 1.62152
v 0.010488978 3.697037 1.62152
v 0.2233523 3.6268241 1.7875687
v 0.20713675 3.659144 1.5922974
v 0.028070178 3.6542654 1.8191006
v 0.038751516 5.509272 1.7732836
v 0.014011135 5.498931 1.90177
v 0.2233523 3.6268241 1.7875687
v 0.014011135 5.498931 1.90177
v 0.15719524 5.484543 1.8550035
v 0.20713675 3.659144 1.5922974
v 0.15719524 5.484543 1.8550035
v 0.18095793 5.4964123 1.72746
v 0.010488978 3.697037 1.62152
v 0.18095793 5.4964123 1.72746
v 0.038751516 5.509272 1.7732836
v 0.014011135 5.498931 1.90177
v 0.038751516 5.509272 1.7732836
v 0.15719524 5.484543 1.8550035
v 0.18095793 5.4964123 1.72746
v -0.016545063 5.095235 0.5700827
v 0.15676609 4.7718487 1.7880266
v 0.15965782 5.612645 1.8155314
v 0.0014591217 4.753719 1.7538267
v -0.16832411 5.1115737 0.56417686
v 0.0029526139 5.53906 1.7671663
v -0.016545063 5.095235 0.5700827
v -0.16832411 5.1115737 0.56417686
v 0.0014591217 4.753719 1.7538267
v 0.15676609 4.7718487 1.7880266
v 0.0014591217 4.753719 1.7538267
v 0.0029526139 5.53906 1.7671663
v 0.15965782 5.612645 1.8155314
v 0.0029526139 5.53906 1.7671663
v -0.16832411 5.1115737 0.56417686
v -0.016545063 5.095235 0.5700827
v 0.0014591217 4.753719 1.7538267
v 0.15676609 4.7718487 1.7880266
v 0.15676609 4.7718487 1.7880266
v 0.0029526139 5.53906 1.7671663
v 0.15965782 5.612645 1.8155314
v 0.15965782 5.612645 1.8155314
v -0.16832411 5.1115737 0.56417686
v -0.016545063 5.095235 0.5700827
vn 0.02944458 -0.99956554 0.0012918907
vn 0.02944458 -0.99956554 0.0012918907
vn 0.029444579 -0.99956554 0.0012918906
vn -0.006102925 -0.99989676 -0.013013171
vn 0.03537053 0.9992874 0.013177178
vn 0.03537053 0.9992874 0.013177178
vn 0.03537053 0.9992874 0.013177177
vn -0.007641055 0.99996305 -0.003931913
vn -0.11072483 0.08652817 0.99007714
vn -0.11072483 0.08652816 0.99007714
vn -0.11072483 0.08652818 0.99007714
vn 0.9993332 -0.018937951 -0.031216545
vn 0.9993332 -0.018937955 -0.031216549
vn 0.9993332 -0.018937951 -0.031216545
vn 0.083787635 0.059763853 -0.99468994
vn 0.08378763 0.059763856 -0.99468994
vn 0.083787635 0.059763864 -0.99468994
vn -0.07366985 0.050576303 0.99599946
vn -0.07366984 0.0505763 0.99599946
vn -0.07366985 0.050576303 0.99599946
vn 0.9969111 0.078078456 0.00848847
vn 0.9969111 0.07807845 0.00848847
vn 0.9969111 0.07807845 0.00848847
vn -0.005310822 -0.022510357 -0.99973243
vn -0.0053108223 -0.02251036 -0.99973243
vn -0.005310822 -0.022510357 -0.99973243
vn -0.0 1.0 0.0
vn -0.0 1.0 0.0
vn -0.0 1.0 0.0
vn -0.0 1.0 0.0
vn -0.0 0.0 -1.0
vn -0.0 0.0 -1.0
vn -0.0 0.0 -1.0
vn -0.0 0.0 -1.0
vn -0.0 -1.0 0.0
vn -0.0 -1.0 0.0
vn -0.0 -1.0 0.0
vn -0.0 -1.0 0.0
vn -1.0 0.0 0.0
vn -1.0 0.0 0.0
vn -1.0 0.0 0.0
vn -1.0 0.0 0.0
vn -0.0 0.0 1.0
vn -0.0 0.0 1.0
vn -0.0 0.0 1.0
vn -0.0 0.0 1.0
vn -0.99947363 0.032284282 0.0032119025
vn -0.99947363 0.032284282 0.0032119025
vn -0.99947363 0.032284282 0.003211902
vn -0.9986461 0.052007817 -0.0010763874
vn -0.9990792 0.042032667 0.008605943
vn -0.9992423 0.038786553 0.0032272765
vn -0.9992423 0.038786553 0.0032272765
vn -0.99862087 0.052261185 -0.005030263
vn 0.023238797 -0.9997291 0.0013272787
vn 0.0232388 -0.9997291 0.0013272789
vn 0.023238799 -0.9997291 0.0013272788
vn -0.0055881357 -0.9999777 0.003657739
vn -0.0055881357 -0.9999777 0.0036577391
vn -0.0055881357 -0.9999777 0.0036577396
vn -0.037805896 -0.99896646 -0.025231672
vn -0.037805896 -0.99896646 -0.025231672
vn 0.1315673 0.24332765 0.9609796
vn 0.1315673 0.24332765 0.9609796
vn 0.13156731 0.24332765 0.9609796
vn 0.7096902 0.7013162 -0.06704834
vn 0.7096902 0.7013162 -0.06704834
vn 0.7096902 0.7013162 -0.06704834
vn 0.7122963 0.69873637 -0.06634413
vn -0.037974287 0.41397586 -0.9094954
vn -0.037974283 0.41397586 -0.9094955
vn -0.037974283 0.41397586 -0.9094955
vn -0.7429755 0.66671365 0.05899376
vn -0.7429755 0.6667137 0.058993764
vn -0.7429755 0.66671365 0.05899376
vn 0.5781381 0.8159329 0.0031483208
vn 0.5781381 0.8159329 0.0031483208
vn 0.5781381 0.8159329 0.0031483208
vn -0.48953474 0.8719788 -0.0029389227
vn -0.48953477 0.8719788 -0.0029389227
vn -0.48953477 0.8719788 -0.0029389232
vn -0.55741286 0.70009434 -0.44627216
vn -0.55741286 0.70009434 -0.44627216
vn -0.5574128 0.7000944 -0.44627216
vn -0.89301664 0.45001492 0.0028154778
vn -0.89301664 0.45001492 0.0028154778
vn -0.89301664 0.45001492 0.0028154778
vn 0.7121043 0.6941247 0.10534847
vn 0.7121043 0.6941247 0.10534847
vn 0.7121044 0.69412464 0.105348475
vn 0.79048824 0.6091023 0.06420954
vn 0.79048824 0.60910225 0.06420953
vn 0.79048824 0.6091023 0.06420954
vn -0.24662252 0.2960528 0.92278385
vn -0.24662252 0.29605284 0.92278385
vn -0.24662252 0.29605284 0.92278385
vn -0.1672073 -0.96657383 -0.19436277
vn -0.16720733 -0.96657383 -0.19436276
vn -0.16720732 -0.96657383 -0.19436276
vn -0.99587905 0.007965708 0.09034011
vn -0.99587905 0.007965708 0.0903401
vn -0.99587905 0.007965708 0.09034011
vn 0.15335421 -0.043074343 0.9872321
vn 0.15335423 -0.043074347 0.9872321
vn 0.15335421 -0.043074343 0.9872321
vn 0.9963427 0.038255256 -0.076405644
vn 0.9963427 0.03825526 -0.07640565
vn 0.9963427 0.03825526 -0.07640565
vn -0.13325432 0.07082597 -0.9885479
vn -0.13325433 0.07082598 -0.9885479
vn -0.13325432 0.07082597 -0.9885479
vn -0.20770799 -0.96769416 -0.14291728
vn -0.20770802 -0.96769416 -0.14291728
vn -0.20770803 -0.96769416 -0.14291729
vn -0.98197603 9.861258E-4 -0.18900263
vn -0.98197603 9.861259E-4 -0.18900263
vn -0.98197603 9.861259E-4 -0.18900263
vn 0.30825198 -0.023544101 0.9510133
vn 0.30825195 -0.023544101 0.9510133
vn 0.30825198 -0.023544103 0.9510133
vn 0.98307437 5.296315E-4 0.18320641
vn 0.98307437 5.296315E-4 0.18320641
vn 0.98307437 5.2963145E-4 0.18320641
vn -0.29870036 0.084266886 -0.95061934
vn -0.29870036 0.084266886 -0.95061934
vn -0.29870036 0.084266886 -0.95061934
vn 0.13332082 0.98549646 0.104986906
vn 0.13332084 0.98549646 0.10498691
vn 0.13332082 0.98549646 0.104986906
vn 0.12622412 0.9852889 0.11521
vn 0.9900703 0.0011932469 -0.14056835
vn 0.9900703 0.0011932469 -0.14056835
vn 0.9900703 0.0011932469 -0.14056833
vn -0.9899905 -5.145861E-4 0.14113368
vn -0.9899905 -5.1458605E-4 0.14113368
vn -0.9899905 -5.1458605E-4 0.14113368
vn -0.09233951 -0.95708066 -0.2747182
vn -0.09233952 -0.95708066 -0.27471825
vn -0.09233952 -0.95708066 -0.27471825
vn -0.21322492 -0.016187362 0.97686905
vn -0.2132249 -0.016187362 0.97686905
vn -0.2132249 -0.01618736 0.97686905
vn -0.33904657 0.9006571 -0.27177945
vn -0.33904663 0.9006571 -0.27177945
vn -0.33904663 0.9006571 -0.27177945
vn 0.17109744 -0.9459482 -0.27551323
vn 0.17109744 -0.9459483 -0.27551323
vn 0.17109744 -0.9459483 -0.27551323
vn -0.28171158 -0.030403215 0.95901734
vn -0.28171152 -0.030403212 0.95901734
vn -0.28171158 -0.030403215 0.95901734
vn 0.11350886 0.911718 -0.39482394
vn 0.113508865 0.911718 -0.39482394
vn 0.113508865 0.911718 -0.39482394
vt 0.42314982 0.68431306
vt 0.3155762 0.72759235
vt 0.31182253 0.6839503
vt 0.4284119 0.7310888
vt 0.7389126 0.39290643
vt 0.84528756 0.43521857
vt 0.7357671 0.43439686
vt 0.8450568 0.3931477
vt 0.99406683 0.8722966
vt 0.9525757 0.91871905
vt 0.9473132 0.8737767
vt 0.46757165 0.5841572
vt 0.35371745 0.6306865
vt 0.3547359 0.5856471
vt 0.8697271 0.44050384
vt 0.914446 0.4817531
vt 0.86843663 0.484146
vt 0.9525757 0.91871905
vt 0.99406683 0.8722966
vt 0.9940932 0.9186014
vt 0.35371745 0.6306865
vt 0.46757165 0.5841572
vt 0.46323785 0.6292714
vt 0.914446 0.4817531
vt 0.8697271 0.44050384
vt 0.91476655 0.43968213
vt 0.1256237 0.014402866
vt 0.1107043 0.014402866
vt 0.1107043 0.011080503
vt 0.1256237 0.010987759
vt 0.10791576 0.0135753155
vt 0.089349985 0.014356494
vt 0.089349985 0.011034131
vt 0.10791576 0.011034131
vt 0.7308215 0.79226136
vt 0.7457409 0.79218626
vt 0.7457409 0.7947277
vt 0.7308215 0.7947277
vt 0.9780216 0.6051159
vt 0.9780216 0.59019655
vt 0.99658763 0.59019655
vt 0.99658763 0.6051159
vt 0.046381116 0.014402866
vt 0.046381116 0.010987878
vt 0.06494701 0.011936784
vt 0.06494701 0.014402866
vt 0.9755856 0.58420944
vt 0.90020007 0.60056746
vt 0.8642582 0.58436406
vt 0.97261965 0.63021874
vt 0.8852809 0.60056746
vt 0.8852809 0.61913335
vt 0.86647546 0.6306343
vt 0.90020007 0.61913335
vt 0.6269149 0.85716426
vt 0.502008 0.91152173
vt 0.5037184 0.8566879
vt 0.55988395 0.9187027
vt 0.63275766 0.87885
vt 0.6281428 0.91294104
vt 0.502008 0.91152173
vt 0.6269149 0.85716426
vt 0.3038714 0.21051049
vt 0.28563166 0.18597364
vt 0.32764965 0.18608022
vt 0.049117178 0.71076035
vt 0.1277375 0.72182137
vt 0.07011981 0.7310083
vt 0.11144981 0.6830542
vt 0.037943125 0.2570966
vt 0.044896126 0.29856747
vt 0.0019788742 0.2985438
vt 0.5547156 0.34614253
vt 0.6587398 0.36916393
vt 0.5566534 0.3863595
vt 0.11144981 0.6830542
vt 0.049117178 0.71076035
vt 0.003687378 0.6880475
vt 0.5566534 0.3863595
vt 0.6587398 0.36916393
vt 0.6645671 0.3882324
vt 0.67386025 0.10597944
vt 0.689871 0.09226298
vt 0.71676475 0.10493493
vt 0.6587398 0.36916393
vt 0.5547156 0.34614253
vt 0.67770636 0.34737635
vt 0.003687378 0.6880475
vt 0.049117178 0.71076035
vt 0.0021452866 0.7301929
vt 0.049117178 0.71076035
vt 0.07011981 0.7310083
vt 0.0021452866 0.7301929
vt 0.95741296 0.20967281
vt 0.9841623 0.19268644
vt 0.99766517 0.21063375
vt 0.99496174 0.47837305
vt 0.991248 0.4784733
vt 0.99141204 0.47477245
vt 0.97566915 0.071784854
vt 0.9416442 0.070275426
vt 0.9763247 0.06805611
vt 0.7521017 0.016706228
vt 0.78663445 0.017733693
vt 0.75145155 0.020341754
vt 0.67686236 0.016716123
vt 0.7116767 0.016753912
vt 0.6773306 0.020393372
vt 0.6399019 0.01671338
vt 0.6743104 0.01720357
vt 0.6406116 0.020395994
vt 0.99496174 0.47837305
vt 0.99141204 0.47477245
vt 0.9950799 0.47465158
vt 0.9763247 0.06805611
vt 0.9416442 0.070275426
vt 0.9417435 0.067863345
vt 0.75145155 0.020341754
vt 0.78663445 0.017733693
vt 0.786265 0.020403266
vt 0.6773306 0.020393372
vt 0.7116767 0.016753912
vt 0.7118095 0.019149065
vt 0.6406116 0.020395994
vt 0.6743104 0.01720357
vt 0.6745512 0.019866705
vt 0.7280568 0.79237217
vt 0.7268896 0.79452676
vt 0.7252362 0.79239863
vt 0.72409165 0.7945419
vt 0.04513061 0.1159749
vt 0.06815064 0.110774875
vt 0.06807721 0.1265297
vt 0.7104169 0.11178744
vt 0.73294246 0.11761075
vt 0.710744 0.12649387
vt 0.63678515 0.017443895
vt 0.63722324 0.020254612
vt 0.61472535 0.019670248
vt 0.5953238 0.01998198
vt 0.5949843 0.017073512
vt 0.6096922 0.017101407
vt 0.6955308 0.79486775
vt 0.6973672 0.7920463
vt 0.7214614 0.7932488
vt 0.63678515 0.017443895
vt 0.61472535 0.019670248
vt 0.6137532 0.016855001
vt 0.5953238 0.01998198
vt 0.6096922 0.017101407
vt 0.6110703 0.020035982
vt 0.6671941 0.79301834
vt 0.6931572 0.7920538
vt 0.6925998 0.7948601

g House_5_RED
s 1
usemtl House_5_RED
f 3/3/3 2/2/2 1/1/1 
f 4/4/4 1/1/1 2/2/2 
f 7/7/7 6/6/6 5/5/5 
f 8/8/8 5/5/5 6/6/6 
f 11/11/11 10/10/10 9/9/9 
f 14/14/14 13/13/13 12/12/12 
f 17/17/17 16/16/16 15/15/15 
f 20/20/20 19/19/19 18/18/18 
f 23/23/23 22/22/22 21/21/21 
f 26/26/26 25/25/25 24/24/24 
f 29/29/29 28/28/28 27/27/27 
f 30/30/30 29/29/29 27/27/27 
f 33/33/33 32/32/32 31/31/31 
f 34/34/34 33/33/33 31/31/31 
f 37/37/37 36/36/36 35/35/35 
f 38/38/38 37/37/37 35/35/35 
f 41/41/41 40/40/40 39/39/39 
f 42/42/42 41/41/41 39/39/39 
f 45/45/45 44/44/44 43/43/43 
f 46/46/46 45/45/45 43/43/43 
f 49/49/49 48/48/48 47/47/47 
f 50/50/50 47/47/47 48/48/48 
f 51/51/51 48/48/48 49/49/49 
f 52/52/52 51/51/51 49/49/49 
f 53/53/53 52/52/52 49/49/49 
f 52/52/52 53/53/53 54/54/54 
f 53/53/53 50/50/50 54/54/54 
f 54/54/54 50/50/50 48/48/48 
f 57/57/57 56/56/56 55/55/55 
f 59/59/59 55/55/55 58/58/58 
f 60/60/60 59/59/59 58/58/58 
f 62/62/62 61/61/61 58/58/58 
f 65/65/65 64/64/64 63/63/63 
f 68/68/68 67/67/67 66/66/66 
f 69/69/69 66/66/66 67/67/67 
f 72/72/72 71/71/71 70/70/70 
f 75/75/75 74/74/74 73/73/73 
f 78/78/78 77/77/77 76/76/76 
f 81/81/81 80/80/80 79/79/79 
f 84/84/84 83/83/83 82/82/82 
f 87/87/87 86/86/86 85/85/85 
f 90/90/90 89/89/89 88/88/88 
f 93/93/93 92/92/92 91/91/91 
f 96/96/96 95/95/95 94/94/94 
f 99/99/99 98/98/98 97/97/97 
f 102/102/102 101/101/101 100/100/100 
f 105/105/105 104/104/104 103/103/103 
f 108/108/108 107/107/107 106/106/106 
f 111/111/111 110/110/110 109/109/109 
f 114/114/114 113/113/113 112/112/112 
f 117/117/117 116/116/116 115/115/115 
f 120/120/120 119/119/119 118/118/118 
f 123/123/123 122/122/122 121/121/121 
f 126/126/126 125/125/125 124/124/124 
f 129/129/129 128/128/128 127/127/127 
f 130/130/130 128/128/128 129/129/129 
f 133/133/133 132/132/132 131/131/131 
f 136/136/136 135/135/135 134/134/134 
f 139/139/139 138/138/138 137/137/137 
f 142/142/142 141/141/141 140/140/140 
f 145/145/145 144/144/144 143/143/143 
f 148/148/148 147/147/147 146/146/146 
f 151/151/151 150/150/150 149/149/149 
f 154/154/154 153/153/153 152/152/152 

