# Created by DisUnity v0.3.4
v -0.6977585 -4.2725384E-17 0.6977585
v 0.6977585 4.2725384E-17 -0.6977585
v -0.6977585 4.2725384E-17 -0.6977585
v 0.6977585 -4.2725384E-17 0.6977585
v -0.2292539 1.0257372 0.2292539
v 0.2292539 1.0257372 -0.2292539
v 0.2292539 1.0257372 0.2292539
v -0.2292539 1.0257372 -0.2292539
v -0.6977585 -4.2725384E-17 0.6977585
v 0.6977585 0.36094213 0.6977585
v 0.6977585 -4.2725384E-17 0.6977585
v -0.6977585 0.36094213 0.6977585
v 0.6977585 -4.2725384E-17 0.6977585
v 0.6977585 0.36094213 -0.6977585
v 0.6977585 4.2725384E-17 -0.6977585
v 0.6977585 0.36094213 0.6977585
v 0.6977585 4.2725384E-17 -0.6977585
v -0.6977585 0.36094213 -0.6977585
v -0.6977585 4.2725384E-17 -0.6977585
v 0.6977585 0.36094213 -0.6977585
v -0.6977585 4.2725384E-17 -0.6977585
v -0.6977585 0.36094213 0.6977585
v -0.6977585 -4.2725384E-17 0.6977585
v -0.6977585 0.36094213 -0.6977585
v -0.6977585 0.36094213 0.6977585
v 0.45841384 0.36094213 0.45841384
v 0.6977585 0.36094213 0.6977585
v -0.45841384 0.36094213 0.45841384
v 0.45841384 0.36094213 -0.45841384
v 0.6977585 0.36094213 -0.6977585
v -0.45841384 0.36094213 -0.45841384
v -0.6977585 0.36094213 -0.6977585
v -0.45841384 0.36094213 0.45841384
v 0.45841384 0.19474362 0.45841384
v 0.45841384 0.36094213 0.45841384
v -0.45841384 0.19474362 0.45841384
v 0.45841384 0.36094213 0.45841384
v 0.45841384 0.19474362 -0.45841384
v 0.45841384 0.36094213 -0.45841384
v 0.45841384 0.19474362 0.45841384
v 0.45841384 0.36094213 -0.45841384
v -0.45841384 0.19474362 -0.45841384
v -0.45841384 0.36094213 -0.45841384
v 0.45841384 0.19474362 -0.45841384
v -0.45841384 0.36094213 -0.45841384
v -0.45841384 0.19474362 0.45841384
v -0.45841384 0.36094213 0.45841384
v -0.45841384 0.19474362 -0.45841384
v -0.45841384 0.19474362 0.45841384
v 0.2292539 0.19474362 0.2292539
v 0.45841384 0.19474362 0.45841384
v -0.2292539 0.19474362 0.2292539
v 0.2292539 0.19474362 -0.2292539
v 0.45841384 0.19474362 -0.45841384
v -0.2292539 0.19474362 -0.2292539
v -0.45841384 0.19474362 -0.45841384
v -0.2292539 0.19474362 0.2292539
v 0.2292539 1.0257372 0.2292539
v 0.2292539 0.19474362 0.2292539
v -0.2292539 1.0257372 0.2292539
v 0.2292539 0.19474362 0.2292539
v 0.2292539 1.0257372 -0.2292539
v 0.2292539 0.19474362 -0.2292539
v 0.2292539 1.0257372 0.2292539
v 0.2292539 0.19474362 -0.2292539
v -0.2292539 1.0257372 -0.2292539
v -0.2292539 0.19474362 -0.2292539
v 0.2292539 1.0257372 -0.2292539
v -0.2292539 0.19474362 -0.2292539
v -0.2292539 1.0257372 0.2292539
v -0.2292539 0.19474362 0.2292539
v -0.2292539 1.0257372 -0.2292539
vn -0.0 -1.0 0.0
vn -0.0 -1.0 0.0
vn -0.0 -1.0 0.0
vn -0.0 -1.0 0.0
vn -0.0 1.0 0.0
vn -0.0 1.0 0.0
vn -0.0 1.0 0.0
vn -0.0 1.0 0.0
vn -0.0 0.0 1.0
vn -0.0 0.0 1.0
vn -0.0 0.0 1.0
vn -0.0 0.0 1.0
vn 1.0 0.0 0.0
vn 1.0 0.0 0.0
vn 1.0 0.0 0.0
vn 1.0 0.0 0.0
vn -0.0 0.0 -1.0
vn -0.0 0.0 -1.0
vn -0.0 0.0 -1.0
vn -0.0 0.0 -1.0
vn -1.0 0.0 0.0
vn -1.0 0.0 0.0
vn -1.0 0.0 0.0
vn -1.0 0.0 0.0
vn -0.0 1.0 0.0
vn -0.0 1.0 0.0
vn -0.0 1.0 0.0
vn -0.0 1.0 0.0
vn -0.0 1.0 0.0
vn -0.0 1.0 0.0
vn -0.0 1.0 0.0
vn -0.0 1.0 0.0
vn -0.0 0.0 -1.0
vn -0.0 0.0 -1.0
vn -0.0 0.0 -1.0
vn -0.0 0.0 -1.0
vn -1.0 0.0 0.0
vn -1.0 0.0 0.0
vn -1.0 0.0 0.0
vn -1.0 0.0 0.0
vn -0.0 0.0 1.0
vn -0.0 0.0 1.0
vn -0.0 0.0 1.0
vn -0.0 0.0 1.0
vn 1.0 0.0 0.0
vn 1.0 0.0 0.0
vn 1.0 0.0 0.0
vn 1.0 0.0 0.0
vn -0.0 1.0 0.0
vn -0.0 1.0 0.0
vn -0.0 1.0 0.0
vn -0.0 1.0 0.0
vn -0.0 1.0 0.0
vn -0.0 1.0 0.0
vn -0.0 1.0 0.0
vn -0.0 1.0 0.0
vn -0.0 0.0 1.0
vn -0.0 0.0 1.0
vn -0.0 0.0 1.0
vn -0.0 0.0 1.0
vn 1.0 0.0 0.0
vn 1.0 0.0 0.0
vn 1.0 0.0 0.0
vn 1.0 0.0 0.0
vn -0.0 0.0 -1.0
vn -0.0 0.0 -1.0
vn -0.0 0.0 -1.0
vn -0.0 0.0 -1.0
vn -1.0 0.0 0.0
vn -1.0 0.0 0.0
vn -1.0 0.0 0.0
vn -1.0 0.0 0.0
vt 0.16229749 0.36053967
vt 0.23809308 0.4363352
vt 0.16229749 0.4363352
vt 0.23809308 0.36053967
vt 0.99584997 0.6481938
vt 0.9709468 0.62329054
vt 0.99584997 0.62329054
vt 0.9709468 0.6481938
vt 0.7615306 0.44185805
vt 0.68573505 0.46146226
vt 0.68573505 0.44185805
vt 0.7615306 0.46146226
vt 0.9959055 0.4418581
vt 0.92011 0.4614622
vt 0.92011 0.4418581
vt 0.9959055 0.4614622
vt 0.8396555 0.44185817
vt 0.7638601 0.4614622
vt 0.7638601 0.44185817
vt 0.8396555 0.4614622
vt 0.9177805 0.4418581
vt 0.8419851 0.4614622
vt 0.8419851 0.4418581
vt 0.9177805 0.4614622
vt 0.24042249 0.43633527
vt 0.30321836 0.4233356
vt 0.31621802 0.43633527
vt 0.25342226 0.4233356
vt 0.30321836 0.37353945
vt 0.31621802 0.36053973
vt 0.25342226 0.37353945
vt 0.24042249 0.36053973
vt 0.0019572973 0.022091508
vt 0.05175352 0.013064742
vt 0.05175352 0.022091508
vt 0.0019572973 0.013064742
vt 0.05371517 0.022091508
vt 0.103511274 0.013064861
vt 0.103511274 0.022091508
vt 0.05371517 0.013064861
vt 0.10547292 0.022091508
vt 0.15526915 0.013064742
vt 0.15526915 0.022091508
vt 0.10547292 0.013064742
vt 0.9160199 0.03869307
vt 0.965816 0.029666305
vt 0.965816 0.03869307
vt 0.9160199 0.029666305
vt 0.9462933 0.35741758
vt 0.983643 0.34497118
vt 0.9960895 0.35741758
vt 0.9587398 0.34497118
vt 0.983643 0.320068
vt 0.9960895 0.30762148
vt 0.9587398 0.320068
vt 0.9462933 0.30762148
vt 0.4662025 0.11059523
vt 0.5113367 0.1354984
vt 0.4662025 0.1354984
vt 0.5113367 0.11059523
vt 0.51405394 0.11059523
vt 0.55918825 0.1354984
vt 0.51405394 0.1354984
vt 0.55918825 0.11059523
vt 0.5619055 0.11059523
vt 0.6070398 0.13549852
vt 0.5619055 0.13549852
vt 0.6070398 0.11059523
vt 0.6097572 0.11059523
vt 0.6548914 0.13549852
vt 0.6097572 0.13549852
vt 0.6548914 0.11059523

g Obelisk
s 1
usemtl Obelisk
f 3/3/3 2/2/2 1/1/1 
f 2/2/2 4/4/4 1/1/1 
f 7/7/7 6/6/6 5/5/5 
f 6/6/6 8/8/8 5/5/5 
f 11/11/11 10/10/10 9/9/9 
f 10/10/10 12/12/12 9/9/9 
f 15/15/15 14/14/14 13/13/13 
f 14/14/14 16/16/16 13/13/13 
f 19/19/19 18/18/18 17/17/17 
f 18/18/18 20/20/20 17/17/17 
f 23/23/23 22/22/22 21/21/21 
f 22/22/22 24/24/24 21/21/21 
f 27/27/27 26/26/26 25/25/25 
f 26/26/26 28/28/28 25/25/25 
f 29/29/29 26/26/26 27/27/27 
f 30/30/30 29/29/29 27/27/27 
f 31/31/31 29/29/29 30/30/30 
f 32/32/32 31/31/31 30/30/30 
f 25/25/25 28/28/28 32/32/32 
f 28/28/28 31/31/31 32/32/32 
f 35/35/35 34/34/34 33/33/33 
f 34/34/34 36/36/36 33/33/33 
f 39/39/39 38/38/38 37/37/37 
f 38/38/38 40/40/40 37/37/37 
f 43/43/43 42/42/42 41/41/41 
f 42/42/42 44/44/44 41/41/41 
f 47/47/47 46/46/46 45/45/45 
f 46/46/46 48/48/48 45/45/45 
f 51/51/51 50/50/50 49/49/49 
f 50/50/50 52/52/52 49/49/49 
f 53/53/53 50/50/50 51/51/51 
f 54/54/54 53/53/53 51/51/51 
f 55/55/55 53/53/53 54/54/54 
f 56/56/56 55/55/55 54/54/54 
f 49/49/49 52/52/52 56/56/56 
f 52/52/52 55/55/55 56/56/56 
f 59/59/59 58/58/58 57/57/57 
f 58/58/58 60/60/60 57/57/57 
f 63/63/63 62/62/62 61/61/61 
f 62/62/62 64/64/64 61/61/61 
f 67/67/67 66/66/66 65/65/65 
f 66/66/66 68/68/68 65/65/65 
f 71/71/71 70/70/70 69/69/69 
f 70/70/70 72/72/72 69/69/69 

