# Created by DisUnity v0.3.4
v -2.0022676 2.5605183 -0.7341317
v -0.4368904 5.0981903 -1.7953298
v -0.051601678 5.274157 0.44991174
v 3.2386303 3.9232896E-7 0.6695172
v 2.3937473 5.0826316 -0.07499497
v 0.7345668 2.9075906 -2.2742822
v -0.051601678 5.274157 0.44991174
v 0.524726 9.19765 -0.8866162
v 0.72942644 8.900784 0.17051166
v 2.3937473 5.0826316 -0.07499497
v 0.72942644 8.900784 0.17051166
v 1.2487411 9.1701765 -0.5501528
v 3.2386303 3.9232896E-7 0.6695172
v 0.7345668 2.9075906 -2.2742822
v 0.47068104 -1.1494383E-7 -4.5810714
v 0.7345668 2.9075906 -2.2742822
v 2.3937473 5.0826316 -0.07499497
v -0.4368904 5.0981903 -1.7953298
v -0.4368904 5.0981903 -1.7953298
v 2.3937473 5.0826316 -0.07499497
v 1.2487411 9.1701765 -0.5501528
v 0.9399813 3.6541374E-7 2.1950974
v -0.21020366 5.341139 3.8725495
v 1.6709942 5.34114 1.4865769
v -0.9412165 4.1956082E-7 4.5810714
v -0.051601678 5.274157 0.44991174
v -1.2932243 5.274155 2.384064
v -2.0022676 2.5605183 -0.7341317
v 1.6709942 5.34114 1.4865769
v -1.090131 8.468732 1.9932812
v 0.72942644 8.900784 0.17051166
v 0.72942644 8.900784 0.17051166
v -1.2932243 5.274155 2.384064
v -0.051601678 5.274157 0.44991174
v -1.090131 8.468732 1.9932812
v -0.21020366 5.341139 3.8725495
v -1.2932243 5.274155 2.384064
v -1.2932243 5.274155 2.384064
v -0.9412165 4.1956082E-7 4.5810714
v -3.2386298 3.894791E-8 0.82986736
v 0.7345668 2.9075906 -2.2742822
v -1.3574333 -1.4882535E-8 -1.5561078
v 0.47068104 -1.1494383E-7 -4.5810714
v -2.0022676 2.5605183 -0.7341317
v -3.2386298 3.894791E-8 0.82986736
v -1.3574333 -1.4882535E-8 -1.5561078
v 3.2386303 3.9232896E-7 0.6695172
v 1.6709942 5.34114 1.4865769
v 2.3937473 5.0826316 -0.07499497
v -0.4368904 5.0981903 -1.7953298
v -2.0022676 2.5605183 -0.7341317
v 0.7345668 2.9075906 -2.2742822
v 0.524726 9.19765 -0.8866162
v -0.051601678 5.274157 0.44991174
v -0.4368904 5.0981903 -1.7953298
v 0.72942644 8.900784 0.17051166
v 2.3937473 5.0826316 -0.07499497
v 1.6709942 5.34114 1.4865769
v -0.4368904 5.0981903 -1.7953298
v 1.2487411 9.1701765 -0.5501528
v 0.524726 9.19765 -0.8866162
v -1.090131 8.468732 1.9932812
v 1.6709942 5.34114 1.4865769
v -0.21020366 5.341139 3.8725495
v -1.2932243 5.274155 2.384064
v 0.72942644 8.900784 0.17051166
v -1.090131 8.468732 1.9932812
v -0.9412165 4.1956082E-7 4.5810714
v -1.2932243 5.274155 2.384064
v -0.21020366 5.341139 3.8725495
v -1.3574333 -1.4882535E-8 -1.5561078
v 0.7345668 2.9075906 -2.2742822
v -2.0022676 2.5605183 -0.7341317
v -3.2386298 3.894791E-8 0.82986736
v -2.0022676 2.5605183 -0.7341317
v -1.2932243 5.274155 2.384064
v 0.524726 9.19765 -0.8866162
v 1.2487411 9.1701765 -0.5501528
v 0.72942644 8.900784 0.17051166
v 1.6709942 5.34114 1.4865769
v 3.2386303 3.9232896E-7 0.6695172
v 0.9399813 3.6541374E-7 2.1950974
vn -0.8279414 0.55204105 0.09881152
vn -0.8279414 0.5520411 0.09881154
vn -0.82794136 0.5520411 0.09881153
vn 0.77933604 0.037930604 -0.62545705
vn 0.77933604 0.037930604 -0.62545705
vn 0.77933604 0.037930604 -0.62545705
vn -0.9437064 0.2221199 0.2451141
vn -0.9437064 0.22211991 0.24511413
vn -0.9437064 0.22211994 0.24511413
vn 0.72755474 0.27677515 0.6277416
vn 0.72755474 0.27677515 0.62774163
vn 0.72755474 0.27677515 0.62774163
vn 0.849672 0.278252 -0.44792104
vn 0.849672 0.27825204 -0.44792104
vn 0.849672 0.278252 -0.4479211
vn 0.47256973 0.42188662 -0.7737503
vn 0.47256967 0.42188662 -0.77375025
vn 0.47256967 0.42188662 -0.77375025
vn 0.518992 0.046161424 -0.8535317
vn 0.518992 0.046161424 -0.8535317
vn 0.51899207 0.046161428 -0.8535317
vn 0.7850251 -0.025336854 0.6189456
vn 0.7850251 -0.025336854 0.61894566
vn 0.78502506 -0.025336856 0.61894566
vn 0.7850252 -0.02533678 0.6189455
vn -0.6441603 0.64347655 -0.41351607
vn -0.6441603 0.64347655 -0.41351607
vn -0.6441603 0.64347655 -0.41351607
vn 0.5939729 0.4124755 0.6906954
vn 0.5939729 0.4124755 0.6906954
vn 0.5939729 0.41247547 0.6906954
vn -0.8334436 0.13827075 -0.5350262
vn -0.8334436 0.13827075 -0.5350262
vn -0.8334436 0.13827075 -0.5350262
vn -0.8051602 0.122178204 0.58033556
vn -0.80516034 0.12217821 0.58033556
vn -0.80516034 0.122178234 0.58033556
vn -0.8419793 0.15861164 0.5156677
vn -0.8419793 0.15861163 0.5156676
vn -0.8419793 0.15861164 0.5156677
vn -0.7691432 0.43858358 -0.46482596
vn -0.7691432 0.43858358 -0.464826
vn -0.7691432 0.43858358 -0.46482605
vn -0.7852773 9.948588E-4 -0.6191434
vn -0.7852773 9.948587E-4 -0.6191434
vn -0.7852773 9.948587E-4 -0.6191434
vn 0.9006299 0.20578131 0.38277912
vn 0.9006299 0.20578131 0.3827791
vn 0.9006299 0.20578131 0.38277912
vn -0.48281938 -0.06729395 -0.87313056
vn -0.48281938 -0.067293964 -0.87313056
vn -0.48281938 -0.067293964 -0.87313056
vn -0.96931434 0.19387026 0.15114239
vn -0.96931434 0.19387028 0.1511424
vn -0.96931434 0.19387028 0.1511424
vn 0.86892617 0.35669956 0.3431219
vn 0.8689262 0.3566996 0.34312186
vn 0.86892617 0.35669956 0.3431219
vn 0.4224333 0.10058557 -0.9007955
vn 0.4224333 0.10058557 -0.9007955
vn 0.42243332 0.10058557 -0.9007955
vn 0.6754594 0.5100337 0.53255993
vn 0.6754594 0.5100337 0.53255993
vn 0.6754594 0.5100337 0.53255993
vn -0.7020621 -0.04232374 -0.7108569
vn -0.7020621 -0.04232374 -0.7108569
vn -0.7020621 -0.04232374 -0.7108569
vn -0.7985601 0.18526463 0.5726943
vn -0.7985601 0.18526463 0.5726943
vn -0.7985601 0.18526463 0.5726943
vn -0.49922043 0.14832707 -0.85368496
vn -0.49922043 0.14832707 -0.85368496
vn -0.49922043 0.14832707 -0.85368496
vn -0.920321 0.37360993 -0.11586647
vn -0.920321 0.37360993 -0.11586647
vn -0.920321 0.37360993 -0.11586645
vn -0.096948795 0.95317835 0.28644735
vn -0.096948795 0.95317835 0.28644735
vn -0.096948795 0.95317835 0.28644735
vn 0.55264413 0.034821745 0.8326896
vn 0.5526442 0.03482175 0.8326896
vn 0.5526442 0.034821745 0.8326896
vt 0.9328779 0.18945014
vt 0.95970017 0.1850127
vt 0.9592793 0.20463574
vt 0.5618229 0.672745
vt 0.5628242 0.62803626
vt 0.58961767 0.64186645
vt 0.47691488 0.18252468
vt 0.5113982 0.17365575
vt 0.5081607 0.18251514
vt 0.78138983 0.72713554
vt 0.815522 0.71619916
vt 0.81793034 0.72380054
vt 0.5618229 0.672745
vt 0.58961767 0.64186645
vt 0.6110287 0.663535
vt 0.30471635 0.20739579
vt 0.32672715 0.22800362
vt 0.29827273 0.22815108
vt 0.15869266 0.39703965
vt 0.1585589 0.36858523
vt 0.19370937 0.37910998
vt 0.73852545 0.7042129
vt 0.78207994 0.68684834
vt 0.78239936 0.7129233
vt 0.7382061 0.6781379
vt 0.99276567 0.18495226
vt 0.99276567 0.20469606
vt 0.9623126 0.18544531
vt 0.78239936 0.7129233
vt 0.81240016 0.69413316
vt 0.815522 0.71619916
vt 0.3291992 0.22812718
vt 0.36416006 0.20783544
vt 0.36114776 0.22734785
vt 0.89620733 0.60308623
vt 0.86913776 0.620602
vt 0.86855805 0.6047894
vt 0.86855805 0.6047894
vt 0.82254255 0.6218678
vt 0.8228885 0.58418703
vt 0.69861275 0.39719713
vt 0.68403774 0.36940444
vt 0.7143997 0.36940444
vt 0.9655016 0.8884392
vt 0.9483755 0.86644375
vt 0.9744759 0.86644375
vt 0.7367571 0.72703445
vt 0.78239936 0.7129233
vt 0.78138983 0.72713554
vt 0.30915666 0.2043271
vt 0.28197807 0.20500028
vt 0.29993486 0.18464816
vt 0.5113982 0.17365575
vt 0.47691488 0.18252468
vt 0.47688317 0.16317844
vt 0.815522 0.71619916
vt 0.78138983 0.72713554
vt 0.78239936 0.7129233
vt 0.15869266 0.39703965
vt 0.19370937 0.37910998
vt 0.19398028 0.385926
vt 0.81240016 0.69413316
vt 0.78239936 0.7129233
vt 0.78207994 0.68684834
vt 0.36416006 0.20783544
vt 0.3291992 0.22812718
vt 0.33677197 0.20741963
vt 0.82254255 0.6218678
vt 0.86855805 0.6047894
vt 0.86913776 0.620602
vt 0.26896834 0.18575478
vt 0.29993486 0.18464816
vt 0.28197807 0.20500028
vt 0.040403485 0.20503956
vt 0.05936885 0.18460894
vt 0.09045589 0.20281869
vt 0.99123347 0.9092573
vt 0.9980242 0.9082987
vt 0.99764943 0.91592
vt 0.6010798 0.26481473
vt 0.5551702 0.27991593
vt 0.5551702 0.25621676

g Rock_3
s 1
usemtl Rock_3
f 3/3/3 2/2/2 1/1/1 
f 6/6/6 5/5/5 4/4/4 
f 9/9/9 8/8/8 7/7/7 
f 12/12/12 11/11/11 10/10/10 
f 15/15/15 14/14/14 13/13/13 
f 18/18/18 17/17/17 16/16/16 
f 21/21/21 20/20/20 19/19/19 
f 24/24/24 23/23/23 22/22/22 
f 25/25/25 22/22/22 23/23/23 
f 28/28/28 27/27/27 26/26/26 
f 31/31/31 30/30/30 29/29/29 
f 34/34/34 33/33/33 32/32/32 
f 37/37/37 36/36/36 35/35/35 
f 40/40/40 39/39/39 38/38/38 
f 43/43/43 42/42/42 41/41/41 
f 46/46/46 45/45/45 44/44/44 
f 49/49/49 48/48/48 47/47/47 
f 52/52/52 51/51/51 50/50/50 
f 55/55/55 54/54/54 53/53/53 
f 58/58/58 57/57/57 56/56/56 
f 61/61/61 60/60/60 59/59/59 
f 64/64/64 63/63/63 62/62/62 
f 67/67/67 66/66/66 65/65/65 
f 70/70/70 69/69/69 68/68/68 
f 73/73/73 72/72/72 71/71/71 
f 76/76/76 75/75/75 74/74/74 
f 79/79/79 78/78/78 77/77/77 
f 82/82/82 81/81/81 80/80/80 

