# Created by DisUnity v0.3.4
v -3.466746 -1.6565691E-8 -2.2890847
v -1.0289502 4.5255218 -1.7139937
v -3.2989244 3.4344788 0.3418501
v 2.0209439 -1.6565691E-8 3.0431588
v -1.0289502 4.5255218 -1.7139937
v 4.4827213 -1.6565691E-8 -3.0431561
v 4.4827213 -1.6565691E-8 -3.0431561
v -1.0289502 4.5255218 -1.7139937
v -3.466746 -1.6565691E-8 -2.2890847
v 2.0209439 -1.6565691E-8 3.0431588
v -3.2989244 3.4344788 0.3418501
v -1.0289502 4.5255218 -1.7139937
v -3.466746 -1.6565691E-8 -2.2890847
v -3.2989244 3.4344788 0.3418501
v -4.4827223 -1.1127189E-16 1.8172077
v -3.2989244 3.4344788 0.3418501
v 2.0209439 -1.6565691E-8 3.0431588
v -4.4827223 -1.1127189E-16 1.8172077
vn -0.7084791 0.4506581 -0.54310644
vn -0.70847917 0.4506581 -0.54310644
vn -0.7084791 0.4506581 -0.54310644
vn 0.6493439 0.71370167 0.262645
vn 0.64934397 0.71370167 0.262645
vn 0.6493439 0.71370167 0.262645
vn -0.09298277 0.17465268 -0.98023
vn -0.092982754 0.17465265 -0.98023
vn -0.09298278 0.17465267 -0.98023
vn 0.1852194 0.76855516 0.6123861
vn 0.18521939 0.76855516 0.6123861
vn 0.1852194 0.7685552 0.6123861
vn -0.94573534 0.22545947 -0.23399319
vn -0.94573534 0.22545947 -0.23399319
vn -0.94573534 0.22545946 -0.23399319
vn -0.16660641 0.43710202 0.8838463
vn -0.16660641 0.43710202 0.8838463
vn -0.16660641 0.43710202 0.8838463
vt 0.5180806 0.3713686
vt 0.48196793 0.3972553
vt 0.48094273 0.36934632
vt 0.68933177 0.73250365
vt 0.66127205 0.78800416
vt 0.63293386 0.73250365
vt 0.4413705 0.5831014
vt 0.39402378 0.6219768
vt 0.37308252 0.5831014
vt 0.6223467 0.37313664
vt 0.6813642 0.36936247
vt 0.6796767 0.3972392
vt 0.6782814 0.39979923
vt 0.65568113 0.42930233
vt 0.6430075 0.39979923
vt 0.9812299 0.5369091
vt 0.93202317 0.5041065
vt 0.98887527 0.5041065

g Rock_13
s 1
usemtl Rock_13
f 3/3/3 2/2/2 1/1/1 
f 6/6/6 5/5/5 4/4/4 
f 9/9/9 8/8/8 7/7/7 
f 12/12/12 11/11/11 10/10/10 
f 15/15/15 14/14/14 13/13/13 
f 18/18/18 17/17/17 16/16/16 

