# Created by DisUnity v0.3.4
v 4.7433248 -3.2413238E-16 5.2934833
v 1.4619434 7.846117 1.8888817
v 5.3515344 3.2413238E-16 -5.2934833
v 5.3515344 3.2413238E-16 -5.2934833
v 1.4619434 7.846117 1.8888817
v -5.351537 -1.1529135E-18 0.018828508
v -5.351537 -1.1529135E-18 0.018828508
v 1.4619434 7.846117 1.8888817
v 4.7433248 -3.2413238E-16 5.2934833
vn 0.9129933 0.40458897 0.052450493
vn 0.9129933 0.40458897 0.052450493
vn 0.9129933 0.40458897 0.052450493
vn -0.38130233 0.5142208 -0.7682353
vn -0.3813023 0.5142208 -0.7682353
vn -0.38130233 0.5142208 -0.7682353
vn -0.45488682 0.18752307 0.87058204
vn -0.45488682 0.18752308 0.87058204
vn -0.45488682 0.18752307 0.87058204
vt 0.9918364 0.9240866
vt 0.96425486 0.99778837
vt 0.9007417 0.9240866
vt 0.68804085 0.9192029
vt 0.6306818 0.99778926
vt 0.58539665 0.9192029
vt 0.20175302 0.7943046
vt 0.14243847 0.862922
vt 0.10391134 0.7943046

g Rock_11
s 1
usemtl Rock_11
f 3/3/3 2/2/2 1/1/1 
f 6/6/6 5/5/5 4/4/4 
f 9/9/9 8/8/8 7/7/7 

