# Created by DisUnity v0.3.4
v -0.6735736 1.6798061 1.1782166
v -0.8058274 2.9185772 -1.1230266
v -0.8607366 2.936395 -0.34251913
v 1.8111042 4.8544294E-8 1.0807793
v -1.8111042 4.8544294E-8 1.9671983
v -0.6735736 1.6798061 1.1782166
v -1.6969225 4.8544294E-8 -1.967199
v 0.39723694 3.0857425 -1.7735853
v -0.8058274 2.9185772 -1.1230266
v 0.28413093 5.140174 -0.68621546
v 1.8111042 4.8544294E-8 1.0807793
v 0.39723694 3.0857425 -1.7735853
v 1.560295 4.8544294E-8 -1.8590912
v -0.8607366 2.936395 -0.34251913
v -0.05225197 5.0992036 -0.5770872
v -0.15532385 5.297898 -0.32234347
v 1.5967109 3.0470448 -0.5225168
v 0.23673049 5.313769 -0.037558135
v 0.4456675 5.3483872 -0.36501572
v 0.7183808 2.9453833 0.8379638
v 1.8111042 4.8544294E-8 1.0807793
v -0.8058274 2.9185772 -1.1230266
v 0.28413093 5.140174 -0.68621546
v -0.05225197 5.0992036 -0.5770872
v 0.39723694 3.0857425 -1.7735853
v 0.4456675 5.3483872 -0.36501572
v 0.28413093 5.140174 -0.68621546
v -1.6969225 4.8544294E-8 -1.967199
v -0.6735736 1.6798061 1.1782166
v -1.8111042 4.8544294E-8 1.9671983
v -0.6735736 1.6798061 1.1782166
v -0.8607366 2.936395 -0.34251913
v 0.7183808 2.9453833 0.8379638
v 0.7183808 2.9453833 0.8379638
v -0.15532385 5.297898 -0.32234347
v 0.23673049 5.313769 -0.037558135
v -0.8607366 2.936395 -0.34251913
v 0.23673049 5.313769 -0.037558135
v -0.15532385 5.297898 -0.32234347
v -0.05225197 5.0992036 -0.5770872
v -0.8058274 2.9185772 -1.1230266
v -0.6735736 1.6798061 1.1782166
v -1.6969225 4.8544294E-8 -1.967199
v 1.8111042 4.8544294E-8 1.0807793
v -0.6735736 1.6798061 1.1782166
v 0.7183808 2.9453833 0.8379638
v 0.39723694 3.0857425 -1.7735853
v -1.6969225 4.8544294E-8 -1.967199
v 1.560295 4.8544294E-8 -1.8590912
v 0.39723694 3.0857425 -1.7735853
v 1.8111042 4.8544294E-8 1.0807793
v 1.5967109 3.0470448 -0.5225168
v -0.05225197 5.0992036 -0.5770872
v -0.8607366 2.936395 -0.34251913
v -0.8058274 2.9185772 -1.1230266
v 0.4456675 5.3483872 -0.36501572
v 0.39723694 3.0857425 -1.7735853
v 1.5967109 3.0470448 -0.5225168
v 0.23673049 5.313769 -0.037558135
v 0.28413093 5.140174 -0.68621546
v 0.4456675 5.3483872 -0.36501572
v 0.23673049 5.313769 -0.037558135
v -0.05225197 5.0992036 -0.5770872
v 0.28413093 5.140174 -0.68621546
vn -0.9730622 -0.22165503 -0.0633956
vn -0.9730621 -0.22165501 -0.063395604
vn -0.9730622 -0.22165503 -0.0633956
vn 0.22797431 0.2831708 0.9315804
vn 0.22797434 0.2831708 0.9315804
vn 0.22797434 0.28317082 0.9315804
vn -0.48064694 0.37590423 -0.7922591
vn -0.48064697 0.3759042 -0.7922591
vn -0.48064703 0.37590426 -0.7922591
vn -0.47935835 0.3897868 -0.78630894
vn 0.9320471 0.35350448 -0.07951574
vn 0.9320471 0.3535045 -0.07951574
vn 0.9320471 0.35350448 -0.07951575
vn -0.8152631 0.24800092 -0.52329886
vn -0.81526303 0.24800095 -0.5232988
vn -0.8152631 0.24800093 -0.5232988
vn 0.77244604 0.3500838 0.52987593
vn 0.77244604 0.3500838 0.52987593
vn 0.77244604 0.3500838 0.5298759
vn 0.78058237 0.33318993 0.5288437
vn 0.7805824 0.33318987 0.52884364
vn -0.32742414 0.33439904 -0.8837255
vn -0.32742414 0.33439904 -0.8837255
vn -0.32742414 0.33439904 -0.8837255
vn 0.7233087 0.35371274 -0.59305304
vn 0.7233086 0.3537127 -0.593053
vn 0.7233087 0.35371274 -0.59305304
vn -0.8330039 0.5527387 -0.02417492
vn -0.83300394 0.55273867 -0.02417492
vn -0.8330039 0.5527387 -0.02417492
vn -0.45261854 0.65924597 0.60044265
vn -0.45261854 0.65924597 0.60044265
vn -0.45261857 0.6592459 0.60044265
vn -0.5832934 0.17462549 0.7932685
vn -0.5832934 0.17462547 0.7932684
vn -0.5832933 0.17462547 0.7932684
vn -0.5906824 0.16970515 0.7888564
vn 0.3272021 0.8047485 -0.49529654
vn 0.32720217 0.8047485 -0.49529657
vn 0.32720214 0.8047485 -0.49529654
vn -0.95379144 0.23825848 0.18307069
vn -0.95379144 0.23825848 0.1830707
vn -0.95379144 0.23825848 0.18307072
vn 0.12470768 0.12738483 0.98398226
vn 0.12470768 0.12738483 0.98398226
vn 0.12470768 0.12738483 0.98398226
vn 0.033145193 0.040165238 -0.9986431
vn 0.03314519 0.040165238 -0.9986431
vn 0.03314519 0.040165234 -0.9986431
vn 0.68353343 -0.30164486 -0.6646747
vn 0.68353343 -0.30164486 -0.6646747
vn 0.68353343 -0.3016449 -0.6646747
vn -0.9367419 0.34217134 -0.07371172
vn -0.9367419 0.34217128 -0.07371172
vn -0.9367419 0.34217137 -0.07371173
vn 0.67346686 0.38022783 -0.63393164
vn 0.67346686 0.38022783 -0.63393164
vn 0.67346686 0.38022783 -0.63393164
vn -0.53310144 0.80675197 -0.2548608
vn -0.5331015 0.80675197 -0.25486082
vn -0.53310144 0.80675197 -0.2548608
vn -0.20138413 0.9424389 -0.26693344
vn -0.20138413 0.9424389 -0.26693344
vn -0.20138413 0.9424389 -0.26693344
vt 0.9505203 0.16322887
vt 0.9620807 0.18247414
vt 0.95623815 0.17918122
vt 0.5655261 0.08329737
vt 0.5975599 0.08329737
vt 0.5864574 0.09834325
vt 0.74596035 0.054292977
vt 0.7154752 0.064276576
vt 0.71879697 0.05291593
vt 0.69739914 0.055743277
vt 0.47998577 0.15984738
vt 0.44188923 0.15970969
vt 0.46311307 0.14093363
vt 0.6805079 0.0041942596
vt 0.6607233 0.0066518784
vt 0.659336 0.0040905476
vt 0.91904217 0.89109814
vt 0.8995546 0.9034765
vt 0.898854 0.9002005
vt 0.92159665 0.9048003
vt 0.9478256 0.8981354
vt 0.71879697 0.05291593
vt 0.69739914 0.055743277
vt 0.69843173 0.052911043
vt 0.7121757 0.09825051
vt 0.7333007 0.08941293
vt 0.7312773 0.09235287
vt 0.03594882 0.10071719
vt 0.009195283 0.11803281
vt 0.0021371096 0.10071719
vt 0.9805583 0.22815275
vt 0.9887905 0.2132535
vt 0.996981 0.22807801
vt 0.97504663 0.60124135
vt 0.9955707 0.58929014
vt 0.9957092 0.5934527
vt 0.974994 0.5843055
vt 0.6570822 0.0043804646
vt 0.65346813 0.0064501762
vt 0.65151155 0.0042920113
vt 0.9620807 0.18247414
vt 0.9505203 0.16322887
vt 0.98112035 0.16462326
vt 0.06630862 0.09302521
vt 0.041113317 0.098409176
vt 0.041564286 0.08225489
vt 0.52792495 0.36579263
vt 0.5099356 0.3392855
vt 0.53791595 0.3392855
vt 0.57226586 0.053154826
vt 0.6103513 0.05408311
vt 0.58243704 0.064032555
vt 0.80924344 0.023520827
vt 0.7893894 0.025334
vt 0.78947747 0.018611431
vt 0.7333007 0.08941293
vt 0.7121757 0.09825051
vt 0.71201175 0.083390355
vt 0.73726624 0.92088187
vt 0.7314838 0.9208363
vt 0.7345209 0.9189619
vt 0.9925221 0.37738025
vt 0.9976897 0.37641096
vt 0.99771214 0.37944853

g Rock_9
s 1
usemtl Rock_9
f 3/3/3 2/2/2 1/1/1 
f 6/6/6 5/5/5 4/4/4 
f 9/9/9 8/8/8 7/7/7 
f 8/8/8 9/9/9 10/10/10 
f 13/13/13 12/12/12 11/11/11 
f 16/16/16 15/15/15 14/14/14 
f 19/19/19 18/18/18 17/17/17 
f 20/20/20 17/17/17 18/18/18 
f 17/17/17 20/20/20 21/21/21 
f 24/24/24 23/23/23 22/22/22 
f 27/27/27 26/26/26 25/25/25 
f 30/30/30 29/29/29 28/28/28 
f 33/33/33 32/32/32 31/31/31 
f 36/36/36 35/35/35 34/34/34 
f 37/37/37 34/34/34 35/35/35 
f 40/40/40 39/39/39 38/38/38 
f 43/43/43 42/42/42 41/41/41 
f 46/46/46 45/45/45 44/44/44 
f 49/49/49 48/48/48 47/47/47 
f 52/52/52 51/51/51 50/50/50 
f 55/55/55 54/54/54 53/53/53 
f 58/58/58 57/57/57 56/56/56 
f 61/61/61 60/60/60 59/59/59 
f 64/64/64 63/63/63 62/62/62 

