# Created by DisUnity v0.3.4
v -0.47150278 1.8813826 0.8247525
v -0.56408066 3.268806 -0.78611773
v -0.6025169 3.2887619 -0.2397619
v 1.2677718 2.2957101E-7 0.7565467
v -1.2677736 1.2855978E-7 1.3770394
v -0.47150278 1.8813826 0.8247525
v -1.1878465 -5.129725E-8 -1.377038
v 0.27806434 3.4560313 -1.2415086
v -0.56408066 3.268806 -0.78611773
v 0.017862082 5.800583 -0.36998364
v 1.2677718 2.2957101E-7 0.7565467
v 0.27806434 3.4560313 -1.2415086
v 1.0922045 8.169562E-8 -1.3013622
v 0.017862082 5.800583 -0.36998364
v -0.6025169 3.2887619 -0.2397619
v -0.56408066 3.268806 -0.78611773
v 1.117697 3.41269 -0.3657616
v 0.502866 3.298829 0.5865754
v 0.23883796 5.970807 -0.14089993
v 1.2677718 2.2957101E-7 0.7565467
v 0.27806434 3.4560313 -1.2415086
v 0.23883796 5.970807 -0.14089993
v 0.017862082 5.800583 -0.36998364
v -1.1878465 -5.129725E-8 -1.377038
v -0.47150278 1.8813826 0.8247525
v -1.2677736 1.2855978E-7 1.3770394
v -0.47150278 1.8813826 0.8247525
v -0.6025169 3.2887619 -0.2397619
v 0.502866 3.298829 0.5865754
v 0.502866 3.298829 0.5865754
v 0.017862082 5.800583 -0.36998364
v 0.23883796 5.970807 -0.14089993
v -0.56408066 3.268806 -0.78611773
v -0.47150278 1.8813826 0.8247525
v -1.1878465 -5.129725E-8 -1.377038
v 1.2677718 2.2957101E-7 0.7565467
v -0.47150278 1.8813826 0.8247525
v 0.502866 3.298829 0.5865754
v 0.27806434 3.4560313 -1.2415086
v -1.1878465 -5.129725E-8 -1.377038
v 1.0922045 8.169562E-8 -1.3013622
v 0.27806434 3.4560313 -1.2415086
v 1.2677718 2.2957101E-7 0.7565467
v 1.117697 3.41269 -0.3657616
v 0.23883796 5.970807 -0.14089993
v 0.27806434 3.4560313 -1.2415086
v 1.117697 3.41269 -0.3657616
v 0.017862082 5.800583 -0.36998364
v 0.502866 3.298829 0.5865754
v -0.6025169 3.2887619 -0.2397619
vn -0.98796403 -0.14065564 -0.064366
vn -0.98796403 -0.14065562 -0.06436599
vn -0.98796403 -0.14065564 -0.064366
vn 0.23375678 0.181471 0.95521
vn 0.23375678 0.181471 0.95521
vn 0.2337568 0.18147102 0.95521
vn -0.5027806 0.24575888 -0.8287425
vn -0.5027806 0.2457589 -0.8287425
vn -0.5027806 0.2457589 -0.8287425
vn -0.50304085 0.2515315 -0.82685053
vn 0.96969986 0.22986573 -0.08272849
vn 0.96969986 0.22986573 -0.08272848
vn 0.96969986 0.22986573 -0.08272848
vn -0.9688826 0.23531899 -0.07675626
vn -0.9688826 0.23531899 -0.07675627
vn -0.9688826 0.23531899 -0.076756254
vn 0.8052151 0.22854005 0.5471728
vn 0.8052151 0.22854005 0.5471728
vn 0.80521506 0.22854008 0.5471728
vn 0.80840576 0.21566638 0.54769355
vn 0.5334789 0.34608984 -0.77176553
vn 0.5334789 0.34608984 -0.77176553
vn 0.5334789 0.34608984 -0.77176553
vn -0.92338306 0.3829434 -0.026797848
vn -0.92338306 0.3829434 -0.02679785
vn -0.92338306 0.3829434 -0.026797848
vn -0.5278861 0.48054704 0.7002934
vn -0.5278861 0.48054704 0.7002935
vn -0.5278861 0.48054704 0.7002934
vn -0.75293064 0.10258479 0.6500552
vn -0.75293064 0.10258479 0.6500552
vn -0.7529307 0.10258478 0.6500552
vn -0.9707291 0.1515558 0.18632169
vn -0.9707291 0.1515558 0.18632169
vn -0.9707291 0.1515558 0.18632169
vn 0.12532878 0.0800122 0.9888837
vn 0.12532878 0.08001221 0.9888837
vn 0.12532878 0.08001221 0.9888837
vn 0.03316171 0.025115501 -0.99913436
vn 0.03316171 0.025115505 -0.99913436
vn 0.03316171 0.025115507 -0.99913436
vn 0.7033088 -0.19398317 -0.6839059
vn 0.7033088 -0.19398317 -0.6839059
vn 0.7033088 -0.19398315 -0.68390584
vn 0.6966143 0.29674393 -0.653201
vn 0.6966143 0.29674393 -0.653201
vn 0.6966143 0.29674393 -0.653201
vn -0.5893513 0.18631439 0.7860993
vn -0.5893513 0.18631439 0.7860993
vn -0.5893513 0.18631439 0.7860993
vt 0.61431515 0.118118405
vt 0.62336797 0.10225713
vt 0.6244335 0.10683131
vt 0.5014561 0.2525897
vt 0.5014561 0.23080873
vt 0.51761764 0.23764884
vt 0.51471657 0.03647268
vt 0.54603183 0.028683305
vt 0.543749 0.036746383
vt 0.56633824 0.036052704
vt 0.5735348 0.12055564
vt 0.603223 0.13771927
vt 0.5735348 0.13823342
vt 0.64539886 0.10160792
vt 0.6244335 0.10683131
vt 0.62336797 0.10225713
vt 0.88030946 0.04014504
vt 0.882432 0.04969871
vt 0.8585633 0.048554778
vt 0.91096795 0.043877363
vt 0.5455698 0.03932476
vt 0.5227618 0.04532236
vt 0.52421415 0.04258287
vt 0.78673637 0.121135235
vt 0.7680088 0.13863039
vt 0.7630683 0.121135235
vt 0.74852586 0.053818345
vt 0.7637055 0.053029418
vt 0.7593678 0.06406319
vt 0.38894188 0.0053710938
vt 0.4122374 0.0033597946
vt 0.4128158 0.006406069
vt 0.62336797 0.10225713
vt 0.61431515 0.118118405
vt 0.5948356 0.10264325
vt 0.5014561 0.2525897
vt 0.51761764 0.23764884
vt 0.52979386 0.246019
vt 0.9303714 0.19202483
vt 0.9006832 0.20461738
vt 0.9006832 0.18503106
vt 0.10407442 0.03671205
vt 0.068777144 0.03517437
vt 0.09875667 0.027741194
vt 0.5227618 0.04532236
vt 0.5455698 0.03932476
vt 0.54559743 0.049542367
vt 0.7817477 0.06415814
vt 0.7593678 0.06406319
vt 0.7637055 0.053029418

g Rock_8
s 1
usemtl Rock_8
f 3/3/3 2/2/2 1/1/1 
f 6/6/6 5/5/5 4/4/4 
f 9/9/9 8/8/8 7/7/7 
f 10/10/10 8/8/8 9/9/9 
f 13/13/13 12/12/12 11/11/11 
f 16/16/16 15/15/15 14/14/14 
f 19/19/19 18/18/18 17/17/17 
f 17/17/17 18/18/18 20/20/20 
f 23/23/23 22/22/22 21/21/21 
f 26/26/26 25/25/25 24/24/24 
f 29/29/29 28/28/28 27/27/27 
f 32/32/32 31/31/31 30/30/30 
f 35/35/35 34/34/34 33/33/33 
f 38/38/38 37/37/37 36/36/36 
f 41/41/41 40/40/40 39/39/39 
f 44/44/44 43/43/43 42/42/42 
f 47/47/47 46/46/46 45/45/45 
f 50/50/50 49/49/49 48/48/48 

