# Created by DisUnity v0.3.4
v -1.2506909 2.351728 0.0504687
v 0.761957 4.086008 -1.0731254
v 0.03577996 4.110953 -0.7817958
v -0.07834154 4.8544294E-8 2.2433474
v -2.4571106 4.8544294E-8 -0.6285156
v -1.2506909 2.351728 0.0504687
v 1.1324344 4.8544294E-8 -2.2433484
v 1.8724494 4.3200393 -0.27475393
v 0.761957 4.086008 -1.0731254
v 0.84478796 7.1962423 0.09817888
v -0.07834154 4.8544294E-8 2.2433474
v 1.8724494 4.3200393 -0.27475393
v 2.4571097 4.8544294E-8 0.73429966
v 0.03577996 4.110953 -0.7817958
v 0.5997583 7.1388845 -0.15681878
v 0.325576 7.417056 -0.13834092
v 1.2705183 4.2658625 1.3505441
v 0.2405111 7.4392757 0.33870456
v 0.6263295 7.4877405 0.38372928
v -0.33691496 4.1235366 1.1542445
v -0.07834154 4.8544294E-8 2.2433474
v 0.761957 4.086008 -1.0731254
v 0.84478796 7.1962423 0.09817888
v 0.5997583 7.1388845 -0.15681878
v 1.8724494 4.3200393 -0.27475393
v 0.6263295 7.4877405 0.38372928
v 0.84478796 7.1962423 0.09817888
v 1.1324344 4.8544294E-8 -2.2433484
v -1.2506909 2.351728 0.0504687
v -2.4571106 4.8544294E-8 -0.6285156
v -1.2506909 2.351728 0.0504687
v 0.03577996 4.110953 -0.7817958
v -0.33691496 4.1235366 1.1542445
v -0.33691496 4.1235366 1.1542445
v 0.325576 7.417056 -0.13834092
v 0.2405111 7.4392757 0.33870456
v 0.03577996 4.110953 -0.7817958
v 0.2405111 7.4392757 0.33870456
v 0.325576 7.417056 -0.13834092
v 0.5997583 7.1388845 -0.15681878
v 0.761957 4.086008 -1.0731254
v -1.2506909 2.351728 0.0504687
v 1.1324344 4.8544294E-8 -2.2433484
v -0.07834154 4.8544294E-8 2.2433474
v -1.2506909 2.351728 0.0504687
v -0.33691496 4.1235366 1.1542445
v 1.8724494 4.3200393 -0.27475393
v 1.1324344 4.8544294E-8 -2.2433484
v 2.4571097 4.8544294E-8 0.73429966
v 1.8724494 4.3200393 -0.27475393
v -0.07834154 4.8544294E-8 2.2433474
v 1.2705183 4.2658625 1.3505441
v 0.5997583 7.1388845 -0.15681878
v 0.03577996 4.110953 -0.7817958
v 0.761957 4.086008 -1.0731254
v 0.6263295 7.4877405 0.38372928
v 1.8724494 4.3200393 -0.27475393
v 1.2705183 4.2658625 1.3505441
v 0.2405111 7.4392757 0.33870456
v 0.84478796 7.1962423 0.09817888
v 0.6263295 7.4877405 0.38372928
v 0.2405111 7.4392757 0.33870456
v 0.5997583 7.1388845 -0.15681878
v 0.84478796 7.1962423 0.09817888
vn -0.37226084 -0.16026501 -0.9141865
vn -0.37226084 -0.160265 -0.9141865
vn -0.37226084 -0.16026503 -0.9141865
vn -0.753548 0.20635752 0.62416506
vn -0.75354797 0.20635751 0.62416506
vn -0.75354797 0.2063575 0.62416506
vn 0.52131695 0.27830628 -0.8067058
vn 0.52131695 0.27830628 -0.8067058
vn 0.521317 0.27830628 -0.8067058
vn 0.51780134 0.2893955 -0.8050665
vn 0.4937737 0.26060477 0.829622
vn 0.49377373 0.26060477 0.829622
vn 0.49377373 0.26060477 0.829622
vn 0.11666584 0.17987435 -0.9767468
vn 0.11666586 0.17987435 -0.9767468
vn 0.11666586 0.17987435 -0.9767468
vn -0.14389239 0.25792164 0.95539063
vn -0.14389238 0.25792164 0.95539063
vn -0.14389239 0.25792164 0.95539063
vn -0.13885535 0.24473964 0.9595945
vn -0.13885535 0.24473964 0.9595945
vn 0.67076033 0.24567947 -0.69980156
vn 0.67076033 0.2456795 -0.69980156
vn 0.67076033 0.24567947 -0.69980156
vn 0.8766011 0.26076764 0.4044388
vn 0.8766011 0.26076764 0.4044388
vn 0.8766011 0.26076764 0.4044388
vn -0.3707623 0.42814538 -0.82415223
vn -0.3707623 0.42814532 -0.82415223
vn -0.3707623 0.42814532 -0.82415223
vn -0.8315969 0.53075683 -0.16353521
vn -0.831597 0.5307568 -0.16353522
vn -0.8315969 0.53075683 -0.16353522
vn -0.97563756 0.12567449 -0.17982547
vn -0.97563756 0.12567447 -0.17982544
vn -0.97563756 0.12567447 -0.17982545
vn -0.974478 0.12208228 -0.18838412
vn 0.7121361 0.6956407 0.09458428
vn 0.71213615 0.6956406 0.09458428
vn 0.7121361 0.6956407 0.094584286
vn -0.5893333 0.17260092 -0.78923714
vn -0.5893332 0.1726009 -0.78923714
vn -0.5893333 0.17260092 -0.78923714
vn -0.83414954 0.09135274 0.54392034
vn -0.83414954 0.09135274 0.54392034
vn -0.83414954 0.09135274 0.54392034
vn 0.9132898 0.028700607 -0.40629798
vn 0.9132897 0.028700609 -0.406298
vn 0.9132898 0.02870061 -0.40629798
vn 0.91705894 -0.22042854 0.33228615
vn 0.91705894 -0.22042854 0.33228615
vn 0.91705894 -0.22042851 0.33228615
vn -0.35288548 0.25173247 -0.90116745
vn -0.35288543 0.25173247 -0.90116745
vn -0.35288548 0.25173247 -0.90116745
vn 0.89666754 0.28175023 0.34147364
vn 0.89666754 0.2817502 0.34147364
vn 0.89666754 0.2817502 0.3414736
vn -0.0041571315 0.69818366 -0.71590656
vn -0.0041571315 0.6981836 -0.7159066
vn -0.004157131 0.69818366 -0.71590656
vn 0.20254503 0.8955989 -0.39607844
vn 0.20254503 0.8955989 -0.3960785
vn 0.20254503 0.8955989 -0.39607844
vt 0.083313465 0.0022314787
vt 0.10809302 0.002307415
vt 0.10288131 0.006557584
vt 0.11455506 0.46377087
vt 0.11455506 0.43173707
vt 0.1352014 0.44283974
vt 0.46503985 0.0629065
vt 0.50507665 0.052875996
vt 0.50166297 0.064296305
vt 0.53007734 0.061449766
vt 0.5403511 0.31002223
vt 0.57878953 0.33548558
vt 0.5403511 0.33536792
vt 0.60586756 0.005921185
vt 0.63226044 0.0040652156
vt 0.63436675 0.0066769123
vt 0.9579359 0.085009634
vt 0.93188035 0.09694791
vt 0.9310838 0.093703866
vt 0.96074545 0.098584175
vt 0.995674 0.092285335
vt 0.50166297 0.064296305
vt 0.53007734 0.061449766
vt 0.52907825 0.064311504
vt 0.73583436 0.098250985
vt 0.76436085 0.08968985
vt 0.7616563 0.0926044
vt 0.7451523 0.5031136
vt 0.7675067 0.5298672
vt 0.7451523 0.53692544
vt 0.97686064 0.81513226
vt 0.9946916 0.805985
vt 0.99481905 0.8229213
vt 0.47604692 0.117690444
vt 0.504339 0.106586814
vt 0.50452995 0.11068475
vt 0.4759388 0.10105944
vt 0.6035142 0.004239917
vt 0.60004723 0.006551504
vt 0.59765756 0.0041906834
vt 0.7802384 0.5101403
vt 0.7675067 0.5298672
vt 0.7451523 0.5031136
vt 0.11455506 0.46377087
vt 0.1352014 0.44283974
vt 0.15009344 0.45514905
vt 0.4419026 0.37926388
vt 0.40477708 0.3972987
vt 0.40477708 0.36930287
vt 0.8853513 0.0798465
vt 0.8392582 0.07869196
vt 0.87685096 0.06761432
vt 0.7869139 0.02378714
vt 0.7599611 0.025334954
vt 0.7599908 0.018610239
vt 0.76436085 0.08968985
vt 0.73583436 0.098250985
vt 0.7356393 0.08338964
vt 0.5893041 0.004275322
vt 0.59526634 0.0044255257
vt 0.59185433 0.0064668655
vt 0.51703763 0.006280899
vt 0.5221399 0.003405571
vt 0.52300143 0.0063601136

g Rock_4
s 1
usemtl Rock_4
f 3/3/3 2/2/2 1/1/1 
f 6/6/6 5/5/5 4/4/4 
f 9/9/9 8/8/8 7/7/7 
f 8/8/8 9/9/9 10/10/10 
f 13/13/13 12/12/12 11/11/11 
f 16/16/16 15/15/15 14/14/14 
f 19/19/19 18/18/18 17/17/17 
f 20/20/20 17/17/17 18/18/18 
f 17/17/17 20/20/20 21/21/21 
f 24/24/24 23/23/23 22/22/22 
f 27/27/27 26/26/26 25/25/25 
f 30/30/30 29/29/29 28/28/28 
f 33/33/33 32/32/32 31/31/31 
f 36/36/36 35/35/35 34/34/34 
f 37/37/37 34/34/34 35/35/35 
f 40/40/40 39/39/39 38/38/38 
f 43/43/43 42/42/42 41/41/41 
f 46/46/46 45/45/45 44/44/44 
f 49/49/49 48/48/48 47/47/47 
f 52/52/52 51/51/51 50/50/50 
f 55/55/55 54/54/54 53/53/53 
f 58/58/58 57/57/57 56/56/56 
f 61/61/61 60/60/60 59/59/59 
f 64/64/64 63/63/63 62/62/62 

