# Created by DisUnity v0.3.4
v -3.115569 -5.9198204E-8 0.18467475
v -0.5254102 7.106483 0.38737956
v 0.49507806 -5.9198204E-8 4.757697
v 0.49507806 -5.9198204E-8 4.757697
v -0.5254102 7.106483 0.38737956
v 2.956856 -5.9198204E-8 -1.3286194
v 2.956856 -5.9198204E-8 -1.3286194
v -0.5254102 7.106483 0.38737956
v -3.115569 -5.9198204E-8 0.18467475
v -4.2793555 -5.9198204E-8 -4.757698
v -1.7324715 4.8808284 -3.3715851
v -2.6829247 -5.9198204E-8 1.5462073
v -2.6829247 -5.9198204E-8 1.5462073
v -1.7324715 4.8808284 -3.3715851
v 2.5971951 -5.9198204E-8 -3.5342324
v 2.5971951 -5.9198204E-8 -3.5342324
v -1.7324715 4.8808284 -3.3715851
v -4.2793555 -5.9198204E-8 -4.757698
v 1.0544482 -5.9198204E-8 -4.2751603
v 1.8410432 3.4165792 -2.4040244
v -0.82826656 -5.9198204E-8 -0.13071834
v -0.82826656 -5.9198204E-8 -0.13071834
v 1.8410432 3.4165792 -2.4040244
v 4.279352 -5.9198204E-8 -0.60037476
v 4.279352 -5.9198204E-8 -0.60037476
v 1.8410432 3.4165792 -2.4040244
v 1.0544482 -5.9198204E-8 -4.2751603
vn -0.7580262 0.25921246 0.5985024
vn -0.7580262 0.25921255 0.5985025
vn -0.7580262 0.25921246 0.5985024
vn 0.87120193 0.3418105 0.35238153
vn 0.871202 0.34181046 0.35238156
vn 0.871202 0.3418105 0.35238153
vn -0.24020636 0.115043655 -0.96388066
vn -0.24020633 0.11504364 -0.96388066
vn -0.24020632 0.115043655 -0.96388066
vn -0.88856846 0.3997621 0.22502525
vn -0.88856846 0.3997621 0.22502525
vn -0.88856846 0.39976212 0.22502525
vn 0.59688884 0.50881356 0.62034875
vn 0.59688884 0.5088135 0.62034875
vn 0.5968889 0.50881356 0.62034875
vn 0.17214566 0.18494879 -0.96755356
vn 0.17214565 0.18494879 -0.96755356
vn 0.17214565 0.18494882 -0.96755356
vn -0.8345443 0.39976212 -0.3791123
vn -0.8345443 0.39976212 -0.37911236
vn -0.8345442 0.39976212 -0.3791123
vn 0.078826904 0.50881344 0.8572603
vn 0.078826904 0.50881344 0.85726035
vn 0.078826904 0.50881344 0.85726035
vn 0.7386496 0.18494873 -0.6482212
vn 0.7386496 0.18494873 -0.6482212
vn 0.7386496 0.18494873 -0.6482212
vt 0.37318182 0.6771225
vt 0.4363886 0.69227713
vt 0.37318182 0.72717446
vt 0.22289157 0.73156667
vt 0.28785062 0.7630827
vt 0.22289157 0.78796464
vt 0.7490579 0.73386264
vt 0.8105124 0.76645297
vt 0.7490579 0.78762174
vt 0.5005871 0.62703156
vt 0.48367333 0.6727731
vt 0.4447255 0.62703156
vt 0.06516361 0.6240858
vt 0.029989481 0.67278916
vt 0.0022193193 0.6240858
vt 0.25658646 0.58011043
vt 0.21939346 0.6220379
vt 0.19751513 0.58011043
vt 0.11183673 0.43174434
vt 0.09999713 0.46376348
vt 0.07273358 0.43174434
vt 0.92925704 0.5029733
vt 0.9046352 0.5370657
vt 0.885196 0.5029733
vt 0.14892933 0.3996185
vt 0.1234681 0.42948306
vt 0.10693002 0.3996185

g Rock_5
s 1
usemtl Rock_5
f 3/3/3 2/2/2 1/1/1 
f 6/6/6 5/5/5 4/4/4 
f 9/9/9 8/8/8 7/7/7 
f 12/12/12 11/11/11 10/10/10 
f 15/15/15 14/14/14 13/13/13 
f 18/18/18 17/17/17 16/16/16 
f 21/21/21 20/20/20 19/19/19 
f 24/24/24 23/23/23 22/22/22 
f 27/27/27 26/26/26 25/25/25 

