# Created by DisUnity v0.3.4
v -4.341046 0.029762104 4.3916936
v -4.6673307 0.26707083 4.5901666
v 4.562323 0.2669317 4.519701
v 4.6593046 0.013741815 4.6166825
v 4.562323 0.2669317 4.519701
v 4.66733 0.26518175 -4.616682
v 4.3685236 0.034446806 -4.3178763
v 4.66733 0.26518175 -4.616682
v -4.419709 0.26775405 -4.4623303
v -4.4692974 0.02063 -4.511919
v -4.419709 0.26775405 -4.4623303
v -4.6673307 0.26707083 4.5901666
v -4.341046 0.029762104 4.3916936
v -3.5951698 -2.232419E-16 3.645817
v -3.184948 0.03854467 -3.22757
v -4.4692974 0.02063 -4.511919
v -3.184948 0.03854467 -3.22757
v 3.407876 0.026361909 -3.357228
v -4.341046 0.029762104 4.3916936
v 4.3685236 0.034446806 -4.3178763
v 3.3523772 0.03157657 3.3097556
v 4.6593046 0.013741815 4.6166825
v -3.5951698 -2.232419E-16 3.645817
v 4.6593046 0.013741815 4.6166825
v -3.5951698 -2.232419E-16 3.645817
v -4.6673307 0.26707083 4.5901666
v -3.7484314 0.27021748 3.617579
v 3.7539673 0.26065826 3.7113461
v 4.562323 0.2669317 4.519701
v 3.2782178 0.2711205 -3.2275698
v 4.66733 0.26518175 -4.616682
v -3.286625 0.2688845 -3.329247
v -4.419709 0.26775405 -4.4623303
v -3.5951698 -2.232419E-16 3.645817
v -3.7484314 0.27021748 3.617579
v -3.286625 0.2688845 -3.329247
v -3.184948 0.03854467 -3.22757
v -3.286625 0.2688845 -3.329247
v 3.2782178 0.2711205 -3.2275698
v 3.407876 0.026361909 -3.357228
v 3.2782178 0.2711205 -3.2275698
v 3.7539673 0.26065826 3.7113461
v 3.3523772 0.03157657 3.3097556
v 3.7539673 0.26065826 3.7113461
v -3.7484314 0.27021748 3.617579
v -4.341046 0.029762104 4.3916936
v 4.562323 0.2669317 4.519701
v 4.6593046 0.013741815 4.6166825
v 4.6593046 0.013741815 4.6166825
v 4.66733 0.26518175 -4.616682
v 4.3685236 0.034446806 -4.3178763
v 4.3685236 0.034446806 -4.3178763
v -4.419709 0.26775405 -4.4623303
v -4.4692974 0.02063 -4.511919
v -4.4692974 0.02063 -4.511919
v -4.6673307 0.26707083 4.5901666
v -4.341046 0.029762104 4.3916936
v -3.5951698 -2.232419E-16 3.645817
v -3.286625 0.2688845 -3.329247
v -3.184948 0.03854467 -3.22757
v -3.184948 0.03854467 -3.22757
v 3.2782178 0.2711205 -3.2275698
v 3.407876 0.026361909 -3.357228
v 3.407876 0.026361909 -3.357228
v 3.7539673 0.26065826 3.7113461
v 3.3523772 0.03157657 3.3097556
v 3.3523772 0.03157657 3.3097556
v -3.7484314 0.27021748 3.617579
v -3.5951698 -2.232419E-16 3.645817
vn 0.005876984 -0.63677067 0.7710309
vn 0.005876984 -0.63677067 0.7710309
vn 0.005876984 -0.63677067 0.7710309
vn 0.93241626 0.36122912 0.01064728
vn 0.9324164 0.36122912 0.010647281
vn 0.93241626 0.3612291 0.010647278
vn -0.010717132 -0.78623223 -0.61783814
vn -0.010717132 -0.78623223 -0.61783814
vn -0.010717133 -0.78623223 -0.6178382
vn -0.9790548 0.20183007 -0.026765775
vn -0.9790548 0.20183007 -0.02676577
vn -0.9790548 0.20183006 -0.026765771
vn -0.048340254 -0.9987949 -0.00848613
vn -0.048340257 -0.9987949 -0.00848613
vn -0.04834026 -0.9987949 -0.00848613
vn -0.0015430284 -0.9998789 0.015489784
vn -0.0015430283 -0.9998789 0.015489782
vn -0.0015430285 -0.9998789 0.015489785
vn 0.013110506 -0.9999137 8.367245E-4
vn 0.009275067 -0.9999566 8.5933786E-4
vn 0.009275067 -0.9999566 8.5933786E-4
vn 0.0037050755 -0.99984264 -0.017349262
vn 0.003705075 -0.99984264 -0.01734926
vn -0.00270781 -0.9993055 0.03716665
vn -0.00270781 -0.9993055 0.03716665
vn 0.0012193096 0.9999896 0.004387313
vn 0.0012193096 0.9999896 0.004387313
vn 0.0012193096 0.9999896 0.0043873135
vn -0.009950277 0.99994814 0.0021898989
vn -0.009950279 0.99994814 0.0021898993
vn -2.7019705E-4 0.9999896 -0.004545348
vn -2.7019705E-4 0.9999896 -0.004545348
vn -7.5556664E-4 0.99999976 -2.421126E-4
vn 0.86580527 0.497071 0.057461053
vn 0.86580515 0.49707097 0.057461053
vn 0.86580527 0.49707094 0.057461046
vn -0.01433933 0.39848155 0.9170643
vn -0.01433933 0.39848155 0.9170643
vn -0.01433933 0.39848155 0.9170643
vn -0.86890954 -0.49146184 0.058833618
vn -0.86890954 -0.4914619 0.058833618
vn -0.86890954 -0.49146184 0.058833618
vn 0.0073645706 0.86540335 -0.5010218
vn 0.0073645706 0.86540335 -0.50102186
vn 0.0073645697 0.86540335 -0.5010218
vn -0.022786979 0.3499792 0.93648034
vn -0.022786977 0.34997916 0.9364802
vn -0.02278698 0.3499792 0.93648034
vn 0.59760743 -0.80150574 -0.021306928
vn 0.5976074 -0.80150574 -0.021306928
vn 0.5976074 -0.80150574 -0.021306925
vn 0.021238726 0.19259976 -0.9810476
vn 0.021238726 0.19259977 -0.9810476
vn 0.021238726 0.19259979 -0.9810476
vn -0.5844776 -0.8113572 0.009251255
vn -0.5844776 -0.8113571 0.009251255
vn -0.5844776 -0.8113571 0.009251255
vn 0.90395945 0.4238921 0.056327824
vn 0.90395945 0.42389205 0.056327812
vn 0.9039595 0.42389202 0.056327816
vn 0.016595088 -0.46117038 0.88715637
vn 0.016595088 -0.46117038 0.88715637
vn 0.016595088 -0.46117043 0.88715637
vn -0.49187618 0.8706521 -0.0047755796
vn -0.49187616 0.87065214 -0.0047755796
vn -0.49187618 0.8706521 -0.004775579
vn -0.047311716 -0.13032557 -0.9903418
vn -0.047311716 -0.13032559 -0.9903418
vn -0.047311716 -0.13032559 -0.9903418
vt 0.55995417 0.09880477
vt 0.5699886 0.10822654
vt 0.28743327 0.108220994
vt 0.7077288 0.04418379
vt 0.70479405 0.052495956
vt 0.42508373 0.052438557
vt 0.83537245 0.22664273
vt 0.8446771 0.23807359
vt 0.56645566 0.23820102
vt 0.9684224 0.02356118
vt 0.9669044 0.03112638
vt 0.68978065 0.031105518
vt 0.84820294 0.7065697
vt 0.8253695 0.6837362
vt 0.81281143 0.47332144
vt 0.8521291 0.4340037
vt 0.81281143 0.47332144
vt 0.61098546 0.46935225
vt 0.84820294 0.7065697
vt 0.5815772 0.4399439
vt 0.6126845 0.6734484
vt 0.5726755 0.7134573
vt 0.8253695 0.6837362
vt 0.5726755 0.7134573
vt 0.8253695 0.6837362
vt 0.28790033 0.71600914
vt 0.2597701 0.7457829
vt 0.030099424 0.7429124
vt 0.005353269 0.7181663
vt 0.04466353 0.95533323
vt 0.002138699 0.99785805
vt 0.24563287 0.9584459
vt 0.28031993 0.99313295
vt 0.90225226 0.111444294
vt 0.9017003 0.12097758
vt 0.68856806 0.12093049
vt 0.9078827 0.034204543
vt 0.9110435 0.041892707
vt 0.71005017 0.041967273
vt 0.21873552 0.04411006
vt 0.21472472 0.052569687
vt 0.001967601 0.044248223
vt 0.7844737 0.36533266
vt 0.7964155 0.37978446
vt 0.56686574 0.37178773
vt 0.56309974 0.06621069
vt 0.2905266 0.07396132
vt 0.28748617 0.06568712
vt 0.28493282 0.14502794
vt 0.0021765525 0.14733881
vt 0.011427192 0.13586426
vt 0.27297127 0.014218569
vt 0.0039373627 0.021360755
vt 0.002419352 0.013795555
vt 0.84545404 0.26483667
vt 0.5666553 0.26732957
vt 0.57303244 0.25513136
vt 0.90225226 0.111444294
vt 0.68856806 0.12093049
vt 0.69146776 0.11316568
vt 0.42270973 0.04453796
vt 0.22488768 0.052562
vt 0.22084494 0.04411769
vt 0.78314006 0.30655658
vt 0.5664693 0.31304836
vt 0.57916737 0.29925627
vt 0.9871064 0.06665474
vt 0.7697296 0.073960304
vt 0.77442145 0.06568813

g Selection_RED
s 1
usemtl Selection_RED
f 3/3/3 2/2/2 1/1/1 
f 6/6/6 5/5/5 4/4/4 
f 9/9/9 8/8/8 7/7/7 
f 12/12/12 11/11/11 10/10/10 
f 15/15/15 14/14/14 13/13/13 
f 18/18/18 17/17/17 16/16/16 
f 16/16/16 17/17/17 19/19/19 
f 20/20/20 18/18/18 16/16/16 
f 21/21/21 18/18/18 20/20/20 
f 22/22/22 21/21/21 20/20/20 
f 23/23/23 21/21/21 22/22/22 
f 19/19/19 25/25/25 24/24/24 
f 28/28/28 27/27/27 26/26/26 
f 29/29/29 28/28/28 26/26/26 
f 30/30/30 28/28/28 29/29/29 
f 31/31/31 30/30/30 29/29/29 
f 32/32/32 30/30/30 31/31/31 
f 27/27/27 32/32/32 33/33/33 
f 33/33/33 32/32/32 31/31/31 
f 26/26/26 27/27/27 33/33/33 
f 36/36/36 35/35/35 34/34/34 
f 39/39/39 38/38/38 37/37/37 
f 42/42/42 41/41/41 40/40/40 
f 45/45/45 44/44/44 43/43/43 
f 48/48/48 47/47/47 46/46/46 
f 51/51/51 50/50/50 49/49/49 
f 54/54/54 53/53/53 52/52/52 
f 57/57/57 56/56/56 55/55/55 
f 60/60/60 59/59/59 58/58/58 
f 63/63/63 62/62/62 61/61/61 
f 66/66/66 65/65/65 64/64/64 
f 69/69/69 68/68/68 67/67/67 

