# Created by DisUnity v0.3.4
v -4.341046 0.029762104 4.3916936
v -4.6673307 0.26707083 4.5901666
v 4.562323 0.2669317 4.519701
v 4.6593046 0.013741815 4.6166825
v 4.562323 0.2669317 4.519701
v 4.66733 0.26518175 -4.616682
v 4.3685236 0.034446806 -4.3178763
v 4.66733 0.26518175 -4.616682
v -4.419709 0.26775405 -4.4623303
v -4.4692974 0.02063 -4.511919
v -4.419709 0.26775405 -4.4623303
v -4.6673307 0.26707083 4.5901666
v -4.341046 0.029762104 4.3916936
v -3.5951698 -2.232419E-16 3.645817
v -3.184948 0.03854467 -3.22757
v -4.4692974 0.02063 -4.511919
v -3.184948 0.03854467 -3.22757
v 3.407876 0.026361909 -3.357228
v -4.341046 0.029762104 4.3916936
v 4.3685236 0.034446806 -4.3178763
v 3.3523772 0.03157657 3.3097556
v 4.6593046 0.013741815 4.6166825
v -3.5951698 -2.232419E-16 3.645817
v 4.6593046 0.013741815 4.6166825
v -3.5951698 -2.232419E-16 3.645817
v -4.6673307 0.26707083 4.5901666
v -3.7484314 0.27021748 3.617579
v 3.7539673 0.26065826 3.7113461
v 4.562323 0.2669317 4.519701
v 3.2782178 0.2711205 -3.2275698
v 4.66733 0.26518175 -4.616682
v -3.286625 0.2688845 -3.329247
v -4.419709 0.26775405 -4.4623303
v -3.5951698 -2.232419E-16 3.645817
v -3.7484314 0.27021748 3.617579
v -3.286625 0.2688845 -3.329247
v -3.184948 0.03854467 -3.22757
v -3.286625 0.2688845 -3.329247
v 3.2782178 0.2711205 -3.2275698
v 3.407876 0.026361909 -3.357228
v 3.2782178 0.2711205 -3.2275698
v 3.7539673 0.26065826 3.7113461
v 3.3523772 0.03157657 3.3097556
v 3.7539673 0.26065826 3.7113461
v -3.7484314 0.27021748 3.617579
v -4.341046 0.029762104 4.3916936
v 4.562323 0.2669317 4.519701
v 4.6593046 0.013741815 4.6166825
v 4.6593046 0.013741815 4.6166825
v 4.66733 0.26518175 -4.616682
v 4.3685236 0.034446806 -4.3178763
v 4.3685236 0.034446806 -4.3178763
v -4.419709 0.26775405 -4.4623303
v -4.4692974 0.02063 -4.511919
v -4.4692974 0.02063 -4.511919
v -4.6673307 0.26707083 4.5901666
v -4.341046 0.029762104 4.3916936
v -3.5951698 -2.232419E-16 3.645817
v -3.286625 0.2688845 -3.329247
v -3.184948 0.03854467 -3.22757
v -3.184948 0.03854467 -3.22757
v 3.2782178 0.2711205 -3.2275698
v 3.407876 0.026361909 -3.357228
v 3.407876 0.026361909 -3.357228
v 3.7539673 0.26065826 3.7113461
v 3.3523772 0.03157657 3.3097556
v 3.3523772 0.03157657 3.3097556
v -3.7484314 0.27021748 3.617579
v -3.5951698 -2.232419E-16 3.645817
vn 0.005876984 -0.63677067 0.7710309
vn 0.005876984 -0.63677067 0.7710309
vn 0.005876984 -0.63677067 0.7710309
vn 0.93241626 0.36122912 0.01064728
vn 0.9324164 0.36122912 0.010647281
vn 0.93241626 0.3612291 0.010647278
vn -0.010717132 -0.78623223 -0.61783814
vn -0.010717132 -0.78623223 -0.61783814
vn -0.010717133 -0.78623223 -0.6178382
vn -0.9790548 0.20183007 -0.026765775
vn -0.9790548 0.20183007 -0.02676577
vn -0.9790548 0.20183006 -0.026765771
vn -0.048340254 -0.9987949 -0.00848613
vn -0.048340257 -0.9987949 -0.00848613
vn -0.04834026 -0.9987949 -0.00848613
vn -0.0015430284 -0.9998789 0.015489784
vn -0.0015430283 -0.9998789 0.015489782
vn -0.0015430285 -0.9998789 0.015489785
vn 0.013110506 -0.9999137 8.367245E-4
vn 0.009275067 -0.9999566 8.5933786E-4
vn 0.009275067 -0.9999566 8.5933786E-4
vn 0.0037050755 -0.99984264 -0.017349262
vn 0.003705075 -0.99984264 -0.01734926
vn -0.00270781 -0.9993055 0.03716665
vn -0.00270781 -0.9993055 0.03716665
vn 0.0012193096 0.9999896 0.004387313
vn 0.0012193096 0.9999896 0.004387313
vn 0.0012193096 0.9999896 0.0043873135
vn -0.009950277 0.99994814 0.0021898989
vn -0.009950279 0.99994814 0.0021898993
vn -2.7019705E-4 0.9999896 -0.004545348
vn -2.7019705E-4 0.9999896 -0.004545348
vn -7.5556664E-4 0.99999976 -2.421126E-4
vn 0.86580527 0.497071 0.057461053
vn 0.86580515 0.49707097 0.057461053
vn 0.86580527 0.49707094 0.057461046
vn -0.01433933 0.39848155 0.9170643
vn -0.01433933 0.39848155 0.9170643
vn -0.01433933 0.39848155 0.9170643
vn -0.86890954 -0.49146184 0.058833618
vn -0.86890954 -0.4914619 0.058833618
vn -0.86890954 -0.49146184 0.058833618
vn 0.0073645706 0.86540335 -0.5010218
vn 0.0073645706 0.86540335 -0.50102186
vn 0.0073645697 0.86540335 -0.5010218
vn -0.022786979 0.3499792 0.93648034
vn -0.022786977 0.34997916 0.9364802
vn -0.02278698 0.3499792 0.93648034
vn 0.59760743 -0.80150574 -0.021306928
vn 0.5976074 -0.80150574 -0.021306928
vn 0.5976074 -0.80150574 -0.021306925
vn 0.021238726 0.19259976 -0.9810476
vn 0.021238726 0.19259977 -0.9810476
vn 0.021238726 0.19259979 -0.9810476
vn -0.5844776 -0.8113572 0.009251255
vn -0.5844776 -0.8113571 0.009251255
vn -0.5844776 -0.8113571 0.009251255
vn 0.90395945 0.4238921 0.056327824
vn 0.90395945 0.42389205 0.056327812
vn 0.9039595 0.42389202 0.056327816
vn 0.016595088 -0.46117038 0.88715637
vn 0.016595088 -0.46117038 0.88715637
vn 0.016595088 -0.46117043 0.88715637
vn -0.49187618 0.8706521 -0.0047755796
vn -0.49187616 0.87065214 -0.0047755796
vn -0.49187618 0.8706521 -0.004775579
vn -0.047311716 -0.13032557 -0.9903418
vn -0.047311716 -0.13032559 -0.9903418
vn -0.047311716 -0.13032559 -0.9903418
vt 0.2747978 0.09880477
vt 0.28483236 0.10822654
vt 0.0022770162 0.108221054
vt 0.28487727 0.05492592
vt 0.28194246 0.063238084
vt 0.002232104 0.063180625
vt 0.83537245 0.2129708
vt 0.84467703 0.22440177
vt 0.56645566 0.2245292
vt 0.82779753 0.013795555
vt 0.82627946 0.021360695
vt 0.5491556 0.021339834
vt 0.5659764 0.7065697
vt 0.5431429 0.6837362
vt 0.5305848 0.47332132
vt 0.5699026 0.4340036
vt 0.5305848 0.47332132
vt 0.3287589 0.46935225
vt 0.5659764 0.7065697
vt 0.29935062 0.4399439
vt 0.3304579 0.6734483
vt 0.29044896 0.71345735
vt 0.5431429 0.6837362
vt 0.29044896 0.71345735
vt 0.5431429 0.6837362
vt 0.28790033 0.43182945
vt 0.2597701 0.46160328
vt 0.030099416 0.45873272
vt 0.005353271 0.43398666
vt 0.04466354 0.67115355
vt 0.0021387334 0.7136784
vt 0.24563284 0.6742662
vt 0.28031993 0.70895326
vt 0.21572879 0.08703017
vt 0.21517691 0.09656352
vt 0.00204464 0.09651637
vt 0.19987486 0.023462355
vt 0.2030357 0.03115052
vt 0.0020424272 0.031225145
vt 0.92869645 0.08805537
vt 0.92468566 0.09651494
vt 0.7119285 0.088193476
vt 0.7844736 0.3985358
vt 0.79641545 0.4129876
vt 0.56686574 0.40499085
vt 0.7095841 0.088671625
vt 0.4370108 0.096422255
vt 0.43397054 0.08814806
vt 0.84938586 0.16748875
vt 0.5666297 0.16979969
vt 0.5758803 0.1583252
vt 0.54640865 0.004452944
vt 0.27737492 0.01159507
vt 0.2758569 0.0040299296
vt 0.845454 0.29413354
vt 0.56665534 0.29662645
vt 0.5730325 0.28442824
vt 0.21572879 0.08703017
vt 0.00204464 0.09651637
vt 0.004944346 0.088751614
vt 0.489116 0.05528015
vt 0.291294 0.063304186
vt 0.28725114 0.054859877
vt 0.78314006 0.32315826
vt 0.56646925 0.32964998
vt 0.5791673 0.3158579
vt 0.21952826 0.0344283
vt 0.0021514366 0.041733682
vt 0.0068432153 0.03346163

g Selection_BLUE
s 1
usemtl Selection_BLUE
f 3/3/3 2/2/2 1/1/1 
f 6/6/6 5/5/5 4/4/4 
f 9/9/9 8/8/8 7/7/7 
f 12/12/12 11/11/11 10/10/10 
f 15/15/15 14/14/14 13/13/13 
f 18/18/18 17/17/17 16/16/16 
f 16/16/16 17/17/17 19/19/19 
f 20/20/20 18/18/18 16/16/16 
f 21/21/21 18/18/18 20/20/20 
f 22/22/22 21/21/21 20/20/20 
f 23/23/23 21/21/21 22/22/22 
f 19/19/19 25/25/25 24/24/24 
f 28/28/28 27/27/27 26/26/26 
f 29/29/29 28/28/28 26/26/26 
f 30/30/30 28/28/28 29/29/29 
f 31/31/31 30/30/30 29/29/29 
f 32/32/32 30/30/30 31/31/31 
f 27/27/27 32/32/32 33/33/33 
f 33/33/33 32/32/32 31/31/31 
f 26/26/26 27/27/27 33/33/33 
f 36/36/36 35/35/35 34/34/34 
f 39/39/39 38/38/38 37/37/37 
f 42/42/42 41/41/41 40/40/40 
f 45/45/45 44/44/44 43/43/43 
f 48/48/48 47/47/47 46/46/46 
f 51/51/51 50/50/50 49/49/49 
f 54/54/54 53/53/53 52/52/52 
f 57/57/57 56/56/56 55/55/55 
f 60/60/60 59/59/59 58/58/58 
f 63/63/63 62/62/62 61/61/61 
f 66/66/66 65/65/65 64/64/64 
f 69/69/69 68/68/68 67/67/67 

