# Created by DisUnity v0.3.4
v -0.08238465 0.058198974 -0.09313531
v -0.09191613 0.029619457 0.10753608
v 0.10555935 3.039837E-8 0.10460897
v -0.08238465 0.058198974 -0.09313531
v -0.057369575 1.8766416 -0.067330696
v -0.09191613 0.029619457 0.10753608
v -0.09191613 0.029619457 0.10753608
v -0.09924397 1.8754857 0.057059787
v 0.10555935 3.039837E-8 0.10460897
v 0.10555935 3.039837E-8 0.10460897
v 0.04878004 1.8578005 0.031136513
v 0.11603342 0.018319195 -0.09285817
v 0.11603342 0.018319195 -0.09285817
v 0.089573495 1.8605485 -0.09256105
v -0.08238465 0.058198974 -0.09313531
v -0.08238465 0.058198974 -0.09313531
v 0.10555935 3.039837E-8 0.10460897
v 0.11603342 0.018319195 -0.09285817
v -0.09191613 0.029619457 0.10753608
v -0.057369575 1.8766416 -0.067330696
v -0.09924397 1.8754857 0.057059787
v 0.10555935 3.039837E-8 0.10460897
v -0.09924397 1.8754857 0.057059787
v 0.04878004 1.8578005 0.031136513
v 0.11603342 0.018319195 -0.09285817
v 0.04878004 1.8578005 0.031136513
v 0.089573495 1.8605485 -0.09256105
v -0.08238465 0.058198974 -0.09313531
v 0.089573495 1.8605485 -0.09256105
v -0.057369575 1.8766416 -0.067330696
v -0.09924397 1.8754857 0.057059787
v -0.057369575 1.8766416 -0.067330696
v 0.04878004 1.8578005 0.031136513
v 0.089573495 1.8605485 -0.09256105
v 0.033569153 1.462098 -1.1470014
v 0.04127281 1.1387119 0.08318726
v 0.040433895 1.9795088 0.11083109
v -0.10801332 1.1205821 0.028382694
v -0.11603183 1.4784375 -1.1732941
v -0.10833 1.905924 0.04180207
v 0.033569153 1.462098 -1.1470014
v -0.11603183 1.4784375 -1.1732941
v -0.10801332 1.1205821 0.028382694
v 0.04127281 1.1387119 0.08318726
v -0.10801332 1.1205821 0.028382694
v -0.10833 1.905924 0.04180207
v 0.040433895 1.9795088 0.11083109
v -0.10833 1.905924 0.04180207
v -0.11603183 1.4784375 -1.1732941
v 0.033569153 1.462098 -1.1470014
v -0.10801332 1.1205821 0.028382694
v 0.04127281 1.1387119 0.08318726
v 0.04127281 1.1387119 0.08318726
v -0.10833 1.905924 0.04180207
v 0.040433895 1.9795088 0.11083109
v 0.040433895 1.9795088 0.11083109
v -0.11603183 1.4784375 -1.1732941
v 0.033569153 1.462098 -1.1470014
vn -0.14885531 -0.977969 -0.14635214
vn -0.14885533 -0.977969 -0.14635216
vn -0.14885531 -0.977969 -0.14635216
vn -0.9988655 0.0143848965 -0.04539532
vn -0.9988655 0.014384898 -0.04539533
vn -0.9988655 0.014384898 -0.045395326
vn 0.018924996 0.027405541 0.99944526
vn 0.018924994 0.027405541 0.99944526
vn 0.018924998 0.027405543 0.99944526
vn 0.9978967 0.032711692 0.055965226
vn 0.9978967 0.032711685 0.055965222
vn 0.9978967 0.032711692 0.055965226
vn 0.0014333099 1.8187136E-4 -0.9999989
vn 0.0014333099 1.8187138E-4 -0.9999989
vn 0.0014333099 1.8187138E-4 -0.9999989
vn -0.19590731 -0.9754195 -0.10088172
vn -0.19590732 -0.9754195 -0.100881726
vn -0.19590731 -0.9754195 -0.10088172
vn -0.94763094 -0.012488579 -0.3191233
vn -0.94763094 -0.01248858 -0.3191233
vn -0.94763094 -0.012488579 -0.3191233
vn 0.17746751 0.044304747 0.98312885
vn 0.1774675 0.044304743 0.98312885
vn 0.17746751 0.044304747 0.98312885
vn 0.9495123 0.013587285 0.31343564
vn 0.9495123 0.013587285 0.31343564
vn 0.9495122 0.013587283 0.31343564
vn -0.16746925 0.016291944 -0.9857427
vn -0.16746925 0.016291944 -0.9857427
vn -0.16746926 0.016291944 -0.9857427
vn 0.12746356 0.9904732 0.052113276
vn 0.12746356 0.9904732 0.052113276
vn 0.12746356 0.9904732 0.05211328
vn 0.11905483 0.990995 0.06127788
vn 0.99998164 0.001193316 -0.005948367
vn 0.99998164 0.001193316 -0.0059483675
vn 0.99998164 0.0011933161 -0.0059483675
vn -0.99997866 -5.146285E-4 0.006519373
vn -0.99997866 -5.1462837E-4 0.0065193726
vn -0.99997866 -5.146285E-4 0.0065193726
vn -0.054505195 -0.9570802 -0.28465176
vn -0.054505195 -0.9570802 -0.28465173
vn -0.054505188 -0.9570802 -0.28465176
vn -0.34284407 -0.01618755 0.93925285
vn -0.34284407 -0.01618755 0.93925285
vn -0.3428441 -0.01618755 0.93925285
vn -0.29935333 0.9006577 -0.31496546
vn -0.29935333 0.9006577 -0.31496546
vn -0.29935333 0.9006577 -0.31496543
vn 0.20664263 -0.9459485 -0.24996044
vn 0.20664267 -0.9459485 -0.24996047
vn 0.20664266 -0.9459485 -0.24996047
vn -0.40830275 -0.030403422 0.9123401
vn -0.40830272 -0.030403418 0.9123401
vn -0.40830275 -0.030403422 0.9123401
vn 0.1656508 0.9117176 -0.37594002
vn 0.16565078 0.9117176 -0.37594002
vn 0.16565078 0.9117176 -0.37594002
vt 0.99166316 0.9115467
vt 0.99781305 0.9114846
vt 0.9974976 0.9175223
vt 0.9071739 0.21811986
vt 0.96284175 0.21890974
vt 0.9062989 0.22426295
vt 0.847688 0.21828085
vt 0.9041953 0.21805662
vt 0.8467813 0.2243262
vt 0.9636334 0.23787254
vt 0.9067162 0.23785466
vt 0.96283615 0.23185408
vt 0.84704375 0.23182619
vt 0.9034401 0.23263621
vt 0.8482646 0.23790038
vt 0.99166316 0.9115467
vt 0.9974976 0.9175223
vt 0.99144477 0.91761696
vt 0.9062989 0.22426295
vt 0.96284175 0.21890974
vt 0.9628062 0.22271776
vt 0.8467813 0.2243262
vt 0.9041953 0.21805662
vt 0.9036541 0.22258812
vt 0.96283615 0.23185408
vt 0.9067162 0.23785466
vt 0.90648377 0.23407412
vt 0.8482646 0.23790038
vt 0.9034401 0.23263621
vt 0.9039328 0.23713458
vt 0.9904466 0.9412756
vt 0.9922946 0.9377078
vt 0.9950462 0.9411826
vt 0.99685806 0.93763065
vt 0.9424242 0.8281291
vt 0.98042744 0.8196431
vt 0.9803116 0.845396
vt 0.95542175 0.69050515
vt 0.993797 0.69129133
vt 0.96141404 0.71379167
vt 0.9503225 0.46359777
vt 0.9495177 0.459018
vt 0.9863045 0.45926344
vt 0.9683601 0.7718322
vt 0.9678051 0.7669641
vt 0.9918497 0.7670957
vt 0.56669754 0.15611452
vt 0.56969947 0.15150267
vt 0.6090837 0.15346807
vt 0.9503225 0.46359777
vt 0.9863045 0.45926344
vt 0.9879823 0.46383357
vt 0.9683601 0.7718322
vt 0.9918497 0.7670957
vt 0.994109 0.7720984
vt 0.941671 0.15992785
vt 0.98411024 0.15835094
vt 0.983199 0.16293812

g SmallFlag_GREEN
s 1
usemtl SmallFlag_GREEN
f 3/3/3 2/2/2 1/1/1 
f 6/6/6 5/5/5 4/4/4 
f 9/9/9 8/8/8 7/7/7 
f 12/12/12 11/11/11 10/10/10 
f 15/15/15 14/14/14 13/13/13 
f 18/18/18 17/17/17 16/16/16 
f 21/21/21 20/20/20 19/19/19 
f 24/24/24 23/23/23 22/22/22 
f 27/27/27 26/26/26 25/25/25 
f 30/30/30 29/29/29 28/28/28 
f 33/33/33 32/32/32 31/31/31 
f 34/34/34 32/32/32 33/33/33 
f 37/37/37 36/36/36 35/35/35 
f 40/40/40 39/39/39 38/38/38 
f 43/43/43 42/42/42 41/41/41 
f 46/46/46 45/45/45 44/44/44 
f 49/49/49 48/48/48 47/47/47 
f 52/52/52 51/51/51 50/50/50 
f 55/55/55 54/54/54 53/53/53 
f 58/58/58 57/57/57 56/56/56 

