# Created by DisUnity v0.3.4
v 0.16806446 2.0595436 0.16806446
v -0.16806446 -1.029098E-17 0.16806446
v -0.16806446 2.0595436 0.16806446
v 0.16806446 -1.029098E-17 0.16806446
v 0.16806446 2.0595436 -0.16806446
v 0.16806446 -1.029098E-17 0.16806446
v 0.16806446 2.0595436 0.16806446
v 0.16806446 1.029098E-17 -0.16806446
v -0.16806446 2.0595436 -0.16806446
v 0.16806446 1.029098E-17 -0.16806446
v 0.16806446 2.0595436 -0.16806446
v -0.16806446 1.029098E-17 -0.16806446
v -0.16806446 2.0595436 0.16806446
v -0.16806446 1.029098E-17 -0.16806446
v -0.16806446 2.0595436 -0.16806446
v -0.16806446 -1.029098E-17 0.16806446
v -0.0 3.6483834 2.2339906E-16
v 1.0236853 0.87656265 1.0236853
v -1.0236853 0.87656265 1.0236853
v -0.0 3.6483834 2.2339906E-16
v 1.0236853 0.87656265 -1.0236853
v 1.0236853 0.87656265 1.0236853
v -0.0 3.6483834 2.2339906E-16
v -1.0236853 0.87656265 -1.0236853
v 1.0236853 0.87656265 -1.0236853
v -0.0 3.6483834 2.2339906E-16
v -1.0236853 0.87656265 1.0236853
v -1.0236853 0.87656265 -1.0236853
v -0.0 4.029436 2.4673178E-16
v 0.68245685 2.135734 0.68245685
v -0.68245685 2.135734 0.68245685
v -0.0 4.029436 2.4673178E-16
v 0.68245685 2.135734 -0.68245685
v 0.68245685 2.135734 0.68245685
v -0.0 4.029436 2.4673178E-16
v -0.68245685 2.135734 -0.68245685
v 0.68245685 2.135734 -0.68245685
v -0.0 4.029436 2.4673178E-16
v -0.68245685 2.135734 0.68245685
v -0.68245685 2.135734 -0.68245685
v -0.0 4.212333 2.5793104E-16
v 0.37065697 3.2708151 0.37065697
v -0.37065697 3.2708151 0.37065697
v -0.0 4.212333 2.5793104E-16
v 0.37065697 3.2708151 -0.37065697
v 0.37065697 3.2708151 0.37065697
v -0.0 4.212333 2.5793104E-16
v -0.37065697 3.2708151 -0.37065697
v 0.37065697 3.2708151 -0.37065697
v -0.0 4.212333 2.5793104E-16
v -0.37065697 3.2708151 0.37065697
v -0.37065697 3.2708151 -0.37065697
vn -0.0 0.0 1.0
vn -0.0 0.0 1.0
vn -0.0 0.0 1.0
vn -0.0 0.0 1.0
vn 1.0 0.0 0.0
vn 1.0 0.0 0.0
vn 1.0 0.0 0.0
vn 1.0 0.0 0.0
vn -0.0 0.0 -1.0
vn -0.0 0.0 -1.0
vn -0.0 0.0 -1.0
vn -0.0 0.0 -1.0
vn -1.0 0.0 0.0
vn -1.0 0.0 0.0
vn -1.0 0.0 0.0
vn -1.0 0.0 0.0
vn -0.0 0.974404 0.22480416
vn -0.0 0.97439927 0.22482467
vn -0.0 0.97439927 0.22482467
vn 0.22480416 0.974404 0.0
vn 0.22482467 0.97439927 0.0
vn 0.22482467 0.97439927 0.0
vn -0.0 0.974404 -0.22480416
vn -0.0 0.97439927 -0.22482467
vn -0.0 0.97439927 -0.22482467
vn -0.22480416 0.974404 0.0
vn -0.22482467 0.97439927 0.0
vn -0.22482467 0.97439927 0.0
vn -0.0 0.9744008 0.22481744
vn -0.0 0.97439677 0.22483513
vn -0.0 0.97439677 0.22483513
vn 0.22481744 0.9744008 0.0
vn 0.22483513 0.97439677 0.0
vn 0.22483513 0.97439677 0.0
vn -0.0 0.9744008 -0.22481744
vn -0.0 0.97439677 -0.22483513
vn -0.0 0.97439677 -0.22483513
vn -0.22481744 0.9744008 0.0
vn -0.22483513 0.97439677 0.0
vn -0.22483513 0.97439677 0.0
vn -0.0 0.9744008 0.22481744
vn -0.0 0.97440696 0.2247916
vn -0.0 0.97440696 0.2247916
vn 0.22481744 0.9744008 0.0
vn 0.2247916 0.97440696 0.0
vn 0.2247916 0.97440696 0.0
vn -0.0 0.9744008 -0.22481744
vn -0.0 0.97440696 -0.2247916
vn -0.0 0.97440696 -0.2247916
vn -0.22481744 0.9744008 0.0
vn -0.2247916 0.97440696 0.0
vn -0.2247916 0.97440696 0.0
vt 0.801536 0.10141337
vt 0.6896749 0.08315694
vt 0.801536 0.08315694
vt 0.6896749 0.10141337
vt 0.11403608 0.07895237
vt 0.0021749139 0.060696006
vt 0.11403608 0.060696006
vt 0.0021749139 0.07895237
vt 0.9157939 0.10141337
vt 0.80393267 0.08315694
vt 0.9157939 0.08315694
vt 0.80393267 0.10141337
vt 0.2282939 0.07895237
vt 0.11643267 0.060695946
vt 0.2282939 0.060695946
vt 0.11643267 0.07895237
vt 0.6617862 0.7109375
vt 0.50129974 0.7665375
vt 0.50129974 0.6553375
vt 0.9879581 0.7109375
vt 0.8274716 0.76653755
vt 0.8274716 0.6553375
vt 0.82487214 0.7109375
vt 0.6643856 0.76653755
vt 0.6643856 0.6553376
vt 0.4987003 0.7109375
vt 0.3382138 0.7665375
vt 0.3382138 0.6553375
vt 0.8085707 0.399414
vt 0.6992417 0.4364807
vt 0.6992417 0.36234736
vt 0.91989887 0.39941406
vt 0.8105699 0.4364807
vt 0.8105699 0.36234736
vt 0.5859146 0.39941406
vt 0.4765854 0.43648076
vt 0.4765854 0.36234736
vt 0.6972426 0.39941406
vt 0.5879137 0.43648076
vt 0.5879137 0.36234742
vt 0.36390436 0.15917969
vt 0.3089471 0.17931134
vt 0.3089471 0.13904798
vt 0.30628723 0.15917969
vt 0.25132996 0.1793114
vt 0.25132996 0.13904798
vt 0.4215216 0.15917969
vt 0.36656433 0.1793114
vt 0.36656433 0.13904786
vt 0.24866998 0.15917969
vt 0.19371271 0.17931134
vt 0.19371271 0.13904798

g Tree_3
s 1
usemtl Tree_3
f 3/3/3 2/2/2 1/1/1 
f 4/4/4 1/1/1 2/2/2 
f 7/7/7 6/6/6 5/5/5 
f 8/8/8 5/5/5 6/6/6 
f 11/11/11 10/10/10 9/9/9 
f 12/12/12 9/9/9 10/10/10 
f 15/15/15 14/14/14 13/13/13 
f 16/16/16 13/13/13 14/14/14 
f 19/19/19 18/18/18 17/17/17 
f 22/22/22 21/21/21 20/20/20 
f 25/25/25 24/24/24 23/23/23 
f 28/28/28 27/27/27 26/26/26 
f 31/31/31 30/30/30 29/29/29 
f 34/34/34 33/33/33 32/32/32 
f 37/37/37 36/36/36 35/35/35 
f 40/40/40 39/39/39 38/38/38 
f 43/43/43 42/42/42 41/41/41 
f 46/46/46 45/45/45 44/44/44 
f 49/49/49 48/48/48 47/47/47 
f 52/52/52 51/51/51 50/50/50 

