# Created by DisUnity v0.3.4
v 0.25062093 -1.4373676E-17 0.23473993
v 0.0366161 1.9697646 -0.022578586
v 0.025308462 2.012382 -0.13088898
v 0.25062093 -1.4373676E-17 0.23473993
v -0.016329821 1.9662029 -0.21093398
v 0.09990725 9.399017E-18 -0.15349759
v 0.09990725 9.399017E-18 -0.15349759
v -0.17183304 1.9564787 -0.13993564
v -0.35083106 1.680953E-17 -0.27452043
v -0.35083106 1.680953E-17 -0.27452043
v -0.120306134 1.9253106 0.029038757
v -0.27227128 -1.6658048E-17 0.27204657
v -0.07090099 1.9705766 0.10904385
v -0.27227128 -1.6658048E-17 0.27204657
v -0.120306134 1.9253106 0.029038757
v -0.07090099 1.9705766 0.10904385
v 0.25062093 -1.4373676E-17 0.23473993
v -0.27227128 -1.6658048E-17 0.27204657
v 0.056452457 1.9674337 0.033450026
v 0.22124435 2.363712 0.27937284
v 0.17608361 2.4294941 0.15181436
v 0.03494023 2.017406 -0.042161293
v 0.03494023 2.017406 -0.042161293
v 0.031171044 2.398695 0.181183
v -0.120306134 1.9253106 0.029038757
v -0.120306134 1.9253106 0.029038757
v 0.08115558 2.3671694 0.362526
v -0.07090099 1.9705766 0.10904385
v -0.07090099 1.9705766 0.10904385
v 0.22124435 2.363712 0.27937284
v 0.056452457 1.9674337 0.033450026
v 0.08115558 2.3671694 0.362526
v 0.025308462 2.012382 -0.13088898
v 0.01290614 2.358357 -0.43139386
v -0.016329821 1.9662029 -0.21093398
v -0.016329821 1.9662029 -0.21093398
v 0.01290614 2.358357 -0.43139386
v -0.11149643 2.3753107 -0.37662917
v -0.13883938 1.982867 -0.036956683
v 0.03828777 2.4061656 -0.34032932
v 0.025308462 2.012382 -0.13088898
v 0.11147684 2.539317 -0.45417514
v 0.060126293 2.7970774 0.6360406
v -0.6473346 2.226306 0.029095951
v -0.6473346 2.226306 0.029095951
v 0.060126293 2.7970774 0.6360406
v -0.34872043 1.9208894 0.8824005
v -0.34872043 1.9208894 0.8824005
v 0.060126293 2.7970774 0.6360406
v 0.59464484 2.0451424 0.9265012
v 0.59464484 2.0451424 0.9265012
v 0.060126293 2.7970774 0.6360406
v 0.8790624 2.4273515 0.10045193
v 0.8790624 2.4273515 0.10045193
v 0.060126293 2.7970774 0.6360406
v 0.11147684 2.539317 -0.45417514
v -0.5036401 2.8583572 0.43277776
v 0.01778757 2.948406 -0.69010043
v 0.5425133 2.8277943 0.38726023
v 0.5425133 2.8277943 0.38726023
v 0.01778757 2.948406 -0.69010043
v 0.8136495 2.2637126 -0.4528229
v 0.8136495 2.2637126 -0.4528229
v 0.01778757 2.948406 -0.69010043
v -0.064932555 1.945654 -0.9265053
v -0.064932555 1.945654 -0.9265053
v 0.01778757 2.948406 -0.69010043
v -0.8790622 2.313165 -0.37917453
v -0.8790622 2.313165 -0.37917453
v 0.01778757 2.948406 -0.69010043
v -0.5036401 2.8583572 0.43277776
v 0.025308462 2.012382 -0.13088898
v 0.0366161 1.9697646 -0.022578586
v 0.03494023 2.017406 -0.042161293
v -0.13883938 1.982867 -0.036956683
v 0.03494023 2.017406 -0.042161293
v -0.120306134 1.9253106 0.029038757
v -0.09683153 2.418213 -0.23651733
v -0.17183304 1.9564787 -0.13993564
v -0.11149643 2.3753107 -0.37662917
v 0.25062093 -1.4373676E-17 0.23473993
v 0.09990725 9.399017E-18 -0.15349759
v -0.27227128 -1.6658048E-17 0.27204657
v -0.35083106 1.680953E-17 -0.27452043
v 0.17608361 2.4294941 0.15181436
v 0.22124435 2.363712 0.27937284
v 0.031171044 2.398695 0.181183
v 0.01290614 2.358357 -0.43139386
v 0.03828777 2.4061656 -0.34032932
v -0.11149643 2.3753107 -0.37662917
v 0.11147684 2.539317 -0.45417514
v -0.6473346 2.226306 0.029095951
v 0.8790624 2.4273515 0.10045193
v 0.59464484 2.0451424 0.9265012
v -0.34872043 1.9208894 0.8824005
v -0.5036401 2.8583572 0.43277776
v 0.5425133 2.8277943 0.38726023
v -0.8790622 2.313165 -0.37917453
v -0.064932555 1.945654 -0.9265053
v 0.8136495 2.2637126 -0.4528229
v 0.0366161 1.9697646 -0.022578586
v 0.25062093 -1.4373676E-17 0.23473993
v 0.056452457 1.9674337 0.033450026
v -0.016329821 1.9662029 -0.21093398
v 0.25062093 -1.4373676E-17 0.23473993
v 0.025308462 2.012382 -0.13088898
v -0.17183304 1.9564787 -0.13993564
v 0.09990725 9.399017E-18 -0.15349759
v -0.016329821 1.9662029 -0.21093398
v -0.120306134 1.9253106 0.029038757
v -0.35083106 1.680953E-17 -0.27452043
v -0.17183304 1.9564787 -0.13993564
v -0.13883938 1.982867 -0.036956683
v 0.25062093 -1.4373676E-17 0.23473993
v -0.07090099 1.9705766 0.10904385
v 0.056452457 1.9674337 0.033450026
v 0.056452457 1.9674337 0.033450026
v 0.03494023 2.017406 -0.042161293
v 0.0366161 1.9697646 -0.022578586
v 0.031171044 2.398695 0.181183
v 0.03494023 2.017406 -0.042161293
v 0.17608361 2.4294941 0.15181436
v 0.08115558 2.3671694 0.362526
v -0.120306134 1.9253106 0.029038757
v 0.031171044 2.398695 0.181183
v 0.01290614 2.358357 -0.43139386
v 0.025308462 2.012382 -0.13088898
v 0.03828777 2.4061656 -0.34032932
v -0.016329821 1.9662029 -0.21093398
v -0.11149643 2.3753107 -0.37662917
v -0.17183304 1.9564787 -0.13993564
v 0.03828777 2.4061656 -0.34032932
v -0.13883938 1.982867 -0.036956683
v -0.09683153 2.418213 -0.23651733
v 0.03494023 2.017406 -0.042161293
v -0.13883938 1.982867 -0.036956683
v 0.025308462 2.012382 -0.13088898
v -0.17183304 1.9564787 -0.13993564
v -0.09683153 2.418213 -0.23651733
v -0.13883938 1.982867 -0.036956683
v 0.031171044 2.398695 0.181183
v 0.22124435 2.363712 0.27937284
v 0.08115558 2.3671694 0.362526
v -0.11149643 2.3753107 -0.37662917
v 0.03828777 2.4061656 -0.34032932
v -0.09683153 2.418213 -0.23651733
vn 0.9929478 0.09944841 -0.06453361
vn 0.9929478 0.0994484 -0.06453362
vn 0.9929478 0.099448405 -0.06453362
vn 0.9312982 0.04449511 -0.3615297
vn 0.9312982 0.04449511 -0.36152974
vn 0.9312983 0.044495117 -0.3615297
vn 0.25907838 0.042672653 -0.9649132
vn 0.25907835 0.042672645 -0.9649132
vn 0.25907838 0.042672653 -0.9649132
vn -0.98529 0.095643885 0.14161885
vn -0.98529 0.095643885 0.14161885
vn -0.98529 0.095643885 0.14161883
vn -0.87462074 0.12788816 0.46763587
vn -0.8745953 0.12805937 0.46763653
vn -0.87461495 0.12788863 0.46764642
vn 0.07096526 0.07502417 0.99465334
vn 0.07096526 0.07502417 0.99465334
vn 0.07096526 0.07502417 0.99465334
vn 0.91001236 -0.13521501 -0.39191118
vn 0.91001236 -0.13521501 -0.39191118
vn 0.91001236 -0.13521501 -0.3919112
vn 0.92169154 -0.14663309 -0.35914245
vn -0.570092 0.41105092 -0.7113594
vn -0.570092 0.411051 -0.7113594
vn -0.570092 0.41105098 -0.71135944
vn -0.8469405 -0.014970119 0.53147686
vn -0.8469405 -0.014970118 0.53147686
vn -0.8469405 -0.014970119 0.53147686
vn 0.3983331 -0.5975196 0.69591755
vn 0.39833316 -0.5975196 0.69591755
vn 0.39833316 -0.5975196 0.69591755
vn 0.3983328 -0.5975195 0.6959177
vn 0.9103637 -0.25227383 -0.3280181
vn 0.9103637 -0.25227383 -0.3280181
vn 0.9103637 -0.2522738 -0.32801807
vn -0.41277453 -0.42277446 -0.8067707
vn -0.41277447 -0.42277446 -0.8067707
vn -0.41277453 -0.42277452 -0.8067707
vn 0.39196697 0.42189968 0.8175343
vn 0.39196697 0.42189968 0.8175343
vn 0.39196697 0.42189965 0.81753445
vn -0.20246713 0.82226634 -0.5318696
vn -0.20241961 0.8223852 -0.5317038
vn -0.20241898 0.8223598 -0.53174317
vn -0.7060824 0.70353127 0.08056826
vn -0.70597863 0.7036361 0.080563374
vn -0.7060907 0.7035158 0.08063205
vn -0.23553815 0.5623924 0.7926137
vn -0.23551075 0.56249344 0.7925502
vn -0.23556446 0.5623028 0.7926696
vn 0.59879756 0.6192057 0.5079623
vn 0.59882915 0.61914915 0.5079941
vn 0.5989123 0.6191303 0.50791913
vn 0.5453048 0.77933383 -0.30867705
vn 0.5451143 0.77949935 -0.3085955
vn 0.54535437 0.77925825 -0.30878025
vn 0.03318924 0.86139435 0.50685126
vn 0.033219013 0.86139345 0.5068507
vn 0.03318924 0.86139435 0.50685126
vn 0.67339754 0.7361933 0.067492336
vn 0.6731781 0.73639166 0.06751687
vn 0.67331713 0.73626184 0.0675463
vn 0.41708308 0.53633827 -0.7337458
vn 0.41697624 0.5365142 -0.7336779
vn 0.41712856 0.5361562 -0.73385304
vn -0.46498737 0.57707524 -0.67139477
vn -0.46489915 0.5773406 -0.67122763
vn -0.465 0.5771493 -0.6713223
vn -0.6137323 0.78086233 0.11656193
vn -0.6139254 0.7807201 0.11649764
vn -0.61393106 0.78071225 0.11652029
vn 0.9941736 -0.009155281 -0.1074017
vn 0.9941736 -0.009155253 -0.107401386
vn 0.99417347 -0.009155253 -0.10740285
vn -0.12498533 0.730087 0.67182714
vn -0.12498533 0.730087 0.67182714
vn -0.12498533 0.730087 0.6718271
vn -0.98405266 0.17046973 0.050798927
vn -0.98405266 0.17046973 0.050798923
vn -0.98405266 0.17046973 0.05079892
vn -0.0 -1.0 0.0
vn -0.0 -1.0 0.0
vn -0.0 -1.0 0.0
vn -0.0 -1.0 0.0
vn -0.08791998 0.8723118 0.4809806
vn -0.087919965 0.8723118 0.4809806
vn -0.087919965 0.8723117 0.48098063
vn -0.07529321 0.89136887 -0.4469816
vn -0.07529321 0.89136887 -0.44698164
vn -0.07529321 0.89136887 -0.4469816
vn 0.13825628 -0.9161298 -0.37628618
vn 0.13825631 -0.9161298 -0.3762862
vn 0.13825631 -0.9161298 -0.3762862
vn 0.1382566 -0.91612977 -0.37628618
vn 0.13825658 -0.91612977 -0.37628618
vn -0.0 -0.8302097 0.55745125
vn -0.0 -0.8302097 0.5574511
vn -0.0 -0.8302097 0.55745125
vn -0.0 -0.83020926 0.55745196
vn -0.0 -0.83020926 0.55745196
vn 0.9417888 0.0590842 -0.33097267
vn 0.9417888 0.0590842 -0.33097267
vn 0.9417888 0.059084192 -0.33097267
vn 0.8837433 0.013958778 -0.4677638
vn 0.8837433 0.013958778 -0.4677638
vn 0.8837433 0.013958778 -0.4677638
vn -0.4121529 -0.050939165 -0.9096896
vn -0.41215292 -0.05093917 -0.9096896
vn -0.41215283 -0.050939165 -0.9096896
vn -0.9509441 0.066214085 0.30219358
vn -0.9509441 0.06621408 0.30219355
vn -0.9509441 0.06621408 0.30219355
vn -0.95424193 0.033460345 0.29715762
vn 0.5081053 0.13714115 0.85030663
vn 0.5081054 0.13714117 0.85030663
vn 0.5081052 0.13714115 0.85030663
vn 0.9360615 -0.1050904 -0.3357749
vn 0.9360615 -0.1050904 -0.33577487
vn 0.9360615 -0.1050904 -0.33577487
vn -0.27150306 0.48444813 -0.83162254
vn -0.2715031 0.48444816 -0.83162254
vn -0.2715031 0.48444816 -0.83162254
vn -0.9339443 0.20467795 0.2930105
vn -0.9339443 0.20467795 0.2930105
vn -0.9339443 0.20467797 0.2930105
vn 0.97045046 -0.13746445 -0.19831653
vn 0.97045046 -0.13746445 -0.19831653
vn 0.97045046 -0.13746445 -0.19831651
vn -0.3548857 -0.42070293 -0.83490425
vn -0.35488567 -0.42070293 -0.83490425
vn -0.35488567 -0.42070293 -0.83490425
vn 0.59984696 0.2848568 0.74768996
vn 0.5998469 0.2848568 0.74768996
vn 0.5998469 0.2848568 0.74768996
vn -0.195811 0.9800439 -0.034237478
vn -0.19581102 0.9800439 -0.034237485
vn -0.19581102 0.9800439 -0.034237485
vn -0.9459957 0.20601755 0.25029805
vn -0.9459957 0.20601752 0.25029802
vn -0.9459957 0.20601754 0.25029802
vn 0.108137846 0.98404783 0.1412663
vn 0.108137846 0.98404783 0.1412663
vn 0.10813785 0.98404783 0.1412663
vn -0.12871736 0.95191705 -0.27800348
vn -0.12871736 0.95191705 -0.27800348
vn -0.12871738 0.95191705 -0.27800348
vt 0.92750144 0.56677055
vt 0.8196182 0.56524885
vt 0.8166393 0.55967283
vt 0.4239911 0.14095616
vt 0.5308885 0.16876876
vt 0.4239911 0.16357589
vt 0.65731764 0.11080629
vt 0.7635809 0.12556553
vt 0.65731764 0.13528746
vt 0.13413997 0.10576248
vt 0.23871046 0.12224972
vt 0.13413997 0.13544846
vt 0.026424289 0.096470654
vt 0.13331294 0.08136988
vt 0.02947545 0.10124737
vt 0.35136604 0.11783087
vt 0.24433708 0.13529384
vt 0.24433708 0.10689372
vt 0.9709458 0.6165595
vt 0.99229157 0.60086894
vt 0.9958511 0.6082151
vt 0.9736396 0.62081075
vt 0.7883928 0.5595714
vt 0.8108047 0.5681604
vt 0.7825736 0.5683582
vt 0.02947545 0.10124737
vt 0.0032510757 0.08302277
vt 0.026424289 0.096470654
vt 0.9710499 0.58916235
vt 0.9976789 0.59833777
vt 0.970837 0.59720504
vt 0.997913 0.58949065
vt 0.5333703 0.1638974
vt 0.551908 0.17935646
vt 0.5308885 0.16876876
vt 0.933151 0.5595888
vt 0.9576309 0.5601282
vt 0.95637727 0.5674615
vt 0.96907604 0.06960571
vt 0.9977206 0.07809806
vt 0.9735029 0.07901251
vt 0.6831536 0.28905094
vt 0.62904835 0.26107538
vt 0.68345165 0.23731625
vt 0.82480204 0.24051666
vt 0.86010283 0.2882458
vt 0.80591273 0.2887802
vt 0.9412709 0.2432133
vt 0.9674362 0.28874552
vt 0.9173294 0.28901327
vt 0.9145683 0.24064028
vt 0.8932593 0.2886566
vt 0.8627755 0.24071276
vt 0.8033091 0.28872168
vt 0.7464956 0.28839743
vt 0.7842189 0.24057531
vt 0.92220485 0.3792783
vt 0.982092 0.4098575
vt 0.9225527 0.4361514
vt 0.95898414 0.8848876
vt 0.99797606 0.937412
vt 0.9395239 0.9383545
vt 0.68561643 0.24105841
vt 0.744071 0.24027628
vt 0.7162275 0.28902066
vt 0.62670094 0.28879917
vt 0.5705646 0.28879482
vt 0.60407853 0.23659152
vt 0.93978643 0.9407891
vt 0.9977137 0.96298814
vt 0.93990856 0.99768734
vt 0.8166393 0.55967283
vt 0.8196182 0.56524885
vt 0.81692517 0.5644913
vt 0.9803989 0.57615936
vt 0.97077286 0.57599413
vt 0.9802097 0.5713016
vt 0.97201836 0.57859254
vt 0.9968221 0.5850127
vt 0.970732 0.58644664
vt 0.35351622 0.106467366
vt 0.37540746 0.11216211
vt 0.35478485 0.13491154
vt 0.38476503 0.13572001
vt 0.9790344 0.5683018
vt 0.9731171 0.56266564
vt 0.9848906 0.5625576
vt 0.970464 0.56099796
vt 0.9692493 0.56662214
vt 0.96302754 0.5607767
vt 0.6293052 0.8563119
vt 0.57756984 0.8561698
vt 0.64537036 0.8070736
vt 0.6035639 0.77650046
vt 0.5616608 0.8068435
vt 0.7616221 0.6479659
vt 0.7047287 0.647218
vt 0.7799144 0.59408826
vt 0.73432636 0.560042
vt 0.68785906 0.5928781
vt 0.8196182 0.56524885
vt 0.92750144 0.56677055
vt 0.82009566 0.56825686
vt 0.5308885 0.16876876
vt 0.4239911 0.14095616
vt 0.5333703 0.1638974
vt 0.80671287 0.029538035
vt 0.91399014 0.030900717
vt 0.8072604 0.03882146
vt 0.23871046 0.12224972
vt 0.13413997 0.10576248
vt 0.24040332 0.113072276
vt 0.24183658 0.11866546
vt 0.15760791 0.017251551
vt 0.2662202 0.0140628815
vt 0.26543295 0.022069931
vt 0.9709458 0.6165595
vt 0.9736396 0.62081075
vt 0.9710679 0.61978626
vt 0.8108047 0.5681604
vt 0.7883928 0.5595714
vt 0.81410587 0.56113946
vt 0.0032510757 0.08302277
vt 0.02947545 0.10124737
vt 0.002429366 0.09315139
vt 0.551908 0.17935646
vt 0.5333703 0.1638974
vt 0.55452454 0.1742469
vt 0.933151 0.5595888
vt 0.95637727 0.5674615
vt 0.9300645 0.5683409
vt 0.9977206 0.07809806
vt 0.96907604 0.06960571
vt 0.99510884 0.069425106
vt 0.98249316 0.5713068
vt 0.9921161 0.5716018
vt 0.98276925 0.5761541
vt 0.9968221 0.5850127
vt 0.97201836 0.57859254
vt 0.998018 0.57936394
vt 0.9789579 0.79762614
vt 0.98881555 0.79147434
vt 0.98881227 0.80032253
vt 0.96302754 0.5607767
vt 0.9692493 0.56662214
vt 0.9602001 0.56812954

g Tree_2
s 1
usemtl Tree_2
f 3/3/3 2/2/2 1/1/1 
f 6/6/6 5/5/5 4/4/4 
f 9/9/9 8/8/8 7/7/7 
f 12/12/12 11/11/11 10/10/10 
f 15/15/15 14/14/14 13/13/13 
f 18/18/18 17/17/17 16/16/16 
f 21/21/21 20/20/20 19/19/19 
f 22/22/22 21/21/21 19/19/19 
f 25/25/25 24/24/24 23/23/23 
f 28/28/28 27/27/27 26/26/26 
f 31/31/31 30/30/30 29/29/29 
f 32/32/32 29/29/29 30/30/30 
f 35/35/35 34/34/34 33/33/33 
f 38/38/38 37/37/37 36/36/36 
f 41/41/41 40/40/40 39/39/39 
f 44/44/44 43/43/43 42/42/42 
f 47/47/47 46/46/46 45/45/45 
f 50/50/50 49/49/49 48/48/48 
f 53/53/53 52/52/52 51/51/51 
f 56/56/56 55/55/55 54/54/54 
f 59/59/59 58/58/58 57/57/57 
f 62/62/62 61/61/61 60/60/60 
f 65/65/65 64/64/64 63/63/63 
f 68/68/68 67/67/67 66/66/66 
f 71/71/71 70/70/70 69/69/69 
f 74/74/74 73/73/73 72/72/72 
f 77/77/77 76/76/76 75/75/75 
f 80/80/80 79/79/79 78/78/78 
f 83/83/83 82/82/82 81/81/81 
f 84/84/84 82/82/82 83/83/83 
f 87/87/87 86/86/86 85/85/85 
f 90/90/90 89/89/89 88/88/88 
f 93/93/93 92/92/92 91/91/91 
f 94/94/94 92/92/92 93/93/93 
f 95/95/95 92/92/92 94/94/94 
f 98/98/98 97/97/97 96/96/96 
f 99/99/99 97/97/97 98/98/98 
f 100/100/100 97/97/97 99/99/99 
f 103/103/103 102/102/102 101/101/101 
f 106/106/106 105/105/105 104/104/104 
f 109/109/109 108/108/108 107/107/107 
f 112/112/112 111/111/111 110/110/110 
f 110/110/110 113/113/113 112/112/112 
f 116/116/116 115/115/115 114/114/114 
f 119/119/119 118/118/118 117/117/117 
f 122/122/122 121/121/121 120/120/120 
f 125/125/125 124/124/124 123/123/123 
f 128/128/128 127/127/127 126/126/126 
f 131/131/131 130/130/130 129/129/129 
f 134/134/134 133/133/133 132/132/132 
f 137/137/137 136/136/136 135/135/135 
f 140/140/140 139/139/139 138/138/138 
f 143/143/143 142/142/142 141/141/141 
f 146/146/146 145/145/145 144/144/144 

