# Created by DisUnity v0.3.4
v -0.1161192 1.1724774 0.06762058
v 0.019121967 1.1724774 0.06762058
v -0.1161192 -4.1405663E-18 0.06762058
v 0.019121967 -4.1405663E-18 0.06762058
v 0.019121967 1.1724774 0.06762058
v 0.019121967 1.1724774 -0.06762058
v 0.019121967 -4.1405663E-18 0.06762058
v 0.019121967 4.1405663E-18 -0.06762058
v 0.019121967 1.1724774 -0.06762058
v -0.1161192 1.1724774 -0.06762058
v 0.019121967 4.1405663E-18 -0.06762058
v -0.1161192 4.1405663E-18 -0.06762058
v -0.1161192 1.1724774 -0.06762058
v -0.1161192 1.1724774 0.06762058
v -0.1161192 4.1405663E-18 -0.06762058
v -0.1161192 -4.1405663E-18 0.06762058
v -0.048498612 2.719714 1.6653446E-16
v -0.32760283 2.5356965 -0.48342258
v 0.5097098 2.5356965 1.5526662E-16
v 0.5097098 2.5356965 1.5526662E-16
v 0.35177806 2.2711506 -0.6932995
v 0.8490519 2.0557942 1.2588109E-16
v 0.5097098 2.5356965 1.5526662E-16
v -0.32760283 2.5356965 -0.48342258
v 0.35177806 2.2711506 -0.6932995
v -0.32760283 2.5356965 -0.48342258
v -0.49727386 2.0557942 -0.77730155
v 0.35177806 2.2711506 -0.6932995
v 0.8490519 2.0557942 1.2588109E-16
v 0.5699477 1.2663684 -0.48342276
v 0.83647597 1.4681712 8.989956E-17
v 0.8490519 2.0557942 1.2588109E-16
v 0.35177806 2.2711506 -0.6932995
v 0.5699477 1.2663684 -0.48342276
v 0.35177806 2.2711506 -0.6932995
v 0.060934603 1.2663684 -0.7773016
v 0.5699477 1.2663684 -0.48342276
v 0.35177806 2.2711506 -0.6932995
v -0.49727386 2.0557942 -0.77730155
v 0.060934603 1.2663684 -0.7773016
v -0.49727386 2.0557942 -0.77730155
v -0.4909859 1.4681712 -0.76641047
v 0.060934603 1.2663684 -0.7773016
v -0.048498612 2.719714 1.6653446E-16
v -0.32760283 2.5356965 0.48342258
v -0.32760283 2.5356965 -0.48342258
v -0.32760283 2.5356965 -0.48342258
v -0.8490519 2.2711506 1.3906785E-16
v -0.49727386 2.0557942 -0.77730155
v -0.32760283 2.5356965 -0.48342258
v -0.32760283 2.5356965 0.48342258
v -0.8490519 2.2711506 1.3906785E-16
v -0.32760283 2.5356965 0.48342258
v -0.49727386 2.0557942 0.77730155
v -0.8490519 2.2711506 1.3906785E-16
v -0.49727386 2.0557942 -0.77730155
v -0.776378 1.2663685 -0.29387888
v -0.4909859 1.4681712 -0.76641047
v -0.49727386 2.0557942 -0.77730155
v -0.8490519 2.2711506 1.3906785E-16
v -0.776378 1.2663685 -0.29387888
v -0.8490519 2.2711506 1.3906785E-16
v -0.776378 1.2663685 0.29387888
v -0.776378 1.2663685 -0.29387888
v -0.8490519 2.2711506 1.3906785E-16
v -0.49727386 2.0557942 0.77730155
v -0.776378 1.2663685 0.29387888
v -0.49727386 2.0557942 0.77730155
v -0.4909859 1.4681712 0.76641047
v -0.776378 1.2663685 0.29387888
v -0.048498612 2.719714 1.6653446E-16
v 0.5097098 2.5356965 1.5526662E-16
v -0.32760283 2.5356965 0.48342258
v -0.32760283 2.5356965 0.48342258
v 0.35177806 2.2711506 0.6932995
v -0.49727386 2.0557942 0.77730155
v -0.32760283 2.5356965 0.48342258
v 0.5097098 2.5356965 1.5526662E-16
v 0.35177806 2.2711506 0.6932995
v 0.5097098 2.5356965 1.5526662E-16
v 0.8490519 2.0557942 1.2588109E-16
v 0.35177806 2.2711506 0.6932995
v -0.49727386 2.0557942 0.77730155
v 0.060934603 1.2663684 0.7773016
v -0.4909859 1.4681712 0.76641047
v -0.49727386 2.0557942 0.77730155
v 0.35177806 2.2711506 0.6932995
v 0.060934603 1.2663684 0.7773016
v 0.35177806 2.2711506 0.6932995
v 0.5699477 1.2663684 0.48342276
v 0.060934603 1.2663684 0.7773016
v 0.35177806 2.2711506 0.6932995
v 0.8490519 2.0557942 1.2588109E-16
v 0.5699477 1.2663684 0.48342276
v 0.8490519 2.0557942 1.2588109E-16
v 0.83647597 1.4681712 8.989956E-17
v 0.5699477 1.2663684 0.48342276
v 0.83647597 1.4681712 8.989956E-17
v 0.5699477 1.2663684 -0.48342276
v 0.5699477 1.2663684 0.48342276
v 0.5699477 1.2663684 0.48342276
v -0.053915728 0.97222894 5.953185E-17
v 0.060934603 1.2663684 0.7773016
v 0.5699477 1.2663684 0.48342276
v 0.5699477 1.2663684 -0.48342276
v -0.053915728 0.97222894 5.953185E-17
v 0.5699477 1.2663684 -0.48342276
v 0.060934603 1.2663684 -0.7773016
v -0.053915728 0.97222894 5.953185E-17
v 0.060934603 1.2663684 0.7773016
v -0.776378 1.2663685 0.29387888
v -0.4909859 1.4681712 0.76641047
v 0.060934603 1.2663684 0.7773016
v -0.053915728 0.97222894 5.953185E-17
v -0.776378 1.2663685 0.29387888
v -0.053915728 0.97222894 5.953185E-17
v -0.776378 1.2663685 -0.29387888
v -0.776378 1.2663685 0.29387888
v -0.053915728 0.97222894 5.953185E-17
v 0.060934603 1.2663684 -0.7773016
v -0.776378 1.2663685 -0.29387888
v 0.060934603 1.2663684 -0.7773016
v -0.4909859 1.4681712 -0.76641047
v -0.776378 1.2663685 -0.29387888
vn -0.0 0.0 1.0
vn -0.0 0.0 1.0
vn -0.0 0.0 1.0
vn -0.0 0.0 1.0
vn 1.0 0.0 0.0
vn 1.0 0.0 0.0
vn 1.0 0.0 0.0
vn 1.0 0.0 0.0
vn -0.0 0.0 -1.0
vn -0.0 0.0 -1.0
vn -0.0 0.0 -1.0
vn -0.0 0.0 -1.0
vn -1.0 0.0 0.0
vn -1.0 0.0 0.0
vn -1.0 0.0 0.0
vn -1.0 0.0 0.0
vn 0.27523157 0.8348591 -0.47671586
vn 0.27523622 0.83486414 -0.47670418
vn 0.27523446 0.83485883 -0.47671458
vn 0.756429 0.5349148 -0.37640572
vn 0.7564266 0.53491306 -0.37641326
vn 0.75643927 0.5349052 -0.37639895
vn 0.22621468 0.8917932 -0.39183134
vn 0.22621547 0.8917963 -0.3918239
vn 0.22621547 0.8917963 -0.3918239
vn -0.05223762 0.534917 -0.84328824
vn -0.05223762 0.534917 -0.84328824
vn -0.05223762 0.534917 -0.84328824
vn 0.87886316 -0.018787483 -0.47670397
vn 0.8788662 -0.018787546 -0.47669822
vn 0.87886316 -0.018787483 -0.47670397
vn 0.8197714 0.059031937 -0.5696402
vn 0.8197786 0.05903245 -0.5696298
vn 0.81975967 0.05903281 -0.569657
vn 0.49869165 -0.07209654 -0.8637758
vn 0.498681 -0.07214443 -0.86377805
vn 0.49870023 -0.07214547 -0.86376685
vn 0.083445214 0.059031535 -0.99476236
vn 0.083445214 0.059031535 -0.99476236
vn 0.08345114 0.059031505 -0.9947619
vn -0.026608013 -0.018787736 -0.99946946
vn -0.026608013 -0.018787736 -0.99946946
vn -0.026602056 -0.018787738 -0.9994696
vn -0.55046326 0.8348593 0.0
vn -0.5504675 0.83485657 0.0
vn -0.5504675 0.83485657 0.0
vn -0.7041881 0.53491217 -0.46689177
vn -0.7041901 0.5349136 -0.46688738
vn -0.704208 0.5349091 -0.4668654
vn -0.4524512 0.8917892 0.0
vn -0.4524512 0.8917892 0.0
vn -0.4524322 0.8917988 0.0
vn -0.7041881 0.53491217 0.46689177
vn -0.704208 0.5349091 0.4668654
vn -0.7041901 0.5349136 0.46688738
vn -0.85227495 -0.018787386 -0.52275664
vn -0.8522578 -0.018787533 -0.5227846
vn -0.85227495 -0.018787386 -0.52275664
vn -0.9032203 0.05903214 -0.42509815
vn -0.9032178 0.059031975 -0.42510343
vn -0.9032157 0.059031833 -0.4251079
vn -0.99739766 -0.07209759 0.0
vn -0.9973942 -0.072145015 0.0
vn -0.9973942 -0.072145015 0.0
vn -0.9032178 0.059031975 0.42510343
vn -0.9032203 0.05903214 0.42509815
vn -0.9032157 0.059031833 0.4251079
vn -0.85227495 -0.018787386 0.52275664
vn -0.85227495 -0.018787386 0.52275664
vn -0.8522578 -0.018787533 0.5227846
vn 0.27523157 0.8348591 0.47671586
vn 0.27523446 0.83485883 0.47671458
vn 0.27523622 0.83486414 0.47670418
vn -0.05223762 0.534917 0.84328824
vn -0.05223762 0.534917 0.84328824
vn -0.05223762 0.534917 0.84328824
vn 0.22621547 0.8917963 0.3918239
vn 0.22621468 0.8917932 0.39183134
vn 0.22621547 0.8917963 0.3918239
vn 0.756429 0.5349148 0.37640572
vn 0.75643927 0.5349052 0.37639895
vn 0.7564266 0.53491306 0.37641326
vn -0.026608013 -0.018787736 0.99946946
vn -0.026602056 -0.018787738 0.9994696
vn -0.026608013 -0.018787736 0.99946946
vn 0.083445214 0.059031535 0.99476236
vn 0.083445214 0.059031535 0.99476236
vn 0.08345114 0.059031505 0.9947619
vn 0.49869165 -0.07209654 0.8637758
vn 0.49870023 -0.07214547 0.86376685
vn 0.498681 -0.07214443 0.86377805
vn 0.8197786 0.05903245 0.5696298
vn 0.8197715 0.059031945 0.5696403
vn 0.81975967 0.05903281 0.569657
vn 0.87886316 -0.018787483 0.47670397
vn 0.87886316 -0.018787483 0.47670397
vn 0.8788662 -0.018787546 0.47669822
vn 0.6036254 -0.79726803 0.0
vn 0.6036406 -0.7972566 0.0
vn 0.6036406 -0.7972566 0.0
vn 0.18672991 -0.92764145 0.3234395
vn 0.18673858 -0.92764 0.32343888
vn 0.18673569 -0.92764056 0.32343918
vn 0.4264571 -0.9045077 0.0
vn 0.4264571 -0.9045077 0.0
vn 0.4264547 -0.90450895 0.0
vn 0.18672991 -0.92764145 -0.3234395
vn 0.18673569 -0.92764056 -0.32343918
vn 0.18673858 -0.92764 -0.32343888
vn -0.30181822 -0.7972669 0.5227534
vn -0.3018345 -0.79726267 0.5227506
vn -0.30181283 -0.79726845 0.52275443
vn -0.21552497 -0.9023212 0.3733168
vn -0.21552625 -0.9023266 0.37330317
vn -0.2155326 -0.90232813 0.37329575
vn -0.3770919 -0.92617583 0.0
vn -0.37708935 -0.92617685 0.0
vn -0.37708935 -0.92617685 0.0
vn -0.21552625 -0.9023266 -0.37330317
vn -0.21552497 -0.9023212 -0.3733168
vn -0.2155326 -0.90232813 -0.37329575
vn -0.30181822 -0.7972669 -0.5227534
vn -0.30181283 -0.79726845 -0.52275443
vn -0.3018345 -0.79726267 -0.5227506
vt 0.7037157 0.014882088
vt 0.7037157 0.022227407
vt 0.6400343 0.014882088
vt 0.6400343 0.022227407
vt 0.90293443 0.0148819685
vt 0.90293443 0.022227407
vt 0.83925307 0.0148819685
vt 0.83925307 0.022227407
vt 0.8365282 0.0148819685
vt 0.8365282 0.022227407
vt 0.7728468 0.0148819685
vt 0.7728468 0.022227407
vt 0.7701218 0.0148819685
vt 0.7701218 0.022227407
vt 0.70644057 0.0148819685
vt 0.70644057 0.022227407
vt 0.14430505 0.17072654
vt 0.11359489 0.179443
vt 0.14698935 0.13891637
vt 0.090236664 0.10387623
vt 0.1314429 0.10401225
vt 0.095384836 0.13538158
vt 0.14698935 0.13891637
vt 0.11359489 0.179443
vt 0.10594028 0.13911355
vt 0.9058385 0.14773285
vt 0.9019294 0.17941582
vt 0.8646692 0.14948404
vt 0.91266614 0.18494356
vt 0.879377 0.22555673
vt 0.8819787 0.19373977
vt 0.91266614 0.18494356
vt 0.9360526 0.2261895
vt 0.879377 0.22555673
vt 0.8618305 0.16357422
vt 0.8071147 0.17953587
vt 0.8071147 0.14761263
vt 0.75749683 0.18580031
vt 0.73235273 0.22644526
vt 0.7005111 0.1846875
vt 0.73235273 0.22644526
vt 0.7021246 0.21647626
vt 0.7005111 0.1846875
vt 0.10035968 0.17072654
vt 0.06964946 0.179443
vt 0.10304397 0.13891637
vt 0.0023460388 0.10387623
vt 0.04355228 0.10401213
vt 0.0074943304 0.13538158
vt 0.10304397 0.13891637
vt 0.06964946 0.179443
vt 0.06199503 0.13911355
vt 0.9937292 0.14773273
vt 0.98982006 0.17941558
vt 0.9525599 0.14948404
vt 0.9722365 0.18494344
vt 0.9389473 0.22555667
vt 0.94154906 0.1937396
vt 0.9722365 0.18494344
vt 0.995623 0.22618932
vt 0.9389473 0.22555667
vt 0.6694478 0.16357422
vt 0.6147319 0.17953587
vt 0.6147319 0.14761269
vt 0.87663734 0.18580037
vt 0.85149336 0.22644526
vt 0.8196517 0.1846875
vt 0.85149336 0.22644526
vt 0.8212651 0.21647614
vt 0.8196517 0.1846875
vt 0.18825048 0.17072642
vt 0.15754026 0.179443
vt 0.1909346 0.13891637
vt 0.04629141 0.10387623
vt 0.08749771 0.10401213
vt 0.051439583 0.13538158
vt 0.1909346 0.13891637
vt 0.15754026 0.179443
vt 0.14988571 0.13911355
vt 0.94978386 0.14773262
vt 0.94587475 0.17941558
vt 0.90861464 0.14948392
vt 0.035713077 0.13806844
vt 0.002423942 0.17868173
vt 0.005025625 0.14686465
vt 0.035713077 0.13806844
vt 0.059099495 0.17931437
vt 0.002423942 0.17868173
vt 0.6118305 0.16357422
vt 0.5571147 0.1795358
vt 0.5571147 0.14761263
vt 0.817067 0.18580043
vt 0.7919231 0.22644538
vt 0.76008147 0.18468755
vt 0.7919231 0.22644538
vt 0.7616949 0.21647638
vt 0.76008147 0.18468755
vt 0.6497433 0.21551919
vt 0.61978996 0.22655952
vt 0.64998615 0.18359673
vt 0.8045912 0.17953587
vt 0.7618151 0.16331935
vt 0.8045912 0.14761257
vt 0.64998615 0.18359673
vt 0.61978996 0.22655952
vt 0.6048967 0.18399894
vt 0.7147474 0.14761257
vt 0.7147474 0.17953587
vt 0.6719713 0.16382909
vt 0.5722095 0.22655952
vt 0.6024056 0.18359673
vt 0.6021629 0.21551907
vt 0.5722095 0.22655952
vt 0.5577507 0.18399262
vt 0.6024056 0.18359673
vt 0.71709776 0.16357422
vt 0.75946474 0.14761257
vt 0.75946474 0.17953587
vt 0.6525094 0.18397468
vt 0.6980765 0.18359679
vt 0.66788036 0.22655952
vt 0.6980765 0.18359679
vt 0.6975304 0.21530598
vt 0.66788036 0.22655952

g Tree_6
s 1
usemtl Tree_6
f 3/3/3 2/2/2 1/1/1 
f 3/3/3 4/4/4 2/2/2 
f 7/7/7 6/6/6 5/5/5 
f 7/7/7 8/8/8 6/6/6 
f 11/11/11 10/10/10 9/9/9 
f 11/11/11 12/12/12 10/10/10 
f 15/15/15 14/14/14 13/13/13 
f 15/15/15 16/16/16 14/14/14 
f 19/19/19 18/18/18 17/17/17 
f 22/22/22 21/21/21 20/20/20 
f 25/25/25 24/24/24 23/23/23 
f 28/28/28 27/27/27 26/26/26 
f 31/31/31 30/30/30 29/29/29 
f 34/34/34 33/33/33 32/32/32 
f 37/37/37 36/36/36 35/35/35 
f 40/40/40 39/39/39 38/38/38 
f 43/43/43 42/42/42 41/41/41 
f 46/46/46 45/45/45 44/44/44 
f 49/49/49 48/48/48 47/47/47 
f 52/52/52 51/51/51 50/50/50 
f 55/55/55 54/54/54 53/53/53 
f 58/58/58 57/57/57 56/56/56 
f 61/61/61 60/60/60 59/59/59 
f 64/64/64 63/63/63 62/62/62 
f 67/67/67 66/66/66 65/65/65 
f 70/70/70 69/69/69 68/68/68 
f 73/73/73 72/72/72 71/71/71 
f 76/76/76 75/75/75 74/74/74 
f 79/79/79 78/78/78 77/77/77 
f 82/82/82 81/81/81 80/80/80 
f 85/85/85 84/84/84 83/83/83 
f 88/88/88 87/87/87 86/86/86 
f 91/91/91 90/90/90 89/89/89 
f 94/94/94 93/93/93 92/92/92 
f 97/97/97 96/96/96 95/95/95 
f 100/100/100 99/99/99 98/98/98 
f 103/103/103 102/102/102 101/101/101 
f 106/106/106 105/105/105 104/104/104 
f 109/109/109 108/108/108 107/107/107 
f 112/112/112 111/111/111 110/110/110 
f 115/115/115 114/114/114 113/113/113 
f 118/118/118 117/117/117 116/116/116 
f 121/121/121 120/120/120 119/119/119 
f 124/124/124 123/123/123 122/122/122 

