# Created by DisUnity v0.3.4
v -0.40702972 2.5381615 -0.06855669
v -0.110962465 2.5405834 -0.16091049
v -0.07205593 2.5399683 -0.033357948
v -0.38297775 2.5365958 -0.23935874
v -0.06971629 6.3963235E-8 0.14353062
v -0.4153839 2.1246705 0.027747752
v -0.07003201 2.1347103 0.032748062
v -0.41558632 6.3963235E-8 0.14353062
v -0.0694088 0.0019653267 -0.37593785
v -0.07003201 2.1347103 0.032748062
v -0.10310146 2.1320646 -0.279817
v -0.110962465 2.5405834 -0.16091049
v -0.4158938 0.0019653267 -0.37593785
v -0.10310146 2.1320646 -0.279817
v -0.380909 2.154148 -0.28903773
v -0.0694088 0.0019653267 -0.37593785
v -0.41558632 6.3963235E-8 0.14353062
v -0.380909 2.154148 -0.28903773
v -0.4153839 2.1246705 0.027747752
v -0.40702972 2.5381615 -0.06855669
v -0.38297775 2.5365958 -0.23935874
v -0.5370617 3.74352 1.0651551
v -0.110962465 2.5405834 -0.16091049
v -0.07003201 2.1347103 0.032748062
v -0.07205593 2.5399683 -0.033357948
v -0.07205593 2.5399683 -0.033357948
v -0.5370617 3.74352 1.0651551
v -0.40702972 2.5381615 -0.06855669
v -0.4153839 2.1246705 0.027747752
v -0.4714788 3.5607197 1.4749794
v -0.07003201 2.1347103 0.032748062
v -0.07003201 2.1347103 0.032748062
v -0.3378042 3.7095153 1.1862723
v -0.07205593 2.5399683 -0.033357948
v -0.38297775 2.5365958 -0.23935874
v 0.21043801 3.3365648 -0.88448066
v -0.110962465 2.5405834 -0.16091049
v 0.21043801 3.3365648 -0.88448066
v -0.10310146 2.1320646 -0.279817
v -0.110962465 2.5405834 -0.16091049
v -0.10310146 2.1320646 -0.279817
v 0.14301115 2.9362168 -1.3174577
v -0.380909 2.154148 -0.28903773
v -0.380909 2.154148 -0.28903773
v -0.013183064 3.3427808 -1.0881969
v -0.38297775 2.5365958 -0.23935874
v -2.5880842 3.309704 -0.9384907
v 0.06879601 4.9566684 -0.4005369
v -1.9457821 3.6154559 1.676553
v -0.5262137 4.5546684 1.9406885
v -0.5262137 4.5546684 1.9406885
v 0.06879601 4.9566684 -0.4005369
v 0.64230174 3.4624407 2.4521122
v 0.64230174 3.4624407 2.4521122
v 2.5880816 3.003675 0.61262774
v 2.5880818 3.0036747 0.61262774
v 2.5880818 3.0036747 0.61262774
v 1.6996804 3.4771466 -1.7923872
v 1.4818006 2.6979234 -1.6662891
v 1.4818006 2.6979234 -1.6662891
v -0.5448371 3.622628 -2.4521134
v -1.1062828 2.8509383 -2.4418483
v -1.1062828 2.8509383 -2.4418483
v -0.5448371 3.622628 -2.4521134
v -2.5880842 3.309704 -0.9384907
v -2.5880842 3.309704 -0.9384907
v -0.5448371 3.622628 -2.4521134
v 0.06879601 4.9566684 -0.4005369
v -0.5448371 3.622628 -2.4521134
v 1.6996804 3.4771466 -1.7923872
v 0.06879601 4.9566684 -0.4005369
v 1.6996804 3.4771466 -1.7923872
v 2.5880816 3.003675 0.61262774
v 0.06879601 4.9566684 -0.4005369
v -0.5262137 4.5546684 1.9406885
v 0.64230174 3.4624407 2.4521122
v -1.9457821 3.6154559 1.676553
v -2.5880842 3.309704 -0.9384907
v -1.9457821 3.6154559 1.676553
v -1.1062828 2.8509383 -2.4418483
v -0.07003201 2.1347103 0.032748062
v -0.0694088 0.0019653267 -0.37593785
v -0.06971629 6.3963235E-8 0.14353062
v -0.380909 2.154148 -0.28903773
v -0.41558632 6.3963235E-8 0.14353062
v -0.4158938 0.0019653267 -0.37593785
v -0.5370617 3.74352 1.0651551
v -0.07205593 2.5399683 -0.033357948
v -0.3378042 3.7095153 1.1862723
v -0.4153839 2.1246705 0.027747752
v -0.5370617 3.74352 1.0651551
v -0.63090926 3.566013 1.4027101
v -0.4714788 3.5607197 1.4749794
v -0.4153839 2.1246705 0.027747752
v -0.63090926 3.566013 1.4027101
v -0.3378042 3.7095153 1.1862723
v -0.07003201 2.1347103 0.032748062
v -0.4714788 3.5607197 1.4749794
v 0.21043801 3.3365648 -0.88448066
v -0.38297775 2.5365958 -0.23935874
v -0.013183064 3.3427808 -1.0881969
v -0.10310146 2.1320646 -0.279817
v 0.21043801 3.3365648 -0.88448066
v 0.35290453 2.944131 -1.1231903
v 0.14301115 2.9362168 -1.3174577
v -0.10310146 2.1320646 -0.279817
v 0.35290453 2.944131 -1.1231903
v -0.013183064 3.3427808 -1.0881969
v -0.380909 2.154148 -0.28903773
v 0.14301115 2.9362168 -1.3174577
v 2.5880816 3.003675 0.61262774
v 0.64230174 3.4624407 2.4521122
v 0.06879601 4.9566684 -0.4005369
v 1.6996804 3.4771466 -1.7923872
v 2.5880818 3.0036747 0.61262774
v 2.5880816 3.003675 0.61262774
v -0.5448371 3.622628 -2.4521134
v 1.4818006 2.6979234 -1.6662891
v 1.6996804 3.4771466 -1.7923872
v -1.1062828 2.8509383 -2.4418483
v 2.5880818 3.0036747 0.61262774
v 1.4818006 2.6979234 -1.6662891
v -1.9457821 3.6154559 1.676553
v 2.5880818 3.0036747 0.61262774
v 0.64230174 3.4624407 2.4521122
vn -0.0060954606 0.9999591 0.006681395
vn -0.0060954615 0.9999591 0.006681395
vn -0.0060954606 0.9999591 0.006681395
vn -0.011545335 0.99987507 -0.010791977
vn -0.015963987 0.05181713 0.99852896
vn -0.015963985 0.051817127 0.99852896
vn -0.015963985 0.051817127 0.99852896
vn -0.0 0.054413777 0.9985185
vn 0.99422294 0.020480517 -0.10536237
vn 0.99422294 0.02048052 -0.10536239
vn 0.99422294 0.020480517 -0.10536237
vn 0.9931706 0.049818724 -0.10549938
vn 0.03630122 0.039729048 -0.99855083
vn 0.03630122 0.03972905 -0.99855083
vn 0.03630122 0.03972905 -0.99855083
vn -0.0 0.045079187 -0.99898344
vn -0.99405503 -0.0058300956 -0.108722836
vn -0.99405503 -0.0058300965 -0.108722836
vn -0.99405503 -0.0058300965 -0.108722836
vn -0.9901333 0.012770738 -0.13954543
vn -0.9901333 0.0127707375 -0.13954543
vn -0.9940826 -0.0051864493 -0.10850287
vn 0.9555594 -0.042805992 -0.2916746
vn 0.9555594 -0.042805996 -0.2916746
vn 0.9555594 -0.042805992 -0.2916746
vn 0.07222454 0.6874603 -0.72262156
vn 0.07222454 0.6874603 -0.7226216
vn 0.07222454 0.6874603 -0.72262156
vn 0.010428491 -0.7096032 0.70452446
vn 0.010428492 -0.7096032 0.70452446
vn 0.010428492 -0.7096032 0.70452446
vn 0.98285747 0.03445285 0.18111914
vn 0.98285747 0.034452856 0.18111916
vn 0.98285747 0.034452856 0.18111916
vn -0.20669627 0.7025075 0.6809992
vn -0.20669627 0.7025075 0.6809992
vn -0.20669627 0.70250756 0.6809992
vn 0.9402229 -0.078372784 0.3314189
vn 0.9402229 -0.07837278 0.33141887
vn 0.9402229 -0.07837278 0.33141887
vn -0.041873787 -0.7848957 -0.61821145
vn -0.04187378 -0.7848956 -0.6182114
vn -0.04187378 -0.7848956 -0.6182114
vn -0.9300672 0.042373527 -0.3649376
vn -0.9300672 0.04237353 -0.36493766
vn -0.9300672 0.04237353 -0.36493766
vn -0.5311929 0.8466662 0.031471036
vn -0.53125286 0.8466287 0.031469643
vn -0.5312614 0.8466233 0.03146944
vn -0.55210364 0.83377063 0.0028612583
vn 0.58738846 0.7595019 0.27952033
vn 0.587365 0.7594715 0.27965218
vn 0.5874041 0.7594912 0.27951643
vn 0.5913637 0.645124 0.48384303
vn 0.5913637 0.645124 0.48384297
vn 0.5913637 0.645124 0.48384303
vn 0.87201065 -0.3056897 -0.38229737
vn 0.87201065 -0.30568966 -0.38229737
vn 0.87201065 -0.30568966 -0.3822973
vn 0.2694112 -0.20851748 -0.94017977
vn 0.2694112 -0.20851748 -0.94017977
vn 0.26941124 -0.20851749 -0.94017977
vn -0.58200985 0.41388214 -0.6999758
vn -0.58185357 0.41408038 -0.6999885
vn -0.58192027 0.41407695 -0.6999351
vn -0.42219242 0.81253207 -0.40192682
vn -0.42214856 0.8124935 -0.40205076
vn -0.42222115 0.81247276 -0.40201667
vn 0.22066392 0.7862358 -0.5771833
vn 0.22067446 0.7861885 -0.5772439
vn 0.22064345 0.7862055 -0.5772326
vn 0.630982 0.77156043 -0.08097093
vn 0.6307669 0.77172154 -0.08111087
vn 0.63095903 0.77156156 -0.081137955
vn -0.27572808 0.14934377 0.94956326
vn -0.27571532 0.14973125 0.949506
vn -0.27571532 0.14973125 0.949506
vn -0.1493944 -0.97718793 0.15094712
vn -0.14939438 -0.97718793 0.15094712
vn -0.1493944 -0.97718793 0.15094712
vn 0.9999999 1.7865092E-4 5.92607E-4
vn 0.9999999 1.7865094E-4 5.926071E-4
vn 0.9999999 1.7865091E-4 5.926071E-4
vn -0.99986815 0.016226975 6.532018E-4
vn -0.99986815 0.016226977 6.5320183E-4
vn -0.99986815 0.016226977 6.532018E-4
vn 0.45859963 0.6891995 -0.56097275
vn 0.45859966 0.6891995 -0.56097275
vn 0.45859966 0.6891995 -0.56097275
vn -0.9702129 0.07474512 -0.23043452
vn -0.9702129 0.07474512 -0.23043452
vn -0.9702129 0.07474512 -0.23043455
vn -0.32194108 -0.6782612 0.6605419
vn -0.32194108 -0.6782612 0.6605419
vn -0.32194108 -0.6782612 0.6605419
vn 0.92258525 -0.11326381 0.36879253
vn 0.92258525 -0.11326381 0.36879253
vn 0.92258525 -0.113263816 0.36879253
vn -0.44273096 0.7385074 0.5085234
vn -0.44273093 0.73850745 0.5085234
vn -0.442731 0.7385074 0.5085234
vn 0.8718226 0.018770551 0.48946193
vn 0.8718226 0.018770551 0.489462
vn 0.8718226 0.018770551 0.48946193
vn 0.46430668 -0.7499888 -0.47110093
vn 0.46430668 -0.7499888 -0.471101
vn 0.46430668 -0.74998885 -0.47110093
vn -0.87060523 -0.059047576 -0.48842588
vn -0.87060523 -0.059047576 -0.48842588
vn -0.87060523 -0.059047576 -0.48842588
vn 0.49535382 0.8064712 0.3228449
vn 0.49535382 0.80647117 0.32284492
vn 0.49535382 0.8064712 0.32284492
vn 0.65399855 0.7474269 -0.11678546
vn 0.65399855 0.7474269 -0.11678546
vn 0.65399855 0.7474269 -0.11678546
vn 0.26131958 -0.22496869 -0.93867
vn 0.26131958 -0.22496866 -0.93866986
vn 0.26131958 -0.22496867 -0.93866986
vn -0.113443986 -0.9759763 0.18601239
vn -0.11344398 -0.9759763 0.18601239
vn -0.11344398 -0.9759763 0.18601242
vn -0.10012734 -0.9851082 0.13977203
vn -0.100127324 -0.9851082 0.13977201
vn -0.10012734 -0.9851082 0.13977203
vt 0.98808134 0.8563143
vt 0.9812411 0.84092104
vt 0.9878783 0.83802164
vt 0.97871566 0.8560885
vt 0.3692742 0.101189494
vt 0.48467267 0.08241522
vt 0.48521796 0.10117245
vt 0.3692742 0.082404256
vt 0.33219612 0.658955
vt 0.21969926 0.6943867
vt 0.21788073 0.6775073
vt 0.19658732 0.68648577
vt 0.25014734 0.1012063
vt 0.36584073 0.08421743
vt 0.3670401 0.099306166
vt 0.25014734 0.08238745
vt 0.21024236 0.29110396
vt 0.108115494 0.3528369
vt 0.103794366 0.33610582
vt 0.084435135 0.34863377
vt 0.08765721 0.35733354
vt 0.0019817352 0.31287074
vt 0.19658732 0.68648577
vt 0.21969926 0.6943867
vt 0.19742095 0.6933633
vt 0.3646332 0.060833275
vt 0.45665574 0.06246698
vt 0.36799812 0.07881516
vt 0.24586809 0.10112178
vt 0.13582516 0.0883944
vt 0.2479639 0.08247197
vt 0.21969926 0.6943867
vt 0.14197731 0.7665012
vt 0.19742095 0.6933633
vt 0.8716198 0.07699859
vt 0.8085892 0.063525915
vt 0.86954117 0.061761975
vt 0.1491037 0.6524441
vt 0.21788073 0.6775073
vt 0.19658732 0.68648577
vt 0.65058374 0.043453336
vt 0.7223731 0.053884506
vt 0.6467675 0.058109224
vt 0.38673234 0.11329752
vt 0.4638536 0.13572747
vt 0.39731574 0.13137418
vt 0.44172806 0.8615622
vt 0.613936 0.8664323
vt 0.49986136 0.9967898
vt 0.59337324 0.9978128
vt 0.9084579 0.86563236
vt 0.93718594 0.99549985
vt 0.81725883 0.8644281
vt 0.81725883 0.8644281
vt 0.7561735 0.9978766
vt 0.7561734 0.9978766
vt 0.14032114 0.19390166
vt 0.0024795532 0.22633934
vt 0.0022568703 0.18186373
vt 0.2728657 0.22369552
vt 0.38645947 0.18203986
vt 0.41365767 0.22616321
vt 0.4452421 0.22608358
vt 0.4162765 0.18309617
vt 0.55540323 0.18571162
vt 0.72441804 0.8616556
vt 0.7535678 0.9977194
vt 0.61654943 0.99598235
vt 0.13931331 0.6507812
vt 0.08561197 0.766211
vt 0.0022882372 0.651862
vt 0.4393938 0.8584389
vt 0.41544765 0.9980063
vt 0.2979109 0.8594863
vt 0.3884166 0.28864837
vt 0.3226735 0.23185933
vt 0.4634593 0.23465294
vt 0.29565275 0.8730235
vt 0.21956128 0.9979246
vt 0.24353947 0.77090245
vt 0.21969926 0.6943867
vt 0.33219612 0.658955
vt 0.33556187 0.6869679
vt 0.108115494 0.3528369
vt 0.21024236 0.29110396
vt 0.21969798 0.31768668
vt 0.49471742 0.025829911
vt 0.58671147 0.028643489
vt 0.49434322 0.038623214
vt 0.103794366 0.33610582
vt 0.0019817352 0.31287074
vt 0.004843384 0.29235512
vt 0.13582516 0.0883944
vt 0.24586809 0.10112178
vt 0.13715518 0.09730178
vt 0.46512568 0.060786247
vt 0.5712443 0.07462728
vt 0.45902908 0.07886219
vt 0.8085892 0.063525915
vt 0.8716198 0.07699859
vt 0.805138 0.078863025
vt 0.7657143 0.11598027
vt 0.840731 0.11140394
vt 0.83105564 0.13566637
vt 0.92222494 0.36241424
vt 0.99476725 0.36276555
vt 0.92799276 0.37684357
vt 0.4638536 0.13572747
vt 0.38673234 0.11329752
vt 0.46223366 0.10938972
vt 0.7561735 0.9978766
vt 0.81725883 0.8644281
vt 0.93718594 0.99549985
vt 0.4393938 0.8584389
vt 0.41544768 0.9980063
vt 0.41544765 0.9980063
vt 0.2701928 0.1837157
vt 0.14910561 0.22612166
vt 0.14289308 0.18208146
vt 0.24353947 0.77090245
vt 0.0021988228 0.8685725
vt 0.09681248 0.7686769
vt 0.21956128 0.9979246
vt 0.0021988228 0.8685725
vt 0.07283426 0.9956991

g Tree_4
s 1
usemtl Tree_4
f 3/3/3 2/2/2 1/1/1 
f 4/4/4 1/1/1 2/2/2 
f 7/7/7 6/6/6 5/5/5 
f 8/8/8 5/5/5 6/6/6 
f 11/11/11 10/10/10 9/9/9 
f 11/11/11 12/12/12 10/10/10 
f 15/15/15 14/14/14 13/13/13 
f 16/16/16 13/13/13 14/14/14 
f 19/19/19 18/18/18 17/17/17 
f 19/19/19 20/20/20 18/18/18 
f 21/21/21 18/18/18 20/20/20 
f 20/20/20 19/19/19 22/22/22 
f 25/25/25 24/24/24 23/23/23 
f 28/28/28 27/27/27 26/26/26 
f 31/31/31 30/30/30 29/29/29 
f 34/34/34 33/33/33 32/32/32 
f 37/37/37 36/36/36 35/35/35 
f 40/40/40 39/39/39 38/38/38 
f 43/43/43 42/42/42 41/41/41 
f 46/46/46 45/45/45 44/44/44 
f 49/49/49 48/48/48 47/47/47 
f 48/48/48 49/49/49 50/50/50 
f 53/53/53 52/52/52 51/51/51 
f 56/56/56 55/55/55 54/54/54 
f 59/59/59 58/58/58 57/57/57 
f 62/62/62 61/61/61 60/60/60 
f 65/65/65 64/64/64 63/63/63 
f 68/68/68 67/67/67 66/66/66 
f 71/71/71 70/70/70 69/69/69 
f 74/74/74 73/73/73 72/72/72 
f 77/77/77 76/76/76 75/75/75 
f 80/80/80 79/79/79 78/78/78 
f 83/83/83 82/82/82 81/81/81 
f 86/86/86 85/85/85 84/84/84 
f 89/89/89 88/88/88 87/87/87 
f 92/92/92 91/91/91 90/90/90 
f 95/95/95 94/94/94 93/93/93 
f 98/98/98 97/97/97 96/96/96 
f 101/101/101 100/100/100 99/99/99 
f 104/104/104 103/103/103 102/102/102 
f 107/107/107 106/106/106 105/105/105 
f 110/110/110 109/109/109 108/108/108 
f 113/113/113 112/112/112 111/111/111 
f 116/116/116 115/115/115 114/114/114 
f 119/119/119 118/118/118 117/117/117 
f 122/122/122 121/121/121 120/120/120 
f 124/124/124 123/123/123 120/120/120 
f 125/125/125 123/123/123 124/124/124 

