# Created by DisUnity v0.3.4
v -0.21936914 2.2150075 0.12774669
v 0.036124215 2.2150075 0.12774669
v -0.21936914 -7.8222285E-18 0.12774669
v 0.036124215 -7.8222285E-18 0.12774669
v 0.036124215 2.2150075 0.12774669
v 0.036124215 2.2150075 -0.12774669
v 0.036124215 -7.8222285E-18 0.12774669
v 0.036124215 7.8222285E-18 -0.12774669
v 0.036124215 2.2150075 -0.12774669
v -0.21936914 2.2150075 -0.12774669
v 0.036124215 7.8222285E-18 -0.12774669
v -0.21936914 7.8222285E-18 -0.12774669
v -0.21936914 2.2150075 -0.12774669
v -0.21936914 2.2150075 0.12774669
v -0.21936914 7.8222285E-18 -0.12774669
v -0.21936914 -7.8222285E-18 0.12774669
v -0.091622464 5.137999 3.146117E-16
v -0.61889744 4.7903585 -0.9132669
v 0.96292746 4.7903585 2.9332486E-16
v 0.96292746 4.7903585 2.9332486E-16
v 0.66456777 4.2905865 -1.3097597
v 1.604002 3.883742 2.3781061E-16
v 0.96292746 4.7903585 2.9332486E-16
v -0.61889744 4.7903585 -0.9132669
v 0.66456777 4.2905865 -1.3097597
v -0.61889744 4.7903585 -0.9132669
v -0.9394347 3.883742 -1.4684538
v 0.66456777 4.2905865 -1.3097597
v 1.604002 3.883742 2.3781061E-16
v 1.076727 2.3923836 -0.91326714
v 1.580244 2.773623 1.6983544E-16
v 1.604002 3.883742 2.3781061E-16
v 0.66456777 4.2905865 -1.3097597
v 1.076727 2.3923836 -0.91326714
v 0.66456777 4.2905865 -1.3097597
v 0.115115345 2.3923836 -1.4684539
v 1.076727 2.3923836 -0.91326714
v 0.66456777 4.2905865 -1.3097597
v -0.9394347 3.883742 -1.4684538
v 0.115115345 2.3923836 -1.4684539
v -0.9394347 3.883742 -1.4684538
v -0.9275557 2.773623 -1.4478787
v 0.115115345 2.3923836 -1.4684539
v -0.091622464 5.137999 3.146117E-16
v -0.61889744 4.7903585 0.9132669
v -0.61889744 4.7903585 -0.9132669
v -0.61889744 4.7903585 -0.9132669
v -1.6040028 4.2905865 2.6272265E-16
v -0.9394347 3.883742 -1.4684538
v -0.61889744 4.7903585 -0.9132669
v -0.61889744 4.7903585 0.9132669
v -1.6040028 4.2905865 2.6272265E-16
v -0.61889744 4.7903585 0.9132669
v -0.9394347 3.883742 1.4684538
v -1.6040028 4.2905865 2.6272265E-16
v -0.9394347 3.883742 -1.4684538
v -1.4667095 2.3923838 -0.5551868
v -0.9275557 2.773623 -1.4478787
v -0.9394347 3.883742 -1.4684538
v -1.6040028 4.2905865 2.6272265E-16
v -1.4667095 2.3923838 -0.5551868
v -1.6040028 4.2905865 2.6272265E-16
v -1.4667095 2.3923838 0.5551868
v -1.4667095 2.3923838 -0.5551868
v -1.6040028 4.2905865 2.6272265E-16
v -0.9394347 3.883742 1.4684538
v -1.4667095 2.3923838 0.5551868
v -0.9394347 3.883742 1.4684538
v -0.9275557 2.773623 1.4478787
v -1.4667095 2.3923838 0.5551868
v -0.091622464 5.137999 3.146117E-16
v 0.96292746 4.7903585 2.9332486E-16
v -0.61889744 4.7903585 0.9132669
v -0.61889744 4.7903585 0.9132669
v 0.66456777 4.2905865 1.3097597
v -0.9394347 3.883742 1.4684538
v -0.61889744 4.7903585 0.9132669
v 0.96292746 4.7903585 2.9332486E-16
v 0.66456777 4.2905865 1.3097597
v 0.96292746 4.7903585 2.9332486E-16
v 1.604002 3.883742 2.3781061E-16
v 0.66456777 4.2905865 1.3097597
v -0.9394347 3.883742 1.4684538
v 0.115115345 2.3923836 1.4684539
v -0.9275557 2.773623 1.4478787
v -0.9394347 3.883742 1.4684538
v 0.66456777 4.2905865 1.3097597
v 0.115115345 2.3923836 1.4684539
v 0.66456777 4.2905865 1.3097597
v 1.076727 2.3923836 0.91326714
v 0.115115345 2.3923836 1.4684539
v 0.66456777 4.2905865 1.3097597
v 1.604002 3.883742 2.3781061E-16
v 1.076727 2.3923836 0.91326714
v 1.604002 3.883742 2.3781061E-16
v 1.580244 2.773623 1.6983544E-16
v 1.076727 2.3923836 0.91326714
v 1.580244 2.773623 1.6983544E-16
v 1.076727 2.3923836 -0.91326714
v 1.076727 2.3923836 0.91326714
v 1.076727 2.3923836 0.91326714
v -0.10185631 1.8367045 1.1246571E-16
v 0.115115345 2.3923836 1.4684539
v 1.076727 2.3923836 0.91326714
v 1.076727 2.3923836 -0.91326714
v -0.10185631 1.8367045 1.1246571E-16
v 1.076727 2.3923836 -0.91326714
v 0.115115345 2.3923836 -1.4684539
v -0.10185631 1.8367045 1.1246571E-16
v 0.115115345 2.3923836 1.4684539
v -1.4667095 2.3923838 0.5551868
v -0.9275557 2.773623 1.4478787
v 0.115115345 2.3923836 1.4684539
v -0.10185631 1.8367045 1.1246571E-16
v -1.4667095 2.3923838 0.5551868
v -0.10185631 1.8367045 1.1246571E-16
v -1.4667095 2.3923838 -0.5551868
v -1.4667095 2.3923838 0.5551868
v -0.10185631 1.8367045 1.1246571E-16
v 0.115115345 2.3923836 -1.4684539
v -1.4667095 2.3923838 -0.5551868
v 0.115115345 2.3923836 -1.4684539
v -0.9275557 2.773623 -1.4478787
v -1.4667095 2.3923838 -0.5551868
vn -0.0 0.0 1.0
vn -0.0 0.0 1.0
vn -0.0 0.0 1.0
vn -0.0 0.0 1.0
vn 1.0 0.0 0.0
vn 1.0 0.0 0.0
vn 1.0 0.0 0.0
vn 1.0 0.0 0.0
vn -0.0 0.0 -1.0
vn -0.0 0.0 -1.0
vn -0.0 0.0 -1.0
vn -0.0 0.0 -1.0
vn -1.0 0.0 0.0
vn -1.0 0.0 0.0
vn -1.0 0.0 0.0
vn -1.0 0.0 0.0
vn 0.2752294 0.83486146 -0.4767128
vn 0.27525198 0.8348397 -0.47673783
vn 0.27522966 0.8348442 -0.47674298
vn 0.75647724 0.53483665 -0.37641978
vn 0.7564549 0.5348546 -0.37643918
vn 0.7563651 0.5350156 -0.3763911
vn 0.22623135 0.8917635 -0.39188918
vn 0.22625309 0.89175534 -0.39189544
vn 0.22619626 0.89181584 -0.39179054
vn -0.052240282 0.5348489 -0.8433312
vn -0.052213274 0.53500724 -0.84323245
vn -0.05226406 0.5348483 -0.8433302
vn 0.8788482 -0.01869281 -0.4767352
vn 0.8788662 -0.018787546 -0.47669822
vn 0.8788482 -0.01869281 -0.4767352
vn 0.8197641 0.05912677 -0.569641
vn 0.8197833 0.058937415 -0.56963295
vn 0.8197786 0.05903245 -0.5696298
vn 0.4986737 -0.07209741 -0.8637861
vn 0.49871224 -0.07209953 -0.8637638
vn 0.4986737 -0.07209741 -0.8637861
vn 0.08344569 0.0589365 -0.994768
vn 0.08344475 0.059126567 -0.9947568
vn 0.083445214 0.059031535 -0.99476236
vn -0.026608063 -0.018692402 -0.99947125
vn -0.026608063 -0.018692402 -0.99947125
vn -0.026608013 -0.018787736 -0.99946946
vn -0.55045915 0.83486205 0.0
vn -0.55050075 0.83483475 0.0
vn -0.55050075 0.83483475 0.0
vn -0.7042319 0.53485 -0.46689698
vn -0.7042212 0.53484184 -0.46692273
vn -0.7041758 0.5349981 -0.46681207
vn -0.4525086 0.89176 0.0
vn -0.4525086 0.89176 0.0
vn -0.4523937 0.8918183 0.0
vn -0.7042319 0.53485 0.46689698
vn -0.7041758 0.5349981 0.46681207
vn -0.7042212 0.53484184 0.46692273
vn -0.8523042 -0.018692136 -0.52271223
vn -0.85227084 -0.018786771 -0.5227633
vn -0.85224867 -0.018691963 -0.52280277
vn -0.9031969 0.059125975 -0.4251348
vn -0.9032198 0.058936745 -0.4251123
vn -0.90321106 0.059031535 -0.4251176
vn -0.9973973 -0.07210101 0.0
vn -0.9973973 -0.07210101 0.0
vn -0.9973973 -0.07210101 0.0
vn -0.9032198 0.058936745 0.4251123
vn -0.9031969 0.059125975 0.4251348
vn -0.90321106 0.059031535 0.4251176
vn -0.8523042 -0.018692136 0.52271223
vn -0.85224867 -0.018691963 0.52280277
vn -0.85227084 -0.018786771 0.5227633
vn 0.2752294 0.83486146 0.4767128
vn 0.27522966 0.8348442 0.47674298
vn 0.27525198 0.8348397 0.47673783
vn -0.052240282 0.5348489 0.8433312
vn -0.05226406 0.5348483 0.8433302
vn -0.052213274 0.53500724 0.84323245
vn 0.22625309 0.89175534 0.39189544
vn 0.22623135 0.8917635 0.39188918
vn 0.22619626 0.89181584 0.39179054
vn 0.75647724 0.53483665 0.37641978
vn 0.7563651 0.5350156 0.3763911
vn 0.7564549 0.5348546 0.37643918
vn -0.026608063 -0.018692402 0.99947125
vn -0.026608013 -0.018787736 0.99946946
vn -0.026608063 -0.018692402 0.99947125
vn 0.08344475 0.059126567 0.9947568
vn 0.08344569 0.0589365 0.994768
vn 0.083445214 0.059031535 0.99476236
vn 0.4986737 -0.07209741 0.8637861
vn 0.4986737 -0.07209741 0.8637861
vn 0.49871224 -0.07209953 0.8637638
vn 0.8197833 0.058937415 0.56963295
vn 0.8197641 0.05912677 0.569641
vn 0.8197786 0.05903245 0.5696298
vn 0.8788482 -0.01869281 0.4767352
vn 0.8788482 -0.01869281 0.4767352
vn 0.8788662 -0.018787546 0.47669822
vn 0.6035951 -0.7972911 0.0
vn 0.6036557 -0.79724514 0.0
vn 0.6036557 -0.79724514 0.0
vn 0.18672991 -0.92764145 0.3234395
vn 0.18673573 -0.92764074 0.32343832
vn 0.18674433 -0.9276538 0.3233961
vn 0.426456 -0.9045083 0.0
vn 0.426456 -0.9045083 0.0
vn 0.42647064 -0.9045014 0.0
vn 0.18672991 -0.92764145 -0.3234395
vn 0.18674433 -0.9276538 -0.3233961
vn 0.18673573 -0.92764074 -0.32343832
vn -0.30183116 -0.7972854 0.52271783
vn -0.30183074 -0.7972527 0.52276796
vn -0.30178362 -0.79725426 0.52279276
vn -0.21551754 -0.9023128 0.37334126
vn -0.21552214 -0.9023321 0.37329206
vn -0.21552138 -0.9023289 0.3733002
vn -0.3770727 -0.92618364 0.0
vn -0.3770727 -0.92618364 0.0
vn -0.3770727 -0.92618364 0.0
vn -0.21552214 -0.9023321 -0.37329206
vn -0.21551754 -0.9023128 -0.37334126
vn -0.21552138 -0.9023289 -0.3733002
vn -0.30183116 -0.7972854 -0.52271783
vn -0.30178362 -0.79725426 -0.52279276
vn -0.30183074 -0.7972527 -0.52276796
vt 0.36874616 0.024799824
vt 0.36874616 0.0386765
vt 0.24844134 0.024799824
vt 0.24844134 0.0386765
vt 0.24569929 0.024799824
vt 0.24569929 0.03867662
vt 0.12539434 0.024799824
vt 0.12539434 0.03867662
vt 0.12265253 0.024799883
vt 0.12265253 0.03867662
vt 0.0023475885 0.024799883
vt 0.0023475885 0.03867662
vt 0.49179316 0.024799943
vt 0.49179316 0.03867662
vt 0.3714882 0.024799943
vt 0.3714882 0.03867662
vt 0.97706264 0.52523196
vt 0.9190459 0.54169875
vt 0.9821337 0.46513718
vt 0.08217098 0.22951782
vt 0.16001654 0.22977448
vt 0.09189677 0.28903675
vt 0.9821337 0.46513718
vt 0.9190459 0.54169875
vt 0.9045851 0.46550965
vt 0.8640831 0.29722112
vt 0.8566983 0.3570757
vt 0.7863075 0.30052954
vt 0.7486117 0.46396953
vt 0.68572295 0.5406947
vt 0.69063795 0.4805869
vt 0.7486117 0.46396953
vt 0.7927927 0.54188985
vt 0.68572295 0.5406947
vt 0.4081291 0.32714844
vt 0.30476153 0.3573026
vt 0.30476153 0.2969942
vt 0.7554879 0.7795532
vt 0.7079866 0.85633826
vt 0.6478325 0.7774508
vt 0.7079866 0.85633826
vt 0.6508806 0.837505
vt 0.6478325 0.7774508
vt 0.15479696 0.41976327
vt 0.09678024 0.43623
vt 0.159868 0.35966843
vt 0.24232733 0.22951794
vt 0.3201728 0.22977471
vt 0.25205302 0.28903687
vt 0.159868 0.35966843
vt 0.09678024 0.43623
vt 0.0823195 0.36004096
vt 0.07990348 0.22886181
vt 0.07251853 0.28871644
vt 0.0021278262 0.23217034
vt 0.8579867 0.46396947
vt 0.79509795 0.5406947
vt 0.80001295 0.4805869
vt 0.8579867 0.46396947
vt 0.9021677 0.5418899
vt 0.79509795 0.5406947
vt 0.6190666 0.32714844
vt 0.515699 0.35730267
vt 0.515699 0.2969942
vt 0.8658396 0.77955323
vt 0.81833816 0.85633826
vt 0.75818396 0.7774508
vt 0.81833816 0.85633826
vt 0.76123214 0.837505
vt 0.75818396 0.7774508
vt 0.07471883 0.4197632
vt 0.016702116 0.43623006
vt 0.07978985 0.35966837
vt 0.16224921 0.22951788
vt 0.24009478 0.2297746
vt 0.1719749 0.2890368
vt 0.07978985 0.35966837
vt 0.016702116 0.43623006
vt 0.0022414029 0.3600409
vt 0.9441613 0.29722118
vt 0.9367764 0.3570758
vt 0.8663856 0.3005296
vt 0.8452914 0.5704148
vt 0.78240263 0.6471399
vt 0.78731763 0.58703226
vt 0.8452914 0.5704148
vt 0.88947237 0.64833516
vt 0.78240263 0.6471399
vt 0.51359785 0.32714844
vt 0.41023034 0.3573026
vt 0.41023034 0.29699427
vt 0.97619104 0.7795533
vt 0.92868966 0.85633826
vt 0.8685356 0.7774508
vt 0.92868966 0.85633826
vt 0.87158376 0.837505
vt 0.8685356 0.7774508
vt 0.3829522 0.8351545
vt 0.3263654 0.8560115
vt 0.383411 0.77484787
vt 0.3026127 0.35730255
vt 0.22180139 0.32666707
vt 0.30261266 0.29699433
vt 0.383411 0.77484787
vt 0.3263654 0.8560115
vt 0.29822958 0.77560747
vt 0.784058 0.29699433
vt 0.784058 0.35730267
vt 0.7032468 0.3276298
vt 0.5022247 0.85601157
vt 0.55927026 0.7748478
vt 0.5588116 0.8351544
vt 0.5022247 0.85601157
vt 0.47490948 0.7755958
vt 0.55927026 0.7748478
vt 0.62111354 0.32714844
vt 0.7011521 0.2969942
vt 0.7011521 0.3573026
vt 0.3861572 0.7755616
vt 0.47224116 0.7748478
vt 0.41519558 0.85601157
vt 0.47224116 0.7748478
vt 0.47120953 0.8347517
vt 0.41519558 0.85601157

g Tree_5
s 1
usemtl Tree_5
f 3/3/3 2/2/2 1/1/1 
f 3/3/3 4/4/4 2/2/2 
f 7/7/7 6/6/6 5/5/5 
f 7/7/7 8/8/8 6/6/6 
f 11/11/11 10/10/10 9/9/9 
f 11/11/11 12/12/12 10/10/10 
f 15/15/15 14/14/14 13/13/13 
f 15/15/15 16/16/16 14/14/14 
f 19/19/19 18/18/18 17/17/17 
f 22/22/22 21/21/21 20/20/20 
f 25/25/25 24/24/24 23/23/23 
f 28/28/28 27/27/27 26/26/26 
f 31/31/31 30/30/30 29/29/29 
f 34/34/34 33/33/33 32/32/32 
f 37/37/37 36/36/36 35/35/35 
f 40/40/40 39/39/39 38/38/38 
f 43/43/43 42/42/42 41/41/41 
f 46/46/46 45/45/45 44/44/44 
f 49/49/49 48/48/48 47/47/47 
f 52/52/52 51/51/51 50/50/50 
f 55/55/55 54/54/54 53/53/53 
f 58/58/58 57/57/57 56/56/56 
f 61/61/61 60/60/60 59/59/59 
f 64/64/64 63/63/63 62/62/62 
f 67/67/67 66/66/66 65/65/65 
f 70/70/70 69/69/69 68/68/68 
f 73/73/73 72/72/72 71/71/71 
f 76/76/76 75/75/75 74/74/74 
f 79/79/79 78/78/78 77/77/77 
f 82/82/82 81/81/81 80/80/80 
f 85/85/85 84/84/84 83/83/83 
f 88/88/88 87/87/87 86/86/86 
f 91/91/91 90/90/90 89/89/89 
f 94/94/94 93/93/93 92/92/92 
f 97/97/97 96/96/96 95/95/95 
f 100/100/100 99/99/99 98/98/98 
f 103/103/103 102/102/102 101/101/101 
f 106/106/106 105/105/105 104/104/104 
f 109/109/109 108/108/108 107/107/107 
f 112/112/112 111/111/111 110/110/110 
f 115/115/115 114/114/114 113/113/113 
f 118/118/118 117/117/117 116/116/116 
f 121/121/121 120/120/120 119/119/119 
f 124/124/124 123/123/123 122/122/122 

