# Created by DisUnity v0.3.4
v -1.6291707 0.04567859 -0.117687896
v -1.6186506 -8.749738E-18 0.14289406
v 1.6205744 0.17356372 0.11750145
v 1.6205744 0.17356372 0.11750145
v 1.6098938 0.16298242 -0.14289536
v -1.6291707 0.04567859 -0.117687896
v -1.6218284 0.12711957 -0.12195599
v 1.6171262 0.24442326 -0.1417313
v 1.6291707 0.25500455 0.11866291
v 1.6291707 0.25500455 0.11866291
v -1.6100326 0.08144083 0.13864574
v -1.6218284 0.12711957 -0.12195599
v 1.6291707 0.25500455 0.11866291
v -1.6186506 -8.749738E-18 0.14289406
v -1.6100326 0.08144083 0.13864574
v 1.6291707 0.25500455 0.11866291
v 1.6205744 0.17356372 0.11750145
v -1.6186506 -8.749738E-18 0.14289406
v 1.6171262 0.24442326 -0.1417313
v 1.6205744 0.17356372 0.11750145
v 1.6291707 0.25500455 0.11866291
v 1.6098938 0.16298242 -0.14289536
v -1.6218284 0.12711957 -0.12195599
v 1.6098938 0.16298242 -0.14289536
v 1.6171262 0.24442326 -0.1417313
v -1.6218284 0.12711957 -0.12195599
v -1.6291707 0.04567859 -0.117687896
v 1.6098938 0.16298242 -0.14289536
v -1.6218284 0.12711957 -0.12195599
v -1.6100326 0.08144083 0.13864574
v -1.6186506 -8.749738E-18 0.14289406
v -1.6291707 0.04567859 -0.117687896
vn 0.051321108 -0.9833287 -0.17444408
vn 0.05132111 -0.9833287 -0.17444408
vn 0.051321104 -0.9833288 -0.17444408
vn 0.036467716 -0.9985703 0.039081443
vn 0.036467716 -0.9985703 0.039081443
vn 0.036467716 -0.9985703 0.039081443
vn -0.03640256 0.99858 -0.038894206
vn -0.036402557 0.99858 -0.038894203
vn -0.03640256 0.99858 -0.038894206
vn -0.051608212 0.9832708 0.17468554
vn -0.051608205 0.9832708 0.17468554
vn -0.05160821 0.9832708 0.17468555
vn 0.0033886489 0.051735673 0.9986551
vn 0.003388649 0.051735677 0.9986551
vn 0.003388649 0.051735673 0.9986551
vn 0.008650866 -0.015172356 0.9998474
vn 0.008650867 -0.015172356 0.9998474
vn 0.008650866 -0.015172356 0.9998474
vn 0.9936713 -0.10429007 -0.041723855
vn 0.9936713 -0.104290076 -0.04172386
vn 0.9936713 -0.10429006 -0.04172386
vn 0.99543494 -0.08786936 -0.03725883
vn -0.006643602 0.014881348 -0.9998672
vn -0.006643603 0.014881351 -0.9998672
vn -0.006643602 0.014881348 -0.9998672
vn -0.0058956295 -0.05180439 -0.9986399
vn -0.0058956295 -0.051804386 -0.9986399
vn -0.005895631 -0.05180439 -0.9986399
vn -0.99206173 0.10831265 0.06388987
vn -0.99206173 0.10831265 0.06388987
vn -0.99206173 0.10831265 0.063889876
vn -0.99410903 0.09257755 0.05636209
vt 0.644405 0.044389248
vt 0.64383364 0.05854243
vt 0.46789968 0.057163298
vt 0.46789968 0.057163298
vt 0.46847975 0.04302007
vt 0.644405 0.044389248
vt 0.36416554 0.05732131
vt 0.18824637 0.058395326
vt 0.18759215 0.044252455
vt 0.18759215 0.044252455
vt 0.3635248 0.043167114
vt 0.36416554 0.05732131
vt 0.00242275 0.01046133
vt 0.17921793 0.0032105446
vt 0.17858493 0.0076134205
vt 0.00242275 0.01046133
vt 0.0030546188 0.0060584545
vt 0.17921793 0.0032105446
vt 0.9465734 0.30465865
vt 0.9606533 0.3008101
vt 0.96071637 0.30523348
vt 0.9465102 0.30023527
vt 0.51627314 0.010280013
vt 0.69174075 0.005344987
vt 0.69230676 0.009749532
vt 0.51627314 0.010280013
vt 0.5157012 0.0058757067
vt 0.69174075 0.005344987
vt 0.9698193 0.2846079
vt 0.9841867 0.28433692
vt 0.9852589 0.28863442
vt 0.9708925 0.28890526

g WoodenPlank_2
s 1
usemtl WoodenPlank_2
f 3/3/3 2/2/2 1/1/1 
f 6/6/6 5/5/5 4/4/4 
f 9/9/9 8/8/8 7/7/7 
f 12/12/12 11/11/11 10/10/10 
f 15/15/15 14/14/14 13/13/13 
f 18/18/18 17/17/17 16/16/16 
f 21/21/21 20/20/20 19/19/19 
f 20/20/20 22/22/22 19/19/19 
f 25/25/25 24/24/24 23/23/23 
f 28/28/28 27/27/27 26/26/26 
f 31/31/31 30/30/30 29/29/29 
f 29/29/29 32/32/32 31/31/31 

