# Created by DisUnity v0.3.4
v -1.5088466 0.038943905 -0.11394443
v -1.5187172 0.035734143 0.1175877
v 1.5219353 -1.7732383E-8 -0.11758868
v 1.512171 4.9865234E-4 0.113960974
v 1.5185555 0.07619484 -0.1161221
v -1.5219351 0.11192943 0.114498906
v -1.5122176 0.11513891 -0.1170287
v 1.5089664 0.07669351 0.11543501
v 1.5089664 0.07669351 0.11543501
v -1.5187172 0.035734143 0.1175877
v -1.5219351 0.11192943 0.114498906
v 1.5089664 0.07669351 0.11543501
v 1.512171 4.9865234E-4 0.113960974
v -1.5187172 0.035734143 0.1175877
v 1.5185555 0.07619484 -0.1161221
v 1.512171 4.9865234E-4 0.113960974
v 1.5089664 0.07669351 0.11543501
v 1.5219353 -1.7732383E-8 -0.11758868
v -1.5122176 0.11513891 -0.1170287
v 1.5219353 -1.7732383E-8 -0.11758868
v 1.5185555 0.07619484 -0.1161221
v -1.5122176 0.11513891 -0.1170287
v -1.5088466 0.038943905 -0.11394443
v 1.5219353 -1.7732383E-8 -0.11758868
v -1.5219351 0.11192943 0.114498906
v -1.5088466 0.038943905 -0.11394443
v -1.5122176 0.11513891 -0.1170287
v -1.5187172 0.035734143 0.1175877
vn -0.012864392 -0.9998135 -0.014408986
vn -0.012864393 -0.9998135 -0.014408986
vn -0.012864392 -0.9998135 -0.014408986
vn -0.011622676 -0.9999311 0.001663352
vn 0.012842852 0.99981385 0.014398636
vn 0.012842852 0.99981385 0.014398634
vn 0.012842853 0.99981385 0.014398636
vn 0.011625271 0.9999311 -0.0016720095
vn 1.6236771E-4 0.040511496 0.99917907
vn 1.623677E-4 0.040511496 0.99917907
vn 1.6236771E-4 0.040511496 0.99917907
vn 9.719811E-4 -0.019301133 0.99981326
vn 9.719811E-4 -0.019301131 0.99981326
vn 9.719811E-4 -0.019301133 0.99981326
vn 0.99829954 0.041187808 0.04125194
vn 0.99829954 0.041187808 0.04125194
vn 0.99829954 0.041187808 0.04125194
vn 0.9981717 0.043468017 0.041998565
vn 5.466669E-4 0.019268421 -0.9998142
vn 5.466669E-4 0.019268421 -0.9998142
vn 5.4666685E-4 0.01926842 -0.9998142
vn -0.0017220973 -0.04052138 -0.99917716
vn -0.0017220972 -0.040521376 -0.99917716
vn -0.0017220973 -0.04052138 -0.99917716
vn -0.9980415 -0.0458772 -0.042524673
vn -0.9980415 -0.0458772 -0.04252468
vn -0.9980415 -0.0458772 -0.04252468
vn -0.99810314 -0.043903198 -0.043158885
vt 0.7539133 0.026037991
vt 0.7544495 0.03861326
vt 0.5893007 0.025839984
vt 0.5898311 0.038416266
vt 0.7357894 0.5575333
vt 0.90092933 0.5450075
vt 0.9004016 0.55758256
vt 0.73631024 0.54495656
vt 0.1819377 0.008436561
vt 0.34638202 0.006211877
vt 0.34655678 0.010350227
vt 0.1819377 0.008436561
vt 0.18176365 0.004298091
vt 0.34638202 0.006211877
vt 0.98447406 0.5142627
vt 0.99697065 0.5101514
vt 0.99705076 0.5142898
vt 0.9843943 0.5101242
vt 0.3487544 0.010451019
vt 0.51355016 0.0041972995
vt 0.5133666 0.00833571
vt 0.3487544 0.010451019
vt 0.34893763 0.0063124895
vt 0.51355016 0.0041972995
vt 0.9850073 0.5278609
vt 0.9974148 0.5238968
vt 0.9975823 0.5280353
vt 0.98483956 0.52372247

g WoodenPlank_3
s 1
usemtl WoodenPlank_3
f 3/3/3 2/2/2 1/1/1 
f 2/2/2 3/3/3 4/4/4 
f 7/7/7 6/6/6 5/5/5 
f 6/6/6 8/8/8 5/5/5 
f 11/11/11 10/10/10 9/9/9 
f 14/14/14 13/13/13 12/12/12 
f 17/17/17 16/16/16 15/15/15 
f 16/16/16 18/18/18 15/15/15 
f 21/21/21 20/20/20 19/19/19 
f 24/24/24 23/23/23 22/22/22 
f 27/27/27 26/26/26 25/25/25 
f 26/26/26 28/28/28 25/25/25 

